<?xml version="1.0" encoding="utf-8"?>
<!-- Generator: Adobe Illustrator 22.0.1, SVG Export Plug-In . SVG Version: 6.00 Build 0)  -->
<svg version="1.1" id="Layer_4" xmlns="http://www.w3.org/2000/svg" xmlns:xlink="http://www.w3.org/1999/xlink" x="0px" y="0px"
	 viewBox="0 0 4500 4000" style="enable-background:new 0 0 4500 4000;" xml:space="preserve">
<style type="text/css">
	.st0{fill:#F1EDFF;}
	.st1{fill:#EDE8FF;}
	.st2{fill:#E2D9FF;}
	.st3{fill:#6563A3;}
	.st4{fill:#F75167;}
	.st5{fill:#F74057;}
	.st6{fill:#F76376;}
	.st7{fill:#2E2D80;}
	.st8{fill:#CFCFFF;}
	.st9{fill:#9E9BFF;}
	.st10{fill:#FDC5A7;}
	.st11{fill:#F2B594;}
	.st12{fill:#E6E6E6;}
	.st13{fill:#7879FF;}
	.st14{fill:#6667FF;}
	.st15{fill:#8F90FF;}
	.st16{fill:#F9F2FF;}
</style>
<g>
	<path class="st0" d="M627.3,2986.8c-73.7,99.5-85.9,261.2-50.1,393c22.5,83,61.1,155.5,107.4,218.8h3470.2
		c-17.2-45.5-39.6-88.5-63.7-125.8c-73.6-113.6-167.6-214.4-198.7-359c-65.8-305.6,180.9-586.3,179.7-904.4
		c-0.6-163.3-70.9-318.6-170.5-412.4s-225.2-130.2-346.7-121.7c-112.1,7.8-221.4,51.4-333.4,59.9c-112,8.5-235.2-26.3-306.1-142.9
		c-78.8-129.5-70.2-314.8-64.9-481.8c5.3-167-5.4-359.3-104.5-460.6c-74.3-75.9-175.8-75.9-269-69.9
		c-145.7,9.4-294.1,26.2-429,100.8s-256.3,216.3-297.2,404.3c-10,45.8-17,97.6-45.1,126.6c-19.4,20-45.2,24.6-69.6,26.7
		c-161.8,13.8-320.8-52.7-481.7-78.7c-161-26-342.3-1.1-453.8,156.9c-97.8,138.6-117.8,351.7-84.8,537.4
		c33,185.7,111.4,350.3,191.2,508.3c53.1,105.2,110,233,75.3,351.3C841.6,2851.5,705.3,2881.5,627.3,2986.8z"/>
	<g>
		<path class="st1" d="M1011.3,3448.7c4.7,10.3,9.5,20.5,14.2,30.8c12.5,26.6,32.3,42.3,53.3,42.3h2796.8
			c85.2,0,89.5-199.2,4.5-206.9c-45.9-4.2-102,10.4-170.3,56.2c-4.6,3.1-7.9-8.4-4.7-14.4c44.4-81.6,22.2-221.3-25.1-305
			c-107.8-191.2-322.2-188.9-433.6-7.4c-4.1,6.7-11.2,0.1-9.3-8.8c28.6-131.1,35.7-276.1,3.5-404.2
			c-36.1-143.6-129.5-256.7-227.7-243.8c-43.4,5.7-84.4,34.4-122.2,68.4c-56,50.6-110.5,122.6-130.7,216.2
			c-1.9,8.7-9.9,7.5-10.7-1.6c-17.5-197.5-45.8-399.3-126.6-551.7c-87.2-164.4-254.8-242.7-363.1-112.9
			c-40.6,48.7-67.9,119.3-91.8,190.2c-34.2,101.7-54.4,218.3-87.4,319.1c-2.4,7.4-9.4,5.7-10.4-2.4
			c-11.3-92.9-38.9-167.3-79.9-240.3c-36.3-64.6-76.5-125.9-125.5-164.9c-111.4-88.7-225.1-7.7-281.4,153.7
			c-49.2,141.3-93.3,387-39.4,536.8c-79.2-219.8-162.6-295.9-331-305.2c-0.3,0-0.5,0-0.8,0c-91.5-4.8-185.7,34.4-260.9,117.1
			c-77.7,85.4-91.5,191.1-82.9,337.3C879.2,3132,942.4,3298.2,1011.3,3448.7z"/>
		<path class="st2" d="M2372.6,1616.7c8.1,70.1,6.5,139.1-1.4,207.5c-0.9,7.6-1.8,15.1-2.8,22.7c-4.4,33-10.2,65.7-16.9,98.5
			c-29.1,141.8-76,281.9-107.7,424.6c-2.2,9.7-4.3,19.5-6.3,29.2c-2.9,13.8-5.5,27.7-8,41.5c-35.2,195.9-43.3,399.4-53.8,602.7
			c-2,39.7-4.2,79.4-6.7,119.1v0c-1.5,24.4-3.1,48.8-4.9,73.1v0c-0.6,7.9-1.2,15.7-1.8,23.6c-5.5,70.4-12.6,140.4-22.5,209.7
			c-44.5-23.2-42.5-124.9-36.3-207.3c2.8-37.2,6.5-70.4,7.1-90.8c8.2-254.8-31.8-509-82.1-759.3c-7.7-38.4-16-76.7-25.2-114.8
			c0,0,0,0,0,0c-9.8-40.6-20.8-80.9-33.2-120.8c-2.3-7.4-4.7-14.8-7.1-22.1c-1.7-5.1-3.4-10.1-5.1-15.2v0
			c-23-67.9-49.7-134.8-64.1-205.1c-19.2-93.1-16.2-187.7-4-282.6c0.7-5.8,1.5-11.6,2.4-17.4c11.1-78.5,28-157.1,43.6-235.3
			c1.2-6.2,2.4-12.3,3.7-18.5c2.8-14.5,5.6-28.9,8.3-43.3c3.6-19.7,7.1-39.5,10.2-59.3c0.9-5.8,1.8-11.6,2.7-17.3
			c23.3-154.2,29.3-311.5-9-461c-1.6-6.3-3.3-12.7-5.1-19v0c-2.8-10-5.6-20-8.5-30c-9.1-32.3-17.8-64.6-21.1-98
			c-0.5-5.6-0.9-11.3-1.2-16.9c29.5,11.5,59,22.9,88.5,34.6c-27.9-37-55.8-74.1-83.7-111.1c4-25.3,10-50.5,17.2-75.1
			c0.7-2.2,1.3-4.5,2-6.7c0.9-2.8,1.7-5.6,2.6-8.5c27.4-85.8,78.5-174.5,165.6-198.4c1.6-0.4,3.2-0.9,4.9-1.3c4.5-1.1,9-2,13.5-2.6
			c36-5.5,72.8,1.3,106.1,16.6c4.1,1.9,8.2,4,12.2,6.1c23.4,12.6,44.6,29.5,61.8,49.3c20.5,23.4,36.2,50.2,48.1,78.9
			c1.9,4.5,3.7,9.1,5.4,13.7c12.8,34.7,20.4,71.7,24.5,108.6c0.9,8,1.6,16.1,2.2,24.1c-11.8,9.3-23.5,18.5-35.4,27.7
			c12.3-1.4,24.5-2.8,36.8-4.2c6,141.4-28.7,283.5-54.2,425.2c-1.4,7.9-2.8,15.7-4.2,23.6c-10.5,60.6-18.7,121.2-20.9,181.5
			c-12.1,9.5-24.2,19-36.4,28.4c11.9-1.4,23.9-2.7,35.8-4.1c-0.2,30.5,1.2,61,4.9,91.4c0.7,5.6,1.4,11.3,2.3,16.9
			c0.6,4,1.2,8,1.9,12c10.9,64.8,32.5,127.3,45.4,191.7c3.1,15.5,5.7,30.9,7.8,46.2c0,0,0,0,0,0
			C2371.2,1605.2,2371.9,1610.9,2372.6,1616.7z"/>
		<path class="st2" d="M1961.8,2923.2c-0.5,31.6-27.5,55.4-50.4,77.2c-79.1,75.5-130.9,178.1-148,286v0c-2.3,14.5-4,29-5,43.6v0
			c-0.6,8-1,16-1.1,24c-0.8,31.8,1.6,63.6,7.1,95c-18.9-52.5-38.4-105.8-63-155.9c-23.2-47.3-51-91.8-87.1-130.2
			c-30.6-32.5-65.8-59.4-102.5-84.2c-21.7-14.7-44-28.8-66.2-42.9c-20.9-13.4-41.8-26.8-62-41c-6.3-4.4-12.3-8.8-18.2-13.3
			c-17.1-13-32.7-26.6-47.7-40.8c-12.3-11.7-24.1-23.8-35.9-36.5c0,0,0,0,0,0c-8.9-9.6-17.8-19.5-26.8-29.8c-2.6-2.9-5.1-5.9-7.5-9
			c-4.3-5.4-8.4-11.1-12.1-16.9c0,0,0,0,0-0.1c-7.5-11.4-13.9-23.5-19.2-36.1c0,0,0,0,0-0.1c-4.4-10.5-8.1-21.2-10.9-32.2
			c-0.7-2.8-1.4-5.6-2-8.4c-1.4-6.7-2.4-13.6-2.7-20.4c0,0,0,0,0,0c-0.3-7.3,0.2-14.6,1.8-21.7c0.3-1.3,0.6-2.6,1-3.8
			c5.1-17.7,19.3-33.6,37.5-36.5c4-0.6,8.2-0.7,12.6-0.4c52.5,3.9,129.2,71.6,162.6,100.1c45.2,38.5,66.1,70.4,131.7,67.6
			c5.7-0.2,12-1.1,15.4-5.7c3.8-5.2,1.8-12.6-0.6-18.6c-15.9-39.5-45.6-55.9-78.2-81.6c-37.7-29.7-75.1-59.8-111.4-91.3
			c-39.8-34.4-78.6-70.5-114.5-109.2c-17-18.3-33.4-37.3-48.9-56.9c-11-13.9-21.5-28.2-31.5-42.8c-6.8-9.9-13.3-20.6-18-31.8
			c-4.3-10.3-7.1-21-6.9-31.8c0.1-4,0.5-8.1,1.4-12.1c0.3-1.2,0.6-2.4,1-3.6c3.1-9.8,9.5-18.8,18.9-22.6c9.3-3.8,19.9-2.1,29.7,0.3
			c79.2,18.7,147,68.3,210.9,118.7c29.7,23.4,64.9,48.7,101.9,40.5c-1.3-38.2-22.5-72.9-47.4-101.9
			c-59.9-69.7-142.2-115.6-213.6-173.4c-71.4-57.8-136.1-137.1-136.4-229.1c0-6.8,0.4-13.7,1.5-20.6c0.9-5.6,2.2-11.2,4-16.5
			c3.6-10.5,9.3-19.9,17.9-27c49.1-40.7,162.5,35.1,198.1,70c33.3,32.7,57.4,75.1,95.8,101.7c6.3,4.3,13.2,8.3,20.8,8.6
			c7.6,0.3,15.9-4,17.7-11.5c1.3-5.6-1.1-11.3-3.6-16.4c-44.3-92.5-113.1-189.8-196.8-249.9c-95.9-68.8-189.4-145.9-249.1-247.6
			c-12.4-21.1-23.3-46.6-16.9-69.4c0.7-2.6,1.7-5.1,2.9-7.6c0.9-1.9,1.9-3.6,3-5.3c12.3-18.6,37.5-26.9,60.1-24.3
			c24.6,2.8,46.8,15.8,67.7,29.3c56.4,36.5,109,78.4,160.7,121.3c28.8,24,63.6,49.9,100.1,41.2c-9.3-59.8-51.6-109.4-98.6-147.5
			c-47-38.1-100.4-68.2-144.9-109.2c-49.5-45.5-87-103.9-107.8-167.8c-3.2-9.7-5.9-19.8-7.7-30c3.6,1.4,7.2,2.8,10.8,4.2
			c13.7,5.3,27.7,10.7,41.6,16.2l-51.1-67.9c0.4-1.4,0.9-2.8,1.4-4.3c19.3-54.1,68.7-42,92.1-3.3c19,31.3,42.8,59.3,68.2,85.6
			c15.9,16.5,54.9,67.4,77.7,64.6c4.7-32.6-32.2-79.5-49-106.9c-57.2-92.7-113.2-200.4-133.9-308.6c-7.4-38.4-7.4-78.8,3.6-116.5
			c2.2-7.5,4.8-14.9,9.2-21.4c11-16.1,32.1-23.3,51.5-21.7c1.1,0.1,2.2,0.2,3.3,0.3c5.4,0.7,10.6,1.9,15.8,3.6
			c12.3,4,23.9,10.4,34.7,17.7c22.5,15.1,41.7,32.7,58.4,52.2c25.6,30,45,64.5,60.5,101.2c2.7,6.4,5.3,12.9,7.8,19.4
			c15.4,40.6,26.6,83.3,36.6,125.1c10.1,42.2,30.6,220.1,88.4,222.9c30,1.4,46.3-32.4,74.9-35.6c20.6-2.3,49,7.6,64.5,24.3
			c3.4,3.7,6.2,7.6,8.1,11.9c0.3,0.7,0.6,1.4,0.9,2c6.4,16.6,3,35.3-1.8,52.4c-12.7,45.2-37.9,84.1-53.8,127.7
			c-17,46.5-23.8,100.2-27.1,149.3c-0.6,9.4-1,19.2,2.7,27.8c3.7,8.6,12.7,15.8,22,14.2c7.7-1.3,13.3-7.8,18.1-13.9
			c15.8-19.8,38.3-64.5,63.7-70.9c45.6-11.4,67.2,41.3,68.2,77.1c1.3,47.4-29.8,106.6-43.6,151c-13.8,44.3-69.7,158.6-25.1,192.8
			c24.4-33.8,63.7-188.8,130.5-148.5c3.4,2,6.8,4.6,10.4,7.7c0.4,0.3,0.7,0.6,1.1,1c16.9,15.8,19.9,41.6,19.3,64.8
			c-1.3,51.6-14.8,102.8-38.7,148.5c-7.4,14.2-15.9,27.9-25.3,40.9c-24,33.1-54.8,63.4-64.3,103.1c-1,4.3-1.6,9.6,1.7,12.6
			c2.8,2.6,7.3,2.3,11.1,1.5c25.1-6,41.2-29.5,56.7-50c15.5-20.6,36.8-41.7,62.5-39.4c14.5,1.3,25.9,9.8,33.9,21.6
			c3.4,5,6.1,10.6,8.3,16.5c4.4,12.1,6.3,25.6,5.6,38c-4.5,73.9-26.2,131.3-64.3,194.4c-25.6,42.4-55.6,84.4-63.2,133.4
			c-2.8,18.4,1.8,42.7,20.1,46.2c8,1.5,16.2-1.8,23.3-5.9c22.6-12.7,40.9-32.4,64.5-43.1c12-5.5,26.6-7.5,39.5-5.1
			c4.7,0.9,9.3,2.4,13.4,4.5c6.7,3.4,12.2,8.6,15.7,15.6c5.4,10.8,4.7,23.6,2.4,35.4c-6.5,32.6-24.7,61.4-42.5,89.5
			c-25.9,40.8-51.9,81.6-77.8,122.4c-14.2,22.3-28.6,45.2-34.8,70.9c-6.2,25.7-5.8,49.2,12.2,68.6c18.8-22.2,38-44.8,62.1-61.1
			c24.1-16.4,54.3-26,82.7-19.6c13.8,3.1,26.8,10.7,36.4,21.1c3.2,3.4,6,7.1,8.3,11C1959,2903,1962,2912.9,1961.8,2923.2z"/>
		<path class="st2" d="M3422.4,1401.7c-71.7,111.8-184.2,196.6-299.5,272.2c-100.7,66-183.4,173-236.6,274.6c-3,5.7-5.9,11.9-4.3,18
			c2.1,8.1,12.1,13,21.3,12.6c9.1-0.4,17.5-4.7,25-9.5c46.2-29.2,75.1-75.8,115.1-111.7c42.3-38,176-119.8,236.1-78.4
			c0.7,0.5,1.4,1,2,1.5c3,2.3,5.8,4.8,8.2,7.5c15.2,16.7,19.9,40.6,19.8,62.8c-0.4,101-78.1,188.2-164,251.7
			c-85.9,63.6-184.8,114-256.8,190.6c-29.9,31.8-55.4,70-57,112c44.4,9,86.7-18.8,122.5-44.5c76.8-55.3,158.3-109.9,253.5-130.4
			c8.4-1.8,17.3-3.3,25.8-2.5h0c3.4,0.3,6.7,1,10,2.2c1.9,0.7,3.7,1.6,5.3,2.6c9.6,5.7,15.9,15.8,18.5,26.2
			c7.4,29.2-9.8,58.5-28.2,83.2c-27.8,37.1-58.8,72-92.1,105.1c-44.4,44.2-92.7,85.3-142.2,124.5c-43.6,34.5-88.6,67.7-133.9,100.3
			c-39.2,28.3-74.9,46.3-94,89.7c-2.9,6.6-5.4,14.7-0.7,20.5c4,5,11.7,6,18.5,6.3c78.9,3.1,103.9-31.9,158.3-74.3
			c43.6-33.9,148.1-118.5,210.6-109.5c3.6,0.5,7.1,1.4,10.4,2.7c4.4,1.7,8.6,3.9,12.4,6.7c10.5,7.6,18.4,18.8,22.2,30.7
			c6.2,19.4,3.3,40.3-2.3,59.9c-10.8,38.2-31.5,74-59.9,103.7c-48.5,50.6-93.9,93.4-154.6,132.4c-93.6,60-198.2,107.8-277.4,184.8
			c-40.5,39.3-72.2,84.5-99,132.6c-32.3,58.1-57.3,120.5-81.5,181.9c11.8-60.8,11.4-123.2,0.2-184c-21.6-116.6-83.3-227.3-177-309
			c-27.5-24-60-50.1-60.5-84.9c-0.5-32,29.4-60,63.6-67.1c34.2-7.1,70.4,3.6,99.4,21.6c29,18,52,42.7,74.6,67.2
			c21.7-21.3,22.2-47.1,14.7-75.4s-24.8-53.4-41.9-77.9c-31.2-44.9-62.4-89.7-93.6-134.6c-21.4-30.8-43.2-62.5-51.1-98.3
			c-2.8-13-3.6-27.1,2.9-38.9c1.4-2.5,3-4.8,4.9-6.9c3-3.4,6.7-6.2,10.7-8.5c18.5-10.5,45.9-9.7,66.9-1
			c28.4,11.8,50.4,33.5,77.5,47.4c8.6,4.4,18.3,8.1,28,6.4c22-3.8,27.6-30.5,24.2-50.8c-9.1-53.8-45.2-100-76-146.6
			c-45.7-69.4-71.9-132.4-77.3-213.6c-1.7-25.3,7.5-54.3,26.6-70.7c3.5-3,7.4-5.6,11.5-7.7c5.8-2.9,12.3-4.7,19.3-5.3
			c30.8-2.5,56.5,20.7,75.1,43.3c15,18.2,30.5,38.5,51.7,49.1c5.1,2.6,10.6,4.6,16.5,5.9c4.5,1,9.9,1.3,13.3-1.6
			c3.9-3.3,3.3-9.1,2-13.8c-11.5-43.6-48.5-77-77.3-113.3c-47.8-60.2-75-133.8-77-208.2c-0.6-22.4,2.1-47,16.5-64.4
			c2.4-2.8,5-5.5,8-7.9c1.1-0.9,2.2-1.7,3.2-2.5c85.9-63.4,135.7,118.6,166.1,157.2c53.7-37.6-13.6-163.3-30.1-211.9
			c-16.6-48.8-54-113.9-52.4-165.9c1.2-39.3,27.1-97.2,82-84.7c30.6,7,57.7,56.2,76.6,77.9c5.9,6.7,12.5,13.9,21.8,15.3
			c11.1,1.7,21.9-6.1,26.4-15.6c4.4-9.5,4-20.2,3.2-30.6c-4-54-12.1-113-32.6-164.1c-19.2-47.9-49.4-90.7-64.7-140.3
			c-5.8-18.8-9.9-39.3-2.2-57.6c2.8-6.7,7.7-12.8,13.9-18.2c3.3-2.9,7.1-5.6,11.1-8c18.9-11.6,44-17.8,63.4-15.8
			c34.3,3.5,53.9,40.7,90,39.1c69.5-3.1,94.2-198.6,106.3-245c3.5-13.2,7-26.5,10.8-39.8c14,12.3,28.2,24.8,42.2,37.3l18.2,16.2
			l-37.7-124v0c21.3-58.2,49.8-113.8,92.6-159.8c20-21.4,43.1-40.8,70.2-57.4c19.5-12,41.3-22,64.7-23.7c4.5-0.3,9-0.3,13.5,0.1h0
			c4.8,0.4,9.6,1.2,14.2,2.4c13.8,3.6,26.2,10.7,34.2,21.4c5.3,7.1,8.4,15.3,11.1,23.5c13.2,41.5,13.1,85.8,4.3,128
			c-7.3,34.7-18.2,69.4-31.6,103.6c-30.1,23.6-59.9,47.3-90.2,70.8c20.7-2.3,41.3-4.7,62-7c-29.4,60.3-65,118.3-101.2,171.8
			c-20.3,30-64.5,81.6-58.9,117.4c27.4,3.1,74.2-52.9,93.4-71c30.5-28.9,59.2-59.6,82-94.1c27-40.8,82.6-54.7,107.6-3.5l0,0
			c1.1,2.2,2.1,4.6,3.1,7.1c1.1,2.8,2,5.5,2.7,8.4c7.1,26.5,0.7,55.1-8.7,81.4c-25,70.2-70.1,134.4-129.6,184.4
			c-53.6,45-117.7,78.1-174.2,120c-56.5,41.9-107.3,96.4-118.5,162.1c43.8,9.6,85.6-18.9,120.3-45.3
			c62.1-47.2,125.4-93.2,193.1-133.3c25-14.8,51.7-29.1,81.3-32.2c18.4-1.9,38.3,1.6,53.7,10.5l0.1,0c4.1,2.3,7.9,5.1,11.2,8.2
			c4.4,4,8.1,8.7,10.8,13.9C3453.3,1344,3438.9,1375.9,3422.4,1401.7z"/>
		<path class="st2" d="M960.1,3166.4c-8.2-1.4-16.5-2.6-25-3.5c-10.3-1.1-20.8-1.8-31.5-2.3c-77.1-3.5-162.1,6.1-231.1-9.1
			c-25.8-5.7-51.1-12.8-75.3-21.9c-4.7-1.8-9.4-3.6-14.1-5.6c-50.8-21.1-95.8-51.5-129.4-95.4c-6.2-8.1-12-16.6-17.4-25.5
			c-2.4-3.9-4.7-7.9-7-11.9c-36.8-65.5-57.6-149-78.2-231.9c0.3-0.1,0.5-0.2,0.8-0.2c5.5-1.7,11-3.3,16.4-4.8
			c59.5-16.4,113.3-19.4,161.6-12.3c4.6,0.7,9.1,1.4,13.6,2.3c24.2,4.6,47,11.7,68.3,21c4.5,1.9,8.9,4,13.2,6.1
			c11.6,5.6,22.7,11.9,33.4,18.7c34.7,25.1,66,54.1,95.1,85.8c5.3,5.7,10.5,11.6,15.6,17.5c19.4,22.3,37.8,45.9,55.6,70.2
			c6.3,8.6,12.5,17.3,18.7,26.1c11.8,16.8,23.3,33.8,34.7,51c25.8,38.9,50.9,78.6,76.7,117.9
			C956.7,3161.2,958.4,3163.8,960.1,3166.4z"/>
		<g>
			<g>
				<g>
					<path class="st2" d="M4020.8,1525.5c2.8-34.2-4-70.6-25.8-97.1c-5.1-6.2-11.1-11.9-18.6-14.7s-16.7-2.2-22.6,3.1
						c-7.8,7-7.9,19.1-7,29.5c4,46.4,14.2,92.4,30.2,136.1c7.2,19.7,15.3,50.2,27,16.7C4012.2,1575.4,4018.8,1550.5,4020.8,1525.5z"
						/>
				</g>
				<g>
					<path class="st2" d="M4119.8,1654.8c3.7-8.7,7.3-17.9,5.9-27.2c-1.3-9.3-9.4-18.3-18.8-17.2c-4.2,0.5-8,2.9-11.4,5.5
						c-33.8,25.1-51.1,66.2-65.6,105.8c-12.7,34.7-38.4,83.3-37.4,120.2C4049.5,1805.9,4094.1,1715.1,4119.8,1654.8z"/>
				</g>
				<g>
					<path class="st2" d="M3883.1,1568c-4.1-2.5-8.5-5-13.3-5.4c-7.7-0.6-15.2,4.4-18.9,11.2c-3.7,6.8-4.1,15-2.9,22.6
						c2.2,13.3,9.1,25.3,16.3,36.6c35.6,55.8,83.6,105,131.7,150.3c-5.2-53.5-14.3-102.8-44.3-148.1
						C3934.1,1608.2,3910.6,1585,3883.1,1568z"/>
				</g>
				<g>
					<path class="st2" d="M4143.7,1881.1c4.3-7.4,8.5-15.1,8.9-24.2c0.4-9-3.8-19.8-12.6-25.8c-9-6.2-20.3-6.1-29.2-3.3
						c-19.1,5.9-31.2,21.4-41.8,36.7c-38.9,56.5-79.8,107-100,175.7c53.4-15.3,81.8-45.2,116.5-81.8
						C4107.7,1934.9,4127.3,1909,4143.7,1881.1z"/>
				</g>
				<g>
					<path class="st2" d="M3919.6,1800.8c-7.9-13.8-16.6-27.3-27.8-38.7c-6.9-7-15.1-13.3-24.8-15.4c-9.7-2-20.9,1.3-25.9,9.8
						c-4,6.8-3.3,15.3-2,23.1c6.8,40.8,26.2,77.6,47.4,112.6c10.8,17.9,22.4,35.3,33.4,53.1c19.7,32.1,31,68.7,50.5,101.1
						c4.4-40.1,2.8-81.7-4.9-121.3C3957,1881.6,3941.5,1839.4,3919.6,1800.8z"/>
				</g>
				<g>
					<path class="st2" d="M3886,1995.5c-3.9-6.6-8.2-13.2-14.6-17.5c-6.3-4.3-15.1-5.8-21.6-1.7c-6.4,4.1-8.8,12.1-9.9,19.6
						c-5.2,34.4,5.1,69.1,15.7,102.3c18.5,57.9,31.1,118.5,51.7,175.6c29.8-6.9,27.5-113.7,24.9-138.4
						C3927,2086.2,3911.4,2038,3886,1995.5z"/>
				</g>
				<g>
					<path class="st2" d="M4039.8,2079.3c8.1-9.2,16.9-18.4,28.1-23.4c11.2-5,25.5-4.9,34.7,3.2c15.7,14,7.7,39.8-3.1,57.9
						c-26.1,43.7-61.5,80.8-97.2,117.1c-37.8,38.4-75.2,79.1-116.2,114.1c-0.5-20.1,11.2-33.6,20.4-50.4
						c13.9-25.7,25.6-52.6,39.4-78.4C3972.6,2169.9,4002.6,2121.7,4039.8,2079.3z"/>
				</g>
				<g>
					<path class="st2" d="M3856.8,2337.4c-1.1-46.1-51.3-140.9-78.5-59.6c-24.2,72.3,13.5,200.2,21.4,272.6
						C3841.7,2511.9,3858.1,2390.6,3856.8,2337.4z"/>
				</g>
				<g>
					<path class="st2" d="M4005.3,2300.6c11-9.7,22.5-19.2,36.1-24.4c7.8-3,17.4-4.2,24.1,0.9c11.1,8.4,6.2,25.9-0.4,38.1
						c-26.5,49.4-64.6,92.5-110.4,124.9c-29.5,20.9-62,37.1-91.8,57.5c-17.4,11.9-33,31.7-51.7,40.2c4.9-29.9,38.3-64,56.2-87.8
						C3908.1,2395.6,3954.2,2345.4,4005.3,2300.6z"/>
				</g>
				<g>
					<path class="st2" d="M3751.6,2640.3c16.4-58.8,23.7-127.3-30-159.9c-2.8-1.7-6-3.2-9.1-2.4c-3.1,0.8-5.1,3.6-6.8,6.3
						c-13,21-17.4,46.3-18.3,70.9c-1.3,33.8,3.5,67.5,8.2,101.1c2.8,19.8-3.3,44.9,4.2,63.6c14.9,37.6,27.6-7,34.9-27.5
						C3740.1,2677.1,3746.4,2659.2,3751.6,2640.3z"/>
				</g>
				<g>
					<path class="st2" d="M3827.9,2583.5c15.9-18.9,32.8-37.9,54.7-49.3c13.2-6.8,31.7-9.6,41.1,1.9c10.8,13.2,1,32.6-8.9,46.5
						c-11.9,16.8-24.1,33.9-40.4,46.5c-16.5,12.7-36.3,20.1-54.4,30.4c-13,7.4-27,12.2-39.8,20c-23.4,14.2-80.7,66.3-47.8,18.2
						C3759.6,2657.9,3796.9,2620.4,3827.9,2583.5z"/>
				</g>
				<g>
					<path class="st2" d="M3656.3,2666.7c-2.9-15.8-7.7-32.5-20.2-42.5c-3-2.4-6.9-4.4-10.6-3.3c-2.6,0.8-4.5,3-6.2,5.2
						c-19.1,25.4-23.4,58.7-26,90.4c-4.9,61.8-19,166.9-4.8,227.1C3617.3,2916,3670.6,2744.4,3656.3,2666.7z"/>
				</g>
				<g>
					<path class="st2" d="M3688.9,2829.1c11.5-14.1,23.1-28.2,36.9-40c12.7-10.9,27.1-19.5,41.5-28.2c7.7-4.6,15.6-9.3,24.4-11.1
						c8.8-1.7,18.8,0,24.8,6.7c5.9,6.6,6.6,16.5,3.9,24.9c-2.7,8.4-8.4,15.4-14.3,21.9c-53,58.2-148.8,80.9-207,134
						c13.5-12.3,22.6-35.4,33-51.6C3644,2867.4,3674.8,2846.4,3688.9,2829.1z"/>
				</g>
				<g>
					<path class="st2" d="M3498.5,3086.6c29.8-52.5,43.7-123.8,40.3-184c-1.1-19.6-5.1-41-20.3-53.3c-2.1-1.7-4.6-3.3-7.4-3.3
						c-41.4,0.1-43.1,133.1-41.9,156.9c1.6,30.9,13.2,72.1,16.1,102.7L3498.5,3086.6z"/>
				</g>
				<g>
					<path class="st2" d="M3678.7,2973c14.7,5.6,22.4,19,9.3,42.4c-8.5,15.1-24.1,24.6-39.3,33c-52.5,29.1-102.4,52.7-162.4,64.1
						C3520.7,3067.1,3606.7,2945.7,3678.7,2973z"/>
				</g>
				<path class="st2" d="M3383,3254.6c0.4,0.7,1,1.4,1.8,1.9c2.8,1.9,6.6,1.3,8.5-1.5c100.5-142.8,178.8-262.4,246.4-376.3
					c83.2-140.2,149.8-271.1,203.5-400.3c60.2-144.9,104.3-289.9,131-430.8c29.1-153.8,37.8-304.5,25.7-447.7
					c-0.3-3.4-3.2-5.9-6.6-5.6c-3.4,0.3-5.9,3.2-5.6,6.6c23.2,274.7-29.2,568.3-155.8,872.8c-122.3,294.1-295.4,556.5-448.6,774.3
					C3381.9,3250,3381.9,3252.6,3383,3254.6z"/>
			</g>
		</g>
		<g>
			<g>
				<g>
					<path class="st2" d="M383.5,1821c-32.5-30.4-75-52.7-119.5-51.8c-10.4,0.2-21,1.8-29.9,7.1c-8.9,5.3-15.7,15.1-15.1,25.5
						c0.8,13.6,13,23.3,24.4,30.8c50.4,33.3,105.3,59.8,162.7,78.7c25.8,8.5,63.4,24.8,38.7-14.1
						C427.4,1869.9,407.3,1843.3,383.5,1821z"/>
				</g>
				<g>
					<path class="st2" d="M594.6,1824.3c-5.8-10.7-12.4-21.8-22.9-27.9c-10.5-6.1-26.2-5.1-32.6,5.3c-2.9,4.7-3.4,10.5-3.6,16
						c-1.7,54.5,26.2,105.2,54.8,151.7c25.1,40.8,53.9,106,92.2,134.6C691.7,2017.2,635.1,1898.9,594.6,1824.3z"/>
				</g>
				<g>
					<path class="st2" d="M316,1995.1c-5.9,2.1-11.9,4.6-16.2,9.2c-6.9,7.3-7.7,19-3.8,28.2c3.9,9.2,11.9,16.2,20.7,21.1
						c15.3,8.4,33,11.1,50.4,12.8c85.3,8.7,174-0.6,258.7-13.1c-58.6-37.8-116-68-186.1-74C398,1975.7,355.4,1980.9,316,1995.1z"/>
				</g>
				<g>
					<path class="st2" d="M843.8,1981.9c-4-10.3-8.5-20.8-17.4-28.5c-8.9-7.7-23.1-12-36.4-7.9c-13.5,4.2-22.5,15.8-26.9,27.1
						c-9.4,24.2-3.4,48.9,3.7,72c26.1,84.9,44.7,167.1,98.3,242.9c27.4-66.6,19.9-119.5,10.4-184.2
						C869.6,2061.7,859,2021,843.8,1981.9z"/>
				</g>
				<g>
					<path class="st2" d="M582.1,2145.2c-20.4-3.1-41.1-5.1-61.7-2.8c-12.7,1.4-25.7,4.7-35.5,12.9c-9.8,8.2-15.5,22.3-10.9,34.2
						c3.7,9.5,12.9,15.7,21.9,20.6c46.9,25.9,100,35.7,152.6,42.3c26.9,3.4,53.9,5.6,80.8,8.7c48.5,5.7,94.8,23.6,143.3,29.9
						c-37.2-36.7-80.8-68.6-127.2-92.5C694.3,2172.2,639,2153.9,582.1,2145.2z"/>
				</g>
				<g>
					<path class="st2" d="M753,2335.9c-9.8-1.3-20-2.2-29.5,0.7c-9.5,3-18.1,10.7-19.1,20.6c-1,9.7,5.3,18.7,12,25.8
						c30.8,33,74.4,50.4,116.7,66.3c73.7,27.7,145.5,63.7,220.1,88.6c16.9-35.8-93.5-119.3-120.7-136.5
						C878.2,2367.1,816.7,2344.2,753,2335.9z"/>
				</g>
				<g>
					<path class="st2" d="M961.9,2246.8c-2.9-15.7-5.1-31.9-1.2-47.4c3.9-15.4,15.5-29.9,31.2-32.7c26.8-4.7,46.7,24.2,56.4,49.7
						c23.5,61.6,32.7,127.5,41,192.9c8.7,69.3,20,140,22.7,209.8c-20.8-15.6-25.1-38.4-34.8-61.2c-14.9-34.8-32.9-68.3-48-103.1
						C999.9,2387.9,975,2318.8,961.9,2246.8z"/>
				</g>
				<g>
					<path class="st2" d="M1077.2,2640.4c-47.8-35.9-184.5-61.1-123.6,31.9c54.1,82.7,214.4,147.2,294.4,197.3
						C1242.4,2796,1132.3,2681.8,1077.2,2640.4z"/>
				</g>
				<g>
					<path class="st2" d="M1159,2459.8c-1-18.9-1.5-38.3,4.2-56.4c3.3-10.4,9.7-21,20.2-23.7c17.4-4.5,31.3,14.5,38.4,31
						c28.9,66.7,42.1,140.1,38.2,212.6c-2.5,46.8-12.1,92.9-15.3,139.6c-1.9,27.2,5.7,59.1-0.7,84.9c-26.5-29-34.3-90.4-44.1-127.6
						C1177.5,2635,1163.6,2547.8,1159,2459.8z"/>
				</g>
				<g>
					<path class="st2" d="M1300.5,2990.7c-46.6-64-110.4-126.4-186.6-98c-3.9,1.5-8.1,3.5-9.8,7.4c-1.7,3.8-0.5,8.1,0.9,12
						c10.9,30.1,33,54.9,57.4,75.7c33.4,28.5,71.5,50.7,109.4,72.9c22.4,13.1,43,39.4,68.1,46.9c50.3,15.1,15.1-33.7,0.1-57.5
						C1328.7,3032,1315.5,3011.2,1300.5,2990.7z"/>
				</g>
				<g>
					<path class="st2" d="M1304.2,2867.5c-6.4-31.4-12.2-63.8-6.2-95.2c3.6-18.9,15.7-39.9,34.9-40.3c22.1-0.4,34,25.2,40.2,46.5
						c7.5,25.6,15.1,51.8,14.7,78.5c-0.3,27-8.7,53.1-12.8,79.7c-3,19.2-9.3,37.3-11.6,56.6c-4.3,35.2,2.5,135.3-19.9,63.2
						C1324.9,2996.8,1316.7,2928.8,1304.2,2867.5z"/>
				</g>
				<g>
					<path class="st2" d="M1250.7,3108.9c-18.4-9.7-39.2-18.2-59.5-13.6c-4.9,1.1-10.1,3.4-11.9,8.1c-1.3,3.3-0.6,7,0.3,10.5
						c10.5,39.9,40.9,71,71.1,99.1c58.9,54.6,154.5,153.5,227.1,187.5C1472.9,3348.9,1341.2,3156.8,1250.7,3108.9z"/>
				</g>
				<g>
					<path class="st2" d="M1442.1,3206.3c-5-23-10.1-46.1-11-69.6c-0.8-21.7,2-43.3,4.7-64.8c1.5-11.5,3-23.3,8.3-33.7
						c5.3-10.3,15.2-19.1,26.8-19.8c11.4-0.7,22.1,6.6,28.4,16s8.9,20.9,10.8,32.2c16.5,100.7-37.3,216.4-30.1,318.1
						c-1.7-23.5-17.8-51.5-25.9-75C1444.9,3282.7,1448.3,3234.5,1442.1,3206.3z"/>
				</g>
				<path class="st2" d="M1497.9,3417.5c-14.9-41.6-29.8-82-44.9-121.4c-75.6-197.3-155.2-370.3-243.4-528.7
					c-98.9-177.7-210.9-339.1-332.7-479.5c-133-153.2-279.2-283.1-434.5-385.9c-3.7-2.4-8.6-1.4-11,2.2c-2.4,3.7-1.4,8.6,2.2,11
					c297.9,197.2,554.3,486.5,762.1,859.9c117.9,211.9,210.6,432.9,286.9,646.2C1487.8,3420.1,1492.8,3418.8,1497.9,3417.5z"/>
			</g>
		</g>
		<g>
			<g>
				<g>
					<path class="st2" d="M3789.5,3229.1c8.8,12.7,20.7,22.7,33.2,31.6c10.9,7.7,26.3,21.8,38.9,25.4c11.2-32.2,9.3-73.3,2.7-106.3
						c-6.3-31.4-21.1-57-51.7-69.7c-17.9-7.5-39-12.6-58.4-13.1c-7.8,37.6,13,97.2,33.3,129.3
						C3788.3,3227.2,3788.9,3228.1,3789.5,3229.1z"/>
				</g>
				<g>
					<path class="st2" d="M3866.5,3100.5c10.3,13.2,23.1,24.2,35.8,35.2c12.3,10.6,24.6,21.1,36.9,31.7c5.5-59.6-4.9-120.6-29.9-175
						c-3-6.6-6.3-13.2-10.9-18.8c-8.1-9.8-19.6-15.8-30.9-21.7c-8.5-4.4-17.4-7.8-26.7-10.1c-1-0.3-2.2-0.5-3.1,0.1
						c-1,0.7-1.2,2.1-1.4,3.3c-2.6,26.5-4.3,50.1-0.7,76.4C3839.5,3050,3848.7,3077.9,3866.5,3100.5z"/>
				</g>
				<g>
					<path class="st2" d="M3944.3,2970.8c3.8,10.3,8.4,20.2,14.4,29c14.3,20.8,35.5,33.4,50.7,53.3c16.4-65,1.9-140.8-36.9-192.7
						c-8-10.7-17.4-21.3-26.6-30.8c-4.8-4.9-13.8,59.1-13.9,67.2C3931.6,2922,3935.9,2947.9,3944.3,2970.8z"/>
				</g>
				<g>
					<path class="st2" d="M4078.6,2819.1c-13.6-25.8-35.5-47.5-60.2-65.4c-7.9,26.6-15.8,54.4-9.8,81.3c3.1,14,9.9,27.2,18.3,39.2
						c15.8,22.7,36.3,37.2,61,51.9c7.4-17.6,6.3-32.7,4.9-50.5C4091.3,2855.8,4088.1,2837.2,4078.6,2819.1z"/>
				</g>
				<g>
					<path class="st2" d="M4080.7,2742.9c-13.5-22.4-16.7-49.3-19.5-75.2c2,0.5,3.9,1.2,5.8,1.9c23,9.4,46.7,29.1,60.1,51.3
						c6.9,11.4,11.4,24.3,13.3,37.5c0.4,3-0.2,37.4-2.2,36.5C4115.1,2783.4,4094.6,2765.8,4080.7,2742.9z"/>
				</g>
				<g>
					<path class="st2" d="M4116.2,2656.8c-11-18.3-13.7-40.4-16.1-61.6c1.6,0.4,3.1,1,4.7,1.6c18.7,7.8,37.8,24,48.8,42.2
						c5.6,9.4,9.4,19.9,10.9,30.7c0.4,2.5,0,30.6-1.6,29.8C4144.2,2690.1,4127.5,2675.6,4116.2,2656.8z"/>
				</g>
				<g>
					<path class="st2" d="M4222.9,2508.4c3.3,18,6.6,36.2,6.2,54.6c-0.7,36.4-18.6,68.3-53,88.4c-1.1,0.6-2.6,1.3-3.6,0.6
						c-0.6-0.4-0.8-1.2-0.9-2c-5.6-36.3,0.6-74,21-106.6C4200.6,2530.4,4210.8,2518.5,4222.9,2508.4z"/>
				</g>
				<g>
					<path class="st2" d="M4208.2,2682.6c7-3.3,14.4-5.6,22-7.1c17.3-3.6,36.6-3.6,50.9,6.7c-3.6,16-7.7,32.8-19,44.6
						c-13.8,14.6-35.3,18.6-55.3,20.1c-18.5,1.4-40.1,3.4-58.3-0.5c2.6-6.1,7.3-10.5,11.3-15.6c4.8-6.2,9-12.9,14-19.1
						C4183.3,2700,4194.4,2689.2,4208.2,2682.6z"/>
				</g>
				<g>
					<path class="st2" d="M4186.5,2871.8c26.2,2.8,54.5-4.2,73.9-21.9c7.3-6.6,13.1-14.6,18.3-22.8c6.1-9.6,11.4-19.7,15.8-30.1
						c-9.2-4.2-18.6-8.5-28.7-10.1c-9.6-1.5-19.4-0.5-29.2,0.5c-16.9,1.8-34.2,3.9-49.6,10.9c-7.9,3.6-15.1,8.4-22.3,13.3
						c-10.4,7-20.8,13.9-31.2,20.9c-2.8,1.9-13,6.6-13.7,10.1c-0.8,4.2,6.7,7.1,9.9,9c8.7,5.2,17.9,9.8,27.5,13.3
						C4160.1,2866,4186.3,2871.1,4186.5,2871.8z"/>
				</g>
				<g>
					<path class="st2" d="M4140.7,2994.1c17.6,1.9,35.5-3.2,51.2-11.5c15.7-8.2,29.6-19.5,43.4-30.7c-20.4-23.7-51.9-37-83.2-36.6
						c-25.2,0.3-50,9-70.5,23.6c-10.5,7.4-13.1,11.6-3.3,20.9c8.3,7.9,17.5,15.3,27.3,21.4
						C4116.3,2987.8,4128.1,2992.7,4140.7,2994.1z"/>
				</g>
				<g>
					<path class="st2" d="M4033,3059c8.2,14.3,18.9,27.5,35.4,36.4c6.9,3.7,14.6,6.6,22.5,9c36.2,11.1,77.5,13.4,116.6,6.4
						c-4.4-29.8-27.7-57.9-60.6-73.5c-22.7-10.7-50-15.8-77.2-14.8c-15.9,0.5-29.7,0.3-44.8,4.6c-1.7,0.5-3.6,1.1-4.5,2.4
						c-0.9,1.3-0.3,2.9,0.3,4.3C4024.4,3042.2,4028.3,3050.8,4033,3059z"/>
				</g>
				<g>
					<path class="st2" d="M4019.2,3239.5c49.8,7.3,98.6-14.3,146.3-30.6c-0.8-7.1-6.1-12.9-11-18.1c-17.3-18-35.1-36.2-57.1-48
						c-28.3-15.2-62.1-18.9-93.6-12.4c-19.2,4-97,29.7-75.8,57C3949.4,3214.8,3985.2,3234.5,4019.2,3239.5z"/>
				</g>
				<g>
					<path class="st2" d="M3998.2,3264c-49.8-7.3-98.6,14.3-146.3,30.6c0.8,7.1,6.1,12.9,11,18.1c17.3,18,35.1,36.2,57.1,48
						c28.3,15.2,62.1,18.9,93.6,12.4c19.2-4,97-29.7,75.8-57C4068,3288.6,4032.2,3268.9,3998.2,3264z"/>
				</g>
				<path class="st2" d="M3708.5,3481.5c-2.5,0.8-5.4,0.2-7.4-1.7c-2.9-2.8-3-7.5-0.2-10.5c139.9-144.7,243.1-321.4,342.8-492.3
					c18.7-32,38-65.1,53.9-99.2c36.8-78.8,56.6-165.2,75.8-248.8c0.9-4,4.9-6.5,8.9-5.6c4,0.9,6.5,4.9,5.6,8.9
					c-19.4,84.3-39.4,171.5-76.8,251.8c-16.2,34.6-35.7,68-54.5,100.4c-100.2,171.7-203.8,349.2-344.9,495.2
					C3710.7,3480.5,3709.6,3481.1,3708.5,3481.5z"/>
			</g>
		</g>
		<path class="st3" d="M4245.9,3736.2c-258.7-278.4-1065.3-481.5-2020.2-481.5S464.2,3457.8,205.5,3736.2H4245.9z"/>
		<path class="st0" d="M2113.8,2572.5c11.3,197.6,32,394.9,55.2,589.8v0c-1.5,24.4-3.1,48.8-4.9,73.1
			c-30.8-252.9-58.9-510.4-69-767.8c-1.8-46.4-3.1-92.7-3.7-139c-0.1-7.4-0.2-14.9-0.2-22.3c-0.1-13.5-0.2-26.9-0.1-40.4
			c0.1-131.1,5.8-263.7,14-395.6c0.3-5.8,0.7-11.6,1.1-17.5c4.8-76.3,10.4-152.3,16-227.6c0.4-5,0.8-10.1,1.1-15.1
			c1.2-16.2,2.4-32.4,3.7-48.5c2.3-30.3,4.6-60.7,6.9-91.2c0.5-6.3,0.9-12.5,1.4-18.8c10.4-139.8,19.8-280.8,24.4-422
			c0.3-8.6,0.5-17.3,0.8-25.9c3-107,3-214.1-1.6-320.7c-0.3-6.3-0.6-12.6-0.9-19c-6.5-132.9-20.4-265.2-45.1-395.9
			c4.5-1.1,9-2,13.5-2.6c10.2,53.5,18.7,108.2,25.7,164.6c1,8,1.9,16,2.9,24c2.3,20.2,4.5,40.7,6.5,61.5c3,32.2,5.6,64.9,7.7,98.3
			c0.4,6.7,0.8,13.4,1.2,20.1c4.2,72.6,6.2,148.2,6.1,228.7c-0.1,114.7-4.6,230.7-11.2,346.4v0c-0.5,8.6-1,17.1-1.5,25.7
			c0,0,0,0,0,0c-4.6,77.2-10.1,154.3-15.8,230.7c0,0.5-0.1,0.9-0.1,1.4c-1.5,19.7-3,39.4-4.4,59v0c-0.7,8.5-1.3,17.1-1.9,25.6
			c-0.3,3.7-0.6,7.4-0.8,11.1c-8.5,112.1-17.2,226.1-23.9,340.4v0c-0.5,7.5-0.9,14.9-1.3,22.4c-3.8,67.3-6.8,134.8-8.7,202
			c-0.2,6.8-0.4,13.6-0.5,20.4c-1,39.5-1.5,78.8-1.5,118c0,52.2,0.8,104.5,2.5,156.9c1.3,42.2,3.2,84.4,5.4,126.7c0,0,0,0,0,0
			C2112.9,2557.2,2113.3,2564.9,2113.8,2572.5L2113.8,2572.5z"/>
		<path class="st0" d="M2354.4,416.5c-66.1,61.6-128.2,127.7-185.5,197.5c-3.7,4.5-7.4,9-11,13.5l10.6,8.6c0.5-0.7,1.1-1.3,1.6-2
			c58.3-72.1,121.8-140.4,189.6-203.9C2358.1,425.6,2356.3,421,2354.4,416.5z"/>
		<path class="st0" d="M2171.2,1024.9l-11.7,4.9l-0.9,0.4c-10.1-24.3-28.3-44.7-45.9-64.3l-166.3-186.2v0c-2.8-10-5.6-20-8.5-30
			l184.9,207c12.6,14.1,26.5,29.7,37.3,47.2C2164.4,1010.6,2168.2,1017.6,2171.2,1024.9z"/>
		<path class="st0" d="M2333.7,1011.6c-1.4,7.9-2.8,15.7-4.2,23.6c-60.6,61.8-116.1,128.6-165.9,199.8c-0.2,0.2-0.3,0.5-0.5,0.7
			l-11.2-7.8c4.4-6.2,8.8-12.4,13.2-18.6C2215.9,1138.7,2272.2,1072.7,2333.7,1011.6z"/>
		<path class="st0" d="M2130.2,1618l-8.1,7.4l-2,1.8c-65.7-72.3-127.7-149.3-184.4-229c1.2-6.2,2.4-12.3,3.7-18.5
			c56.4,80.2,118.2,157.7,183.9,230.6C2125.5,1612.8,2127.8,1615.4,2130.2,1618z"/>
		<path class="st0" d="M2148.4,1466.4l-0.7,0.7l-9.4,8.5l-4.6-5L1957.8,1277c0.9-5.8,1.8-11.6,2.7-17.3l174.6,192.1l12.7,13.9
			L2148.4,1466.4z"/>
		<path class="st0" d="M2372.6,1616.7c-93.2,96.3-179,200.3-255.8,309.9l-1.5-1l-9.7-6.8c3.6-5.2,7.3-10.4,11-15.6c0,0,0,0,0,0
			c76.4-107.5,161.6-209.4,253.8-303.8C2371.2,1605.2,2371.9,1610.9,2372.6,1616.7z"/>
		<path class="st0" d="M2371.2,1824.2c-0.9,7.6-1.8,15.1-2.8,22.7c-91.9,96.3-179.4,197.5-261.1,302l-1.2-0.9l-9.6-7.5
			c3.4-4.3,6.7-8.6,10.1-12.9C2189.5,2022.5,2278.1,1920.8,2371.2,1824.2z"/>
		<path class="st0" d="M2315.2,1349.5c-63.3,62.6-121.5,130.3-173.9,202.3l0,0l-11-8c4.3-5.9,8.6-11.7,13-17.6
			c51.4-68.8,108.2-133.6,169.7-193.6C2313.6,1338.2,2314.4,1343.8,2315.2,1349.5z"/>
		<path class="st0" d="M2169.1,674.1l-9,10.3l-1.4-1.2L2032.4,572c-32.1-28.3-64.9-57.1-94.7-88.9c0.7-2.2,1.3-4.5,2-6.7
			c0.9-2.8,1.7-5.6,2.6-8.5c30.8,33.7,65.3,64.1,99.1,93.8l116.4,102.5L2169.1,674.1z"/>
		<path class="st0" d="M2244.5,288.4c-31.5,54.5-61.4,110-89.5,166l-0.2-0.1l-12-6c3-6,6-12,9.1-18c25.4-49.9,52.3-99.3,80.4-148
			C2236.4,284.2,2240.5,286.2,2244.5,288.4z"/>
		<path class="st0" d="M2102.1,2320.3l-10.7,8.5l-0.1-0.1L1970,2175.9c-2.3-7.4-4.7-14.8-7.1-22.1c-1.7-5.1-3.4-10.1-5.1-15.2
			l133.2,167.8L2102.1,2320.3z"/>
		<path class="st0" d="M2116,1862l-9.1,10.2c-0.7-0.6-1.4-1.2-2-1.8c-58.8-53-113.8-111.6-167-168.2l-48.2-51.3
			c0.7-5.8,1.5-11.6,2.4-17.4l55.8,59.4c50.5,53.8,102.7,109.4,158.1,160.1C2109.3,1856,2112.7,1859,2116,1862z"/>
		<path class="st0" d="M2243.7,2369.9c-2.2,9.7-4.3,19.5-6.3,29.2c-44.6,55.3-85.9,113.5-123.4,173.6l-0.3-0.2v0l-11.3-7.1
			c3.3-5.3,6.7-10.6,10.1-15.9c0,0,0,0,0,0C2152.4,2487.1,2196.4,2426.9,2243.7,2369.9z"/>
		<path class="st0" d="M3281.1,470.9c-126.1,231.6-228.9,489.2-307.2,769.3c-1.6,5.9-3.3,11.7-4.9,17.6
			c-25,90.9-47.4,184.2-67.2,279.6c-13.9,67.3-30.5,134.6-47.1,200.3c-1.4,5.7-2.9,11.5-4.4,17.2v0c-1.9,7.5-3.8,15-5.7,22.5
			c-25.7,101.2-52.3,205.9-70.9,311.4c-10.4,59.2-16.3,119.1-21.1,177.7c-0.5,6-1,12-1.4,17.9c-0.7,8.3-1.3,16.6-2,24.8
			c-4.4,55.5-8.9,113-16.6,169.5c-7.2,52.7-15,105.5-23.2,158.2c-0.9,5.7-1.8,11.4-2.7,17.1c-20.4,128.3-43.8,256.4-70.2,383.8
			c-1.2,5.9-2.4,11.7-3.7,17.6c-14.1,67.5-29.1,134.7-44.8,201.6c-6.5,27.8-13.2,55.6-20,83.2l-13.3-3.3c6.6-26.7,13-53.5,19.4-80.3
			c38.2-162.1,71.7-326.2,100.2-490.8c0.9-5,1.7-10,2.6-15c15.6-91.3,29.7-182.7,42.2-274c0.4-2.7,0.7-5.3,1.1-8
			c0.8-5.8,1.5-11.6,2.2-17.4c5.8-47.9,9.6-96.3,13.3-143.3c5.7-72.5,11.6-147.4,24.7-221.8c1.8-10.4,3.7-20.8,5.7-31.1
			c0.8-4.3,1.7-8.6,2.5-13c17.8-91,40.7-180.9,62.9-268.3c19.9-78.1,40.4-158.9,57.1-239.5c14-67.4,29.3-133.8,45.8-198.9
			c0.4-1.5,0.8-3,1.1-4.5c0.4-1.5,0.8-3.1,1.2-4.6c0.6-2.2,1.1-4.5,1.7-6.7c6.1-23.6,12.3-47,18.7-70.2v0c0.1-0.5,0.2-0.9,0.4-1.4h0
			c78.4-284,182-545,309.4-779.7h0C3271.7,468.9,3276.5,469.7,3281.1,470.9z"/>
		<path class="st0" d="M2949,1329.5c-0.3-3.7-2.9-6.8-6.3-7.6c-0.9-0.2-1.8-0.3-2.7-0.1c-0.5-0.6-1.1-1.3-1.6-1.9
			c-74.5-87.8-143.6-181.4-205.7-278.5c-4,2.4-7.7,5.1-11.1,8c63.5,99.2,134.2,194.7,210.5,284.2c0.7,0.9,1.5,1.6,2.2,2.2
			c2.3,1.9,4.6,2.4,6.4,2.4c1.5,0,2.7-0.4,3.4-0.7C2947.4,1336.2,2949.3,1333,2949,1329.5z M2939.6,1335.2c-1.8-0.4-3.7-1.8-4.2-3.9
			c0-0.2-0.1-0.4-0.1-0.6c-0.1-1.4,0.4-2.9,1.3-4c0,0,0,0,0,0l9.7,5.8C2945,1334.7,2942.2,1335.8,2939.6,1335.2z"/>
		<path class="st0" d="M3399.7,947.3c-44.7,62.5-106,120.6-182.9,173.1c-78.3,53.5-164.2,96.2-247.7,137.4c-2.1,1-4.2,2.1-6.4,3.1
			l-5.6-11.3l-0.5-1c0.3-0.1,0.6-0.3,0.9-0.4c5.5-2.7,10.9-5.4,16.4-8.1c79.6-39.3,161-80.4,235.1-131
			c78.6-53.7,140.6-113.3,184.8-177.3L3399.7,947.3z"/>
		<path class="st0" d="M3417.2,1294.9c-174.9,162.1-363.9,310.9-562.4,442.9c-3.6,2.4-7.3,4.8-10.9,7.2l6.6,10l0.9,1.4
			c203.9-134.6,397.9-287.1,577.1-453.4L3417.2,1294.9z"/>
		<path class="st0" d="M2773.8,2047.7l-7.8,7.7l-1.9,1.9c-16.2-16.3-34.1-31.6-51.5-46.3c-11.7-9.9-23.7-20.1-35.2-30.6
			c-82.5-75.5-143.7-174.6-174.9-282.1c2.4-2.8,5-5.5,8-7.9c1.1-0.9,2.2-1.7,3.2-2.5c29.9,107.6,90.6,207,172.9,282.4
			c11.3,10.3,23.3,20.5,34.8,30.3c15.7,13.3,32,27.1,47.1,41.9C2770.3,2044.2,2772,2045.9,2773.8,2047.7z"/>
		<path class="st0" d="M2749.4,2285.8l-8-11.1c200.6-144.7,383.6-313.6,543.8-502.1l10.4,8.8
			C3134.7,1970.8,2950.9,2140.5,2749.4,2285.8z"/>
		<path class="st0" d="M2675.2,2766.7c-40.7-29.2-79.1-62.2-114-98c-23.3-23.9-45.4-49.4-66.8-74l-129.4-149l10.3-9l129.4,149
			c21.3,24.5,43.3,49.9,66.3,73.4c34.4,35.3,72.2,67.7,112.2,96.5L2675.2,2766.7z"/>
		<path class="st0" d="M3248.8,2232.8c-171.9,150.5-353.9,292.4-541.5,422.3l-0.6-0.9v0l-7.1-10.3c3.3-2.3,6.6-4.5,9.8-6.8
			c181.5-126.1,357.5-263.5,524.2-409h0c3.4,0.3,6.7,1,10,2.2C3245.4,2231,3247.2,2231.8,3248.8,2232.8z"/>
		<path class="st0" d="M3186.4,2614.1c-65.9,74.4-137.5,144.3-213.7,208.6c-105.4,88.9-219.7,167.3-339.9,233
			c-1.5,0.8-3,1.6-4.4,2.4l-6.5-12c4.9-2.7,9.8-5.3,14.6-8v0c200.8-111.2,384.5-258.6,537.5-430.6
			C3178.4,2609.1,3182.6,2611.3,3186.4,2614.1z"/>
		<path class="st0" d="M1761.9,3353.3l-4.7,0.7l-8.9,1.3l-10-66.3l-13.1-86.5l-1.8-12v0l-64.5-426.9l-2.6-17.1l-48.3-319.7
			c-2.7-18.1-5.7-36.3-8.7-54.4c-0.7-4.4-1.5-8.7-2.2-13c-5.2-30.1-10.7-60.2-16.4-90.2c-10.5-55-21.7-109.5-32.7-163.2
			c-16-78.2-32.6-158.9-46.5-238.9c-0.4-2-0.7-4.1-1.1-6.2c-0.5-2.7-0.9-5.4-1.4-8.1c-25.2-142.4-64.8-283.9-103.2-420.9
			c-13.1-46.8-26.7-95.3-39.4-143c-35.9-134.3-85.8-268.6-134-398.4c-17.7-47.5-35.8-96.5-53.2-145c5.4,0.7,10.6,1.9,15.8,3.6
			c16.4,45.7,33.5,91.8,50.2,136.6c20.2,54.4,40.7,109.5,60.3,165.2c2.5,7.2,5.1,14.4,7.6,21.6c24.5,70.4,47.4,141.6,66.5,212.8
			c12.8,47.7,26.3,96.1,39.4,142.9c11.8,42.3,23.8,85,35.4,128.1c1.9,7.2,3.9,14.4,5.8,21.6c24.6,92.4,47.3,186.3,63.7,280.7
			c14.2,81.8,31.1,164.6,47.6,244.6c6.5,31.9,13.1,64.1,19.6,96.6c0.6,3.1,1.2,6.1,1.8,9.2c2.3,11.6,4.6,23.3,6.9,35
			c11.7,59.9,22.6,120.4,31.7,180.7l11.7,77.7l2.2,14.4l44.9,297.4l2.1,14l51.7,342.3l3.4,22.4l14.3,94.7l6.4,42.4v0L1761.9,3353.3z
			"/>
		<path class="st0" d="M1619,1288.3c-69.1,88.3-126.6,186.6-168.8,289.6c-0.3,0.7-0.6,1.4-0.9,2.1l-12.6-5.2
			c2.5-6.2,5.1-12.3,7.7-18.5c28-65.6,62-129.2,101.1-189.2c20.4-31.2,42.2-61.5,65.3-90.7C1614.3,1280.1,1617.1,1284.1,1619,1288.3
			z"/>
		<path class="st0" d="M1506.9,1857l-5.3,10.1l-1,1.9l-126.4-66.8c-38.5-20.4-78.3-41.4-114.8-66.9c-28.5-19.9-55.2-42.8-81-64.9
			L1008.5,1525c0.7-2.6,1.7-5.1,2.9-7.6c0.9-1.9,1.9-3.6,3-5.3l172.9,148.1c25.6,21.9,52,44.6,79.9,64.1
			c35.8,25.1,75.2,45.9,113.3,66l118.5,62.6L1506.9,1857z"/>
		<path class="st0" d="M1346.4,939.6c-15.1,44.2-29.5,88.6-43.2,132.9c-0.4,1.3-0.8,2.6-1.2,3.9l-13.1-4c2.2-7.2,4.4-14.3,6.7-21.5
			c13.7-43.6,28.1-87.3,43-130.8C1341.3,926.6,1343.9,933.1,1346.4,939.6z"/>
		<path class="st0" d="M2722.7,2471.7c-58.1-58.5-110.5-130.9-160.1-221.3c-45.2-82.3-83.5-170.7-117.3-248.7l12.5-5.4
			c68.1,157.3,145.4,335.7,274.5,465.8L2722.7,2471.7z"/>
		<path class="st0" d="M1785.1,1858c-10.7,30.1-23.3,59.3-37.7,87.2c-13.7,26.6-29.3,52.6-44.3,77.7l-113.8,189.9l-6.3-3.8l-5.4-3.2
			l3.6-6l110.2-183.9c14.9-24.9,30.4-50.7,43.9-76.9c14.7-28.7,27.6-58.7,38.4-89.6c3.4,2,6.8,4.6,10.4,7.7
			C1784.3,1857.4,1784.7,1857.7,1785.1,1858z"/>
		<path class="st0" d="M1841.8,2161.6c-12.1,35-32.6,66.9-52.6,98l-155.9,242.9l-5.9,9.2l8.1,5.2l3.4,2.2l161.8-252.1
			c17.4-27.1,36.4-56.7,49.4-88.9L1841.8,2161.6z"/>
		<path class="st0" d="M1604.4,2363.4l-5,9l-1.6,2.9c-13.8-7.7-27.5-15.5-41.1-23.6c-80.9-47.9-158.2-102.7-230.4-163.5
			c-74.2-62.5-143.2-131.5-205.5-205.4c0.9-5.6,2.2-11.2,4-16.5c122.1,146.5,271.4,273.9,435.4,371.6c12.3,7.3,24.6,14.4,37,21.4
			C1599.6,2360.7,1602,2362,1604.4,2363.4z"/>
		<path class="st0" d="M1889,2540.5c-31.2,47.9-66.7,93.4-101.1,137.5c-15.9,20.4-32.4,41.5-48.2,62.5c-14,18.7-27.4,37.2-36.6,57.8
			c-0.8,1.8-1.5,3.6-2.3,5.4c-4,9.5-8.1,19.2-16.1,26.9l-2.2-2.2l-7.3-7.6c2-1.9,3.7-4.1,5.2-6.5c3-4.7,5.3-10.2,7.8-15.9
			c0.8-1.9,1.6-3.7,2.4-5.6c9.7-21.9,23.6-41.1,38.1-60.4c15.9-21.1,32.4-42.3,48.4-62.7c33.6-43,68.1-87.2,98.5-133.6
			C1880.4,2536.9,1884.9,2538.4,1889,2540.5z"/>
		<path class="st0" d="M1666.3,2752l-6.6,12l-0.8-0.4c-47.6-26.2-93.5-55.5-138.1-86.6c-16.2-11.3-32.3-22.9-48.2-34.6
			c-59.6-44-117-90.5-173.4-136.5c-3.8-3.1-7.6-6.2-11.4-9.3l-48.8-39.8l-73.4-59.8l-12.8-10.4c0.1-4,0.5-8.1,1.4-12.1
			c0.3-1.2,0.6-2.4,1-3.6l18,14.7l57.3,46.7l65.8,53.7c13.2,10.7,26.4,21.5,39.7,32.3c36.9,29.9,74.3,59.9,112.6,89
			c23.4,17.9,47.2,35.4,71.3,52.4c44.1,31.1,89.4,60.5,136.4,86.9C1659.7,2748.4,1663,2750.2,1666.3,2752z"/>
		<path class="st0" d="M1953.7,2894.3c-85.1,89.5-157.6,189.8-216,298.7c-2.2,4.2-4.5,8.4-6.7,12.6l-5.7-3l-6.4-3.4
			c1.5-2.9,3-5.8,4.6-8.7c3.5-6.7,7.1-13.3,10.8-19.9c57.8-104.5,128.6-200.9,211.1-287.4
			C1948.5,2886.6,1951.3,2890.3,1953.7,2894.3z"/>
		<path class="st0" d="M960.1,3166.4c-8.2-1.4-16.5-2.6-25-3.5c-12.2-7-24.4-14.2-36.4-21.4c-64-38.3-126.6-79.1-188-121.3
			c-2.1-1.5-4.3-2.9-6.4-4.4c-49.2-33.9-97.6-68.6-145.6-103.6c-4-3-8.1-5.9-12.1-8.8c-43.3-31.7-86.2-63.6-128.8-95.3l-65.9-49
			c5.5-1.7,11-3.3,16.4-4.8l57.6,42.9c34.9,26,70,52.1,105.3,78.1c3.2,2.3,6.3,4.6,9.5,7c21.6,15.8,43.2,31.6,65,47.3
			c1.5,1.1,3,2.2,4.5,3.3c55.3,39.8,111.3,79,168.4,116.8c5.3,3.5,10.6,7,15.9,10.5c16.4,10.7,32.8,21.3,49.4,31.7
			c4.9,3.1,9.8,6.1,14.6,9.2c11.8,7.4,23.7,14.6,35.6,21.8c20.1,12.2,40.4,24.1,60.8,35.8C956.7,3161.2,958.4,3163.8,960.1,3166.4z"
			/>
		<path class="st0" d="M545.3,2882l-4.5,0.2l-9.1,0.5c-0.1-2.5-0.3-5-0.4-7.4c-2.2-44.3-2.6-88.8-1.3-133.3
			c4.6,0.7,9.1,1.4,13.6,2.3C542.3,2790.3,542.9,2836.3,545.3,2882z"/>
		<path class="st0" d="M619.4,2932.8l-9.1,0.1l-4.5,0c0-1.1,0-2.2,0-3.3c-0.2-54.6,1.8-109.6,6.1-164.3c4.5,1.9,8.9,4,13.2,6.1
			C621,2825.2,619.1,2879.2,619.4,2932.8z"/>
		<path class="st0" d="M558.7,2912.3l-12.8,3.5c0.2,0.5,0.9,1.2,1.3,1.3c-1-0.2-4.5,0.7-7.2,2.9l-103.7,83.1
			c-2.4-3.9-4.7-7.9-7-11.9l102.1-81.9c3.8-3.1,9.7-5.8,15.1-5.9c1.7-0.1,3.3,0.1,4.8,0.6c3.8,1.2,6.6,4.2,7.7,8.1L558.7,2912.3z"/>
		<path class="st0" d="M711.1,3015.3l-0.4,5l-0.7,8.6c-4.2-0.3-8.9,3.7-13,7.5l-99.8,93.1c-4.7-1.8-9.4-3.6-14.1-5.6l104.5-97.6
			c4.7-4.4,10.1-8.9,16.6-10.6C706.4,3015.3,708.7,3015.1,711.1,3015.3z"/>
		<path class="st0" d="M795.5,3064.3l-13.4,2.6c-1.1-5.8-2.2-11.5-3.3-17.3c-10.8-57.4-19.2-115.5-25.1-173.8
			c5.3,5.7,10.5,11.6,15.6,17.5c6.2,55.9,14.7,111.7,25.4,166.7C794.9,3061.5,795.2,3062.9,795.5,3064.3z"/>
		<path class="st0" d="M858.7,3101.5l-13.6,1.3c-0.3-3.6-0.7-7.3-1.1-10.9c-4.4-42.9-10.8-85.8-19.1-128.3
			c6.3,8.6,12.5,17.3,18.7,26.1c6.5,36.9,11.5,74.1,15.1,111.3C858.6,3101.2,858.7,3101.3,858.7,3101.5z"/>
	</g>
	<path class="st4" d="M3857.8,2244.5c-32.1-179.5-151.1-385-242.6-477.5c-133.8-135.1-315-229.9-509.6-270.6
		c-16.3-3.4-31.6,9-31.6,25.6v734.5c0,14.5,11.7,26.2,26.2,26.2h733c12.5,0,23.2-8.8,25.7-21c0-0.1,0-0.2,0.1-0.3
		c0.6-3.1,0.7-6.2,0.2-9.4C3858.7,2249.7,3858.2,2247.1,3857.8,2244.5z"/>
	<path class="st5" d="M2247.7,2284.7c-6.5,0-11.4,5.9-10.2,12.2c16.7,93,38,185.2,65.1,275c31.6,104.8,128.3,176.5,237.8,176.5
		h1014.8c109.5,0,206.2-71.6,237.8-176.5c2.1-6.8,4.1-13.7,6.1-20.5c24.2-83.2,43.6-168.4,59-254.4c0,0,0-0.1,0-0.1
		c1.1-6.4-3.8-12.2-10.2-12.2H2247.7z"/>
	<path class="st6" d="M3844.7,2223.9H2250.8c-18.7,0-33.8,15.1-33.8,33.8v16.7c0,18.7,15.1,33.8,33.8,33.8h1593.8
		c18.7,0,33.8-15.1,33.8-33.8v-16.7C3878.5,2239,3863.3,2223.9,3844.7,2223.9z"/>
	<path class="st3" d="M3243.5,2810.9c11.2,4.6,22.4,10.8,34,19.3c25.1,18.4,105.2,76.5,76.7,109.6c-26.8,31.2-56.7,58.6-81.5,91.8
		c-0.1,0.1-0.2,0.3-0.3,0.4c-18.6,25-47.8,39.9-79,39.9h-288.2c-93.9,0-170-76.1-170-170v-103.7c1,0,1.9,0,2.9,0
		c79.7,0,159.5,0,239.2,0c53.7,0,107.5,0,161.2,0C3178.4,2798.2,3210.8,2797.5,3243.5,2810.9z"/>
	<circle class="st7" cx="2665.1" cy="3305.8" r="256.9"/>
	
		<ellipse transform="matrix(0.7071 -0.7071 0.7071 0.7071 -1556.9695 2852.7893)" class="st8" cx="2665.1" cy="3305.8" rx="197.9" ry="197.9"/>
	
		<rect x="2300.6" y="2881.1" transform="matrix(0.1745 -0.9847 0.9847 0.1745 -612.8126 5098.793)" class="st9" width="867.6" height="67.6"/>
	<path class="st9" d="M3524.5,3018.3l-12.8,15.7l-30.3,37.2l-22.2-18.1l-7.9-6.4l-111.3-90.8l-193-157.5l-61-49.8l-251.4-205.1
		l-7.3-6l-52.7-43l-1.3-1.1l-226.8-185.1l-28.7-23.4l-74.5-60.8l-268.4-219.1c-9.5-7.8-20.1-14-31.3-18.7c-2.5-1-5-2-7.5-2.8
		c-13.6-4.7-28.1-7.1-42.8-7h-43.8c-5.8-1.8-11.4-3.8-17-6.1c-7.5-3.1-14.9-6.6-21.9-10.5c-15.4-8.6-32.3-12.7-49.9-13.9
		c-1.1-0.1-2.2-0.1-3.2-0.2c-0.9,0-1.8-0.1-2.8-0.1c-10.1-0.3-20.5,0.2-30.9,1.3c-5.4-8.7-8.7-18.8-9.1-29.6c0,0,0,0,0,0
		c-0.1-1.2-0.1-2.5,0-3.8c0-0.3,0-0.5,0-0.8c0.3-9.1,7.8-16.4,16.9-16.4h164.4c29.4,0,58.1,8.6,82.6,24.6c4,2.6,8,5.5,11.7,8.5
		c0.4,0.3,0.8,0.6,1.2,0.9l359.7,293.5l74.5,60.8l28.7,23.4l181.1,147.8l16,13l342.5,279.4l304.6,248.5L3524.5,3018.3z"/>
	<circle class="st7" cx="3442.5" cy="3340.8" r="221.9"/>
	
		<ellipse transform="matrix(0.7071 -0.7071 0.7071 0.7071 -1354.045 3412.7275)" class="st8" cx="3442.5" cy="3340.8" rx="170.9" ry="170.9"/>
	
		<rect x="3292.6" y="3169.2" transform="matrix(0.1745 -0.9847 0.9847 0.1745 -291.8712 6057.979)" class="st9" width="348.6" height="67.6"/>
	<circle class="st3" cx="3442.5" cy="3340.8" r="52.8"/>
	
		<ellipse transform="matrix(0.7071 -0.7071 0.7071 0.7071 -1556.9695 2852.7893)" class="st3" cx="2665.1" cy="3305.8" rx="56.2" ry="56.2"/>
	<circle class="st3" cx="2816.7" cy="2495.2" r="43.5"/>
	<circle class="st3" cx="3494.3" cy="3040.2" r="43.5"/>
	<g>
		<g>
			<path class="st10" d="M1191.1,3112.3c-0.6,0.5-1.2,0.9-1.8,1.4c-42.1,31.6-81.6,61-121,91.1c-7.9,6-15.8,12.1-23.8,18.2
				c-3.3,2.6-6.7,5.1-10,7.7c-6.6,5.1-13.1,10.2-19.8,15.4c-13,10.2-26,20.5-39.3,31.2c-12.1,9.7-24.3,19.7-34.3,31.5
				c-2,2.3-3.9,4.7-5.6,7.3c-1.3,1.9-2.6,3.8-3.8,5.7c-0.9,1.5-1.8,3.1-2.7,4.7c-14,26.4-14.1,58.7-4.4,87.5
				c2.1,6.2,4.6,12.3,7.6,18.1c0.4,0.9,0.9,1.8,1.4,2.6c0.4,0.7,0.7,1.3,1.1,2c0.4,0.7,0.7,1.3,1.1,2c15.5,27.1,38.7,50.2,48.3,80
				c2.9,8.9,3.7,20.3-3.7,25.9c-10.2,7.6-23.9-2.7-32.2-12.3c-28.6-32.7-57.1-65.5-85.7-98.3c-0.2-0.2-0.4-0.5-0.6-0.7
				c-20.6-23.6-41.2-47.2-61.8-70.8c-0.8-0.9-1.6-1.8-2.4-2.8c-4.6-5.3-9.2-10.6-13.9-15.9c-7.4-8.5-15-17.4-18.3-28.2
				c-6.8-22.4,7.4-46.5,26.4-60.3c7.3-5.3,15.3-9.5,23.5-13.3c6.5-3,13.2-5.6,19.9-8.3c6.7-2.7,13.5-5.3,20-8.3
				c0.3-0.1,0.6-0.3,0.9-0.4c2.7-1.2,5.3-2.5,7.9-3.8c3.6-1.8,7.1-3.6,10.5-5.6c21.2-11.9,39.7-26.5,56.8-42.7
				c5.9-5.5,11.6-11.2,17.3-17.1c2.9-3,5.7-6,8.5-9c6.3-6.7,12.4-13.6,18.6-20.5c12.4-14,24.7-28.2,37.6-42.1c0.7-0.7,1.3-1.4,2-2.1
				c16.7-17.9,34-34.9,51.8-51.3c19.6,14.2,40,27.2,59.8,39.7c14.9,9.4,29.9,18.8,44.6,28.4
				C1178.1,3103.5,1184.6,3107.8,1191.1,3112.3z"/>
			<path class="st11" d="M1191.1,3112.3c-0.6,0.5-1.2,0.9-1.8,1.4c-42.1,31.6-81.6,61-121,91.1c-7.9,6-15.8,12.1-23.8,18.2
				c-28.8-25.7-57.8-51.1-87.3-76c6.3-6.7,12.4-13.6,18.6-20.5c12.4-14,24.7-28.2,37.6-42.1c0.7-0.7,1.3-1.4,2-2.1
				c16.7-17.9,34-34.9,51.8-51.3c19.6,14.2,40,27.2,59.8,39.7c14.9,9.4,29.9,18.8,44.6,28.4
				C1178.1,3103.5,1184.6,3107.8,1191.1,3112.3z"/>
			<path class="st4" d="M990.6,3529.3c-4.5-20.8-15.9-38.7-27.2-56.4c-5.7-8.9-10.6-18.2-16.2-27c-6.1-9.7-14.8-6.7-26.2-6.8
				c-2.9,0-5.9-0.1-8.4-1.6c-1.8-1.1-3.2-2.8-4.5-4.5c-19.7-25.3-38.8-51.2-57.2-77.5c-11.7-16.8-25-32.4-34.1-50.7
				c-1-2,12-70.7,10.2-70.2c-8.1,2.6-16.1,5.2-24.1,8.3c-14.8,5.9-28.9,13.5-41.9,22.7c-1.8,1.3-3.6,2.6-5.1,4.1l-0.1-0.1
				c-7.3,5.9-12.6,13.3-15.7,21.5c-6.4,16.6-4.1,36,7.9,50.9l173.9,216.3c10.5,13.1,27.9,17.5,42.9,12.3c4-1.4,7.9-3.5,11.4-6.3
				l10-8.1l-0.2-0.3C992.1,3548.6,992.4,3537.8,990.6,3529.3z"/>
			<path class="st12" d="M964.6,3570.6c-15,5.3-32.3,0.8-42.9-12.3L747.9,3342c-11.9-14.8-14.3-34.3-7.9-50.9L964.6,3570.6z"/>
		</g>
		<g>
			<path class="st10" d="M2023.8,3515.4c-0.8,13.5-17.2,17.3-29.5,17.3c-81,0.4-161.9,0.7-242.9,1.1c-11,0.1-22.3,0-32.3-4.8
				c-20.8-10.1-29.5-38.2-27.6-62.9c1.9-24.7,11.9-47.7,18.4-71.5c2-7.2,3.6-14.4,5-21.6c0.6-2.9,1.1-5.9,1.5-8.8
				c0.1-0.7,0.2-1.3,0.3-2c1.7-11.4,2.7-22.8,3.1-34.1c0.3-7.7,0.3-15.3,0.2-23c-0.9-45.8-9-91.5-13.7-138.3
				c-1.2-12.6-2.3-25.1-3.1-37.7c-0.6-8.8-1.1-17.6-1.4-26.4c-1.6-37.7-1.4-75.4,0.7-113c31.2,0.2,62.5,0.6,93.7,0.9
				c15.8,0.2,31.7,0.3,47.5,0.4c-1.2,19.4-2.5,38.7-3.7,58.1c-1,15.1-1.9,30-2.9,44.6c-0.4,6.1-0.8,12.2-1.2,18.3
				c-4.2,65.1-7.9,127.2-10.5,193.8c-0.3,7.8-0.6,15.7-0.8,23.7c-0.1,1.6-0.1,3.1-0.2,4.7c-0.4,11.6-0.7,23.3-0.1,34.8
				c0.1,1,0.1,2,0.2,2.9c0.3,4.4,0.8,8.8,1.5,13.1c0.8,5.1,1.9,10.1,3.3,15c11.7,39.8,46.8,67.7,84.2,76.8
				c31.1,7.6,64.5,4.2,93.8,17.7C2015.5,3498.4,2024.4,3505.6,2023.8,3515.4z"/>
			<path class="st11" d="M1836.9,3093.7c-0.4,6.1-0.8,12.2-1.2,18.3c-4.2,65.1-7.9,127.2-10.5,193.8c-35.1-0.3-70.3-0.6-105.4-0.7
				c-0.9-45.8-9-91.5-13.7-138.3c-1.2-12.6-2.3-25.1-3.1-37.7c-0.6-8.8-1.1-17.6-1.4-26.4c33.9-2,67.4-4.3,100.1-6.6
				C1813.5,3095.4,1825.2,3094.6,1836.9,3093.7z"/>
			<path class="st4" d="M1676.3,3522.7l365.4-3c-0.1-12.1-9.5-20.9-18.2-25.5c-19.1-10-40.1-12.3-61-14.5
				c-10.4-1.1-20.8-3.1-31.1-4.3c-11.4-1.3-14.4,7.9-21.6,17.3c-1.8,2.4-3.7,4.8-6.4,6c-2,0.8-4.2,0.8-6.3,0.8
				c-32-0.3-64-1.4-96-3.4c-20.4-1.3-40.8-0.5-60.8-5c-2.2-0.5-47.9-56.5-48.6-54.7c-3,8.5-5.9,16.8-8.4,25.5
				c-4.5,16.2-7.3,32.9-8.1,49.7c-0.2,3.3-0.3,6.8,0.6,10C1676.1,3522,1676.2,3522.4,1676.3,3522.7z"/>
			<path class="st4" d="M2041.7,3515.6l0.1,13.6c0,4.8-0.7,9.4-2.1,13.7c-5.1,15.9-19.3,27.4-36.1,27.6l-276.7,2.3
				c-19,0.2-35.7-10.7-44.7-26.9c-4.4-8-7-17.3-7.1-27.2L2041.7,3515.6z"/>
			<path class="st12" d="M2039.8,3542.9c-5.1,15.9-19.3,27.4-36.1,27.6l-276.7,2.3c-19,0.2-35.7-10.7-44.7-26.9L2039.8,3542.9z"/>
		</g>
		<path class="st11" d="M2173.1,1839c-10.7-15.1-19.9-26.7-39.6-27.2c-16.6-0.4-32.2,7.3-47.1,13.6c-20.9,8.9-45.5,19.4-68.2,20.5
			c-32.2,1.5-64.7,1.2-96.9,0.4c-63.4-1.5-126.9-6.6-189.4-17.4c-40.7-7-41.4-17.4-54.8-56.8c-29-85.6-62.4-178.1-116-252.3
			c-47.7-66.1-132.1-77.8-136.9,19.2c-2.7,53.7,20.8,105.3,44.3,152.3c24.1,48.2,53.3,93.5,81.5,139.4c22.3,36.3,33,82.6,75.8,98.6
			c30.3,11.4,68.4,15.2,100.6,15c40.8-0.3,82.7-10,122.9-16.7c78.2-13,159.9-27.4,238.8-11.2c26.8,5.5,56.7,21.6,84.1,21.2
			c28.8-0.5,26.2-36.1,21.1-56.1C2189.3,1866.3,2182.2,1851.9,2173.1,1839z"/>
		<path class="st5" d="M1985.8,1846.8c-21.5,0.3-43.1,0-64.5-0.5c-63.4-1.5-126.9-6.6-189.4-17.4c-40.7-7-41.4-17.4-54.8-56.8
			c-29-85.6-62.4-178.1-116-252.3c-47.7-66.1-132.1-77.8-136.9,19.2c-2.7,53.7,20.8,105.3,44.3,152.3
			c24.1,48.2,53.3,93.5,81.5,139.4c22.3,36.3,33,82.6,75.8,98.6c30.3,11.4,68.4,15.2,100.6,15c40.8-0.3,82.7-10,122.9-16.7
			c44-7.3,89.1-15.1,134.2-17.6C1984.7,1889,1985.5,1867.9,1985.8,1846.8z"/>
		<path class="st11" d="M1572.8,2645.7c19.5,18.2,38.9,40.9,56.2,66c22.3,27.3,42.6,56.5,60.6,87.3c10.1,17.4,19.8,36,21.5,56.5
			c1,11.5-0.6,23-2,34.5c-2.2,17.5-3.9,35.1-5.2,52.7c35.8,0.2,71.7,0.7,107.5,1c11.2,0.1,22.4,0.2,33.7,0.2
			c2.3-36.3,4.6-72.6,7-108.9c1.9-29,6.9-59.8,6.7-88.7c-0.2-24.9-14.6-47-25-69.2c-72.6-153.6-163.4-295.8-226.2-454.2
			c-3.2-8.1-6.3-16.2-9.4-24.3c-0.8-2-1.5-4.1-2.2-6.1c-0.3-0.8-0.6-1.6-0.8-2.4c-0.4-1-0.7-2.1-1.1-3.1c-1.1-3.2-2.2-6.5-3.2-9.8
			c-29.9-94.3-32-202-7-297.6c0.1-0.5,0.3-1,0.4-1.6c0-0.2,0.1-0.3,0.1-0.5c12.1-43.2,45.4-73.7,58.2-118.6c1.4-5,2.7-10,3.8-15
			c9.2-41.2,8.4-85.2-3.5-125.7c-21.4-72.7-88.2-110.8-88-192.5c0.1-46.9,20-92.8,51.3-124.9c2.3-2.4,4.8-5,5.2-8.4
			c1-8.2-9.5-11.3-17-11c-34.7,1.3-69.3,6.8-102.9,16.2c-19,5.3-39.8,13.8-47.9,33.3c-12.7,30.4-12,66.8-24.2,98.2
			c-0.5,1.3-1,2.6-1.5,3.9c-0.3,0.8-0.7,1.7-1,2.5c-10.3,25.5-21.6,50.3-25.1,77.6c-4.2,32.2-5.8,64.1-7.7,96.6
			c-3.7,62.5-5.2,125.3-13.9,187.4c-10.2,73.2-25.6,145.9-50.5,214.9c-17.4,48.4-45.8,86.3-56.1,138.1c-0.2,1.2-0.5,2.3-0.7,3.5
			c-0.7,4.1-1.4,8.1-2,12.2c-0.6,4-1.1,7.9-1.5,11.9c-1.2,10.9-1.8,21.9-1.8,32.9c0,1.7,0,3.5,0,5.2c0,0.9,0,1.8,0,2.8
			c0.4,21.1,2.7,42.2,7.1,62.7c20.8,57.3,60.5,107.8,99.5,152.8C1429.7,2509.5,1500.3,2578.1,1572.8,2645.7z"/>
		<path class="st13" d="M1642.4,2303c-0.5,4.2-1,8.4-1.5,12.6c-0.1,0.7-0.2,1.4-0.3,2.2c-0.5,3.5-1,7.1-1.6,10.6
			c-3.3,20.7-7.7,41.3-12.4,61.5c-3.1,13.3-6.3,26.4-9.3,39.3c-3.1,13-6.1,25.8-8.7,38.1c-1.2,5.9-2.5,11.8-3.8,17.7
			c-0.2,0.9-0.4,1.7-0.7,2.5c-24.8,65.3-46.9,131.7-69.8,197.9c-2.7,7.9-5.5,15.8-8.2,23.6c-4.1,11.6-8.2,23.3-12.3,34.9
			c-12.3,34.5-25.1,68.8-38.8,102.8c-37.3,92.5-117.9,160.4-186.1,231.1c-57.3,59.4-115.6,118-174.8,175.5
			c-22.1-21.2-44.4-42-67.2-62.5c-25.5-22.9-51.5-45.2-78-66.8c-6.6-5.4-13.3-10.8-20-16.1c-2-1.5-3.9-3.1-5.9-4.6
			c14.6-12.5,30-26,45.7-40c36.5-32.6,74.9-68.3,109.1-101.3h0c45.7-44.1,84.1-83.6,101.1-105.2c13.3-16.9,23.1-34.6,30.2-53
			c20.6-53.1,19.2-111.5,19.8-170.6c0.1-12.6,0.3-25.2,0.9-37.9c1.8-43.9,2.9-86.3,4.7-127.7c0.6-13.3,1.2-26.5,2-39.6
			c0.8-13.2,1.7-26.3,2.9-39.3c6-69.2,17.3-136.1,42.3-202.7c58,29,120.3,50,181.8,69c25,7.7,50.2,15.1,75.3,22.5
			c20,5.9,40.1,11.9,60,18.1c3.9,1.2,7.8,2.4,11.7,3.6L1642.4,2303z"/>
		<path class="st14" d="M1640.6,2317.8c-0.5,3.5-1,7.1-1.6,10.6c-3.3,20.7-7.7,41.3-12.4,61.5c-3.1,13.3-6.3,26.4-9.3,39.3
			c-3.1,13-6.1,25.8-8.7,38.1c-1.2,5.9-2.5,11.8-3.8,17.7c-0.2,0.9-0.4,1.7-0.7,2.5c-24.8,65.3-46.9,131.7-69.8,197.9
			c-9-11-18.9-21.7-29.8-32.2c-75.9-73.7-149.8-148.1-217.4-229.2c-9.5-11.4-18.9-23.2-27.8-35.3c6-69.2,17.3-136.1,42.3-202.7
			c58,29,120.3,50,181.8,69c25,7.7,50.2,15.1,75.3,22.5c20,5.9,40.1,11.9,60,18.1c3.9,1.2,7.8,2.4,11.7,3.6
			c3.2,5.7,6.4,11.4,9.4,16.9C1640,2316.7,1640.3,2317.2,1640.6,2317.8z"/>
		<path class="st15" d="M1640.2,2882c-6.7,123.7-13.3,247.4-20,371.1c13-0.2,25.9-0.5,38.9-0.8c36-0.8,72-1.5,108.1-0.5
			c28.2,0.8,56.4,0.3,84.5-0.8c0.7-46.2,0.4-91.1,0.7-97.9c3.9-104.1,7.3-208.3,11.7-312.4c1-23.7,1-47.4,2-70.9
			c2.9-71.9-39.8-158.1-67.8-223.1c-34-79-74.8-155-115.9-230.7c-20.4-37.5-45.8-79.8-76.3-118.4c-39.9-50.5-88.6-94.5-146.1-112.5
			c-31.3-9.8-64.9-10.8-97.7-8.5c-57,4-100.8,22.4-119,79.4c-4,12.6-6.7,25-8.1,37.3c-10.4,86.7,39.1,164.2,94.6,230.8
			c67.6,81.1,141.5,155.5,217.4,229.2C1613.4,2717.6,1645.1,2789.8,1640.2,2882z"/>
		<path class="st4" d="M1663.5,1743.8c-8.3,38.2-23.4,75.5-40,110.5c-24.3,51.1-45.5,99.6-46,156.7c-0.4,56.2,7.6,113,25.9,166.2
			c1.1,3.3,2.3,6.6,3.5,9.8c0.4,1,0.8,2.1,1.2,3.1c0.3,0.8,0.6,1.6,0.9,2.4c0.8,2.1,1.6,4.1,2.4,6.1c1.1,2.7,2.2,5.4,3.3,8.1
			c4,9.6-0.4,20.7-10,25c-19,8.4-41,14.7-56.6,19.5c-71.6,21.9-151.1,27.2-224.1,7.7c-32.2-8.6-67.6-20.6-84.3-43.2
			c-2.1-2.9-4-5.9-5.4-9.2c-5.4-11.9-6.1-26.3,0.3-44c34.4-95.5,53.5-196.7,60.4-297.8c6.7-97.9-19.4-199.8,1.4-295.8
			c9.1-41.7,29.7-83.3,62.3-111.6c51.7-45,74.5-6.6,126.2,16.9c36.3,16.4,74.7,26.7,113.9,31c6.6,0.7,12.4,4.7,15.3,10.6
			c16.6,33.3,34.5,66.5,46.1,102.6C1673.6,1659.9,1672.5,1702.3,1663.5,1743.8z"/>
		<path class="st10" d="M2170.7,1961.8c-1.5,0.6-3.3,0.9-4.8,0.2c-1.6-0.8-2.4-2.5-3.2-4.1c-0.1-0.2-0.2-0.5-0.3-0.7
			c-3.8-7.7-8-15.2-12.8-22.3c-2.6-3.8-5.3-7.6-8.2-11.2c-2.9-3.7-6.1-7.4-10.5-9.2c-4.8-1.9-10.2-1.2-15.3-0.2
			c-4.7,0.8-10.3,2.5-14.6,5.5c-4.5,3.1-7.5,7.6-6.6,14.1c0.4,2.9,2,5.5,3.5,8c10.8,17.8,18.7,20.9,36.3,27.3
			c13.2,4.8,10.1,11,1.8,14.1c-2.5,0.9-5.4,1.6-8.5,1.8c-11.1,0.9-22.3,0.9-33.4-0.1c-15.1-1.3-30.1-4.2-44.6-8.7
			c-5.8-1.8-11.4-3.8-17-6.1c-7.5-3.1-14.9-6.6-21.9-10.5c-15.4-8.6-32.3-12.7-49.9-13.9c-1.1-0.1-2.2-0.1-3.2-0.2
			c-0.9,0-1.8-0.1-2.8-0.1c-10.1-0.3-20.5,0.2-30.9,1.3c-3.3,0.3-6.5,0.7-9.8,1.2c-2.6,0.3-5.1,0.7-7.7,1.1c-3.9,0.6-7.7,1.3-11.6,2
			c-2.6,0.5-5.1,0.9-7.7,1.4c-1.3,0.2-2.6,0.5-3.8,0.7c-6.4,1.3-12.7,2.6-19,3.9c-3.8,0.8-7.5,1.6-11.2,2.3c-3.7,0.8-7.3,1.5-11,2.2
			c0,0,0,0,0,0c-2.4,0.5-4.8,0.9-7.2,1.4c-2.4,0.4-4.7,0.8-7,1.2c-40.1,6.7-82,16.4-122.9,16.7c-32.2,0.2-70.3-3.6-100.6-15
			c-7.4-2.8-13.9-6.5-19.6-10.9c-4.9-3.7-9.2-8-13.2-12.6c-18.1-21.3-27.9-50.5-43-75.1c-25.5-41.6-51.9-82.6-74.5-125.8
			c-2.4-4.5-4.7-9-7-13.6c-23.4-47-46.9-98.7-44.3-152.3c1.5-30.9,11.2-50.8,25.1-61.4c13.3-10.1,30.5-11.7,48.3-6.5
			c22.2,6.5,45.4,23.7,63.4,48.7c44.6,61.8,75.2,136.3,101,208.9c3.1,8.8,6.2,17.7,9.2,26.4c2,5.7,3.9,11.3,5.8,17
			c13.3,39.4,14,49.8,54.8,56.8c21.8,3.8,43.7,1.9,65.9,2.6c37.3,0,74.8,2.8,112.4,3c6.1,0,12.1,0,18.2,0c3.6,0,7.2,0,10.8,0
			c6.7,0,13.4,0.1,20.1,0.1c4.1,0,8.2,0.1,12.3,0.1c1.8,0,3.5,0,5.3,0c10,0.1,20,0.2,30,0.2c0.5,0,1,0,1.5,0
			c15.1,0.1,24.6-1.1,38.6-6.4c14.9-5.6,29-12.9,43.4-19.6c15.8-7.3,33.1-13.1,50.3-10.6c16.4,2.3,26.6,12.7,34.2,25.6
			c6.5,11.2,11.1,24.3,16,35.8c1.1,2.6,2.6,6,4.1,9.9c1.7,4.4,3.5,9.3,5.1,14.5c1.5,4.9,2.6,10.1,3.2,15
			C2182.9,1947.4,2180.8,1957.7,2170.7,1961.8z"/>
		<path class="st6" d="M1962.3,1911.6C1962.3,1911.6,1962.3,1911.6,1962.3,1911.6c-0.1,5.1-0.2,10.2-0.4,15.2
			c-0.3,6.4-0.7,12.7-1.4,19c-1.1-0.1-2.2-0.1-3.2-0.2c-0.9,0-1.8-0.1-2.8-0.1c-10.1-0.3-20.5,0.2-30.9,1.3
			c-3.3,0.3-6.5,0.7-9.8,1.2c-2.6,0.3-5.1,0.7-7.7,1.1c-3.9,0.6-7.7,1.3-11.6,2c-2.6,0.5-5.1,0.9-7.7,1.4c-1.3,0.2-2.6,0.5-3.8,0.7
			c-6.4,1.3-12.7,2.6-19,3.9c-3.8,0.8-7.5,1.6-11.2,2.3c-3.7,0.8-7.3,1.5-11,2.2c0,0,0,0,0,0c-2.4,0.5-4.8,0.9-7.2,1.4
			c-2.4,0.4-4.7,0.8-7,1.2c-40.1,6.7-82,16.4-122.9,16.7c-32.2,0.2-70.3-3.6-100.6-15c-7.4-2.8-13.9-6.5-19.6-10.9
			c-4.9-3.7-9.2-8-13.2-12.6c-18.1-21.3-27.9-50.5-43-75.1c-25.5-41.6-51.9-82.6-74.5-125.8c-2.4-4.5-4.7-9-7-13.6
			c-23.4-47-46.9-98.7-44.3-152.3c1.5-30.9,11.2-50.8,25.1-61.4c13.3-10.1,30.5-11.7,48.3-6.5c22.2,6.5,45.4,23.7,63.4,48.7
			c44.6,61.8,75.2,136.3,101,208.9c3.1,8.8,6.2,17.7,9.2,26.4c2,5.7,3.9,11.3,5.8,17c13.3,39.4,14,49.8,54.8,56.8
			c21.8,3.8,43.7,1.9,65.9,2.6c37.3,0,74.8,2.8,112.4,3c6.1,0,12.1,0,18.2,0c3.6,0,7.2,0,10.8,0c6.7,0,13.4,0.1,20.1,0.1
			c4.1,0,8.2,0.1,12.3,0.1c1.8,0,3.5,0,5.3,0c2,0,4,0,6,0c0.6,8.2,1,16.5,1.1,24.8C1962.4,1901.5,1962.4,1906.5,1962.3,1911.6z"/>
		<path class="st3" d="M2163,1949.9c0,2.5-0.2,4.9-0.6,7.3c-2.1,12.3-9.3,22.8-19.3,29.3c-6.8,4.4-14.8,6.9-23.5,6.9
			c-8.7,0-16.7-2.5-23.5-6.9c-0.7-0.4-1.4-0.9-2-1.4c-10.9-7.9-17.9-20.7-17.9-35.2c0-24,19.5-43.5,43.5-43.5
			C2143.5,1906.4,2163,1925.9,2163,1949.9z"/>
		<path class="st10" d="M1671.5,1343.3c-10.7,10.3-23.2,20.1-38,21.5c-29.3,2.8-60-25.5-79.3-44c-29.8-28.7-58.3-59.2-79.9-94.7
			c-29-47.6-44.6-106-30.1-159.8c12.4-45.9,29.7-102.6,69.2-132.7c35.5-27,86.8-22.9,126.9-3.6c71.2,34.4,106.4,102.6,111.2,178.6
			C1756.9,1193.1,1733.6,1283.2,1671.5,1343.3z"/>
		<path class="st7" d="M1573.8,1144.3c-9.9-43.8-68.6-36.4-55.7,9c5.1,17.9,16.1,34.7,31,45.7c5,3.7,10.9,8.3,10.5,14.5
			c-0.2,2.8-1.8,5.3-3.3,7.7c-22.9,36.1-47.1,71.6-66.1,109.7c-18.3,36.6-29.9,77.5-26.4,118.3c2.2,25.6,10.3,50.3,16.9,75.2
			c11.5,43.4,18.8,88.8,11.8,133.2c-12.2,77.4-79.2,128.9-136.9,175.2c-90.6,72.7-191.9,66.3-290.7,13.3
			c-73.4-39.3-105.4-114.2-103.4-197.9c2.1-87,51.5-140.4,133.7-153.6c50.1-8,72.5-15,86.2-66.6c14.1-53.1,29.5-88.3,65.9-129.3
			c75.3-85,19.8-205.7,73.8-297.1c23.6-40,65.3-70.4,111.6-75c-18-17.2-36.2-35.5-45.2-58.8c-9-23.3-6.3-52.8,12.9-68.8
			c9.4-7.8,21.6-11.6,33.8-12.5c25.3-1.9,51.2,8.3,68.3,27c17.1,18.6,25.2,45.3,21.1,70.3c9.6-17.8,31-25.7,51.1-28.1
			c46.7-5.7,98.7,11.7,131.1,46.3c28.9,31,51.3,96.6,30.9,136.5c-16.3-15.3-39.7-22.6-61.7-19.3c-26.9,4-44.9,22.8-60.3,43.7
			c-20.8,28.1-8.1,73.3-33.8,96.6C1576.4,1155.5,1575.1,1150.3,1573.8,1144.3z"/>
	</g>
	<path class="st16" d="M3787.5,1137.9c-30.9,8.1-48.9,36.7-81,44.3c-34,8-58.2-27.6-95,10.6c-83.2,86.3,57.9,234.5,158.1,195.2
		c66.4-26,102.8-104.4,93.5-175.1C3857.8,1173,3826.5,1127.6,3787.5,1137.9z"/>
	<path class="st16" d="M3879.5,925.2c7.4,6.7,17.1,10.2,26.5,13.5c18.4,6.5,39.5,13,56.7,3.8c10.3-5.5,17.3-15.8,22.3-26.3
		c8-16.8,11.8-38.5-0.1-52.8c-7.5-9-19.3-12.9-30.5-16.4c-13.3-4.1-27.8-8.2-40.7-3.2C3884.3,855.3,3845.5,894.7,3879.5,925.2z"/>
	<path class="st16" d="M771.4,867.8c7.4,6.7,17.1,10.2,26.5,13.5c18.4,6.5,39.5,13,56.7,3.8c10.3-5.5,17.3-15.8,22.3-26.3
		c8-16.8,11.8-38.5-0.1-52.8c-7.5-9-19.3-12.9-30.5-16.4c-13.3-4.1-27.8-8.2-40.7-3.2C776.2,798,737.4,837.3,771.4,867.8z"/>
	<path class="st16" d="M1071.6,521.2c4.7,13.6,14.5,24.8,24.1,35.6c18.8,21.1,41,43.9,69.3,44.3c16.9,0.2,32.9-8,46.7-17.8
		c21.9-15.7,41.7-40.6,36.7-67c-3.2-16.6-15.4-29.8-27.2-42c-13.9-14.5-29.5-29.8-49.4-32.4C1126.4,436,1049.6,458.8,1071.6,521.2z"
		/>
	<path class="st16" d="M3649.3,1025c13.5-7.5,23.4-19.9,32.9-32c18.7-23.7,38.6-51.3,33.7-81.1c-2.9-17.9-14.5-33.1-27.4-45.8
		c-20.5-20.1-50.4-36.3-77.3-26.1c-16.9,6.4-28.5,21.8-39.1,36.4c-12.6,17.3-25.8,36.5-24.9,57.9
		C3549.5,983.2,3587.8,1059.6,3649.3,1025z"/>
</g>
</svg>
