<?xml version="1.0" encoding="utf-8"?>
<!-- Generator: Adobe Illustrator 22.0.1, SVG Export Plug-In . SVG Version: 6.00 Build 0)  -->
<svg version="1.1" id="Layer_1" xmlns="http://www.w3.org/2000/svg" xmlns:xlink="http://www.w3.org/1999/xlink" x="0px" y="0px"
	 viewBox="0 0 2000 2000" style="enable-background:new 0 0 2000 2000;" xml:space="preserve">
<style type="text/css">
	.st0{opacity:5.000000e-02;fill:#322F76;}
	.st1{opacity:0.2;}
	.st2{fill:#322F76;}
	.st3{opacity:0.2;fill:#322F76;}
	.st4{fill:#78B3BA;}
	.st5{opacity:0.2;fill:#0E6973;}
	.st6{fill:#0E6973;}
	.st7{fill:#8C2727;}
	.st8{fill:#86B589;}
	.st9{opacity:0.5;fill:#78B3BA;}
	.st10{fill:#F26D85;}
	.st11{opacity:0.2;fill:#F26D85;}
	.st12{fill:#F4B0BE;}
	.st13{fill:#322F76;stroke:#000000;stroke-width:3;stroke-miterlimit:10;}
	.st14{opacity:0.5;fill:#322F76;}
	.st15{fill:#FAA795;}
	.st16{fill:#F0596A;}
	.st17{fill:#FFFFFF;}
	.st18{fill:#0B5159;}
	.st19{fill:#298589;}
	.st20{fill:#227D82;}
	.st21{opacity:0.2;fill:#E09787;}
	.st22{fill:#F38B6C;}
	.st23{fill:#C0D0D8;}
	.st24{fill:#FCEBCF;}
	.st25{fill:#BF224B;}
	.st26{opacity:0.2;fill:#BE0943;}
	.st27{fill:#63493E;}
	.st28{fill:#E09787;}
	.st29{opacity:0.5;fill:#F0596A;}
	.st30{opacity:0.41;fill:#FEC3B8;}
	.st31{fill:none;stroke:#63493E;stroke-width:3;stroke-linecap:round;stroke-linejoin:round;stroke-miterlimit:10;}
	.st32{fill:none;stroke:#F0596A;stroke-miterlimit:10;}
	.st33{opacity:0.5;fill:#C0D0D8;}
</style>
<rect class="st0" width="2000" height="2000"/>
<g class="st1">
	<path class="st2" d="M1385,1754.7c-224.3,0-456.2-24.1-691.2-71.9c-88.8-18.1-190.9-41.8-278.4-94.5
		c-26.4-15.9-51.5-34.5-75.9-52.6c-25.7-19.1-52.3-38.8-80.3-55.2c-20.3-11.9-42.6-23.2-64.1-34c-72.1-36.3-146.6-73.8-171-148.3
		c-9.7-29.6-10.7-63.6-3-106.8c14.4-81.6,52.7-158.9,110.8-223.6C190,903,262.8,856.6,342.4,833.6c23.5-6.8,48-11.8,71.6-16.6
		c13.7-2.8,27.6-5.6,41.4-8.9c89.3-65.8,180-134.5,257.8-215c27.9-28.9,54.7-59.9,80.6-89.9c36.2-41.9,73.6-85.2,114.8-123.6
		c38.5-35.8,78.1-64.5,117.8-85.2c45.9-24,92-37.4,137.2-39.9c53.1-3,108,8.4,167.9,34.7c55.9,24.6,108.5,58.8,152.5,89.1
		c49.4,33.9,84.1,64.1,109.5,94.9c34.2,41.6,49.6,82.7,47.2,125.7c-1.9,34.1-16,66.6-29.6,98.1c-15.4,35.6-31.3,72.4-29.1,111.2
		c3.6,61.8,50.1,108.2,95,153.1c12.6,12.6,25.6,25.6,37.4,38.7c30.5,33.9,57,74.6,78.7,121.1c19,40.7,35,87,47.4,137.6
		c23.9,97.3,27.4,180.2,10.9,253.4c-9.6,42.5-27.2,83-50.9,117.3c-25.6,37-57.1,65.4-93.6,84.5c-57.9,30.2-124.9,35.5-188.7,38.2
		C1474.3,1753.7,1429.8,1754.7,1385,1754.7z M453.5,809.6c-13.1,3-26.2,5.7-39.2,8.3c-23.6,4.8-48.1,9.8-71.6,16.6
		c-79.4,23-152,69.3-210,133.8c-58,64.5-96.2,141.7-110.6,223.1c-7.6,43.1-6.6,76.8,3,106.3c24.2,74.1,98.6,111.5,170.5,147.8
		c21.5,10.8,43.8,22.1,64.1,34c28.1,16.5,54.7,36.2,80.4,55.3c24.3,18,49.5,36.6,75.8,52.5c87.4,52.7,189.4,76.4,278.1,94.4
		c281.9,57.3,559.2,80.6,824.4,69c63.6-2.8,130.5-8,188.2-38.1c36.3-19,67.7-47.3,93.2-84.2c23.6-34.1,41.2-74.5,50.7-116.9
		c16.5-73,12.9-155.7-10.9-252.9c-12.4-50.6-28.3-96.8-47.3-137.4c-21.7-46.3-48.1-87-78.6-120.8c-11.7-13-24.8-26-37.4-38.6
		c-45.1-45-91.7-91.6-95.3-153.8c-2.3-39,13.7-75.9,29.2-111.6c13.6-31.3,27.6-63.8,29.5-97.7c2.4-42.7-13-83.6-47-125
		c-25.2-30.7-60-60.8-109.2-94.7c-44-30.2-96.5-64.5-152.4-89c-59.8-26.2-114.5-37.5-167.5-34.6c-45,2.5-91,15.9-136.8,39.8
		c-39.6,20.7-79.1,49.3-117.6,85.1c-41.2,38.3-78.6,81.6-114.7,123.5c-25.9,30-52.7,61-80.6,90C636.7,673.8,546.7,742.1,458,807.5
		c23.3-5.5,46.3-12.1,68.3-21.6c84.4-36.3,145.5-110.7,196.2-177.6c5.4-7.2,10.9-14.4,16.3-21.6c48-63.9,97.6-129.9,164.5-174.5
		l0.3,0.4l-0.3-0.4c54.4-36.2,118.1-52.9,175-45.6c79.1,10.1,113.7,56.9,153.9,111.2c12.9,17.5,26.3,35.6,42,53.4
		c19.4,22.1,39.8,44.1,59.5,65.3c52.9,56.9,107.6,115.7,148.2,183.8c19,31.9,35.1,66.2,50.5,99.3c9.4,20.2,19.2,41.1,29.6,61.2
		c11,21.4,23.1,42.8,34.8,63.5c24.8,43.8,50.4,89.2,67.3,137.4c27.1,77.4,31.7,160.2,36.1,240.3c3.6,65.1,4,127.5-30.3,174.9
		c-16.1,22.3-39.6,40.2-69.9,53.4c-24.1,10.5-52.9,18.3-87.9,23.8c-101.8,15.9-204.3,12.6-327,2.8c-42.4-3.4-85.6-7.4-127.3-11.2
		c-100-9.2-203.4-18.7-305.4-21.1c-8.9-0.2-17.9-0.4-26.6-0.5c-60.5-1.1-123.1-2.2-181.8-19.7c-36-10.8-70.2-27.6-103.3-44
		l-153.5-75.8c-44.3-21.9-95-48.9-135.8-83.6c-45.2-38.5-70.5-79.8-77.5-126.4c-6.2-41.8,3.6-85.7,29.3-130.5
		c20.3-35.5,50-71.1,90.6-108.9c74.1-69.1,157.4-130.3,237.8-189.4C438.8,820.4,446.1,815,453.5,809.6z M455.9,809
		c-7.9,5.9-15.9,11.7-23.8,17.5c-80.4,59.2-163.6,120.3-237.7,189.4c-40.5,37.7-70.1,73.3-90.4,108.7
		c-25.6,44.6-35.4,88.3-29.2,129.9c14.7,98.9,110.9,159,212.7,209.2l153.5,75.8c33,16.3,67.2,33.2,103.1,43.9
		c58.5,17.5,121,18.6,181.5,19.7c8.7,0.2,17.8,0.3,26.6,0.5c102.1,2.4,205.5,11.9,305.5,21.1c41.7,3.8,84.8,7.8,127.3,11.2
		c122.6,9.8,225.1,13.1,326.8-2.8c34.9-5.5,63.6-13.2,87.7-23.7c30.1-13.1,53.5-31,69.5-53.1c34-47.1,33.7-109.3,30.1-174.2
		c-4.4-80-9-162.7-36-240c-16.9-48.2-42.5-93.5-67.2-137.3c-11.7-20.7-23.8-42.1-34.8-63.6c-10.4-20.2-20.1-41-29.6-61.2
		c-15.5-33.1-31.5-67.3-50.5-99.2c-40.5-68-95.2-126.8-148-183.7c-19.7-21.2-40.2-43.2-59.5-65.3c-15.6-17.9-29.1-36-42-53.5
		c-40-54.1-74.6-100.8-153.2-110.8c-56.6-7.2-120.1,9.4-174.3,45.5c-66.8,44.5-116.4,110.5-164.3,174.3
		c-5.4,7.2-10.9,14.4-16.3,21.6c-50.8,67-112,141.5-196.6,177.9C503.9,796.7,480,803.4,455.9,809z"/>
</g>
<path class="st3" d="M1733.3,1071.8c25.7,17.1,54.2,33.2,85,32.3c2.3-0.1,4.7-0.3,6.5-1.7c2.2-1.7,3-4.6,3.5-7.3
	c4.4-22.4,1.5-46.3-8.2-67c-33.3-71.6-132.7-90-172.7-158.1c-13.4-22.8-35.7-64-65.7-34c-24.8,24.8-11,54.5,2.5,79.6
	C1619.4,981,1671.9,1030.9,1733.3,1071.8z"/>
<path class="st3" d="M628,733.3c63-37.3,127.7-73.9,179.2-125.9c51.5-52.1,89-123,83.4-196c-0.6-8.2-1.9-16.6-6.6-23.3
	c-7.1-10.1-20.5-14-32.9-14c-32.8-0.1-62.3,21.4-82.6,47.3c-20.3,25.9-33.7,56.3-51.3,84.1c-34.3,54-83.8,96.4-132.5,138
	c-29.8,25.4-59.6,50.8-89.4,76.2c-14.9,12.7-29.4,26-44.7,38.1c-12.7,10.1-28.8,12.1-39.3,24c-23.3,26.4-45.3,54.1-65.8,82.8
	c-2.3,3.2-4.7,7.4-2.8,10.9c1.3,2.3,4,3.3,6.5,4.2c10.7,3.6,22,7.2,33.2,5.3c10.3-1.8,19.2-8.1,27.8-14.2
	C479.6,820.6,554.5,777.1,628,733.3z"/>
<path class="st3" d="M1730.3,1181.8c-49.1-70.6-98.2-141.1-147.3-211.7c-30.2-43.4-60.9-87.8-75.8-138.5
	c-19.4-66-10.5-136.4-7.9-205.1c2.6-68.7-3.1-142.6-45.4-196.8c-5.2-6.6-10.8-12.9-16.9-18.7c-34-32.6-79.4-49.9-125-58.6
	c-23.8-4.5-47.9-6.9-72.1-7.8c-27.9-1-54.4-5-82.3-0.2c-20.2,3.5-40.1,9.1-60.3,12.7c-16.9,3-32.4,5.9-48.3,12.2
	c-13.5,5.4-26.6,11.8-39.2,19.2c-42.3,24.9-78.4,61-100.8,104.9c-22.9,44.8-32.7,95.3-54.8,140.5
	c-45.2,92.4-136.9,153.2-230.7,195.6c-93.8,42.3-194,70.9-283.1,122.3c-89.1,51.5-168.9,132.6-184.8,234.3
	c-3.7,23.9-3.8,48.7,2.9,72c8.1,28.3,25.7,52.9,45.1,75c40.3,45.6,89.6,82.3,138.6,118.6c104.3,77.3,211.2,156.1,335.3,194.1
	c180,55.2,373.8,18.9,561.8,28.7c114.3,6,229,29.2,342.2,12.5c113.2-16.7,229.4-86.7,254.7-198.3
	C1861.1,1380,1794.1,1273.5,1730.3,1181.8z"/>
<path class="st4" d="M730.9,526.1C568,887.5,554.1,1198.5,835.1,1409.6c40.8,30.6,99.3,14,119.2-33
	c157.3-371,121.9-661.3-97.2-874.7C818.2,464,753.2,476.5,730.9,526.1z"/>
<path class="st5" d="M730.9,526.1C568,887.5,554.1,1198.5,835.1,1409.6c16.9,12.7,36.8,17.2,55.7,14.9l-90.2-944.7
	C771.9,480.6,744,496.9,730.9,526.1z"/>
<g>
	<g>
		<path class="st6" d="M697.4,1068.9c-0.3-0.5-33.6-47-66.8-122.2c-19.5-44.1-35.2-89.3-46.7-134.3c-14.3-56.3-22-112.4-22.8-166.9
			l2,0c1.9,123,38.7,231.2,69.3,300.4c33.1,74.9,66.3,121.4,66.6,121.9L697.4,1068.9z"/>
	</g>
	<path class="st6" d="M540.3,608.5c-1.1,31.3,8,39.3,21,39.8c13,0.5,24.9-6.8,26-38.1c0.8-22-10.4-50.3-17.1-65.2
		c-1.9-4.3-8-4.4-10.1-0.2C553,559.3,541.1,586.6,540.3,608.5z"/>
	<path class="st6" d="M501.6,703.4c28.4,13.3,39.3,8.1,44.8-3.7c5.5-11.8,3.5-25.6-24.9-38.9c-19.4-9.1-48.8-10.1-65.4-9.8
		c-5.3,0.1-8,6.3-4.6,10.2C462.3,673.6,482.2,694.4,501.6,703.4z"/>
	<path class="st6" d="M512.6,786c29.3,11.3,39.8,5.3,44.5-6.8c4.7-12.1,1.7-25.8-27.5-37.1c-20.5-7.9-50.8-6.6-67.1-5.1
		c-4.7,0.4-6.8,6.2-3.5,9.6C470.3,758,492.2,778.2,512.6,786z"/>
	<path class="st6" d="M529.3,863.8c30.1,8.8,40.1,2,43.7-10.5c3.7-12.5-0.4-25.8-30.5-34.7c-20.6-6-49.7-2.6-66.1,0.2
		c-5.2,0.9-7,7.4-3,10.8C486,840.3,508.8,857.8,529.3,863.8z"/>
	<path class="st6" d="M556.5,938.3c31.3,1.6,39.5-7.4,40.1-20.3c0.7-13-6.4-25-37.7-26.7c-21.3-1.1-48.6,8.9-63.9,15.4
		c-5,2.1-5.2,9.1-0.4,11.5C509.3,925.6,535.3,937.2,556.5,938.3z"/>
	<path class="st6" d="M632.4,682.4c-23.5,20.8-35.4,18.8-44.1,9.1c-8.6-9.7-10.6-23.6,12.9-44.3c16.2-14.4,44.5-23.6,60.4-28
		c4.9-1.3,9.1,3.6,7,8.2C661.9,642.2,648.6,668.1,632.4,682.4z"/>
	<path class="st6" d="M635.2,761.4c-22.2,22.2-34.2,20.9-43.4,11.7c-9.2-9.2-12-22.9,10.2-45c14.6-14.6,40.4-25.2,56.3-30.8
		c5.7-2,11.1,3.6,8.9,9.2C661.1,721.9,649.7,746.8,635.2,761.4z"/>
	<path class="st6" d="M658.3,828.3c-23.2,21.1-35.1,19.4-43.9,9.8c-8.8-9.6-11-23.4,12.2-44.5c15.6-14.3,42.8-23.9,58.8-28.6
		c5.3-1.6,10,3.8,7.8,8.9C686.5,788.9,673.9,814.1,658.3,828.3z"/>
	<path class="st6" d="M670.6,899c-25.1,18.8-36.9,15.9-44.6,5.5c-7.8-10.4-8.7-24.3,16.4-43.1c17.2-12.9,45.7-19.8,62-22.9
		c5.2-1,9.1,4.5,6.5,9.1C702.9,861.8,687.7,886.2,670.6,899z"/>
	<g>
		<path class="st6" d="M565.8,704.8l-19.9-4.6l0.5-1.9l19,4.4c9.4-6.7,23.4-16.6,24.2-17.5l0.2,0.2l-0.2-0.3c1-0.5,1.4,0,1.6,0.2
			c0.6,1,0.6,1-12.6,10.4c-6.2,4.4-12.5,8.9-12.5,8.9L565.8,704.8z"/>
	</g>
	<g>
		<polygon class="st6" points="579.1,787.7 552.9,775.2 553.8,773.4 578.5,785.2 596.4,762.4 597.9,763.7 		"/>
	</g>
	<g>
		<path class="st6" d="M596.4,852.6l-31.5-2.7l0.2-2l30.5,2.6c7-8.2,17.3-20.4,17.9-21.5l0.8,0.5l1-0.5c0.4,0.8,0.5,0.9-18.5,23.2
			L596.4,852.6z"/>
	</g>
	<g>
		<polygon class="st6" points="596.7,915.5 596.4,913.5 616.6,910.9 632.4,894.5 633.8,895.9 617.6,912.8 		"/>
	</g>
</g>
<g>
	<g>
		<path class="st6" d="M1021.9,1135.4l-1.5-1.3c19.8-22.8,70.4-89.2,119.7-177.4c36.2-64.7,66.7-131.7,90.7-198.9
			c30-84.1,49.8-168.9,58.8-252.1l2,0.2c-9.1,83.4-28.9,168.4-58.9,252.6c-24,67.4-54.6,134.4-90.8,199.3
			C1092.4,1046,1041.8,1112.6,1021.9,1135.4z"/>
	</g>
	<path class="st6" d="M1329.4,452.2c-2.8,48.2-17.9,59.2-37.9,58c-20-1.2-37.3-14-34.5-62.2c2-33.9,23.2-75.7,35.7-97.5
		c3.6-6.3,12.9-5.6,15.5,1.2C1317,374.8,1331.4,418.4,1329.4,452.2z"/>
	<path class="st6" d="M1375.2,603.3c-45.5,16.3-61.5,6.7-68.2-12.1c-6.8-18.8-1.7-39.8,43.7-56.1c31.1-11.2,76.3-8.5,101.7-5.7
		c8,0.9,11.4,10.8,5.5,16.4C1439.7,563.2,1406.2,592.2,1375.2,603.3z"/>
	<path class="st6" d="M1346.4,728.4c-46.5,13.1-61.8,2.4-67.2-16.9c-5.4-19.3,1-39.8,47.5-52.9c32.6-9.2,78.9-2.8,103.7,1.8
		c7.2,1.3,9.6,10.5,4,15.2C1415.3,691.5,1378.8,719.3,1346.4,728.4z"/>
	<path class="st6" d="M1309.6,845.3c-47.4,9.2-61.8-2.7-65.6-22.4s4.3-39.6,51.8-48.8c32.4-6.3,76.6,3.2,101.3,9.8
		c7.8,2.1,9.6,12.4,3,17.1C1379.4,815.5,1341.9,839,1309.6,845.3z"/>
	<path class="st6" d="M1257.2,955.7c-48.3-2-59.5-17-58.6-37c0.8-20,13.4-37.5,61.7-35.5c32.8,1.4,73.3,20.6,95.9,32.8
		c7.3,4,6.6,14.7-1.1,17.7C1331.4,943.1,1289.8,957.1,1257.2,955.7z"/>
	<path class="st6" d="M1177.4,552.3c33.1,35.2,51.7,34,66.3,20.3c14.6-13.7,19.7-34.6-13.4-69.9c-22.8-24.4-64.9-42.6-88.7-51.6
		c-7.3-2.7-14.5,4.2-11.9,11.6C1137.9,486.3,1154.7,528,1177.4,552.3z"/>
	<path class="st6" d="M1161.9,673c30.9,37.2,49.5,37,64.9,24.3c15.4-12.8,21.7-33.4-9.1-70.5c-20.3-24.5-58.4-44.5-82-55.4
		c-8.4-3.9-17.5,3.9-14.9,12.9C1127.8,608.8,1141.6,648.6,1161.9,673z"/>
	<path class="st6" d="M1116.8,772.4c32.5,35.8,51.1,34.8,65.9,21.3c14.8-13.5,20.2-34.3-12.3-70.1c-21.9-24.1-62.2-42.8-86.1-52.3
		c-7.9-3.2-15.9,4.4-13.2,12.5C1079.1,707.8,1094.9,748.4,1116.8,772.4z"/>
	<path class="st6" d="M1087.8,879.1c35.8,32.5,54.3,29.7,67.7,14.8c13.4-14.8,16.8-36.1-19-68.5c-24.5-22.2-67.3-37-91.8-44
		c-7.8-2.2-14.6,5.6-11.4,13C1043.5,817.4,1063.4,857,1087.8,879.1z"/>
	<g>
		<path class="st6" d="M1282.6,596.3c-2.1,0-4.1-0.2-5.9-0.6c-5.2-1.4-14.6-9.5-21.6-16.1c-4.9-4.6-14.5-14.2-14.7-15.7l-0.1-0.6
			l0.6-0.4c0.6-0.4,1.2,0,1.5,0.2l-1.1,1.6c0.2,0,0.5,0,0.8-0.3c0.3-0.3,0.3-0.8,0.2-1c1.2,2.4,26.4,28.1,34.9,30.3
			c9.6,2.5,29.7-4.1,29.9-4.1l0.6,1.9C1307,591.7,1293.1,596.3,1282.6,596.3z"/>
	</g>
	<g>
		<polygon class="st6" points="1244.3,720.8 1219.1,681.6 1220.8,680.5 1245.1,718.3 1285.2,703.6 1285.9,705.5 		"/>
	</g>
	<g>
		<path class="st6" d="M1257,818.4l-48.5-0.4l-0.3-0.4c0,0-6.3-9-12.6-18.1c-13-18.7-12.9-18.8-12.4-19.5l1.7,1.1
			c0.2-0.4,0.2-0.7,0.1-0.9c0.7,1.5,15,22.1,24.6,35.8l47.5,0.4L1257,818.4z"/>
	</g>
	<g>
		<polygon class="st6" points="1198.9,914.4 1167.4,907.3 1145,879.3 1146.6,878 1168.5,905.5 1199.3,912.4 		"/>
	</g>
</g>
<g>
	<path class="st7" d="M1319.2,1209.4l-1.3-1.5c0.5-0.4,45.7-39.5,97.6-116.8c30.5-45.4,57.2-94.9,79.5-147.2
		c27.9-65.3,48.8-135.1,62.2-207.4l2,0.4c-13.5,72.5-34.5,142.4-62.4,207.8c-22.3,52.4-49.2,102-79.7,147.5
		C1365.1,1169.7,1319.7,1209,1319.2,1209.4z"/>
</g>
<g>
	<path class="st8" d="M1185.3,1206.9l-0.3-2c0.6-0.1,59.8-8.3,145.4-44.9c50.3-21.5,99.7-48.5,146.8-80.2
		c58.9-39.6,114.5-86.8,165.1-140.1l1.5,1.4c-50.7,53.5-106.4,100.7-165.4,140.4c-47.2,31.8-96.8,58.8-147.2,80.4
		C1245.4,1198.6,1185.9,1206.8,1185.3,1206.9z"/>
</g>
<ellipse transform="matrix(0.5583 -0.8296 0.8296 0.5583 -50.7064 1776.6821)" class="st8" cx="1643.3" cy="936" rx="22.3" ry="21.1"/>
<path class="st4" d="M1631.3,883.7c0.8-10.8,1.6-21.7,2.3-32.5c0.7-9.4,1.4-19,5.1-27.6c6.2-14.5,19.7-24.3,32.7-33.2
	c10.8-7.4,23.7-14.9,36.1-11c5.1,7.5,1.8,17.9-3.4,25.4s-12.2,14-14.7,22.8c11.8-11.4,27.2-19,43.4-21.2c8-1.1,16.5-0.9,23.8,2.4
	c7.4,3.4,13.4,10.4,13.9,18.5c0.6,9.9-6.8,18.5-14.7,24.4s-17.1,10.7-23,18.7c14.1-1.2,30.3-1.5,39.9,9c11.5,12.5,5.4,34.4-8.4,44.3
	c-14.5,10.5-33.9,9.3-50.6,13.6c-21,5.4-44.2,7.2-65.3,0.4c-18.7-6-19.2-27.8-18-44.4C1630.8,890,1631.1,886.9,1631.3,883.7z"/>
<path class="st9" d="M1772.8,879.3c-9.5-10.4-30.6-10.9-39.9-9c-36.9,14.5-48.2,42.3-84.3,67.3c16.8,6.6,44.2,5,65.3-0.4
	c16.7-4.3,36-3.1,50.6-13.6C1778.2,913.7,1784.3,891.8,1772.8,879.3z"/>
<path class="st9" d="M1707.6,779.4c-12.4-4-25.3,3.6-36.1,11c-13,8.9-26.6,18.7-32.7,33.2c-3.7,8.7-4.4,18.2-5.1,27.6
	c-0.8,10.8-1.6,21.7-2.3,32.5c-0.2,3.2-0.5,6.3-0.7,9.5c-1.2,16.6-1.1,38.1,18,44.4c-23.9-29,40.8-110,40.8-110
	c2.6-8.7,9.5-15.3,14.7-22.8C1709.3,797.3,1712.7,786.9,1707.6,779.4z"/>
<g>
	<path class="st10" d="M1781.7,991.1c-21.1-0.7-42.3-0.7-63.4,0.1c-9.4,0.4-19.1-0.5-27.4,4.4c-7.8,4.6-14.5,11-20.5,17.8
		c-0.6,0.6-1.4,1.3-2.1,0.9c-0.3-0.2-0.5-0.6-0.6-1c-1.8-5-6.2-13.5-11.3-16c-5-2.5-13.6,0.4-18.9,1.2c-14.3,2.1-28.5,4.7-42.6,7.7
		c-26,5.6-51.6,13-76.5,22.3c-50.9,19-98.7,46.4-139.8,82c-35.2,30.6-65.2,66.9-89.3,106.9c-21.1,35.1-37.7,72.9-50.1,111.9
		c-10,31.5-17.4,63.9-22.1,96.6c-5.6,38.7,27.8,71.9,66.4,65.8c65.1-10.2,129.7-25.2,191.7-47.9c56.4-20.7,110.7-47.8,159.4-83.1
		c46.9-34,88.2-75.4,121.4-123c12.5-17.9,23.8-36.5,33.9-55.8c5.2-9.8,10-19.7,14.6-29.8c2.3-5.1,4.6-10.3,6.7-15.5
		c2.2-5.2,7.5-12.3-0.8-13.8c-4.6-0.8-9.2-1.2-13.8-1.3c-0.1-1,0.6-1.8,1.2-2.5c4-4.2,8.3-8.2,12.9-11.7c4.5-3.5,11.4-6.2,15.1-10.4
		c6.2-7.2,7.9-23.1,10.4-32.1C1846.3,1028.5,1819.4,992.4,1781.7,991.1z"/>
	<path class="st11" d="M1781.7,991.1c-21.1-0.7-42.3-0.7-63.4,0.1c-9.4,0.4-19.1-0.5-27.4,4.4c-7.8,4.6-14.5,11-20.5,17.8
		c-0.6,0.6-1.4,1.3-2.1,0.9c-0.3-0.2-0.5-0.6-0.6-1c-1.8-5-6.2-13.5-11.3-16c-5-2.5-13.6,0.4-18.9,1.2c-14.3,2.1-28.5,4.7-42.6,7.7
		c-26,5.6-51.6,13-76.5,22.3c-50.9,19-98.7,46.4-139.8,82c-35.2,30.6-65.2,66.9-89.3,106.9c-21.1,35.1-37.7,72.9-50.1,111.9
		c-10,31.5-17.4,63.9-22.1,96.6c-2.6,18.2,3.4,35.2,14.5,47.5c0,0,305.4-214.6,372.4-270.7s217.2-194.8,213.3-198.1
		C1807.6,996.6,1795.4,991.6,1781.7,991.1z"/>
	<g>
		<path class="st12" d="M1279.8,1427c-0.2,0-0.4-0.1-0.6-0.2c-0.4-0.3-0.6-0.9-0.2-1.4c17.8-24.8,42.2-44,63.6-59.6
			c41.3-29.9,86.2-56.1,129.6-81.5c52.7-30.8,107.3-62.6,155.7-101.3c25.4-20.3,49.6-42.8,73-64.6l83.2-77.5c0.4-0.4,1-0.4,1.4,0
			c0.4,0.4,0.4,1,0,1.4l-83.2,77.5c-23.4,21.8-47.7,44.4-73.1,64.7c-48.5,38.8-103.1,70.7-155.9,101.5
			c-43.4,25.3-88.2,51.5-129.4,81.4c-21.3,15.5-45.5,34.6-63.2,59.1C1280.4,1426.8,1280.1,1427,1279.8,1427z"/>
	</g>
	<g>
		<path class="st12" d="M1688.7,1151.4c-6.8,0-13.6-0.4-20.5-1.1c-0.3,0-0.6-0.2-0.7-0.5c-0.2-0.3-0.2-0.6-0.1-0.9
			c5.5-15,13.8-28.9,21.7-42.4c5.9-9.9,11.9-20.1,16.8-30.7c2.6-5.6,5-11.5,7.3-17.1c5.2-12.9,10.6-26.3,19.2-37.4
			c-0.3-0.4-0.3-1,0.1-1.4l3.6-3.2c0.4-0.3,1-0.3,1.4,0c0.4,0.4,0.4,1,0,1.4c-10.5,11.7-16.5,26.8-22.4,41.3
			c-2.3,5.7-4.7,11.6-7.3,17.2c-5,10.6-11,20.9-16.9,30.9c-7.7,13-15.7,26.5-21.1,40.8c18.3,1.8,36.3,1,55-2.4
			c4.1-0.7,8.2-1.6,12.2-2.5c9.1-1.9,18.5-3.9,28-4.4c2.4-0.1,4.7-0.2,7.1-0.2c5.1-0.1,10.4-0.1,15.4-1.2c0.1-0.1,0.2-0.1,0.3-0.1
			l3.3-0.8c0.5-0.1,1.1,0.2,1.2,0.7c0.1,0.5-0.1,1.1-0.7,1.2c-6.3,2.1-13.1,2.2-19.6,2.3c-2.3,0-4.7,0.1-7,0.2
			c-9.3,0.5-18.6,2.5-27.7,4.4c-4,0.9-8.2,1.7-12.3,2.5C1712.7,1150.3,1700.7,1151.4,1688.7,1151.4z"/>
	</g>
	<g>
		<path class="st12" d="M1714.8,1264.7c-37,0-159-25.4-164.5-26.6c-0.5-0.1-0.9-0.6-0.8-1.1c0.2-1.4,19.4-145,31.9-215.8
			c0.1-0.5,0.6-0.9,1.2-0.8c0.5,0.1,0.9,0.6,0.8,1.2c-12,67.8-30.1,202.4-31.8,214.8c12.4,2.6,145.3,29.9,169.5,26
			c0.6-0.1,1.1,0.3,1.1,0.8c0.1,0.5-0.3,1.1-0.8,1.1C1719.7,1264.6,1717.5,1264.7,1714.8,1264.7z"/>
	</g>
	<g>
		<path class="st12" d="M1624.7,1187.6c-0.4,0-0.7-0.2-0.9-0.6c-2.7-5.9-2.6-12.5-2.2-19.3c2.5-45.5,9.9-90.9,21.8-135
			c0.1-0.5,0.7-0.9,1.2-0.7c0.5,0.1,0.8,0.7,0.7,1.2c-11.9,43.9-19.2,89.1-21.8,134.6c-0.4,6.3-0.5,12.5,1.7,17.8
			c25.1-1.5,50.6-2.8,75.3-4c24.9-1.2,50.6-2.5,76-4c0.6,0,1,0.4,1.1,0.9c0,0.6-0.4,1-0.9,1.1c-25.3,1.6-51.1,2.8-76,4
			C1675.8,1184.8,1650.1,1186,1624.7,1187.6C1624.7,1187.6,1624.7,1187.6,1624.7,1187.6z"/>
	</g>
</g>
<path class="st13" d="M663.8,1067.5c13.1-22,33.7-38.8,39.4-64.8c4.2-19.6,3.1-40.2,8.9-59.4c12.6-41.5,54.5-67,75.6-105
	c29.7-53.3,15.4-124.8,51.4-174c17.2-23.4,45.3-38.1,74.1-40.5c12-1,24.7,3,36.3-0.1c12.2-3.3,25.2-14.7,37-20
	c28.7-12.8,60.4-21.1,91.9-15.9c59.5,9.7,102.9,63.2,160.5,81c45.4,14,99,5.9,136.5,34.9c11.2,8.7,20,20.1,27.4,32.3
	c18.4,30.3,17,62.1,29.1,92.6c11.3,28.7,45.4,47.6,67.4,67.1c69.1,61.3,17.6,131.3,14.3,206.2c-2,44.1,17.3,86,25.7,129.3
	c15.5,79.8-10.4,169.6-74.8,219.3c-25.8,19.9-56.2,32.8-86.6,44.2c-46.5,17.5-94.1,32.1-142.4,43.8c-29.9,7.2-60.4,13.3-91,12
	c-89.3-4-162.5-68.8-227.6-130.1c-36.9-34.7-73.8-69.5-110.7-104.2c-41-38.6-73.8-82.1-111.8-122.9c-25.3-27.1-48.1-61.9-40.7-100.6
	C655.6,1083.4,659.2,1075.1,663.8,1067.5z"/>
<path class="st14" d="M1114.7,868.3c1.4,16.1,3.1,32.2,11.7,45.6c16.1,25.3,49.6,31.3,77.9,41.3c62.2,22.2,104.3,72.4,123.9,133.4
	c10.9,33.8,21.4,65.5,28.3,100.6c6.7,34.4,13.9,69.8,33.6,99.5c8.7,13.1,19.6,24.6,27.7,38c8.1,13.4,13.5,29.6,9.4,44.8
	c-13.1,49.6-103.5,61.8-144.3,66.1c-63.3,6.6-128.2-0.6-188.3-21.6c-90.1-31.5-167.2-91.7-253.9-131.6c-39-18-65.7-49-73.1-92.1
	c-4-23.6-5.8-50.6-5.8-74.5c-1.7-18.7-3.3-37.7,1.2-55.9c7.6-30.6,31.3-54.1,51.9-78c31.3-36.3,58.4-79.7,59.6-127.6
	c0.3-12.4-1.1-24.9-0.2-37.3c1.1-13.9,7.6-23,12.5-35.3c4.7-11.9,6.7-23.3,15-33.7c9.1-11.4,22.4-19,31.9-30.1
	c5.3-6.2,11-15.8,19.2-18.3c6.8-2.1,16.7,1.1,23.7,2.2c20.9,3.1,40.7,11.5,59.9,20c46.7,20.8,71,82.7,76.6,131
	C1113.9,859.2,1114.3,863.7,1114.7,868.3z"/>
<g>
	<path d="M754.1,1114.8c-0.8,0-1.5-0.7-1.5-1.5c-0.1-34.1,9.3-67.4,27.2-96.4c10.5-17.2,24-32.6,36.9-47.5
		c5.4-6.2,11-12.7,16.3-19.1c15.4-18.8,33.6-44.1,38.4-74c1.4-9,1.6-18.4,1.8-27.4c0.1-5.4,0.2-10.9,0.6-16.4
		c2.3-34.3,15.4-68,36.8-94.9c0.5-0.6,1.5-0.8,2.1-0.2c0.6,0.5,0.8,1.5,0.2,2.1c-21.1,26.4-33.9,59.5-36.2,93.2
		c-0.4,5.4-0.5,10.9-0.6,16.2c-0.2,9.2-0.3,18.6-1.8,27.9c-4.9,30.6-23.5,56.4-39.1,75.4c-5.3,6.5-10.9,13-16.4,19.2
		c-12.9,14.8-26.2,30.2-36.6,47.1c-17.5,28.5-26.8,61.4-26.7,94.9C755.6,1114.1,755,1114.8,754.1,1114.8
		C754.1,1114.8,754.1,1114.8,754.1,1114.8z"/>
</g>
<path class="st15" d="M1121.2,877.6c0.7,5.9-11.7,18.7-8.9,41.7c1.4,11.2,7.7,30.9,18.3,41.9c23.3,24,78.7,37.9,93.3,76.8
	c14.6,38.9-242.9,469.3-242.9,469.3l-317.7-241.9l311.9-321.6C975.1,943.7,1120.1,868.8,1121.2,877.6z"/>
<g>
	<g>
		<path class="st6" d="M1377.4,1389.1c-5.8,0-8.9-0.1-9-0.1l0.1-2c0.6,0,58.1,2,139.5-11.8c47.8-8.1,94.5-20,138.6-35.4
			c55.1-19.2,106.5-43.9,152.6-73.5l1.1,1.7c-46.3,29.6-97.7,54.4-153,73.7c-44.2,15.4-91,27.4-138.9,35.5
			C1445.4,1387.9,1396.7,1389.1,1377.4,1389.1z"/>
	</g>
	<path class="st6" d="M1843.5,1265.9c-25.9,18.2-37.6,14.9-45.2,4.2c-7.5-10.7-8-24.8,17.9-43c18.8-13.2,50.2-19.3,66-21.6
		c4.1-0.6,7.1,3.8,5,7.4C1879.2,1226.4,1862.2,1252.7,1843.5,1265.9z"/>
	<path class="st6" d="M1773,1341.6c-29.2-12.1-32.7-23.8-27.7-35.9s16.7-20,45.9-7.9c20.3,8.4,41.3,30.1,52.2,42.6
		c3.3,3.8,0.7,9.6-4.3,9.8C1822.8,1350.6,1793.2,1350,1773,1341.6z"/>
	<path class="st6" d="M1699.3,1376.1c-25.8-18.3-26.6-30.5-19-41.2c7.6-10.7,20.7-15.8,46.5,2.5c17.5,12.4,32.8,37.4,40.8,52.1
		c2.6,4.8-1.6,10.5-6.9,9.4C1744.5,1395.6,1716.7,1388.4,1699.3,1376.1z"/>
	<path class="st6" d="M1626.6,1401.6c-24.2-20.4-24-32.6-15.5-42.6c8.4-10,21.9-14,46.1,6.4c16.9,14.3,30.4,41.6,37,56.7
		c1.9,4.4-2.2,9.1-6.8,7.8C1671.7,1425.3,1643.4,1415.8,1626.6,1401.6z"/>
	<path class="st6" d="M1731.9,1251.9c-4.4,31.3,3.9,40.3,16.9,42.1c13,1.8,25.7-4.2,30.1-35.5c3.1-22-5.2-51.6-10.4-67.2
		c-1.5-4.5-7.5-5.2-10-1.2C1749.9,1203.8,1735,1230,1731.9,1251.9z"/>
	<path class="st6" d="M1662.8,1281.1c-6.3,31,1.4,40.4,14.3,43.1c12.8,2.6,25.9-2.6,32.2-33.6c4.3-21.3-1.8-50.6-6-66.7
		c-1.3-5-7.8-6.2-10.8-2C1683,1235.3,1667.2,1259.9,1662.8,1281.1z"/>
	<path class="st6" d="M1593.4,1306.2c-4.9,31.2,3.3,40.3,16.2,42.4c12.9,2,25.8-3.8,30.7-35c3.3-21.2-3.8-49.6-8.8-65.6
		c-1.6-5.2-8.6-6.2-11.6-1.6C1611,1260.3,1596.7,1285.1,1593.4,1306.2z"/>
</g>
<g>
	<g>
		<path class="st7" d="M484.1,1372.3c-10.3,0-31.4-0.9-59.2-6.5c-36.8-7.5-93.2-25.1-152.9-66.7l0.6-0.8
			c59.6,41.4,115.8,59,152.5,66.5c39.7,8.1,65.7,6.3,66,6.3l0.1,1C491.1,1372.1,488.6,1372.3,484.1,1372.3z"/>
	</g>
	
		<ellipse transform="matrix(0.6995 -0.7146 0.7146 0.6995 -845.0807 584.0198)" class="st7" cx="271.9" cy="1296.8" rx="10.4" ry="9.7"/>
	<path class="st16" d="M275.6,1272.6c-0.3-7.2-0.6-14.6-3-21.4c-1.9-5.4-4.9-10.3-8.3-14.9c-5.7-7.8-14.4-15.4-23.8-13.3
		c-5,1.2-9.2,5.2-11.1,9.9c-2,4.8-2,10.2-0.7,15.2c-5.6-4.7-11.2-9.3-16.9-14c-3.5-2.9-7-5.8-11.2-7.5c-4.2-1.7-9.1-2.2-13.1-0.1
		c-4.8,2.5-7.2,8.3-7,13.7c0.2,5.4,2.7,10.5,5.6,15c4.7,7.1,10.8,13.2,17.8,17.8c-6.1-2.2-12.8-2.6-19-1.1c-2.4,0.6-4.8,1.5-6.6,3.2
		c-3.5,3.5-3.2,9.5-0.5,13.6c2.7,4.1,7.2,6.7,11.8,8.6c14.9,6.3,31.5,7.5,47.7,7.1c10.6-0.3,22.9-0.9,32.4-6.3
		C279.1,1292.7,276,1281.9,275.6,1272.6z"/>
	<path class="st16" d="M228.7,1248.2c-5.6-4.7-11.2-9.3-16.9-14c-3.5-2.9-7-5.8-11.2-7.5c-4.2-1.7-9.1-2.2-13.1-0.1
		c-4.8,2.5-7.2,8.3-7,13.7c0.2,5.4,2.7,10.5,5.6,15c4.7,7.1,10.8,13.2,17.8,17.8c0,0,34.7,20.5,65.8,25
		C257.4,1278.7,241.2,1260.4,228.7,1248.2z"/>
</g>
<path class="st10" d="M591,1086.5c1.2,2.9,2.4,5.9,3.6,8.8c21.7,53.8,29.1,116,27.4,173.7c-1.1,38.4-6,90.1-37.2,117.3
	c-5.6,4.8-12,8.6-19.1,10.7c-21.9,6.5-44.3-3.9-61.7-16.6c-38.3-27.9-65.4-71.3-86.8-112.8c-13.3-25.6-25.3-52.5-34.4-79.9
	c-3.4-10.4-9-18.5-12.9-28.6c-4.1-10.7-5.4-22.3-10.4-32.7c-5.7-11.8-15.7-20.9-21.7-32.5c-6-11.6-6.6-28.2,4.3-35.5
	c7.4-5,17.3-3.7,26.2-2.3c-8.8-1.5-20.1-30.2-23.5-37.3c-6.1-12.7-13.8-25.4-8.7-40.1c3.8-11.1,16.3-19.5,27.6-16.1
	c-18.5-24.6-38-52-36.4-82.8c0.4-7.6,2.2-15.3,7.1-21.1c5.6-6.6,14.6-9.8,23.2-9c4.2,0.3,8.3,1.6,12.1,3.4c1.9,0.9,8.7,7,10.3,6.6
	c5.9-1.3,3.2-11.1,4-15.3c0.9-4.4,2.9-8.8,6.4-11.7c4.8-3.8,11.8-4.2,17.4-1.8c5.7,2.4,10,7.2,13,12.6c2.9,5.4,4.5,11.4,5.9,17.4
	c0.8,3.6,0,10.4,1.5,13.4c1.5,3.1,3.6,1.5,6.7,0.9c7.4-1.5,15.2-0.3,21.4,4.1c8.3,5.8,12.8,16.8,10.9,26.8
	c20.6,9.9,34.8,32,35.2,54.9c0,2.6-0.1,5.4,1.1,7.8c1.4,3,4.5,4.8,7.3,6.5c26.6,16.3,46.5,41.8,61.2,69.3
	C579.1,1058.2,585.2,1072.3,591,1086.5z"/>
<g>
	<path class="st17" d="M591.3,1399.6c-0.2,0-0.4-0.1-0.5-0.3L387,892.9c-0.1-0.3,0-0.5,0.3-0.7c0.3-0.1,0.5,0,0.7,0.3l203.9,506.4
		c0.1,0.3,0,0.5-0.3,0.7C591.4,1399.6,591.3,1399.6,591.3,1399.6z"/>
</g>
<g>
	<path class="st17" d="M452.8,1055.7c-0.1,0-0.2,0-0.3-0.1l-90.5-57.5c-0.2-0.1-0.3-0.5-0.2-0.7c0.1-0.2,0.5-0.3,0.7-0.2l90.5,57.5
		c0.2,0.1,0.3,0.5,0.2,0.7C453.2,1055.6,453,1055.7,452.8,1055.7z"/>
</g>
<g>
	<path class="st17" d="M502.2,1178.3c-0.1,0-0.2,0-0.2-0.1l-132-69.3c-0.2-0.1-0.3-0.4-0.2-0.7c0.1-0.2,0.4-0.3,0.7-0.2l132,69.3
		c0.2,0.1,0.3,0.4,0.2,0.7C502.5,1178.2,502.4,1178.3,502.2,1178.3z"/>
</g>
<g>
	<path class="st17" d="M479,1114.8c0,0-0.1,0-0.1,0c-0.3-0.1-0.4-0.4-0.3-0.6l29.8-97.5c0.1-0.3,0.4-0.4,0.6-0.3
		c0.3,0.1,0.4,0.4,0.3,0.6l-29.8,97.5C479.4,1114.7,479.2,1114.8,479,1114.8z"/>
</g>
<g>
	<path class="st17" d="M397.6,918.5C397.6,918.5,397.6,918.5,397.6,918.5c-0.3,0-0.5-0.3-0.5-0.5l5-60.1c0-0.3,0.3-0.5,0.5-0.5
		c0.3,0,0.5,0.3,0.5,0.5l-5,60.1C398.1,918.3,397.9,918.5,397.6,918.5z"/>
</g>
<path class="st18" d="M275.5,1194.5c3.7,12.1,6.9,26.4,13.2,37.4c4.5,8,15.6,12,18.4,20.8c0.8,2.5,0.7,5.1,0.9,7.7
	c0.3,2.9,1,5.8,1.7,8.6c1.5,5.8,2.3,12.4,4.6,17.9c2.3,5.5,6.2,10.8,9.3,15.9c6.1,9.9,12.6,19.5,19.7,28.8
	c12.8,16.9,27.1,32.5,43,46.5c27.6,24.3,59.6,43.1,94.2,55.3c4.5,1.6,30.7-3.2,35.3-1.8c3.8,1.1-14.1,8.5-10.3,9.5
	c22.3,5.8,45.2,9.2,68.2,10.4c22.4,1.2,44.9,0.3,67.2-2.4c34.3-4.1,54.4-41.1,38.3-71.6c-13-24.7-27.3-48.7-43.2-71.6
	c-23.6-34-50.9-65.5-82.7-92.2c-30-25.2-64-45.8-100.7-59.7c-18.7-7.1-38.1-12.6-57.8-16.4c-12.1-2.3-24.5-4.2-36.8-5.4
	c-1.9-0.2-3.8-0.4-5.7-0.2c-1.9,0.2-3.8,0.8-5.3,2c-0.8,0.7-1.5,1.6-1.5,2.7c0,0.9,0.5,1.8,0.9,2.6c0.7,1.3,3.4,8.2,1.4,8.9
	c-1.1,0.3-3.4-0.7-4.4-1c-1.5-0.5-2.9-1.1-4.3-1.7c-5.6-2.7-10.6-6.5-15.8-9.8c-1.4-0.8-2.7-1.6-4.2-2.4c-8.5-4.3-20,2.5-26.9,8
	C276.4,1153.8,269.5,1175.2,275.5,1194.5z"/>
<g>
	<path class="st6" d="M469,880c-61,242.3-34.8,434.8,171.3,524.6c18.7,8.1,40.1-2.6,44.6-22.5c57.5-250.1-0.6-422.9-168.6-522.3
		C497.9,848.9,474.2,859.3,469,880z"/>
	<path class="st5" d="M660.1,1406.6c11.8-2.6,21.8-11.6,24.8-24.5c57.5-250.1-0.6-422.9-168.6-522.3c-9.1-5.4-19.4-5.6-28.2-1.9
		c-4.2,1.7,31.6,112.5,70.6,243c57.9,154.2,38.7,137.2,66.5,230.5C642.7,1383.5,658.5,1406.9,660.1,1406.6z"/>
	<g>
		<path class="st19" d="M684.6,1462c0.1,0.3,0.4,0.5,0.8,0.5c0.1,0,0.2,0,0.4-0.1c0.4-0.2,0.6-0.7,0.4-1.1l-26.2-54.7
			c-0.6,0.1-1.1,0.2-1.7,0.3L684.6,1462z"/>
		<path class="st19" d="M603,1230c-0.7-2.6-1.3-5.1-2-7.7c-5-18-11.7-35.7-18.2-52.9c-1.2-3.3-2.5-6.5-3.7-9.8
			c-2.3-6.1-4.6-12.6-7-19.4c0,0.1-0.1,0.3-0.1,0.4c0,0,0,0,0,0c0,0,0,0,0,0.1c0,0.1-0.1,0.2-0.2,0.2c0,0-0.1,0.1-0.1,0.1
			c-0.1,0.1-0.3,0.2-0.5,0.2c-0.1,0-0.2,0-0.2,0c0,0,0,0,0,0c0,0,0,0,0,0c-0.1,0-0.2-0.1-0.2-0.1c2.3,6.7,4.7,13.1,6.9,19.1
			c1.2,3.3,2.5,6.5,3.7,9.8c6.4,17.1,13.1,34.8,18.1,52.7c0.8,3,1.6,5.9,2.4,8.9c0.2,0.1,0.5,0.2,0.7,0.3
			C602.5,1231.4,602.8,1230.7,603,1230z"/>
		<path class="st19" d="M511.2,947.5C511.2,947.5,511.2,947.5,511.2,947.5C511.3,947.5,511.3,947.5,511.2,947.5
			C511.3,947.5,511.2,947.5,511.2,947.5z"/>
		<path class="st19" d="M571.1,1137.6c-9.8-28-20.3-61-30.8-95.8c-0.1,0.7-0.2,1.3-0.3,2c0,0,0,0.1,0,0.1c0,0,0,0.1,0,0.1
			c0,0.1-0.1,0.1-0.1,0.2c0,0,0,0.1,0,0.1c0,0,0,0,0,0c-0.1,0.1-0.1,0.1-0.2,0.1c0,0,0,0-0.1,0c0,0-0.1,0-0.2,0
			c10.4,34.4,20.8,66.9,30.5,94.5c0.3,0.1,0.5,0.2,0.8,0.3C570.8,1138.8,570.9,1138.2,571.1,1137.6z"/>
		<path class="st19" d="M539.1,1038c-8.8-29.2-17.5-59.6-25.8-89.3c-0.1,0-0.2,0.1-0.2,0.1c-0.2,0-0.4-0.1-0.5-0.2c0,0,0,0,0,0
			c-0.2,0.1-0.3,0.2-0.5,0.2c-0.1,0-0.2,0-0.3-0.1c-0.1,0-0.1-0.1-0.2-0.1c8.6,31,17.8,62.9,27,93.4l0,0
			C538.7,1040.6,538.9,1039.3,539.1,1038z"/>
		<path class="st19" d="M511.9,945.8c0.1-0.3,0.2-0.6,0.4-1c-8.5-30.7-16.4-60.5-23.3-87.3c-0.5,0.2-1.1,0.4-1.6,0.6
			c6.8,26.6,14.7,56.1,23.1,86.5C511,945.1,511.4,945.5,511.9,945.8z"/>
		<path class="st19" d="M625.1,1325.4c-1-3.3-2-6.6-2.9-9.9c-0.1,0-0.2,0-0.2,0c-0.4-0.2-0.7-0.7-0.5-1.1c0.1-0.2,0.2-0.4,0.3-0.6
			c-4-14.7-7-29.7-10-44.3c-2.4-11.9-4.9-24.2-7.9-36.3c0,0.1,0,0.1-0.1,0.2c0,0,0,0,0,0c0,0,0,0,0,0.1c0,0.1-0.1,0.2-0.2,0.2
			c0,0-0.1,0.1-0.1,0.1c-0.1,0.1-0.3,0.2-0.5,0.2c0,0,0,0,0,0c0,0,0,0,0,0l0,0c0,0,0,0,0,0c-0.1,0-0.2,0-0.2,0c0,0,0,0,0,0
			c0,0,0,0-0.1,0c-0.1-0.1-0.3-0.1-0.4-0.2c3,12,5.4,24.2,7.8,36c3,14.6,6,29.5,10,44.2c0.3,0.2,0.5,0.6,0.3,1c0,0,0,0-0.1,0.1
			c1,3.7,2.1,7.3,3.2,10.9c7.7,24.5,19,48,29.8,70.7l4.9,10.3c0.6-0.1,1.2-0.2,1.7-0.3l-5.1-10.7
			C644,1373.2,632.8,1349.8,625.1,1325.4z"/>
		<path class="st19" d="M539,1044.5c-0.1,0-0.1,0-0.2-0.1C538.9,1044.5,538.9,1044.5,539,1044.5z"/>
		<polygon class="st19" points="539.2,1044.6 539.2,1044.6 539.2,1044.6 		"/>
		<path class="st19" d="M538.7,1044.4c-0.2-0.2-0.4-0.5-0.3-0.8c0.1-0.5,0.2-1.1,0.2-1.6c0,0,0,0,0,0L452,959.2
			c-0.1,0.7-0.2,1.3-0.3,2L538.7,1044.4C538.6,1044.4,538.6,1044.4,538.7,1044.4z"/>
		<path class="st19" d="M538.5,1042C538.6,1042,538.6,1042,538.5,1042C538.6,1042,538.6,1042,538.5,1042L538.5,1042z"/>
		<path class="st19" d="M539.6,1044.5C539.5,1044.5,539.5,1044.5,539.6,1044.5C539.5,1044.5,539.5,1044.5,539.6,1044.5z"/>
		<path class="st19" d="M539.8,1044.3C539.8,1044.3,539.8,1044.3,539.8,1044.3C539.8,1044.3,539.8,1044.3,539.8,1044.3
			C539.8,1044.3,539.8,1044.3,539.8,1044.3z"/>
		<path class="st19" d="M540,1043.9c0,0,0,0.1,0,0.1C540,1044,540,1044,540,1043.9z"/>
		<path class="st19" d="M575.9,902c0.5,0.4,0.9,0.8,1.4,1.2C579.2,896.8,577.6,895.9,575.9,902z"/>
		<path class="st19" d="M539.2,1044.6C539.2,1044.6,539.2,1044.6,539.2,1044.6c0.1,0,0.1,0,0.2,0c0,0,0,0,0,0
			C539.3,1044.5,539.2,1044.6,539.2,1044.6z"/>
		<path class="st19" d="M539.1,1038c0.4,1.3,0.8,2.6,1.2,3.9c3.8-28.2,15.5-66.8,25.9-100.9c4-13.2,7.9-26,11.2-37.7
			c-0.5-0.4-0.9-0.8-1.4-1.2c-3.3,11.9-7.3,24.9-11.4,38.4C554.6,973.2,543.4,1010,539.1,1038z"/>
		<path class="st19" d="M538.8,1044.5c0,0-0.1-0.1-0.1-0.1C538.7,1044.4,538.8,1044.5,538.8,1044.5z"/>
		<path class="st19" d="M539.1,1044.6c0,0,0.1,0,0.1,0C539.1,1044.6,539,1044.5,539.1,1044.6C539,1044.5,539,1044.6,539.1,1044.6z"
			/>
		<path class="st19" d="M539.8,1044.3c-0.1,0.1-0.1,0.1-0.2,0.1C539.6,1044.4,539.7,1044.4,539.8,1044.3z"/>
		<path class="st19" d="M539.9,1044.1c0,0.1-0.1,0.1-0.1,0.2C539.9,1044.2,539.9,1044.1,539.9,1044.1z"/>
		<path class="st19" d="M539.3,1044.5C539.3,1044.5,539.3,1044.5,539.3,1044.5c0.1,0,0.1,0,0.2,0
			C539.4,1044.5,539.4,1044.5,539.3,1044.5z"/>
		<path class="st19" d="M539.8,1043.1c0.2,0.2,0.3,0.5,0.2,0.8c0,0,0-0.1,0-0.1c0.1-0.6,0.2-1.3,0.3-2c-0.4-1.3-0.8-2.6-1.2-3.9
			c-0.2,1.4-0.4,2.7-0.6,4L539.8,1043.1z"/>
		<path class="st19" d="M538.6,1042c-0.1,0.5-0.2,1.1-0.2,1.6c0,0.3,0.1,0.6,0.3,0.8c0,0,0.1,0.1,0.1,0.1c0.1,0,0.1,0,0.2,0.1
			c0.1,0,0.1,0,0.2,0c0,0,0,0,0,0c0.1,0,0.1,0,0.2,0C539.1,1043.7,538.8,1042.8,538.6,1042z"/>
		<path class="st19" d="M539.5,1044.5C539.5,1044.5,539.5,1044.5,539.5,1044.5c0.1-0.1,0.2-0.1,0.3-0.2c0,0,0.1-0.1,0.1-0.1
			c0-0.1,0.1-0.1,0.1-0.2c0,0,0-0.1,0-0.1c0.1-0.3,0-0.6-0.2-0.8l-1.2-1.1c0,0,0,0,0,0c0.3,0.9,0.5,1.7,0.8,2.6
			C539.4,1044.5,539.4,1044.5,539.5,1044.5z"/>
		<path class="st19" d="M571.1,1137.6c0.3,0.9,0.6,1.8,1,2.7c7.1-23.9,18.5-55.7,30.5-89.3c11-30.8,22.3-62.4,30.4-88.5
			c-0.4-0.6-0.8-1.1-1.2-1.7c-8.2,26.2-19.6,58.3-30.8,89.6C589.3,1083.1,578.3,1113.9,571.1,1137.6z"/>
		<path class="st19" d="M570.9,1141.3c0.1,0,0.2,0,0.2,0C571,1141.3,570.9,1141.3,570.9,1141.3
			C570.9,1141.3,570.9,1141.3,570.9,1141.3z"/>
		<path class="st19" d="M571.7,1141c0,0-0.1,0.1-0.1,0.1C571.7,1141.1,571.7,1141.1,571.7,1141z"/>
		<path class="st19" d="M571.5,1139.7c0.4,0.2,0.6,0.6,0.5,1c0,0,0,0,0,0c0-0.1,0.1-0.3,0.1-0.4c-0.3-0.9-0.6-1.8-1-2.7
			c-0.2,0.6-0.4,1.2-0.5,1.7C570.9,1139.5,571.2,1139.6,571.5,1139.7z"/>
		<path class="st19" d="M570.5,1141.1c-0.2-0.2-0.2-0.4-0.2-0.6c-0.2-0.5-0.3-0.9-0.5-1.4c-38.2-16.2-94.3-48.8-129.4-72.6
			c0,0.7,0,1.3-0.1,2c35.7,24.1,92.2,56.8,130.2,72.7C570.6,1141.1,570.5,1141.1,570.5,1141.1z"/>
		<path class="st19" d="M570.6,1139.3c-0.3-0.1-0.5-0.2-0.8-0.3c0.2,0.5,0.3,0.9,0.5,1.4c0-0.1,0-0.1,0-0.2
			C570.4,1139.9,570.5,1139.6,570.6,1139.3z"/>
		<path class="st19" d="M571.6,1141.2c-0.1,0.1-0.3,0.2-0.5,0.2C571.3,1141.3,571.5,1141.3,571.6,1141.2z"/>
		<path class="st19" d="M571.9,1140.8C571.9,1140.8,571.9,1140.8,571.9,1140.8c0,0.1-0.1,0.1-0.2,0.2
			C571.8,1141,571.9,1140.9,571.9,1140.8z"/>
		<path class="st19" d="M570.8,1141.3c-0.1,0-0.2-0.1-0.3-0.2c0,0,0,0.1,0,0.1C570.6,1141.2,570.7,1141.2,570.8,1141.3
			C570.8,1141.3,570.8,1141.3,570.8,1141.3z"/>
		<path class="st19" d="M570.5,1141.1c-0.1-0.2-0.2-0.4-0.2-0.6C570.3,1140.7,570.4,1140.9,570.5,1141.1z"/>
		<path class="st19" d="M570.8,1141.3c0.1,0,0.2,0.1,0.3,0.1c0.2,0,0.3-0.1,0.5-0.2c0,0,0.1-0.1,0.1-0.1c0.1-0.1,0.2-0.2,0.2-0.3
			c0.1-0.4-0.1-0.9-0.5-1c-0.3-0.1-0.6-0.2-0.9-0.4c-0.1,0.3-0.2,0.6-0.3,0.9c0,0.1,0,0.1,0,0.2c0.1,0.2,0.2,0.4,0.2,0.6
			C570.6,1141.2,570.7,1141.2,570.8,1141.3z"/>
		<path class="st19" d="M602.2,1233.8c-0.2-0.7-0.3-1.4-0.5-2.1c-19.6-8.3-45.6-15.1-73.1-22.4c-27.1-7.1-54.9-14.5-77.6-23.5
			c0.2,0.7,0.3,1.3,0.5,2c22.6,8.9,49.9,16.1,76.7,23.2C556.1,1218.4,582.6,1225.3,602.2,1233.8z"/>
		<path class="st19" d="M603.7,1233.5C603.7,1233.5,603.7,1233.5,603.7,1233.5c0,0-0.1,0.1-0.2,0.2
			C603.5,1233.7,603.6,1233.6,603.7,1233.5z"/>
		<polygon class="st19" points="602.9,1234 602.9,1234 602.9,1234 		"/>
		<path class="st19" d="M602.1,1233c0.1-0.3,0.2-0.6,0.3-0.9c-0.2-0.1-0.5-0.2-0.7-0.3c0.2,0.7,0.4,1.4,0.5,2.1
			c0.1,0.1,0.3,0.1,0.4,0.2c0,0,0,0,0.1,0C602.2,1233.8,602,1233.4,602.1,1233z"/>
		<path class="st19" d="M603.4,1233.9c-0.1,0.1-0.3,0.2-0.5,0.2C603.1,1234,603.2,1234,603.4,1233.9z"/>
		<path class="st19" d="M603.7,1232.9C603.7,1232.9,603.7,1232.9,603.7,1232.9c0,0.1,0.1,0.2,0.1,0.3
			c13.1-44.4,51.4-137.5,74.1-189.3c-0.3-0.7-0.6-1.5-0.9-2.2c-22.2,50.5-60,142.5-74,188.4C603.2,1231,603.4,1231.9,603.7,1232.9z"
			/>
		<path class="st19" d="M603.2,1232.4c0.2,0.1,0.4,0.3,0.4,0.5c-0.2-0.9-0.5-1.9-0.7-2.8c-0.2,0.7-0.4,1.3-0.6,2
			C602.6,1232.2,602.9,1232.3,603.2,1232.4z"/>
		<polygon class="st19" points="602.9,1234 602.9,1234 602.9,1234 		"/>
		<path class="st19" d="M602.7,1234c0.1,0,0.2,0,0.2,0C602.8,1234,602.7,1234,602.7,1234C602.6,1234,602.6,1234,602.7,1234z"/>
		<path class="st19" d="M603.5,1233.8c0,0-0.1,0.1-0.1,0.1C603.4,1233.9,603.4,1233.8,603.5,1233.8z"/>
		<path class="st19" d="M603.7,1233.5C603.7,1233.5,603.7,1233.4,603.7,1233.5c0-0.1,0.1-0.2,0.1-0.2c0-0.1-0.1-0.2-0.1-0.3
			C603.7,1233.1,603.7,1233.3,603.7,1233.5z"/>
		<path class="st19" d="M603.7,1232.9C603.7,1232.9,603.7,1232.9,603.7,1232.9C603.7,1232.9,603.7,1232.9,603.7,1232.9z"/>
		<path class="st19" d="M603.7,1232.9C603.7,1232.9,603.7,1232.9,603.7,1232.9c-0.1-0.2-0.2-0.4-0.5-0.5c-0.3-0.1-0.6-0.2-0.9-0.4
			c-0.1,0.3-0.2,0.6-0.3,0.9c-0.1,0.4,0.1,0.9,0.5,1c0.1,0,0.2,0.1,0.3,0.1c0,0,0,0,0,0c0,0,0,0,0,0c0.2,0,0.3-0.1,0.5-0.2
			c0,0,0.1-0.1,0.1-0.1c0.1-0.1,0.2-0.2,0.2-0.3C603.7,1233.3,603.7,1233.1,603.7,1232.9z"/>
		<path class="st19" d="M619.3,1315.5c0.1,0,0.2,0,0.3,0c0.3,0,0.6-0.2,0.7-0.5c-0.1-0.3-0.2-0.7-0.3-1c-0.1,0-0.1-0.1-0.2-0.1
			c-0.1,0-0.1,0-3.3-0.8c-34.3-7.7-86.3-19.4-124.7-29c0.4,0.7,0.9,1.4,1.4,2.1c38.3,9.5,89.2,21,123,28.6
			C618.1,1315.2,619.2,1315.5,619.3,1315.5z"/>
		<path class="st19" d="M620.3,1314.9c0.1-0.4,0-0.8-0.3-1C620.1,1314.3,620.2,1314.7,620.3,1314.9
			C620.3,1315,620.3,1315,620.3,1314.9z"/>
		<path class="st19" d="M663.1,1237.1c-8,13.5-14.9,25.2-18.5,31.6l-2.7,4.8c-7.1,12.6-15.1,26.9-20.3,40.3c0.2,0.6,0.3,1.2,0.5,1.8
			c0,0,0,0,0.1,0c0.3,0,0.7-0.2,0.8-0.5c5.1-13.5,13.2-27.9,20.4-40.7l2.7-4.8c3.6-6.3,10.4-18,18.4-31.6
			c13.1-22.2,29.7-50.3,40.4-69.9c-0.1-1-0.2-2.1-0.2-3.1C694.1,1184.6,676.7,1214,663.1,1237.1z"/>
		<path class="st19" d="M621.9,1315.5c0.1,0,0.2,0,0.2,0c-0.2-0.6-0.3-1.2-0.5-1.8c-0.1,0.2-0.2,0.4-0.3,0.6
			C621.3,1314.8,621.5,1315.3,621.9,1315.5z"/>
		<path class="st19" d="M510.5,944.7c-12.1-9.9-35.2-28.2-47.9-38c-0.1,0.6-0.3,1.2-0.4,1.8c13.4,10.4,37.7,29.8,49,39
			C511,946.5,510.7,945.6,510.5,944.7z"/>
		<path class="st19" d="M512.8,948.2c-0.1,0.1-0.2,0.3-0.3,0.3c0,0,0,0,0,0c0.2,0.1,0.3,0.2,0.5,0.2c0.1,0,0.2,0,0.2-0.1
			c-0.1-0.4-0.2-0.7-0.3-1.1C513,947.8,512.9,948,512.8,948.2z"/>
		<path class="st19" d="M511.9,945.8c-0.5-0.4-0.9-0.8-1.4-1.2c0.3,0.9,0.5,1.9,0.8,2.8c0,0,0,0,0,0
			C511.4,947,511.7,946.4,511.9,945.8z"/>
		<path class="st19" d="M511.5,948.6c-0.1-0.4-0.2-0.7-0.3-1.1c0,0,0,0.1,0,0.1"/>
		<path class="st19" d="M512.7,946.5c0.2,0.2,0.4,0.3,0.5,0.4c5-13.1,21.6-51.9,29.8-70c-0.5-0.3-0.9-0.7-1.4-1
			c-7.9,17.4-23.8,54.5-29.4,68.9C512.4,945.4,512.6,946,512.7,946.5z"/>
		<path class="st19" d="M512,948.8c0.2,0,0.4-0.1,0.5-0.2c-0.4-0.3-0.8-0.7-1.3-1c0,0,0,0,0,0c0.1,0.4,0.2,0.7,0.3,1.1
			c0.1,0,0.1,0.1,0.2,0.1C511.8,948.7,511.9,948.8,512,948.8z"/>
		<path class="st19" d="M512.3,944.9c-0.1,0.3-0.3,0.7-0.4,1c0.3,0.2,0.6,0.5,0.8,0.7C512.6,946,512.4,945.4,512.3,944.9z"/>
		<path class="st19" d="M513.3,947c-0.2-0.1-0.4-0.3-0.5-0.4c0.1,0.4,0.2,0.7,0.3,1.1C513.1,947.4,513.2,947.2,513.3,947z"/>
		<path class="st19" d="M512.5,948.5c0.1-0.1,0.2-0.2,0.3-0.3c0.1-0.2,0.2-0.4,0.2-0.6c-0.1-0.4-0.2-0.7-0.3-1.1
			c-0.3-0.2-0.5-0.4-0.8-0.7c-0.2,0.6-0.4,1.2-0.6,1.7C511.7,947.9,512.1,948.2,512.5,948.5z"/>
	</g>
</g>
<g>
	<path class="st6" d="M1671.5,1466.5c-219-192.8-401.8-163.9-722.8,16.2c0.8,14.9,77.8,44.7,91.8,53
		c253.4,150.1,464.7,149.9,636.1,6.4C1700.9,1521.7,1698.4,1483.3,1671.5,1466.5z"/>
	<path class="st5" d="M948.7,1482.6c0.8,14.9,77.8,44.7,91.8,53c253.4,150.1,464.7,149.9,636.1,6.4c11-9.2,16.5-22,16.8-34.9
		L948.7,1482.6z"/>
	<g>
		
			<rect x="1320" y="1122.4" transform="matrix(3.292426e-02 -0.9995 0.9995 3.292426e-02 -216.5846 2765.9678)" class="st20" width="2" height="745.1"/>
	</g>
	<g>
		<polygon class="st20" points="1652.9,1560.7 1615,1504.5 1661.9,1458.1 1663.3,1459.5 1617.6,1504.8 1654.6,1559.6 		"/>
	</g>
	<g>
		<polygon class="st20" points="1549.6,1619.5 1460.8,1499.4 1579.3,1396.9 1580.6,1398.4 1463.5,1499.7 1551.2,1618.3 		"/>
	</g>
	<g>
		<polygon class="st20" points="1424.1,1648.3 1330.8,1494.8 1331.3,1494.2 1461.4,1345.3 1462.9,1346.7 1333.3,1495 1425.8,1647.3 
					"/>
	</g>
	<g>
		<polygon class="st20" points="1297,1640.2 1208.3,1491.2 1208.7,1490.6 1320.2,1336.4 1321.8,1337.6 1210.7,1491.3 1298.7,1639.1 
					"/>
	</g>
	<g>
		<polygon class="st20" points="1187.9,1608.7 1115.6,1488.3 1116,1487.7 1208.7,1361.2 1210.3,1362.4 1118,1488.4 1189.6,1607.7 		
			"/>
	</g>
</g>
<path class="st21" d="M1108.3,912.7c-5.7,17.3-34,55.1-43.7,70.5c-13.3,21.2-33.5,37.6-56,48.5c-22.5,10.9-47.3,16.5-72.2,18.8
	c-11.6,1.1-25.2,0.7-32.3-8.6c-4-5.2-4.9-12-5.6-18.5c-1.1-9.1-2.1-18.4-0.6-27.5c0.8-5,2.5-9.8,4.3-14.6
	c14.8-38.1,44.5-70.2,81.3-87.9c26.8-12.9,57.2-18.1,86.8-15.3c9.2,0.9,30.4-7.1,33.7,3.6C1107.4,893.3,1111.9,901.9,1108.3,912.7z"
	/>
<path class="st21" d="M1091.3,913.1c-5.3,15.9-31.7,50.5-40.7,64.7c-12.4,19.5-31.2,34.5-52.1,44.5c-21,10-44.1,15.1-67.2,17.3
	c-10.8,1-23.4,0.6-30-7.9c-3.7-4.8-4.5-11-5.2-17c-1-8.4-2-16.9-0.6-25.2c0.8-4.6,2.3-9,4-13.4c13.8-35,41.4-64.4,75.7-80.7
	c24.9-11.8,53.2-16.6,80.8-14c8.5,0.8,28.3-6.5,31.3,3.3C1090.4,895.3,1094.6,903.1,1091.3,913.1z"/>
<polygon class="st22" points="863.2,1015.1 768.5,1103.8 889.5,1192.9 971.3,1100.9 903.5,1000.8 "/>
<ellipse transform="matrix(0.6233 -0.782 0.782 0.6233 -429.2634 1111.4351)" class="st15" cx="938.9" cy="1001.2" rx="88.1" ry="75.8"/>
<path class="st21" d="M928.9,1082.5c0.2,1.7,0.1,3.4-0.3,5c-0.2,0.6-0.5,1.3-1,1.6c-0.5,0.2-1,0.2-1.6,0.1
	c-14.4-1.4-28.1-5.9-39.5-15c-34.4-27.4-37.7-80.4-7.4-118.5c-3.7,4.6-1.6,21.6-1.4,27.2c0.5,11,2.3,22.9,5.7,33.4
	c3.5,10.7,9.8,20.3,16.8,29.1c5.5,6.9,11.3,13.5,17.5,19.8c3.1,3.1,6.3,6.1,8.5,9.8C927.6,1077.3,928.6,1079.9,928.9,1082.5z"/>
<path class="st23" d="M1130.5,961.2c30.2,25.9,73.6,34.2,96,73.4c14.6,38.9-245.6,472.6-245.6,472.6l-317.7-241.9
	C663.2,1265.3,932.5,1246.4,1130.5,961.2z"/>
<path class="st15" d="M810,1038.2c-1.7,5,103.8,97.6,103.8,97.6s25.3-17.9,37.1-24.7c-29-20.4-23.5-53.3-67.8-81.6
	C846.7,1006.4,812.1,1032,810,1038.2z"/>
<path class="st24" d="M809.9,1039.2c1,2.8,33.8,32.4,62.3,58.5c12.4,5.5,46.1-30.6,40.8-40.7c-8.9-13.3-14-17.3-31-29
	C847.5,1004.2,808.1,1034.2,809.9,1039.2z"/>
<path class="st25" d="M810,1038c131.1,136.6,295,192.7,295,192.7l-85.6,265.1c0,0-290.2,40.7-372.6-87.7
	C645.8,1396.7,628.7,1189.5,810,1038z"/>
<path class="st26" d="M1022.9,1199.6c48,21.4,82.1,31.1,82.1,31.1l-85.6,265.1c0,0-168.5,23.6-285.2-21.9
	C697.8,1459.7,889,1493,1022.9,1199.6z"/>
<path class="st15" d="M967.5,1054.9c-17.6,11.5-22.2,23.5-26.3,38.7l63.8-41.7C998.3,1041.6,985.1,1043.4,967.5,1054.9z"/>
<path class="st25" d="M868.1,1128.4c0,0,81.7-79.4,289.4-149.3c27.3,13.2,51.9,27.2,67.5,52.2c-78.3,8.4-224.2,202.9-224.2,202.9
	L868.1,1128.4z"/>
<g>
	<path class="st27" d="M911.2,980.7c-0.6,0-1.1-0.3-1.3-0.8c-1.6-3.2-2.3-6.9-2.1-10.7c0.5-10.4,7.7-18.5,16.1-18.2
		c4.1,0.2,7.9,2.4,10.6,6.2c2.6,3.7,4,8.4,3.7,13.4c0,0.8-0.7,1.5-1.6,1.4c-0.8,0-1.5-0.7-1.4-1.6c0.2-4.3-0.9-8.4-3.2-11.5
		c-2.2-3-5.1-4.8-8.3-4.9c-6.8-0.3-12.5,6.6-12.9,15.3c-0.2,3.3,0.5,6.5,1.8,9.3c0.4,0.7,0.1,1.6-0.7,2
		C911.6,980.6,911.4,980.7,911.2,980.7z"/>
</g>
<g>
	<path class="st27" d="M955.2,1028.1c-0.3,0-0.5-0.1-0.8-0.2c-10.4-6.1-10.4-10.8-10.4-18.6v-0.5c0-0.8,0.7-1.5,1.5-1.5
		s1.5,0.7,1.5,1.5v0.5c0,7.6,0,10.7,8.9,16c0.7,0.4,0.9,1.3,0.5,2.1C956.2,1027.8,955.7,1028.1,955.2,1028.1z"/>
</g>
<path class="st15" d="M1103.3,1189.5c13.6-20.4,109.8-168.1,120.5-155.4c10.7,12.6,74.8,307-217.6,482.9
	c-10.5,6.3-26.4,8.8-38.3,11.6c-13.3,3.2-26.8,5.6-40.3,7.3c-42.4,5.2-85.5,3-127.4-5.2c-21-4.1-41.7-9.8-62-16.7
	c-19.5-6.7-38.4-12.9-55.3-25.1c-21.2-15.3-38.2-36.7-46.7-61.3c-4.7-13.8-7.2-28.9-6.5-43.5c0.6-13,4.1-31.2,14.9-39.6
	c5.1-4.3,1.6,23.1,13.6,43c5.1,10.7,14,15.7,14,15.7s0.7-7.2,3.4-10.2c3-3.3,8.3,0.5,10.8,4.1c8.2,11.8,15.4,24.3,21.2,37.4
	c2.9,6.4,3.7,12.4,9.6,15.4c3.2,1.7,8.4,1.8,12,2.5c14.8,2.8,29.7,4.8,44.7,6.1c45.9,4.1,93,2.2,137.7-9.5
	c54-14.1,103.1-43.6,136.4-88.9C1084.2,1310.8,1099.2,1249.5,1103.3,1189.5z"/>
<path class="st23" d="M1103.3,1189.5c13.6-20.4,70.3-149.8,121.7-158.2c13.1,21,50.3,204.2-83.9,370.3
	c-65.8-6.2-79.8-61.8-79.8-61.8C1083.6,1302.1,1099,1253,1103.3,1189.5z"/>
<path class="st15" d="M1121.2,790.8c19.5,82.2-18.2,159.7-74.5,173.1c-56.3,13.4-117.7-42.4-137.3-124.5
	c-19.5-82.2,10.2-159.6,66.5-173C1032.2,653,1101.6,708.6,1121.2,790.8z"/>
<g class="st1">
	<path class="st28" d="M976,666.3c-17.7,4.2-32.9,15.1-44.1,29.2c-6.1,7.7-11,16.2-15,25.2c-3.8,8.5-8.9,20-8.2,29.4
		c1,14.1,12.5,25.7,25.5,31.5c13,5.8,27.4,6.9,41.5,8.8c24.4,3.3,48.4,9,71.7,17c20.7,7.1,41.8,17,54,35.2
		c7.3,10.9,8.6,13.9,11,26.8c0.7,3.8,10.8-6.5,11.6-4.4l-2.6-74.3C1101.6,708.6,1032.2,653,976,666.3z"/>
</g>
<path class="st2" d="M939.7,752.3c5.5,4.5,10.1,9.8,15.9,13.9c28.2,20.3,69.2,3.6,101.6,16.2c19.2,7.4,34.8,25.8,55.3,26.6
	c11.5,0.4,26.1-4.2,32.3,5.5c5,7.7-0.1,17.7-4.4,25.9c-7.7,14.7-21.2,44.5-12.2,60.9c3,5.5,8,9.6,12.9,13.6
	c10.2,8.3,20.8,16.9,33.4,20.5c3.6,1,7.3,1.7,10.8,3c4.6,1.8,8.5,4.8,12.9,7.1c17.3,9,36.9-2.9,50.4-13.9c3.9-3.2,7.7-6.8,10.1-11.3
	c2.9-5.4,3.5-11.8,3.5-18c0.1-16.6-3.7-32.9-7.5-49c-8.7-37.2-18.4-76.2-44.2-104.5c-28-30.7-70.3-43.6-104.5-67.3
	c-17.9-12.4-33.5-27.9-51.5-40.2c-18-12.3-39.3-21.6-61-19.3c-28.3,3-50.4,24.5-73.9,40.4c-23.2,15.8-51.5,29.3-60.8,55.8
	c-2.1,5.8-3,12.6-0.1,18.1c7.3,13.9,26.9,2.9,37.8,2.3C911.9,737.7,927.7,742.5,939.7,752.3z"/>
<g>
	<path d="M1112.5,809.7C1112.5,809.7,1112.5,809.7,1112.5,809.7c-13.1-0.5-24.4-7.6-35.2-14.5c-6.6-4.2-13.5-8.6-20.7-11.4
		c-14.1-5.5-30.1-5.3-45.6-5.1c-19.8,0.2-40.2,0.4-56.3-11.2c-3.4-2.4-6.4-5.3-9.3-8.1c-2.1-2-4.3-4.1-6.6-5.9
		c-11.4-9.3-26.8-14.2-42.2-13.3c-2.8,0.2-6.4,1.1-10.2,2.1c-10.3,2.7-23.2,6-29-5.1c-3.4-6.4-1.9-14,0-19.3
		c7.8-22.2,28.5-35.4,48.5-48.1c4.3-2.7,8.7-5.5,12.9-8.4c6.5-4.4,11.8-9.7,17.4-15.4c3.1-3.1,6.3-6.3,9.7-9.3
		c1.5-1.3,4.5-4.9,7.6-8.6c5.3-6.4,10.8-13,13.9-14.8c0.7-0.4,1.6-0.2,2,0.6c0.4,0.7,0.2,1.6-0.6,2c-2.6,1.5-8.4,8.5-13.1,14.1
		c-3.3,4-6.2,7.4-7.9,8.9c-3.3,3-6.5,6.1-9.5,9.2c-5.5,5.5-11.1,11.1-17.8,15.7c-4.2,2.9-8.6,5.7-12.9,8.4
		c-19.6,12.5-39.8,25.4-47.3,46.6c-1.7,4.7-3,11.4-0.2,16.9c4.8,9.1,15.4,6.3,25.6,3.6c3.9-1,7.6-2,10.8-2.2
		c16.1-0.9,32.2,4.2,44.2,14c2.4,1.9,4.6,4,6.7,6.1c2.9,2.7,5.8,5.5,9,7.8c15.3,11.1,34.4,10.9,54.6,10.6
		c15.8-0.2,32.1-0.3,46.7,5.3c7.5,2.9,14.4,7.3,21.2,11.6c11,7,21.4,13.6,33.7,14.1c0.8,0,1.5,0.7,1.4,1.6
		C1114,809,1113.3,809.7,1112.5,809.7z"/>
</g>
<g>
	<path class="st27" d="M1016.9,848.7c-4.2,0-6.6-0.6-6.9-0.6c-0.8-0.2-1.3-1-1.1-1.8c0.2-0.8,1-1.3,1.8-1.1
		c0.2,0.1,18.5,4.2,45-12.3c0.7-0.4,1.6-0.2,2.1,0.5c0.4,0.7,0.2,1.6-0.5,2.1C1039.2,846.7,1024.9,848.7,1016.9,848.7z"/>
</g>
<g>
	<path class="st27" d="M938.7,862c-7.5,0-12.5-1.3-13-1.4c-0.8-0.2-1.3-1-1-1.8c0.2-0.8,1-1.3,1.8-1.1c0.2,0.1,20.9,5.5,42.1-6.5
		c0.7-0.4,1.6-0.2,2,0.6c0.4,0.7,0.2,1.6-0.6,2C958.4,860.3,947,862,938.7,862z"/>
</g>
<g>
	<path class="st27" d="M994.6,813.2c-0.3,0-0.7-0.1-1-0.3c-0.6-0.5-0.7-1.5-0.2-2.1c0.8-1,20.1-23.4,57.8-19.6
		c0.8,0.1,1.4,0.8,1.3,1.6c-0.1,0.8-0.8,1.4-1.6,1.3c-36.2-3.6-55,18.4-55.2,18.6C995.5,813,995.1,813.2,994.6,813.2z"/>
</g>
<g>
	<path class="st27" d="M909.5,824.8c-0.5,0-1.1-0.3-1.3-0.8c-0.4-0.7-0.1-1.6,0.6-2c0.9-0.5,21.6-11,52.1-3.9c0.8,0.2,1.3,1,1.1,1.8
		c-0.2,0.8-1,1.3-1.8,1.1c-29.4-6.9-49.9,3.5-50.1,3.6C909.9,824.8,909.7,824.8,909.5,824.8z"/>
</g>
<g>
	<path class="st27" d="M1005.1,894.8c-5,0-13.9-0.9-17.1-7.2c-1.5-2.8-1.6-7.4-1.8-13.2c-0.4-11.8-0.9-28.1-12.9-41.8
		c-0.5-0.6-0.5-1.6,0.1-2.1c0.6-0.5,1.6-0.5,2.1,0.1c12.8,14.5,13.3,32.1,13.7,43.7c0.2,5.2,0.3,9.7,1.5,11.9
		c3.6,6.9,17.5,5.5,17.6,5.4c0.8-0.1,1.6,0.5,1.7,1.3c0.1,0.8-0.5,1.6-1.3,1.7C1008.3,894.6,1007,894.8,1005.1,894.8z"/>
</g>
<g>
	<path class="st27" d="M988.9,928.8c-9.2,0-14.4-1.2-15-1.4c-0.8-0.2-1.3-1-1.1-1.8c0.2-0.8,1-1.3,1.8-1.1
		c0.3,0.1,35.1,8.2,88.7-19.4c0.7-0.4,1.6-0.1,2,0.6c0.4,0.7,0.1,1.6-0.6,2C1030.6,925.4,1004.2,928.8,988.9,928.8z"/>
</g>
<g>
	<path class="st27" d="M1010,942.3c-8.2,0-13.5-2.3-13.9-2.5c-0.8-0.3-1.1-1.2-0.8-2c0.3-0.8,1.2-1.1,2-0.8l0,0
		c0.2,0.1,18.3,7.8,39.3-6.5c0.7-0.5,1.6-0.3,2.1,0.4c0.5,0.7,0.3,1.6-0.4,2.1C1027.5,940.3,1017.6,942.3,1010,942.3z"/>
</g>
<ellipse transform="matrix(0.5 -0.866 0.866 0.5 -167.3627 1387.6517)" class="st15" cx="1118.1" cy="838.8" rx="35.5" ry="21.9"/>
<g>
	<path class="st27" d="M1109.5,851.3c-0.7,0-1.3-0.4-1.4-1.1c-0.2-0.7-4.4-17.2,3.8-29c4.4-6.3,11.4-10,20.9-11
		c0.8-0.1,1.6,0.5,1.6,1.3c0.1,0.8-0.5,1.6-1.3,1.6c-8.6,0.9-14.9,4.2-18.7,9.7c-7.4,10.6-3.4,26.4-3.3,26.5
		c0.2,0.8-0.3,1.6-1.1,1.8C1109.8,851.3,1109.7,851.3,1109.5,851.3z"/>
</g>
<path class="st17" d="M1094.6,1316.3c0,3.1-2.5,5.6-5.6,5.6c-3.1,0-5.6-2.5-5.6-5.6s2.5-5.6,5.6-5.6
	C1092.1,1310.7,1094.6,1313.2,1094.6,1316.3z"/>
<circle class="st17" cx="1124.2" cy="1325.7" r="5.6"/>
<circle class="st17" cx="1147.2" cy="1351.4" r="5.6"/>
<circle class="st17" cx="1103.8" cy="1364.3" r="5.6"/>
<ellipse transform="matrix(0.8986 -0.4387 0.4387 0.8986 -488.6585 637.5043)" class="st17" cx="1135.1" cy="1376.1" rx="5.6" ry="5.6"/>
<path class="st17" d="M1173.6,1318.8c0,3.1-2.5,5.6-5.6,5.6s-5.6-2.5-5.6-5.6c0-3.1,2.5-5.6,5.6-5.6S1173.6,1315.7,1173.6,1318.8z"
	/>
<circle class="st17" cx="1154.9" cy="1291.6" r="5.6"/>
<circle class="st17" cx="1111.2" cy="1280.4" r="5.6"/>
<circle class="st17" cx="1143.6" cy="1243.7" r="5.6"/>
<path class="st17" d="M1183.7,1242.4c3.1,0.3,5.3,3.1,5,6.2s-3.1,5.3-6.2,5c-3.1-0.3-5.3-3.1-5-6.2
	C1177.8,1244.3,1180.6,1242.1,1183.7,1242.4z"/>
<path class="st17" d="M1165.9,1210.8c3.1,0.3,5.3,3.1,5,6.2c-0.3,3.1-3.1,5.3-6.2,5c-3.1-0.3-5.3-3.1-5-6.2
	C1160.1,1212.8,1162.8,1210.5,1165.9,1210.8z"/>
<path class="st17" d="M1219.4,1192.5c3.1,0.3,5.3,3.1,5,6.2c-0.3,3.1-3.1,5.3-6.2,5c-3.1-0.3-5.3-3.1-5-6.2
	C1213.5,1194.4,1216.3,1192.1,1219.4,1192.5z"/>
<path class="st17" d="M1183.7,1169.3c3.1,0.3,5.3,3.1,5,6.2s-3.1,5.3-6.2,5c-3.1-0.3-5.3-3.1-5-6.2
	C1177.8,1171.2,1180.6,1169,1183.7,1169.3z"/>
<path class="st17" d="M1218.2,1139.9c3.1,0.3,5.3,3.1,5,6.2c-0.3,3.1-3.1,5.3-6.2,5c-3.1-0.3-5.3-3.1-5-6.2
	C1212.4,1141.8,1215.1,1139.6,1218.2,1139.9z"/>
<path class="st17" d="M1222,1102.9c3.1,0.3,5.3,3.1,5,6.2c-0.3,3.1-3.1,5.3-6.2,5c-3.1-0.3-5.3-3.1-5-6.2
	C1216.1,1104.8,1218.9,1102.6,1222,1102.9z"/>
<path class="st17" d="M1212.8,1066.7c3.1,0.3,5.3,3.1,5,6.2c-0.3,3.1-3.1,5.3-6.2,5c-3.1-0.3-5.3-3.1-5-6.2
	C1207,1068.6,1209.8,1066.4,1212.8,1066.7z"/>
<path class="st17" d="M1181.7,1118.8c3.1,0.3,5.3,3.1,5,6.2s-3.1,5.3-6.2,5c-3.1-0.3-5.3-3.1-5-6.2
	C1175.9,1120.7,1178.7,1118.5,1181.7,1118.8z"/>
<path class="st17" d="M1147.2,1172c3.1,0.3,5.3,3.1,5,6.2c-0.3,3.1-3.1,5.3-6.2,5c-3.1-0.3-5.3-3.1-5-6.2
	C1141.4,1173.9,1144.1,1171.7,1147.2,1172z"/>
<path class="st17" d="M1122.8,1210.8c3.1,0.3,5.3,3.1,5,6.2c-0.3,3.1-3.1,5.3-6.2,5c-3.1-0.3-5.3-3.1-5-6.2
	C1116.9,1212.8,1119.7,1210.5,1122.8,1210.8z"/>
<path class="st17" d="M1090.4,1203.1c3.1,0.3,5.3,3.1,5,6.2c-0.3,3.1-3.1,5.3-6.2,5c-3.1-0.3-5.3-3.1-5-6.2
	C1084.6,1205.1,1087.3,1202.8,1090.4,1203.1z"/>
<path class="st17" d="M1047.1,1184.9c3.1,0.3,5.3,3.1,5,6.2c-0.3,3.1-3.1,5.3-6.2,5c-3.1-0.3-5.3-3.1-5-6.2
	C1041.3,1186.9,1044,1184.6,1047.1,1184.9z"/>
<path class="st17" d="M1087.5,1157.9c3.1,0.3,5.3,3.1,5,6.2c-0.3,3.1-3.1,5.3-6.2,5c-3.1-0.3-5.3-3.1-5-6.2
	C1081.6,1159.8,1084.4,1157.6,1087.5,1157.9z"/>
<path class="st17" d="M1118.6,1170.9c3.1,0.3,5.3,3.1,5,6.2c-0.3,3.1-3.1,5.3-6.2,5c-3.1-0.3-5.3-3.1-5-6.2
	S1115.5,1170.6,1118.6,1170.9z"/>
<path class="st17" d="M1119.8,1124.4c3.1,0.3,5.3,3.1,5,6.2c-0.3,3.1-3.1,5.3-6.2,5c-3.1-0.3-5.3-3.1-5-6.2
	C1114,1126.4,1116.8,1124.1,1119.8,1124.4z"/>
<path class="st17" d="M1147.2,1095.3c3.1,0.3,5.3,3.1,5,6.2c-0.3,3.1-3.1,5.3-6.2,5c-3.1-0.3-5.3-3.1-5-6.2
	C1141.4,1097.2,1144.1,1095,1147.2,1095.3z"/>
<path class="st17" d="M1176.6,1061c3.1,0.3,5.3,3.1,5,6.2c-0.3,3.1-3.1,5.3-6.2,5c-3.1-0.3-5.3-3.1-5-6.2
	C1170.7,1063,1173.5,1060.7,1176.6,1061z"/>
<path class="st17" d="M1213.7,1042.8c3.1,0.3,5.3,3.1,5,6.2c-0.3,3.1-3.1,5.3-6.2,5c-3.1-0.3-5.3-3.1-5-6.2
	C1207.9,1044.7,1210.6,1042.5,1213.7,1042.8z"/>
<path class="st17" d="M1188.3,1273.3c3.1,0.3,5.3,3.1,5,6.2c-0.3,3.1-3.1,5.3-6.2,5s-5.3-3.1-5-6.2
	C1182.4,1275.2,1185.2,1273,1188.3,1273.3z"/>
<path class="st17" d="M1106.1,1239.6c3.1,0.3,5.3,3.1,5,6.2c-0.3,3.1-3.1,5.3-6.2,5c-3.1-0.3-5.3-3.1-5-6.2
	S1103,1239.3,1106.1,1239.6z"/>
<g>
	<path d="M1438.7,1340.3c-0.8,0-1.5-0.6-1.5-1.4c-1.4-33.3,1.9-68.5,5.1-102.5c6.5-69.4,13.3-141.1-17.8-205.1
		c-4.5-9.3-9.9-18.6-15-27.5c-11.5-20-23.5-40.7-27.3-63.8c-2.4-14.5-1.5-29.4-0.6-43.9c0.9-15.7,1.9-32-1.5-47.4
		c-7.5-34.4-35.5-64.2-83.2-88.7c-10.2-5.2-20.8-10.1-31-14.9c-27.9-12.9-56.7-26.2-79.8-47.1c-6.9-6.2-12.7-13.5-18.4-20.5
		c-5.1-6.3-10.4-12.9-16.4-18.5c-8.5-8.1-19.3-15.3-29.6-22.2l-3.4-2.3c-29.7-19.9-59.5-28.5-86.2-24.8c-0.8,0.1-1.6-0.5-1.7-1.3
		c-0.1-0.8,0.5-1.6,1.3-1.7c27.4-3.8,57.9,4.9,88.2,25.2l3.4,2.3c10,6.7,21.3,14.2,30,22.5c6.1,5.8,11.4,12.4,16.6,18.8
		c5.6,6.9,11.4,14.1,18.1,20.1c22.7,20.6,51.4,33.8,79,46.6c10.3,4.8,20.9,9.7,31.1,14.9c48.5,24.9,77.1,55.4,84.8,90.7
		c3.5,15.9,2.5,32.3,1.5,48.3c-0.9,14.3-1.7,29,0.6,43.2c3.8,22.6,15.5,43,27,62.8c5.2,9,10.5,18.3,15.1,27.7
		c31.4,64.7,24.6,136.9,18.1,206.7c-3.2,33.9-6.5,69-5.1,102.1C1440.2,1339.6,1439.6,1340.3,1438.7,1340.3
		C1438.7,1340.3,1438.7,1340.3,1438.7,1340.3z"/>
</g>
<g>
	<path d="M1308.3,1336.9c-0.1,0-0.2,0-0.2,0c-0.8-0.1-1.4-0.9-1.2-1.7c2-12.6,5.1-30,8-46.8c2.9-16.8,6-34.2,8-46.9
		c3.8-23.3,7.6-47.4,7.6-71.4c0-47.7-15.6-95.1-43.8-133.5c-8.9-12.1-19.1-23.4-29-34.4c-7.9-8.7-16.1-17.8-23.5-27.2
		c-20.7-26-31.5-50.1-33.1-73.5c-0.7-10.2,0.4-20.5,1.5-30.5c0.3-2.4,0.5-4.8,0.7-7.1c1.6-16.5,2.5-37.9-4.3-57.2
		c-12.3-34.6-47-60-103.2-75.4c-8.4-2.3-17-4.5-25.4-6.5c-35.2-8.8-71.6-17.8-99.9-40.8c-0.6-0.5-0.7-1.5-0.2-2.1
		c0.5-0.6,1.5-0.7,2.1-0.2c27.8,22.6,63.8,31.6,98.7,40.3c8.4,2.1,17.1,4.3,25.5,6.6c57.2,15.7,92.6,41.7,105.2,77.3
		c7.1,19.9,6.1,41.7,4.5,58.5c-0.2,2.4-0.5,4.8-0.7,7.2c-1,9.8-2.1,20-1.5,29.9c1.5,22.9,12.2,46.4,32.4,71.9
		c7.4,9.3,15.5,18.3,23.4,27c10,11,20.3,22.4,29.2,34.6c28.7,38.9,44.4,86.9,44.4,135.2c0,24.2-3.9,48.4-7.7,71.9
		c-2,12.7-5.1,30.1-8,46.9c-2.9,16.8-6,34.2-8,46.8C1309.7,1336.4,1309.1,1336.9,1308.3,1336.9z"/>
</g>
<ellipse transform="matrix(1.691902e-02 -0.9999 0.9999 1.691902e-02 799.2001 2279.5623)" class="st7" cx="1558.8" cy="733.4" rx="22.3" ry="24.6"/>
<path class="st16" d="M1675.4,630.3c6-9.3,11.3-19.1,15.6-29.3c4.3-10.4,7.6-21.9,5.4-33c-2.2-11.1-11.5-21.4-22.8-21.4
	c-5.7,0-11.1,2.4-15.9,5.4c-12.6,7.7-22.9,19.2-29.3,32.5c3.9-19,4-38.8,0.3-57.8c-2.4-12.2-6.6-24.4-14.9-33.5s-21.6-14.6-33.5-11
	c-9.9,3-17.3,11.7-21.2,21.2c-4,9.6-5,20-6,30.3c-1.7,16.7-3.3,33.4-5,50.1c-6-10.2-14.7-19.1-25.7-23.7
	c-10.9-4.6-24.1-4.5-34.2,1.8c-18.8,11.6-20.6,38.2-17.5,60.1c2.1,14.4,5.2,30.3,13.1,42.7c8.8,13.9,18.5,27.4,29.6,39.5
	c9,9.8,19.3,18.7,31.4,24.3s26.2,7.6,38.9,3.6c6.9-2.2,13.1-6.1,19.2-9.9c17.7-11.1,34.7-22.6,52-34.2c12.2-8.2,24.2-16.9,33.1-28.6
	c3.1-4,5.8-8.6,6.1-13.7C1694.8,636.1,1684.5,628.1,1675.4,630.3z"/>
<path class="st29" d="M1675.4,630.3l-91.6,101.6c6.9-2.2,13.1-6.1,19.2-9.9c17.7-11.1,34.7-22.6,52-34.2
	c12.2-8.2,24.2-16.9,33.1-28.6c3.1-4,5.8-8.6,6.1-13.7C1694.8,636.1,1684.5,628.1,1675.4,630.3z"/>
<path class="st29" d="M1628.7,526.6c-2.4-12.2-6.6-24.4-14.9-33.5c-8.3-9.2-21.6-14.6-33.5-11c-9.9,3-17.3,11.7-21.2,21.2
	c-4,9.6-5,20-6,30.3c-1.7,16.7-3.3,33.4-5,50.1c0,0,2.8,147.1,5.9,148c6.1,1.8,12.6,2.6,18.9,2.2c3.7-0.2,7.4-0.9,11-2
	c6.9-2.2,44.5-147.4,44.5-147.4C1632.3,565.4,1632.4,545.6,1628.7,526.6z"/>
<ellipse transform="matrix(0.9497 -0.3133 0.3133 0.9497 -216.7532 376.7708)" class="st30" cx="1064" cy="862.9" rx="19.8" ry="15"/>
<path class="st30" d="M957.9,890.3c0,7.8-8.8,14.1-19.8,14.1c-0.5,0-1,0-1.5,0c-2.5-3.6-5.1-9.1-7.3-12.4
	c-4.2-6.6-5.5-11.2-5.5-11.2c3.6-3.6,7.7-4.5,14.3-4.5C949,876.2,957.9,882.5,957.9,890.3z"/>
<ellipse transform="matrix(0.8927 -0.4507 0.4507 0.8927 -358.5572 524.3552)" class="st30" cx="921.7" cy="1015" rx="13.8" ry="16.1"/>
<path class="st31" d="M939.6,1062.2c1.4-3.2,10.5-2.1,11.6,0c1.1,2.1-3,5.8-5.8,7.4S938.1,1065.4,939.6,1062.2z"/>
<g>
	<path class="st27" d="M970.5,1058c-7.2,0-8.7-4.7-8.7-8.6c0-0.8,0.7-1.5,1.5-1.5s1.5,0.7,1.5,1.5c0,4.9,2.7,5.6,5.7,5.6
		c0.8,0,1.5,0.7,1.5,1.5S971.3,1058,970.5,1058z"/>
</g>
<g>
	<path class="st27" d="M974.3,1031c-0.2,0-0.4,0-0.7-0.1c-0.7-0.4-1.1-1.3-0.7-2c0.4-0.8,9.5-20.7-17.3-34.7c-0.7-0.4-1-1.3-0.6-2
		c0.4-0.7,1.3-1,2-0.6c29.5,15.4,18.8,38.4,18.7,38.7C975.4,1030.7,974.8,1031,974.3,1031z"/>
</g>
<circle class="st25" cx="542" cy="658" r="7"/>
<path class="st25" d="M621.4,603.7c0,3.8-3.1,7-7,7c-3.8,0-7-3.1-7-7c0-3.8,3.1-7,7-7C618.3,596.8,621.4,599.9,621.4,603.7z"/>
<ellipse transform="matrix(0.8681 -0.4963 0.4963 0.8681 -222.7748 379.6647)" class="st25" cx="603.1" cy="609.1" rx="7" ry="7"/>
<path class="st25" d="M606.2,612.6c1.9-3.3,6.2-4.5,9.5-2.5c3.3,1.9,4.5,6.2,2.5,9.5c-1.9,3.3-6.2,4.5-9.5,2.5
	C605.4,620.1,604.3,615.9,606.2,612.6z"/>
<path class="st25" d="M568.6,789.5c1.7,3.5,0.2,7.6-3.2,9.3c-3.5,1.7-7.6,0.2-9.3-3.2c-1.7-3.5-0.2-7.6,3.2-9.3
	C562.7,784.6,566.9,786,568.6,789.5z"/>
<circle class="st25" cx="554.5" cy="802.3" r="7"/>
<circle class="st25" cx="565.7" cy="804.6" r="7"/>
<path class="st25" d="M626.4,850.9c1.7,3.5,0.2,7.6-3.2,9.3c-3.5,1.7-7.6,0.2-9.3-3.2c-1.7-3.5-0.2-7.6,3.2-9.3
	C620.6,846,624.8,847.4,626.4,850.9z"/>
<circle class="st25" cx="612.3" cy="863.7" r="7"/>
<path class="st25" d="M616.6,865.5c0.3-3.8,3.6-6.7,7.4-6.4c3.8,0.3,6.7,3.6,6.4,7.4c-0.3,3.8-3.6,6.7-7.4,6.4
	C619.2,872.7,616.3,869.3,616.6,865.5z"/>
<ellipse transform="matrix(0.1466 -0.9892 0.9892 0.1466 567.432 1213.2286)" class="st3" cx="986.9" cy="277.7" rx="54.1" ry="37.5"/>
<path class="st3" d="M1845.6,1674.6c7.9,2.4,13.9,8.8,15.6,22c1,7.9-0.9,15.9-2.8,23.7c-2.4,9.8-4.7,19.5-7.1,29.3
	c-1.2,4.8-2.4,9.7-5.2,13.7c-4.5,6.4-12.3,9.6-19.9,11.3c-11,2.4-22.9,2.4-32.9-2.8c-10-5.2-17.3-16.2-15.8-27.4
	c1.2-8.9,7.6-16.2,10.7-24.7c4.2-11.7,2.7-26.4,12.1-34.6c2.9-2.5,6.4-4,10-5.4C1821.9,1675.3,1835.4,1671.6,1845.6,1674.6z"/>
<ellipse transform="matrix(0.594 -0.8044 0.8044 0.594 -425.3824 593.9258)" class="st3" cx="375.8" cy="718.4" rx="37.6" ry="37.5"/>
<circle class="st3" cx="1768.3" cy="718" r="24.4"/>
<circle class="st3" cx="186.7" cy="829.5" r="24.4"/>
<path class="st28" d="M669.9,1199.5c-5,25.7-0.6,51.7,14.8,72.9c0.9,1.2,1.8,2.4,3.2,3.2c2.6,1.5,6,0.6,8.4-1.2
	c2.3-1.9,3.8-4.6,5.1-7.3c5.7-11.5,9.9-23.9,11.4-36.7c0.8-6.5,0.8-13,0-19.4c-0.4-2.8-1.3-5.2-1.6-8.1c-0.3-3.4-0.4-6.9-0.3-10.3
	c0-0.8,0-1.6,0.4-2.3c0.3-0.7,1.1-1.3,1.9-1.2c0.8,0.1,1.3,0.9,1.7,1.6c2.2,4.7,0.7,10.2,1.7,15.3c0.3,1.7,1.1,3.5,2.5,4.5
	c1.2,0.8,2.9,0.9,4.2,0.3c2.6-1.3,2.7-4.6,3-7.1c0.4-3.3,0.8-6.5,1.1-9.8c0.6-6.4,1.1-12.8,1-19.3c0-12.6-1-23.4-6.6-34.8
	c-4.4-9-8.6-10.6-16.4-5.5c-7.7,5.1-15.4,13.5-19.5,20.4C677.9,1168.5,673,1183.9,669.9,1199.5z"/>
<g>
	<path class="st27" d="M1129.5,837.8c-0.2,0-0.4,0-0.6-0.1c-0.8-0.3-1.1-1.2-0.8-2c0.2-0.5,5.2-12.8-5.9-19.3
		c-0.7-0.4-0.9-1.3-0.5-2.1c0.4-0.7,1.3-0.9,2.1-0.5c13.4,7.9,7.1,22.9,7.1,23.1C1130.6,837.5,1130.1,837.8,1129.5,837.8z"/>
</g>
<path class="st32" d="M1541,536c1.1-14.6,3-29.8,10.8-42.2c4.9-7.9,12.1-14.2,19.9-19.2c15.1-9.6,35.9-14.1,50.3-3.6
	c13.2,9.6,16.4,27.8,16.9,44.2c1.2,40.1-7.3,79.9-15.7,119.1c-3,14-6,27.9-9.4,41.8c-4.3,17.7-9.5,37.2-22.4,50.9
	c-9.2,9.8-27.5,17-35.2,2c-6.8-13.3-7-34.6-9.3-49c-3.6-22.3-5.9-44.8-7-67.4C1538.7,587.1,1539,561.5,1541,536z"/>
<path class="st32" d="M1712.6,537.2c-1.3-7.3-5.7-14.5-12.6-17.2c-7.2-2.9-15.4-0.6-22.4,2.5c-29.2,13.1-49.6,40-65.4,67.8
	c0,0-16.2,31-25.2,54.3c-9,23.4-13.5,49.1-8.4,73.6c0.3,1.3,0.6,2.7,1.6,3.7c1,0.9,2.5,1.2,3.8,1.2c8,0,14.1-6.7,19.2-12.8
	c20.1-23.8,42.4-45.8,62.1-69.9c19.7-24.2,37-51,45.2-81.1C1712.5,552,1713.9,544.5,1712.6,537.2z"/>
<path class="st3" d="M173.6,1019.5c-20.8,32.3-31.8,72.2-36,110.1c-0.1,0.7-0.1,1.5,0.4,2c0.3,0.3,0.9,0.4,1.3,0.5
	c6.3,0.4,6.5-7.8,8.3-12c2.9-6.8,6-13.5,9.5-20c6.9-13.3,14.9-26,23.6-38.1c16.7-23.3,36.3-44.7,58.4-63.1
	c13.8-11.6,58.2-45.5,12.4-46C220.3,952.6,188.6,996.2,173.6,1019.5z"/>
<path class="st3" d="M585.2,1666.1c122.7,44.8,257.5,39.3,387.8,29.6s263.2-23,390.1,7.7c-8.4,21.1-36.3,24.7-59.1,24.7
	c-46.5-0.2-92.9-1.9-139.2-5.4c-33.8-2.5-67.7-5.8-101.5-4.6c-57.2,2.1-113.1,17.4-169.8,24.8c-80.3,10.5-162.5,4.7-240.7-16.1
	c-26.5-7-213.3-71-190.3-103.6C477,1602.6,564.1,1658.4,585.2,1666.1z"/>
<path class="st33" d="M1067,1217.4l31.6,11.2c0,0,11.4-29.4,21.2-76.7C1108.3,1188.2,1067,1217.4,1067,1217.4z"/>
<path class="st21" d="M941.4,911.6c23.6,38.7,73.7,52.5,73.7,52.5l3.6,14c0,0,1.4,7.5,0.9,12.2C1015.8,970,966.1,954.5,941.4,911.6z
	"/>
<path class="st25" d="M1673.2,1343.7c1.7,3.5,0.2,7.6-3.2,9.3c-3.5,1.7-7.6,0.2-9.3-3.2s-0.2-7.6,3.2-9.3
	S1671.6,1340.3,1673.2,1343.7z"/>
<path class="st25" d="M1652.2,1356c0.3-3.8,3.6-6.7,7.4-6.4c3.8,0.3,6.7,3.6,6.4,7.4c-0.3,3.8-3.6,6.7-7.4,6.4
	C1654.8,1363.2,1651.9,1359.8,1652.2,1356z"/>
<path class="st25" d="M1663.4,1358.3c0.3-3.8,3.6-6.7,7.4-6.4c3.8,0.3,6.7,3.6,6.4,7.4c-0.3,3.8-3.6,6.7-7.4,6.4
	S1663.1,1362.2,1663.4,1358.3z"/>
<path class="st25" d="M1810.1,1213c-1.1,3.7-4.9,5.8-8.6,4.8c-3.7-1.1-5.8-4.9-4.8-8.6c1.1-3.7,4.9-5.8,8.6-4.8
	S1811.1,1209.3,1810.1,1213z"/>
<path class="st25" d="M1786.2,1208.1c2.8-2.7,7.2-2.6,9.8,0.2c2.7,2.8,2.6,7.2-0.2,9.8c-2.8,2.7-7.2,2.6-9.8-0.2
	C1783.4,1215.2,1783.4,1210.8,1786.2,1208.1z"/>
<path class="st25" d="M1793,1217.3c2.8-2.7,7.2-2.6,9.8,0.2c2.7,2.8,2.6,7.2-0.2,9.8c-2.8,2.7-7.2,2.6-9.8-0.2
	C1790.1,1224.3,1790.2,1219.9,1793,1217.3z"/>
<path class="st23" d="M1059.6,1336.8c19.9,66.8,71.7,66.1,81.9,65.7c13.8-0.6,33.7-35.9,27.9-39.3c-5.8-3.5-27,2.8-48.8-8.9
	c-23.2-12.4-42.3-38-44.7-43C1073.4,1306.3,1056.3,1323.4,1059.6,1336.8z"/>
<g>
	<path class="st27" d="M1004.4,1041.1c-0.3,0-0.6-0.1-0.8-0.2c-0.3-0.2-7-4.4-12.1-0.2c-0.6,0.5-1.6,0.4-2.1-0.2
		c-0.5-0.6-0.4-1.6,0.2-2.1c6.8-5.6,15.3-0.2,15.7,0c0.7,0.5,0.9,1.4,0.4,2.1C1005.4,1040.9,1004.9,1041.1,1004.4,1041.1z"/>
</g>
</svg>
