<?xml version="1.0" encoding="utf-8"?>
<!-- Generator: Adobe Illustrator 22.0.1, SVG Export Plug-In . SVG Version: 6.00 Build 0)  -->
<svg version="1.1" xmlns="http://www.w3.org/2000/svg" xmlns:xlink="http://www.w3.org/1999/xlink" x="0px" y="0px"
	 viewBox="0 0 5669.3 5669.3" style="enable-background:new 0 0 5669.3 5669.3;" xml:space="preserve">
<style type="text/css">
	.st0{fill:#FFFFFF;}
	.st1{fill:none;stroke:#FDE9E8;stroke-width:10;stroke-miterlimit:10;}
	.st2{fill:#FDE9E8;}
	.st3{fill:#498E8B;}
	.st4{fill:none;stroke:#5E3827;stroke-width:10;stroke-miterlimit:10;}
	.st5{fill:#5E3827;}
	.st6{fill:#E5785C;}
	.st7{fill:#3B7A75;}
	.st8{fill:#F16469;}
	.st9{fill:#452420;}
	.st10{clip-path:url(#SVGID_2_);fill:#F8A17A;}
	.st11{clip-path:url(#SVGID_2_);fill:none;stroke:#F16469;stroke-width:10;stroke-miterlimit:10;}
	.st12{clip-path:url(#SVGID_2_);fill:#E5785C;}
	.st13{clip-path:url(#SVGID_2_);fill:#F16469;}
	.st14{fill:#B4867D;}
	.st15{fill:#F8A17A;}
	.st16{fill:#75CAE1;}
	.st17{fill:#F37B83;}
	.st18{fill:#5BB5D8;}
	.st19{fill:none;}
</style>
<g id="Layer_1">
</g>
<g id="Layer_2">
	<rect x="0" y="0" class="st0" width="5669.3" height="5669.3"/>
	<g>
		<path class="st1" d="M1978.8,4810.5c-160.2-57.4-335.8-40.9-506.1-43.3c-170.2-2.4-435.8-30.1-499.9-219.1
			c-67.8-200,30.5-407.4,31.3-609.5c0.2-55.3-5.6-111.3-24.7-163.2c-89.2-243.1-388-302-492.7-544.3c-78.2-181-37.8-397.1,65-565.3
			c89.3-146.1,220.2-261,358.6-359.2c126.1-89.4,222.5-233.9,271.9-380.8c92.3-274.3,35.6-574.3,139.1-841.8
			c92.7-239.6,270.2-442.6,491.9-549.8C2200,347,2657.2,513.5,2933,833.6c147.9,171.7,360.5,271.4,576.9,289.1
			c420.3,34.4,858.1-194,1247.5,63.8c198.5,131.4,338.7,364.4,382.4,610.3c24.6,138.5,21.8,292.6-31.7,423.3
			c-52.6,128.7-143.3,233.6-221.3,344.8c-129.5,184.7-200.4,431.6-79.3,639.7c53,91,129.5,165.4,202.1,241.6
			c185.8,195.2,254.6,482.5,190.6,742.7c-72.6,295.4-302.8,489.3-602.5,526.4c-221.8,27.5-467.4-8.4-668.5,108.8"/>
		<path class="st2" d="M691.9,2485.3c-122.5,174.2-217.1,411.3-151.5,630.1c65.4,218.1,274.6,352.6,366,559.8
			c51.7,117.1,53.1,245.9,55,371.6c2.6,164.5-29.6,339.3,81.6,478.4c65.8,82.3,165,130.9,265.4,162.8
			c201.6,64.1,412.8,94.2,591.8,215.3c294.2,199,655.4,268.5,1006,247c177.8-10.9,354.1-44.4,524.4-96.3
			c197.9-60.4,373.7-167.3,572.9-224.5c345.3-99.2,817.4-100.6,1019.4-449.9c136-235.2,183.2-525.9,77.3-782.1
			c-50.3-121.8-146.4-214.9-201.1-334.5c-75.6-165.3-96-353.7-45.5-529.3c2.1-7.2,4.3-14.4,6.6-21.6
			c52.8-164.1,158.9-305.3,202.9-472.4c90.7-345-109.7-709.7-373.1-931.5c-109.4-92.1-231.7-168.8-364.9-212.5
			c-367.3-120.6-775.5,19-1143.9-97.7c-282.7-89.5-514.7-322-802.7-389.3c-221.3-51.7-460.5,3.5-648.5,138.6
			c-188,135.1-324.4,346.5-386.6,579.3c-57.6,215.7-55.8,452.7-158,648.7c-87.4,167.7-249.5,258.1-381,379.8
			C763.6,2392.7,725.8,2437.1,691.9,2485.3z"/>
		<g>
			<path class="st3" d="M1915.6,5669.3c0,0,6.7-326.6,25.7-529c14.8-158.2,41.2-312.8,96.4-462.2c10.1-27.4,116.6-277,126.2-274.4
				c139.9,39.2,285.5,53.6,430.3,64.7c176.6,13.6,353.6,23.2,530.8,23.6c111,0.2,223.7-3.5,329.8-35.5
				c88.4,126.1,139.3,274.5,164.7,425.1c24.3,144.2,26.1,286.2,23.5,429.9c-2.8,155.5-3.1,357.6-3.1,357.6H1915.6z"/>
			<path class="st4" d="M3656.8,3294.2c152.8-13.8,317.8-57.6,427.4-171.6c109.5-114,129.8-303,49.8-439.1
				c-11.5-19.6-25-38-40.4-54.7c-67-73-171.4-111.8-217.1-199.7c-29.6-56.9-31.6-138.1,11.5-188.4c27.4-32,47.9-67.2,39.8-110.5
				c-11.8-63.8-64.8-121.1-120.6-150.8c-81.9-43.6-179.5-53.1-270.8-55.9c-61.8-1.9-124.3-13.3-149.5-77.3
				c-13.6-34.5-15.1-72.1-20.5-108.4c-11.5-77.4-24.6-154.6-43.5-230.5c-21.9-87.5-87.7-167.9-157.9-223
				c-10.1-7.9-20.5-15.4-31.1-22.5c-178.6-118.5-490.1-136.9-661.2,5.1c-58.3,48.4-95.8,117.5-102.6,193.1
				c-4.6,50.5-17,62.5-64,82.2c-85.5,35.7-183.6,64.7-247.4,136c-49.9,55.8-67.8,134.7-53.5,207.4c18.2,92.9,88.1,131.5,142.1,201.3
				c55.1,71.3,26.6,170.3-23.1,238.2c-38.3,52.3-95.7,93.3-114.2,155.4c-17,57.1,3.8,119.3,35.7,169.6
				c12.9,20.4,27.7,39.6,39.5,60.7c35.7,64.2,40.3,144.9,12.2,212.8"/>
			<path class="st5" d="M3771.5,3267.8c-141.1,65.6-317.8,77.1-458.8,4.5c-138.6-71.4-263.4-120.5-423.9-102.3
				c-143.4,16.3-254.8,105.3-392.3,135.1c-109.1,23.6-225.8-13.8-313.1-83.3c-85.2-67.9-148-177.7-123.9-284
				c12.6-55.6,47.2-103.8,64.4-158.2c39.6-125.5-101.9-185.4-80.5-315.5c18.2-110.7,129.3-199,116.9-310.4
				c-9.1-81.6-78.4-138.9-107.9-212.4c-29.7-74.1-32.9-160,0.1-233.5c24.2-54,67.1-100.3,119.1-128.6c46.7-25.4,101.1-31,134.7-77.1
				c59.9-82.2,76.7-166.8,163.5-231c73.5-54.4,176.2-67.2,266.4-67.5c200.5-0.7,403.4,85.8,531.2,242.2
				c45.3,55.4,79.7,113.3,87.4,183.6c8.4,76.8,15.8,154.2,69.1,215.1c44.8,51.1,111.4,77.2,176.7,96
				c65.4,18.8,133.3,32.5,192.3,66.3c59,33.8,109,93.3,109,161.3c0,56.9-34.4,109.6-34.2,166.5c0.3,103.5,106.2,168.6,175.1,245.8
				c96.4,108.2,126.2,271.3,74.3,406.5c-59.7,155.7-190.8,202.1-326.2,271.4C3784.6,3261.6,3778.1,3264.8,3771.5,3267.8z"/>
			<path class="st6" d="M2555.6,3185c28.6-72,45.4-151.9,32.7-226.8c-11.9-69.4-46.1-135.6-99.8-181.1
				c-27.2-23-90.9-15.5-124.5-11.3c-40.4,5-81.7,17.5-110.7,46.5c-29,29-55.1,55.8-77,91.1c-106.3,171.2-213,342.8-316.1,516.6
				c-64.6,108.9-136.5,213.7-192.9,327.4c-41.6,84-85.3,175.2-96.4,269.3c-7.5,63.6,2.9,142.6,56.1,184.7
				c56,44.4,134.4,38.9,198.5,16.9c183.4-62.9,288.2-280.9,388.7-434.3c113.2-172.9,217.5-351.6,312.4-535.2
				C2537,3228.4,2546.9,3207.1,2555.6,3185z"/>
			<path class="st7" d="M3454.8,4456.6c-106.1,32-218.8,35.7-329.8,35.5c-177.2-0.3-354.2-10-530.8-23.6
				c-144.7-11.1-290.3-25.5-430.3-64.7c-3.6-1-21.1,34-42,79.5c82.4,96.2,222.1,127.4,341.1,153.7c111.5,24.6,225.4,37.5,339.1,46.4
				c69.1,5.4,138.4,9.4,206.5,21.9c285.3,52.5,533.7,266.7,634.1,537.9c1.5-121-3.2-242.2-23.3-361.5
				C3594.1,4731.1,3543.2,4582.7,3454.8,4456.6z"/>
			<path class="st8" d="M2155.9,3282.6c27.6-52.4,52.8-104.7,57-114.2c26.7-60,50.5-121.3,74.7-182.3
				c18.7-47.2,37.6-94.4,58.2-140.8c11.7-26.5,26.4-53.3,42.1-77.8c8.2-12.7,39.3-65.1,55.5-66.1c-50.5,3-99.4,19.3-144.8,41.7
				c-109.1,53.7-218.3,152.9-271.4,263.1c-47.9,99.6-97.5,198.4-148.7,296.3c68.8,27.1,135.7,59.2,199.9,95.8
				C2088.5,3404.1,2123.9,3343.3,2155.9,3282.6z"/>
			<path class="st9" d="M3385.9,2585.4c25,124.2,10.9,222.8-93.7,302.8c-83.3,63.7-189.8,97.2-289.9,115.6
				c-167.9,30.9-362.7,17.2-507.6-81.2c-26.3-17.9-52.4-40.7-59.1-71.8c-6-28.3,5.4-57.6,2.3-86.3c-5.3-48.4-49-82.3-72.9-124.8
				c-31.5-56.1-27.1-125.1-16.8-188.6c10.2-63.5,25.4-128.5,12.3-191.5c-16.9-81.8-77.8-145.8-128.9-211.9
				c-51.1-66-96.2-149.1-74.3-229.6c14.5-53.1,61.6-99.6,115.1-114.3c56.4-15.5,118.5,42,161,72.3c57.2,40.8,119.2,75,184.3,101.6
				c90,36.8,185.9,59.2,272.2,104.1c52.2,27.1,109.8,66.6,140.9,118.1c35,58,0.5,125,62.7,173.6c40.2,31.4,94.9,35.5,140.9,57.4
				C3333,2377.5,3366.2,2487.3,3385.9,2585.4z"/>
			<g>
				<defs>
					<path id="SVGID_1_" d="M2536.1,4526.4c79.3,4.2,159.1,5.5,238.1,6.9c76.1,1.4,152,5,227.8-3.7c40.6-4.6,80.6-12.7,126.6-20.4
						c8,2.8,23.5,8.4,30.7,11c20.5,7.2,41.4,13.6,62.4,19.1c20.8,5.5,41.8,10.4,62.9,14.6c21.5,4.2,43.3,7.4,65.1,9.8
						c21.8,2.3,43.8,3.8,65.7,4.5c8.4,0.3,16.9,0.5,25.3,0.6c8.6,0.1,17.3,0,25.9-0.3c24.7-0.7,50.3-2.5,72.5-14.4
						c21.9-11.6,39.2-35,36.6-59.7c-3.3-31.1-34.7-51.5-45.9-80.7c-10.1-26.5-2.9-58.9-19.3-82.1c-8-11.3-20.7-18.7-27.7-30.6
						c-10.6-17.9-5.9-40.8-10.5-61.1c-8.2-35.8-43.7-58.4-60.6-91c-6.9-13.2-10.5-27.8-14.1-42.3c-9.9-39.9-24.4-80.9-26.2-121.8
						c-2-45.6,5.5-92.1,9.9-137.4c20.7-211.5,72.3-419.3,121.1-625.7c0.5-2.1,1-4.2,1.5-6.3c34.4-145.9,52.3-295.1-25.8-394.5
						c-47.8-60.9-137.8-92.7-207.6-120.9c-57.9-23.4-116.9-44.2-174.6-68.1c-56.9-23.6-112.1-51.9-171.1-70
						c-19.2-5.9-38.6-11.2-58.5-14c-74.8-10.5-144.8,21-209.2,55.1c-84.3,44.7-179.9,68-261.8,116.5
						c-88.6,52.5-115.8,155.1-152.4,244.3c-18.8,46-26.9,102.2-51.5,145c-17.8,31.1-58.6,44.7-70,80.2c-3,9.5-3.7,20.5-10.9,27.4
						c-9,8.7-25.5,8-31.9,18.8c-8.2,13.9,8.5,30.3,7.6,46.4c-1.5,26.8-45.3,29.7-55,54.7c-7.6,19.7,9.8,39.3,16.5,59.3
						c10.8,32.7-6.6,75.4-8.7,109.5c-6.4,106.6,36.2,209.3,78,307.6c19,44.6,44,75.5,40.1,124.8c-4.3,53.7,3.8,106.9,6.7,160.9
						c5.6,107,10.1,229.5-19.4,333.8c-1.3,4.5-2.6,9.5-0.5,13.6c1.4,2.7,4,4.6,6.5,6.3c60.2,40.5,143.5,50.1,214.5,59.2
						C2421.5,4518.9,2478.6,4523.4,2536.1,4526.4z"/>
				</defs>
				<use xlink:href="#SVGID_1_"  style="overflow:visible;fill:#F37B83;"/>
				<clipPath id="SVGID_2_">
					<use xlink:href="#SVGID_1_"  style="overflow:visible;"/>
				</clipPath>
				<path class="st10" d="M3116.4,2827.1c39.9-40.4,70.1-88.7,84.6-144c6.3-24,9.1-50.9-3.4-72.4c-11-19.1-31.9-30-52-39.1
					c-178.3-80.2-415.3-69.8-593.5,11.9c-21.2,9.7-42.6,21.2-56.5,39.9c-15,20.2-19.3,46.5-19.3,71.7c0.1,87.3,56.5,167.1,127,215.7
					c93.8,64.6,208.6,68.1,314.4,34.4C2991.3,2921.8,3062.6,2881.6,3116.4,2827.1z"/>
				<path class="st11" d="M2420.1,2652.8c-14.5,94.1,30.5,205,91.2,276.7c74.4,87.8,197.7,119.6,309.9,115.3
					c261.1-10,423.4-243.5,505.3-462.6c4.5-12,8.9-24.1,13.1-36.3"/>
				<path class="st10" d="M2437.7,3520c131.5,102.3,182.4,257.6,221.1,413.8c17.6,70.8,22.2,155.8,57.6,219.2
					c36,64.3,82.2,122.9,135,174.3c105,102.2,236.6,176.6,377.1,217.5c90.6,26.4,188.7,41.7,262.3,100.7
					c30.3,24.3,54.9,55,77.5,86.6c101.6,141.9,169.4,320.6,130.4,490.7c-7.1,31-18.2,62.1-39,86.2c-24,27.7-58.7,43.7-93.6,54.9
					c-93.3,29.9-193,30.5-290.9,30.8c-269.7,1-539.3,2-809,3c-112.5,0.4-227.1,0.5-334.5-32.7s-208.8-105.7-248.4-211
					c-24.5-65.2-23.7-136.7-22.6-206.3c7.1-439.5,14.2-879,21.3-1318.5c0.8-50.8,2.1-103.5,24.7-149
					c44.3-89.2,160.6-80.3,245.6-72.4C2255.6,3417.5,2355.8,3456.3,2437.7,3520z"/>
				<path class="st12" d="M2324.7,3520.5c48.1,44.6,87.3,102.2,130.4,149.5c60.3,66.2,91,151.6,153.7,217
					c18.7,19.5,46.3,24.5,69.6,36.1c66.5,32.9,131.6,69.2,191.8,112.8c77.2,55.8,256.5,190.4,161.9,299.5
					c-25.8,29.7-63.6,46.1-101.1,58.1c-61.1,19.6-125.2,30.1-189.3,31.2c-36.9,0.6-74.6-2-109-15.6c-28-11-56.2-35.5-52.3-65.4
					c-56.6-5.4-106.7-23.2-161.6-36.9c-39.7-9.9-79.2-20-118.2-33.4c-80.3-27.5-158.2-62.3-232.2-103.9
					c-55.4-31.2-109.3-66.6-152.6-113.1c-47.5-51.1-80.6-113.6-113-175.3c-31.5-59.8-63.6-121.8-68.8-189.3
					c-5.9-76.3,26-154,82.7-205.2c56.7-51.2,140.4-104.8,220.1-88.7c38.2,7.7,71.4,31,108.7,42.4c21.4,6.5,43.8,9.1,65.5,14.5
					C2255.8,3466.2,2292.3,3490.4,2324.7,3520.5z"/>
				<path class="st13" d="M2361.2,3368.1c25.4,8.1,50.4,17.4,75,27.8c-36-54.1-103.3-69.4-160.1-90.5
					c-75.4-28-153.6-50.2-230.6-73.7c-9.7-3-19.6-5.9-29.8-5.9c-36.8,0-61.3,36.6-79,68.8c-6.9,12.6-19,38-1.4,48.3
					c12.8,7.5,19.8-4.1,31.7-8.1c39.2-13.2,90.3-10.7,131.1-9.9C2187,3326.8,2276.3,3341,2361.2,3368.1z"/>
				<path class="st13" d="M2322.2,3238.9c-31.8-31.5-75.9-48.2-120.3-54.5c-44.3-6.3-89.4-3.1-134.1,0.1c-6.8,0.5-13.7,1-20.5,1.5
					c8-0.6,36.8,25.4,50.5,27.7c20.6,3.5,44,0.5,65,1.8C2216.4,3218.9,2269.8,3226.7,2322.2,3238.9z"/>
				<path class="st13" d="M2692,3769c36.8,78.3,70.6,158.6,118.8,230.5c48.2,71.8,113,135.8,194.2,165.9
					c-31.4-11.7-85.6-69.2-104.6-96.7c-23.6-34.2-41.5-75.8-63.2-112.1c-54.9-91.9-109.9-183.8-164.8-275.7
					c-48.4-80.9-100.7-165.7-183.8-210.2C2578.4,3552.1,2640.8,3660.2,2692,3769z"/>
				<path class="st13" d="M3366.2,4318.7c-50.6-12-98-34.6-144.9-57c-25.8-12.4-54.2-27.6-62.7-54.9
					c101.8,49.9,218.5,60.7,331.8,56.5c41.5-1.6,60.1,33,17.6,51.9C3465.5,4334.2,3410.2,4329.2,3366.2,4318.7z"/>
			</g>
			<g>
				<g>
					<path class="st14" d="M2521.5,1429.5c22.8-16.3,48-29.1,74.4-38.7c26.4-9.5,53.9-15.8,81.8-19.5c27.8-3.7,56-4.9,84.1-4.1
						c14,0.4,28.1,1.2,42,2.5c14,1.3,27.9,2.9,41.8,5.1c1.7,0.3,3.5,0.5,5.2,0.8l5.2,1l10.4,1.9c3.4,0.7,6.9,1.5,10.3,2.2
						c3.4,0.8,6.9,1.4,10.3,2.4c6.8,1.8,13.7,3.4,20.4,5.5l10.1,3l10,3.3c6.7,2.1,13.3,4.7,19.9,7.1c3.3,1.2,6.6,2.6,9.8,3.9l9.8,4
						c12.9,5.7,25.7,11.6,38.1,18.2c24.9,13.1,48.8,28.2,71.2,45.4l8.4,6.5c2.8,2.2,5.4,4.5,8.2,6.7l4.1,3.4l2,1.7l2,1.8l7.9,7
						c1.3,1.2,2.7,2.3,3.9,3.5l3.8,3.7l7.6,7.3c2.5,2.5,4.9,5,7.4,7.6c2.4,2.5,5,5,7.3,7.7c19.1,20.7,36.6,43.1,51.7,67
						c15.1,23.9,27.9,49.2,38.3,75.6c10.4,26.3,17.8,53.8,23.1,81.5c5.4,27.7,8.7,55.7,11,83.7c2.4,28,3.9,56,5.6,83.9
						c1.7,27.9,3.9,55.8,7.4,83.3c1.9,13.7,4.3,27.4,7.6,40.7c3.3,13.4,7.5,26.5,13,39c5.5,12.5,12.2,24.4,20.6,34.9
						c8.4,10.5,18.5,19.6,29.9,26.5c11.4,7,24.3,11.5,37.5,14.4c1.6,0.4,3.3,0.6,5,1c1.7,0.3,3.3,0.6,5,0.9c3.4,0.4,6.7,1,10.2,1.3
						l5.1,0.5l5.1,0.3c3.4,0.3,6.9,0.3,10.3,0.4c13.8,0.3,27.7-0.2,41.7-0.7c7-0.2,14-0.5,21.1-0.6c7.1-0.1,14.1,0,21.2,0.2
						c14.1,0.4,28.2,1.3,42.3,2.8c14.1,1.5,28.1,3.6,42,6.4c13.9,2.8,27.7,6.3,41.2,10.8c13.5,4.5,26.7,9.9,39.4,16.7
						c12.6,6.8,24.6,15,35.2,24.9c10.6,9.9,19.6,21.6,26,34.8c6.5,13.1,10.2,27.4,11.5,41.9c0.6,7.2,0.7,14.5,0.2,21.6
						c-0.2,3.6-0.6,7.2-1,10.7c-0.5,3.6-1,7.1-1.7,10.6c-2.8,14.2-7.6,27.7-12.8,40.8c-5.2,13.1-10.8,25.9-15.3,38.9
						c-1.1,3.3-2.2,6.5-3.1,9.9l-2.8,10c-0.8,3.3-1.5,6.7-2.2,10.1c-0.4,1.7-0.8,3.4-1.1,5.1l-0.8,5.1l-0.8,5.1
						c-0.3,1.7-0.6,3.4-0.7,5.1l-1,10.3c-0.2,1.7-0.3,3.4-0.3,5.2l-0.2,5.2l-0.2,5.2c0,1.7,0,3.4,0.1,5.2
						c-0.1,13.8,1.4,27.6,3.6,41.2l0.9,5.1c0.3,1.7,0.6,3.4,1,5.1l2.2,10.1c0.3,1.7,0.8,3.4,1.3,5l1.3,5c0.4,1.7,0.9,3.4,1.3,5
						l1.5,5l1.5,5c0.5,1.7,1,3.3,1.6,5l3.4,9.8c1.1,3.3,2.4,6.5,3.7,9.8l1.9,4.9l2,4.8c1.3,3.2,2.6,6.4,4,9.6l4.3,9.5
						c2.9,6.3,5.9,12.7,8.9,19c12.1,25.2,25,50,37.3,75.2c12.3,25.2,24,50.8,33.2,77.4c9.3,26.6,16,54.2,18.4,82.3
						c1.2,14,1.3,28.2,0.2,42.2c-1,14.1-3.3,28-6.6,41.7c-3.3,13.7-7.6,27.1-12.8,40.1c-1.4,3.2-2.7,6.5-4.1,9.7l-4.5,9.5l-4.8,9.4
						c-1.7,3.1-3.5,6.1-5.2,9.2c-14.3,24.2-32.1,46.2-52.8,65.1c40.7-38.5,69.4-89.2,81.5-143.6c3-13.6,5.1-27.4,5.9-41.3
						c0.9-13.9,0.6-27.8-0.8-41.7c-2.7-27.7-9.7-54.8-19.2-81c-9.5-26.2-21.3-51.5-33.8-76.5c-12.5-25-25.7-49.7-38.1-74.9
						c-3.1-6.3-6.2-12.6-9.1-19l-4.4-9.6c-1.4-3.2-2.8-6.5-4.2-9.7l-2.1-4.9l-1.9-4.9c-1.3-3.3-2.6-6.6-3.8-9.9l-3.5-10
						c-0.6-1.7-1.1-3.3-1.7-5l-1.6-5.1l-1.6-5.1c-0.5-1.7-0.9-3.4-1.4-5.1l-1.4-5.1c-0.4-1.7-1-3.4-1.3-5.1l-2.3-10.4
						c-0.4-1.7-0.7-3.5-1-5.2l-0.9-5.2c-2.3-14-3.9-28.1-4-42.4c0-1.8-0.1-3.6-0.1-5.3l0.2-5.3l0.2-5.3c0.1-1.8,0.1-3.6,0.3-5.3
						l1-10.6c0.1-1.8,0.4-3.5,0.7-5.3l0.8-5.3l0.8-5.3c0.3-1.7,0.7-3.5,1.1-5.2c0.7-3.5,1.4-7,2.2-10.4l2.8-10.3
						c0.9-3.4,2-6.8,3.1-10.2c4.5-13.5,10.2-26.4,15.3-39.4c5.1-12.9,9.7-25.9,12.2-39.3c0.7-3.3,1.1-6.7,1.6-10.1
						c0.3-3.4,0.7-6.8,0.9-10.2c0.4-6.8,0.3-13.6-0.3-20.3c-1.3-13.4-4.8-26.6-10.8-38.6c-6-12-14.3-22.8-24.2-32
						c-9.9-9.2-21.2-16.9-33.3-23.4c-12.1-6.5-24.8-11.7-37.9-16c-13.1-4.3-26.5-7.7-40-10.4c-27.1-5.4-54.9-8.1-82.6-8.9
						c-6.9-0.2-13.9-0.2-20.8-0.1c-6.9,0.1-13.9,0.3-20.9,0.6c-14,0.5-28.1,1-42.3,0.7c-3.6-0.1-7.1-0.2-10.7-0.4l-5.3-0.3l-5.3-0.5
						c-3.6-0.3-7.1-0.8-10.7-1.3c-1.8-0.2-3.5-0.6-5.3-0.9c-1.8-0.3-3.6-0.6-5.3-1c-3.5-0.8-7.1-1.6-10.5-2.7
						c-1.7-0.5-3.5-1-5.2-1.6l-5.1-1.8c-1.7-0.6-3.4-1.3-5.1-2.1c-1.7-0.7-3.4-1.4-5-2.2l-4.9-2.5l-2.4-1.3l-2.3-1.4
						c-12.5-7.6-23.5-17.5-32.5-28.9c-9.1-11.4-16.2-24-21.9-37.2c-5.7-13.2-10.1-26.8-13.5-40.6c-3.4-13.8-5.9-27.8-7.7-41.8
						c-7-56-8.2-112.1-12.7-167.7c-2.2-27.8-5.4-55.5-10.5-82.8c-5.2-27.3-12.3-54.2-22.3-80c-10-25.8-22.6-50.7-37.2-74.3
						c-14.7-23.5-31.7-45.6-50.4-66.1c-2.3-2.6-4.7-5.1-7.1-7.6c-2.4-2.5-4.8-5-7.2-7.5l-7.5-7.2l-3.7-3.6c-1.2-1.2-2.6-2.3-3.8-3.5
						l-7.7-7l-1.9-1.7l-2-1.7l-4-3.4c-2.7-2.2-5.3-4.5-8-6.7l-8.2-6.4c-21.9-17.1-45.4-32.1-69.9-45.4
						c-12.2-6.7-24.8-12.6-37.5-18.4l-9.6-4c-3.2-1.3-6.4-2.7-9.7-3.9c-6.5-2.4-13-5-19.6-7.2c-26.3-9-53.4-16.1-80.9-20.6
						c-13.7-2.3-27.6-4.1-41.5-5.6c-13.9-1.4-27.8-2.4-41.8-3c-27.9-1.1-55.9-0.3-83.6,3c-27.7,3.3-55.2,9.1-81.6,18.2
						C2570,1401.2,2544.6,1413.6,2521.5,1429.5z"/>
				</g>
			</g>
			<path class="st15" d="M2914.1,2839.2c53-18.5,96.7-54.5,113.1-111.6c14.9-51.8-8.6-110.1-12.7-162.4c-4-50.1-4.5-100.5-1.5-150.7
				c2.8-46.4,6.9-94.7,0.3-141c-3.7-26.4-17-21.9-41.6-32.4c-24.5-10.5-52.1-10.6-78.7-10.5c-54.6,0.1-196.9-4.2-230.7,48
				c-15.5,24-16.7,54.1-17.4,82.6c-0.9,34.5-6.5,79.1-11.7,127.1c-2.3,21.4-0.9,42.7-3.9,64c-3.4,23.8-11.7,46.6-18.9,69.4
				c-27.5,86.2-1.7,168.2,83.8,207.6C2755.5,2857.6,2843.1,2863.9,2914.1,2839.2z"/>
			<path class="st6" d="M3013,2273.5c-3.7-26.4-17-21.9-41.6-32.4c-24.5-10.5-52.1-10.6-78.7-10.5c-54.6,0.1-196.9-4.2-230.7,48
				c-15.5,24-16.7,54.1-17.4,82.6c-0.9,34.4-6.5,79.1-11.7,127.1c-2.3,21.4-0.9,42.7-3.9,64c-2.6,18.1-8,35.7-13.6,53.1
				c52.9,21.4,112.7,26.2,167.9,11.4c99.5-26.7,174.8-94.1,228.5-181.8c0.3-6.8,0.5-13.6,0.9-20.5
				C3015.5,2368.1,3019.5,2319.7,3013,2273.5z"/>
			<path class="st15" d="M3053.4,1905.2c-12.9-78.4-35.5-151.1-65.5-209.7c-129.4-252.8-472.5-266-642.4-42.8
				c-189.5,248.9-23.1,745.7,240.6,887.6c70.5,38,158.7,41.2,231.8,8.6C3039.2,2450.3,3093.7,2150,3053.4,1905.2z"/>
			<path class="st6" d="M2987.9,1695.5c-129.4-252.8-472.5-266-642.4-42.8c-37.5,49.3-60.9,108.4-72.5,172.5
				c5.6,6.2,11.7,12.3,18.7,18.3c32.5,27.5,73.8,42.3,114.7,53.8c119.7,33.9,244.7,45.1,369,48.5c9.2,0.3,18.4,0.5,27.6,0.8
				c34.3,1.3,68.6,4.2,100.3,16.7c89.7,35.4,71.3,147.3,138.8,184.4c6.1,3.4,12,5.2,17.8,6.3c9.6-82.9,6.7-168.9-6.5-249
				C3040.5,1826.8,3017.8,1754.1,2987.9,1695.5z"/>
			<path class="st5" d="M2814.1,1913.1c33.6,6.7,67,15.1,96.4,32.5c82.9,49.2,46.9,156.8,107.6,204.2c53.8,42,113.3-34.2,124.4-82.6
				c20.4-89.2,3.6-182.2-13.2-272.1c-9.4-50.2-19-101-41.4-146.8c-24.4-50-63.3-91.9-107-126.3c-126.3-99.3-298.7-134-454.8-99.1
				c-122,27.3-321.8,165.2-200.3,306.8c27.7,32.3,66.1,53.5,104.7,71.5c112.7,52.5,234.3,83.5,356.5,106.8
				C2796,1909.6,2805,1911.3,2814.1,1913.1z"/>
			<path class="st8" d="M3772.8,3596c-57.3,65-96.1,98-183.4,135.2c-18.9,8.1-61.2,13.2-64.1,5.7c-1.7-4.4-4.8-31.3-5.7-35.9
				c-9.4-52.8-1.3-107.9,18.4-157.7s50.6-94.8,86.6-134.5c49-54,111.4-100.7,183.8-110.1c19.1-2.5,38.5-2.3,57.8-2.2
				c14.2,0.1,29.4,0.6,40.9,8.9c37.4,27-16.3,110.9-31.1,139.7C3848,3499.3,3813.2,3550.2,3772.8,3596z"/>
			<path class="st15" d="M3010.7,1918.7c93.5-72.2,147.4,64.5,141,137.8c-2.7,30.3-9.7,60.5-23.9,87.3
				c-19.2,36.1-80.4,100.7-126.1,71.8c-20.7-13.1-26.9-40.1-31.3-64.2C2958.6,2086.6,2947.4,1967.6,3010.7,1918.7z"/>
			<path class="st16" d="M3748.2,3956.6c54.1-39.9,120.6-105.1,68.5-136.6c-19.1-11.6-47.1-9.1-68.2-5.1c-37,7-70.4,18.9-107,4.9
				c-33.7-13-61.9-37.7-86.3-63.6c-64.2-68.1-126.7-132.8-207.4-182.1c-16.6-10.1-33.8-20-52.7-24.6
				c-63.8-15.6-139.6,28.7-181.5,74.2c-51.5,55.8-100.7,113.9-146.6,174.4c-40.6,53.5-84.9,114.3-105.4,178.9
				c-16.8,52.8-18.6,131.9,34.1,165.7c57,36.4,142.6,25.1,197.7-8.6c54-33,93.6-84.7,129-136.1c30.6-44.4,43.9-93.8,70.7-139.7
				c33.4,27.7,72.9,48,114.9,58.9c43.7,11.4,94.1,15,123.7,49.1c20.6,23.6,26.8,47.3,59.3,52.5c35,5.6,76.3-16.2,107-30.3
				C3707.7,3984,3727,3972.3,3748.2,3956.6z"/>
			<path class="st15" d="M4076.4,3664.1c-123.3-199.8-254.3-394.8-394.2-583.3c-61.1-82.3-119.4-212.1-211.7-264.1
				c-82.4-46.5-211.7,62.5-250.6,130.1c-40.1,69.6-47.7,157.7-21.3,233.4c11.5,32.9,33.4,51.1,52.1,79c23.5,35,42.6,73.7,65.3,109.4
				c119.4,187.8,271.1,349.3,395.7,531.7c68.1,99.7,172,205.7,305.8,181.9c31.5-5.6,60-21.1,84.6-41.2c31-25.4,61-55.1,73.1-93.3
				c22.7-71.8-22.2-153.9-57.7-215.3C4103.9,3709.4,4090.3,3686.6,4076.4,3664.1z"/>
			<path class="st17" d="M3613.5,3487.5c-0.1,0.2-0.3,0.3-0.4,0.5c-53,65.6-78.2,164.6-76.1,249c-108.7-107.1-193.6-165.3-267-252.6
				c-100.1-119-138.1-307.7-108.6-458.9c17-87.1,50.9-190.3,128.2-233.8c27.4-15.4,64.2-30.8,95.7-30.5
				c62.4,0.5,131.5,73.9,175.1,118.5c71.8,73.4,130.1,158.1,199,232.8c42.7,46.2,132.4,168.3,152.3,198.3
				c-36.1-1.3-63.4,15-96.5,29.3C3738.1,3373.4,3666.4,3422.1,3613.5,3487.5z"/>
			<path class="st15" d="M2207.7,3481.3c-26.7-14.3-56.7-13.6-83.6-27.3c-42.6-21.7-51.3-53.1-77.5-91.4
				c-55.1-80.7-164.2-111.2-260.8-96c-119.6,18.8-279,92.3-310.2,216.5c-29.5,118-1.7,255.6,91.9,338.1
				c47.4,41.7,107.6,66.3,168.7,82.4c157.2,41.4,339.5,7.8,457.3-108.3C2265.8,3724.1,2322.6,3542.8,2207.7,3481.3z"/>
			<path class="st15" d="M2916.6,3743.8c2.1,9,3.5,18,3.9,26.9c0.8,16.3-5.6,31.9-18,42.6c-14.6,12.7-30.9,14.9-49.6,14.3
				c-43.4-1.5-88.9-21-117.7-54c-29.5-33.9-47-79.7-60.2-122.1c-14.8-47.3-23.8-96.1-35.7-144.1c-0.1-0.6-0.3-1.1-0.4-1.7
				c-3-11.7-5.5-24.2-13-33.6c-7.7-9.7-16.9-18.4-25.4-27.4c-21.5-22.8-43.4-48.5-45.3-81c-1.6-27.2,24-8.4,33.5,1.3
				c6,6.1,12,12.3,18.1,18.4c2.9,2.9,7.2,7.8,11.6,8.2c19.3,1.7,3.2-50.9-0.8-59.8c-6.8-15.4-16.6-29.8-20.6-46.2
				c-5.7-23.4,28.5-17.5,36.9-4.5c-3.6-9.3-6.4-21.9,1.8-27.7c13.3-9.4,30.1,9.9,36.5,19.5c-2.1-7.3,4.4-15.1,12-16
				c7.5-1,14.9,3.4,19.6,9.4s7.1,13.3,9.5,20.5c0.5-8.8,12.1-13.4,20.3-9.9c8.1,3.4,12.9,11.8,16.2,20c14.9,37.1,10.4,78.9,5,118.5
				c-2,14.6-7.9,29.8-7.2,44.6c0.9,20.9,17.3,36.7,29.9,51.7c14.8,17.8,29.2,35.9,42.9,54.5c25.1,33.9,50.5,69.4,69.5,107.8
				C2900.2,3695,2910.9,3719.5,2916.6,3743.8z"/>
			<path class="st16" d="M2244.8,3615c34-27.7,70.6-39.6,118-40c68.8-0.5,139.9,5.3,208.2,19.7c81.8,17.3,160.2,50.8,239.3,77.2
				c67.1,22.3,134.4,44,201.4,66.4c61.1,20.4,134.4,35,183.4,79.1c55.2,49.8,39.1,127.3,12.2,187.7
				c-71.8,161.6-273,232.3-437.7,241.9c-272.6,15.9-524.4-105.4-743.7-255.8c-17.3-11.9-33.5-24.8-50.5-36.5
				c-6.2-4.3-59.9-38.4-64-35.7c59-38.2,107.1-96.1,158.6-143.6c52.3-48.2,106.8-93.9,157.4-144.6
				C2233.2,3625,2239,3619.8,2244.8,3615z"/>
			<path class="st18" d="M2246.7,3745c-24.2-38.6-22.1-89,3.3-130.5c36.2-59.1,108.8-60.4,170.2-57.9
				c65.8,2.7,130.6,16.2,194.5,31.5c14.6,3.5,24,7.3,41,17c0.2-14-6.4-27.7-6.2-41.6c49.5-8.6,106.6-12.8,156.8-12
				c3.8,0.1,7.6,0.2,11.1,1.5c4.9,1.9,8.5,6.1,11.8,10.1c32.9,40.4,64.8,95.3,80.2,145.2c9.3,30.2,17.1,71.2,2.1,100.4
				c-29.1,56.5-122.4,49.1-175.3,51.8c-102.3,5.2-207,3.1-307.7-16.9c-57.6-11.5-114.5-34.4-159.5-72.9
				C2260,3763.1,2252.5,3754.4,2246.7,3745z"/>
			<path class="st15" d="M4104.9,4045.6c65-48.5,79.2-150.2,50.5-222.1c-22.1-55.5-71-87.6-129.5-93.2
				c-53.6-5.2-106.4,11.7-156.5,29.5c-50.5,18-97.8,45.3-148.3,62.7c-49.8,17.2-99,37.8-147.4,58.9c-96.7,42.3-193.3,84.6-290,126.9
				c-44.1,19.3-81.5,41.3-121.5,68.6c-32.5,22.2-74.2,52.8-74.4,94.8c-0.1,43,28.6,63,73.1,82.1c10.2,4.3,5.2,5.2,144.4-16.3
				c189.8-29.4,292.9-33,506.5-78.2C3896.3,4141.4,4026.9,4103.8,4104.9,4045.6z"/>
			<path class="st15" d="M3338.2,4129.5c-9.9-45.5-61.1-103.6-111-92c-51.7,12-111.7,53.4-164.8,24.9c-45.9-24.6-80.4-52.3-134.6-56
				c-39-2.7-78.2,1.3-117.1-2.1c-22.7-2-45.2-6.4-67.6-10.5c-12-2.2-26.3-4.5-32.8,8.7c-3.4,6.8-3,15-0.7,22.3
				c10.6,33.6,53.6,43.6,83.7,50c24.3,5.2,49.8,1.2,74.6,6.1c11.4,2.2,24.7,7.3,27,18.7c2.7,13.1-11,23.5-23.2,28.9
				c-26.3,11.6-54.6,17.6-82.8,23.6c-10.6,2.2-21.2,4.5-32,5.1c-57,3-114-17.3-171.2-20.8c-15.7-1-35.8,2-39.7,17.2
				c-3.4,13.6,10,25.8,23.3,30.3c-18-1-40.4,0.6-47.5,17.1c-5.2,12.1,1.5,26.7,12.1,34.5c10.5,7.9,23.9,10.7,36.8,13.3
				c57.1,11.5,114.4,23,172.5,26c-34.2,6.8-69.6,7.8-104.1,2.7c-20.2-2.9-40.7-7.9-60.7-3.9c-5.7,1.1-11.7,3.4-14.7,8.4
				c-3.6,6.2-1,14.5,4.1,19.5s12.2,7.4,19,9.4c40.5,12.2,82.6,18.3,124.4,24.5c-18.3,0.4-36.6,0.7-54.8,1.1
				c-8,0.2-16.3,0.4-23.7,3.4c-7.5,3-14.1,9.4-14.9,17.4c-0.8,7.7,4,15.1,10.3,19.6s14,6.5,21.5,8.4
				c66.5,16.3,135.6,21.8,203.9,16.5c27-2.1,55.8-6.6,82.6-11.7c28.8-5.5,56.8-16.2,80.2-34.1c52-39.8,109.4-84.1,172.6-101.8
				c15-4.2,30-8.4,45-12.6c11.4-3.2,22.8-6.4,34.5-8.4c13.7-2.3,27.6-3,41-6.7C3351.7,4215.1,3346,4165.2,3338.2,4129.5z"/>
			<path class="st15" d="M1825,4268.9c70.6-8.6,138.2-36.8,204.3-63.4c63.4-25.4,127-54,185.7-89c-0.4,0.2-27.3-35.5-29-39.3
				c-5.6-12.5-7.4-29.6-10.1-43c-7.4-37.3-7.9-76-1.2-113.4c-5.6,31.4-133.9,29.4-156.7,29.3c-79.4-0.4-158.6-7.8-238.1-9.1
				c-66.8-1.1-148-6.2-191.5,55.4c-27.3,38.6-33.9,90.9-19.1,135.6c27.2,82.2,99.3,130.2,183.6,138.2
				C1777.4,4272.5,1801.4,4271.8,1825,4268.9z"/>
			<path class="st15" d="M2267.5,4120.4c-18.9-0.9-33.6-3.7-52.5-3.9c-13.6-0.1-40.5,13.3-53.3,8.5c-4.7-1.8-8.6-5.2-12.3-8.6
				c-20.2-18.3-40-38-52.1-62.5c-43.4-87.9,54.5-120.2,101.7-171.7c13.7-15,26.4-30.9,41.1-45.6c32.6-32.6,63.5-67.8,105.9-87.5
				c34.9-16.2,70-32.5,107-43.1c13.6-3.9,27.4-6.9,41.3-9.2c2.5-0.4,5.4-0.7,7.4,0.8c3.5,2.6,2.1,8.1,0,12
				c-13.6,25.1-41.1,43.3-64.7,58c-28.5,17.8-57.1,35.6-85.6,53.3c29.2,10.8,61.5,10.2,92.3,5.2s60.6-14.3,91.1-20.7
				c41.7-8.7,84.6-11.9,127.2-9.5c18.2,1,38,3.9,50.3,17.4c1.9,2.1,3.7,4.7,3.7,7.6c0,2.1-0.9,4.1-2,5.9
				c-8.7,15.4-25.7,24.7-42.9,28.7s-35.2,3.6-52.9,4.1c-44.3,1.3-88.4,8.9-130.6,22.5c31.5-2.8,63-5.7,94.5-8.5
				c36.4-3.3,73.1-6.5,109.5-3.1c22.1,2.1,45.3,7.4,60.9,23.2c1.7,1.7,3.3,3.6,3.5,6c0.2,2.3-1,4.4-2.3,6.3
				c-12.6,18.1-37,22.5-58.9,24.8c-70.5,7.4-141.9,8.6-211.1,23.9c68.7-3,137.4-6.1,206.1-9.1c14.5-0.6,33.4,1.9,36.6,16.1
				c1.1,4.9-0.3,10.1-2.6,14.5c-10.4,19.3-35.8,23.5-57.6,25.4c-69.5,6.3-140.2,13.8-204.4,41.2c35.1,5.2,70.1,10.5,105.2,15.7
				c8.6,1.3,17.4,2.7,24.6,7.6c7.1,4.9,11.9,14.4,8.6,22.4c-4,9.7-16.5,11.9-27,12.7C2471.3,4109.5,2369.6,4125.2,2267.5,4120.4z"/>
			<path class="st19" d="M2802.1,4683.4c69.1,5.4,138.4,9.4,206.5,21.9c313.7,57.8,582.7,310.8,659.5,620.4
				c39.6-94.7,41-200.4,39-303c-3.1-157.4-14.1-318.8-78.2-462.6c-95.5-214.6-301.5-365.8-524.5-439.6
				c-223-73.8-462.9-78.6-697.3-64.8c-91.2,5.3-184.3,13.9-267.7,51.4c-181.8,81.8-125,231.8-30.1,360.4
				c80.1,108.7,228.4,141.8,353.7,169.5C2574.6,4661.6,2688.4,4674.5,2802.1,4683.4z"/>
			<g>
				<g>
					<path class="st6" d="M2026.8,3602.9c1.7,4.1,2.9,8.4,3.4,12.8c0.2,2.2,0.3,4.5,0.2,6.7c0,1.1-0.2,2.3-0.3,3.4
						c-0.2,1.1-0.4,2.2-0.7,3.3c-0.5,2.2-1.3,4.4-2.3,6.5c-0.9,2.1-2.1,4.1-3.4,6c-2.5,3.8-5.6,7.2-8.8,10.4
						c-3.2,3.2-6.7,6-10.2,8.8c-3.5,2.7-7.1,5.4-10.7,7.9c-7.2,5.2-14.7,10-22.5,14.4c-7.8,4.4-15.9,8.3-24.4,11.4
						c-8.5,3.1-17.4,5.4-26.7,6.3l-3.5,0.3c-0.6,0-1.2,0.1-1.7,0.1l-1.7,0l-3.5,0c-1.2,0-2.3-0.1-3.4-0.2l-3.4-0.2l-3.4-0.4
						c-2.3-0.2-4.5-0.7-6.8-1.1c-9-1.7-17.8-4.5-26.2-8.3c-8.3-3.9-16.2-8.8-23.3-14.8c-7-6-13.3-13-18.2-20.9
						c-4.9-7.8-8.6-16.6-10.5-25.7c-0.9-4.6-1.4-9.3-1.4-14c0-4.7,0.6-9.4,1.7-13.9c2.1-9.1,6.2-17.7,11.8-25
						c5.6-7.3,12.5-13.4,20-18.4c7.6-4.9,15.7-8.8,24-11.8c4.2-1.5,8.4-2.8,12.7-3.9c4.3-1.1,8.6-2.1,12.9-2.8
						c-4.2,1.3-8.4,2.7-12.5,4.3c-4.1,1.5-8.1,3.2-12.1,5c-7.9,3.7-15.4,8-22.2,13.2c-6.8,5.2-12.9,11.2-17.6,18.2
						c-2.3,3.5-4.4,7.1-6,10.9c-1.6,3.8-2.8,7.8-3.5,11.8c-1.5,8.1-1.2,16.4,0.7,24.4c1.9,8,5.3,15.6,9.9,22.5
						c4.5,6.9,10.1,13.1,16.5,18.4c6.4,5.3,13.5,9.8,21.1,13.3c7.6,3.6,15.6,6.1,23.9,7.7c2.1,0.4,4.1,0.8,6.2,1l3.1,0.4l3.1,0.3
						c1,0.1,2.1,0.2,3.1,0.2l3.1,0l1.5,0c0.5,0,1,0,1.5-0.1l3.1-0.2c2.1-0.1,4.1-0.5,6.2-0.7c2.1-0.4,4.1-0.7,6.2-1.1
						c4.1-0.9,8.2-2,12.2-3.4c8.1-2.7,16-6.1,23.7-9.9c7.7-3.9,15.2-8.3,22.5-12.9c7.4-4.7,14.7-9.4,21.2-14.9
						c3.3-2.7,6.3-5.7,8.9-9c1.3-1.7,2.5-3.4,3.5-5.2c1-1.8,1.9-3.7,2.6-5.7c0.4-1,0.6-2,0.9-3c0.2-1,0.5-2.1,0.6-3.1
						c0.4-2.1,0.4-4.3,0.4-6.4C2028.7,3611.5,2027.9,3607.1,2026.8,3602.9z"/>
				</g>
			</g>
		</g>
	</g>
</g>
</svg>
