<?xml version="1.0" encoding="utf-8"?>
<!-- Generator: Adobe Illustrator 21.1.0, SVG Export Plug-In . SVG Version: 6.00 Build 0)  -->
<svg version="1.1" id="Layer_1" xmlns="http://www.w3.org/2000/svg" xmlns:xlink="http://www.w3.org/1999/xlink" x="0px" y="0px"
	 viewBox="0 0 100 100" style="enable-background:new 0 0 100 100;" xml:space="preserve">
<style type="text/css">
	.st0{fill-rule:evenodd;clip-rule:evenodd;fill:#005C9E;}
	.st1{fill-rule:evenodd;clip-rule:evenodd;fill:#084F85;}
	.st2{fill-rule:evenodd;clip-rule:evenodd;fill:#26B2FC;}
</style>
<g id="XMLID_342_">
	<path id="XMLID_348_" class="st0" d="M36.2,42.7c9.2-2.5,28-1.1,34.3,2.4c-0.4-0.4-0.8-0.9-1.2-1.3c3.1-0.6,6.1-0.7,9.3-0.7
		c5.1,0,3.6,0.5,6.9-1.2c1.6-0.7,3.3,0.2,2.4,2.5c-1.5,3.8-1.6,3.3-1,7.8c0.5,4.1,0,8.1-1.5,12.1c0.3-0.1,0.6-0.2,0.8-0.3
		c0.7,3.4,1.4,6.8,0.8,10.1c-0.8,4.3-0.3,4.1,0.9,7c0.8,2-0.4,3.2-2.4,2.5c-3.5-1.3-3.4-1.5-7.2-1c-3.4,0.4-6.9,0-10.5-0.8
		c1.3-1.5,2.6-3.1,4-4.6c-8.6,7-21.4,8.2-32.6,6c-4.9-1-5.1-0.9-8.5,0.5c-1.9,0.8-3.2-0.5-2.4-2.5c1.3-2.8,1-2.7,0.8-6.3
		c-0.1-1.6,0.4-3,1.1-4.4c1,0.8,2,1.6,3.1,2.4c-5.3-6.1-6.2-15.5-4.1-23.4c0.7-2.8,0-2.8-0.9-5c-0.4-0.9-0.4-1.7,0.2-2.3
		c0.5-0.5,1.4-0.5,2.2-0.2C33,42.5,32.6,43.6,36.2,42.7L36.2,42.7z"/>
	<path id="XMLID_347_" class="st1" d="M67.6,49.7c-3.6-1.9-11.9-2.6-15.8-2.8c-4.3-0.2-10-0.1-14.2,1c-0.9,0.3-1.8,0.4-2.8,0.5
		c-0.1,0.8-0.2,1.6-0.4,2.4c-1.6,6-1.2,13.6,2.9,18.5l0.5,0.5c-3.8-7.3-1.3-12-0.7-18.8C47.8,50.1,56.2,49.3,67.6,49.7L67.6,49.7z"
		/>
	<path id="XMLID_343_" class="st2" d="M12,46.2l11.8,3.7l1-3.1l-6.7-2.1l9.1-5.4l0.8-2.7l-11.6-3.6l-1,3.1l6.5,2l-9.1,5.4L12,46.2z
		 M15.6,65.3l9.9-1.8L25,60.9l-5.6,1l4.4-7.3l-0.4-2.2l-9.7,1.8l0.5,2.6l5.4-1L15.2,63L15.6,65.3z M26.2,32.5l14.7,2.6l0.7-3.9
		l-8.3-1.5l10-7.9l0.6-3.4l-14.4-2.5l-0.7,3.9l8.1,1.4l-10,7.9L26.2,32.5z"/>
</g>
</svg>
