<?xml version="1.0" encoding="utf-8"?>
<!-- Generator: Adobe Illustrator 21.1.0, SVG Export Plug-In . SVG Version: 6.00 Build 0)  -->
<svg version="1.1" id="Layer_1" xmlns="http://www.w3.org/2000/svg" xmlns:xlink="http://www.w3.org/1999/xlink" x="0px" y="0px"
	 viewBox="0 0 100 100" style="enable-background:new 0 0 100 100;" xml:space="preserve">
<style type="text/css">
	.st0{fill:#FB9B7E;}
	.st1{fill:#8CA5AB;}
	.st2{fill:#0F0A2F;}
</style>
<g>
	<path class="st0" d="M41.8,52c0,0,5.4,0.6,8.8-3.7c0,0,1.5-2.6,6.4-7.6c0,0,5.9-5.6,6.5-15.2c0,0,0.5-3.4,2.9-3.4
		c2.4,0,7.1,4.4,2.4,16.9c0,0-1.4,2.7,0.4,4.3c0,0,17.6,0,19.8,2.7c0,0,2.9,4.3,0,7.5c0,0,4.6,3.7,0,7.5c0,0,4.3,4.6,0,8.3
		c0,0,1.4,5-2.7,7.8c0,0-8.3,1.6-27.6,0.4c0,0-4.6-0.8-7.5-2.6c-2.9-1.7-9.5-0.8-9.5-0.8V52z"/>
	<rect x="35.1" y="50.4" class="st1" width="9.9" height="25.8"/>
	<rect x="9" y="49" class="st2" width="29.1" height="28.1"/>
</g>
</svg>
