<?xml version="1.0" encoding="utf-8"?>
<!-- Generator: Adobe Illustrator 21.1.0, SVG Export Plug-In . SVG Version: 6.00 Build 0)  -->
<svg version="1.1" id="Layer_1" xmlns="http://www.w3.org/2000/svg" xmlns:xlink="http://www.w3.org/1999/xlink" x="0px" y="0px"
	 viewBox="0 0 100 100" style="enable-background:new 0 0 100 100;" xml:space="preserve">
<style type="text/css">
	.st0{fill-rule:evenodd;clip-rule:evenodd;fill:#7D7D7D;}
</style>
<path class="st0" d="M35.6,46.5c2.7,1,5.7,2.2,6.8-1.4c0.6-0.5,1.2-0.1,1.8-0.5c0.6-0.3,0.6-0.8,0.6-1.4c1.7,0,2-1.2,1.7-2.8
	c1.2-0.6,3-1.4,2.1-3.1c-0.9-1.6-2-2.2-1.4-4.3c1.7-5.7,2.5-10.6,0-15.7C43.4,9.6,34.5,4,24.2,8C9.3,13.7,8.1,27.5,14,38
	c2.4,4.3,3,11.6,2,16.4l0,0c-3.1,9.9,9.5,26,16.4,31c5.9,4.3,17.3,11.1,24.5,6.5c7.9-5,7.9-16.6,7.7-24.8c-2-0.9-3.8-1.9-5.1-3.2
	c3.5,2.2,8.6,3.5,11.2,4.2c2.3,0.6,3.1,2.3,4.6,3.8c1,1,2.3,1.6,3.7,0.9c0.7-0.4,1.3-1,1.8-1.7c2-2.6,2.5-3.2,5.1-5.3
	c1.4-1.1,1.4-2.1,2.2-3.4c0.6-0.8,1.6-1.6,0.9-3c-0.2-0.4-0.9-1-1.8-0.5c-3.9,2.4-7.7,4.5-11.6,4.8c-3.1-1.7-12.5-11.8-18.2-8
	c-5.1,3.5-8,16.9-8.4,22.8c-0.8-4.4,0.4-9.7,1.7-14.2c-3.4,1.9-12.2-1.2-18.5-4.9c-0.3-0.2-0.1-0.5,0.2-0.3
	c6.3,3.4,14.3,5.9,17.2,3.8c1.8-1.3,3.2-4.4,4-6.3c2.2-5.1,2.7-9,6-13.2c1.7-2.1,3.6-1.7,4.5-2.8c0.5-0.6,0.1-1.6-0.9-1.5
	c-0.5,0-0.7,0.3-1.2,0.3c-0.4,0-0.4-0.5-0.2-0.7c0.8-0.4,1.5-0.4,1.8-1c0.4-0.8-0.5-1.6-1.3-1.2c-0.4,0.2-0.7,0.6-1.1,0.8
	c-0.4,0.2-0.8,0.1-0.8-0.3c0-0.6,1.1-0.9,1.5-1.3c0.4-0.5,0.4-1.1-0.1-1.5c-0.6-0.4-1.1-0.2-1.7,0.2c-0.4,0.3-0.6,0.7-1,1
	c-0.3,0.2-0.7,0.4-0.9-0.1c-0.3-0.7,0.5-1,0.8-1.5c0.9-1.5-1.1-2.3-2-1c-0.8,1.1-1.5,2.2-2.2,3.3c-0.4,0.7-0.8,1.2-1.2,0.3
	c-0.1-0.3-0.2-0.5-0.3-0.8c-0.3-1-1.6-0.8-1.8,0.2c-0.2,1.1,0.1,2.5,0.5,3.6c0.6,1.9,0.3,2.6-0.6,4.5c-1.3,2.9-3.3,6-5.5,9.2
	c-4.4-2.7-11.9-7-17.2-7.1c-1.8-0.1-3.5,0.1-5.4,0.9C26.8,44.8,30.1,44.5,35.6,46.5L35.6,46.5z M65.4,77.7c0.2,0.9,0.3,1.9,0.5,3
	c0.3,1.3,1,2.5,2.5,2.6c0.8,0.1,1.6-0.2,2.3-0.4c3-1.1,3.6-1.3,6.9-1.6c1.7-0.2,2.2-1,3.6-1.6c0.9-0.4,2.2-0.5,2.3-2
	c0-0.4-0.2-1.3-1.2-1.3c-4.4-0.1-8.6-0.4-11.9-2.2c-0.6-1.1-1.2-3.5-2.2-6.1c-0.8-0.3-1.7-0.5-2.6-0.9
	C65.9,70.7,65.8,74.4,65.4,77.7L65.4,77.7z M64.5,54.6c1.6-0.1,2.3-0.1,3.9-0.4c0.8-0.1,0.9-1.5,0-1.7c-0.2,0-0.4-0.1-0.6-0.2
	c-0.4-0.2-0.1-0.7,0.2-0.7c0.5,0,0.8,0,1.3-0.1c0.9-0.1,0.7-1.7-0.1-1.6c-0.4,0-0.6,0.1-1,0.1c-0.3,0-0.6-0.3-0.5-0.6
	c0.1-0.5,0.7-0.2,1.3-0.4c0.6-0.2,0.8-0.9,0.6-1.4c-0.4-0.9-1.5-0.4-2.3-0.2c-0.4,0.1-0.8,0-0.8-0.5c0.1-0.5,0.3-0.4,0.8-0.7
	c1.3-0.7,0.1-2.7-1.2-1.8c-1.2,0.8-1.9,1.1-3.1,1.8c-0.7,0.4-1.3,0.7-1.2-0.3l0-0.5c0.1-1-1.3-1.5-1.7-0.6c-0.5,1-0.8,2-1.1,3
	c-0.5,1.8-0.8,2.3-2.2,3.4c-0.1,0.3-0.2,0.7-0.4,1c-0.5,1.4-1,2.9-1.7,4.5c0.7-0.8,1.4-1.6,2.1-2.1l0,0
	C59.1,53.1,61.8,53.5,64.5,54.6L64.5,54.6z"/>
</svg>
