<?xml version="1.0" encoding="utf-8"?>
<!-- Generator: Adobe Illustrator 21.1.0, SVG Export Plug-In . SVG Version: 6.00 Build 0)  -->
<svg version="1.1" id="Layer_1" xmlns="http://www.w3.org/2000/svg" xmlns:xlink="http://www.w3.org/1999/xlink" x="0px" y="0px"
	 viewBox="0 0 100 100" style="enable-background:new 0 0 100 100;" xml:space="preserve">
<style type="text/css">
	.st0{fill:#54C0EB;}
	.st1{fill:#84DBFF;}
	.st2{fill:#40596B;}
	.st3{fill:#FFFFFF;}
	.st4{fill:#FF7058;}
	.st5{fill:#FFD15C;}
	.st6{fill:#F8B64C;}
	.st7{fill:none;stroke:#CDD6E0;stroke-width:0.35;stroke-miterlimit:10;}
</style>
<g>
	<g>
		<path class="st0" d="M18.2,80.5c-4.4-18.3-4.3-33,0.3-51.2c0.5-2.1,2.1-3.7,4.1-4.3c18.2-4.7,36.5-4.7,54.7,0
			c2.1,0.5,3.6,2.2,4.1,4.3c4.6,18.2,4.7,32.8,0.3,51.2c-0.6,2.6-3,4.5-5.7,4.5H23.9C21.2,85,18.9,83.2,18.2,80.5z"/>
	</g>
	<path class="st1" d="M23.9,82.1c-1.4,0-2.5-0.9-2.8-2.2c-4.3-17.9-4.3-31.9,0.3-49.8c0.3-1.1,1.1-1.9,2-2.2
		c8.8-2.3,17.8-3.5,26.6-3.5s17.8,1.2,26.6,3.5c1,0.3,1.8,1.1,2,2.2c4.5,17.9,4.6,31.8,0.3,49.8c-0.3,1.3-1.5,2.2-2.8,2.2H23.9z"/>
	<g>
		<path class="st0" d="M48.6,85c0.9,0,1.8,0,2.7,0V55c0-0.8-0.6-1.4-1.4-1.4l0,0c-0.8,0-1.4,0.6-1.4,1.4V85z"/>
	</g>
	<circle class="st2" cx="50" cy="31.3" r="16.3"/>
	<circle class="st3" cx="50" cy="31.3" r="13.3"/>
	<polygon class="st4" points="51.5,29.9 48.5,29.9 50,21.8 50,21.8 	"/>
	<g>
		<circle class="st5" cx="50" cy="31.3" r="3.2"/>
		<g>
			<circle class="st6" cx="50" cy="31.3" r="1.5"/>
		</g>
	</g>
	<g>
		<g>
			<g>
				<line class="st7" x1="45.4" y1="20.1" x2="45.9" y2="21.4"/>
				<g>
					<line class="st7" x1="38.8" y1="26.7" x2="40" y2="27.2"/>
				</g>
				<g>
					<line class="st7" x1="38.8" y1="36" x2="40" y2="35.5"/>
				</g>
				<g>
					<line class="st7" x1="45.4" y1="42.6" x2="45.9" y2="41.3"/>
				</g>
				<g>
					<line class="st7" x1="54.6" y1="42.6" x2="54.1" y2="41.3"/>
				</g>
				<g>
					<line class="st7" x1="61.2" y1="36" x2="60" y2="35.5"/>
				</g>
				<g>
					<line class="st7" x1="61.2" y1="26.7" x2="60" y2="27.2"/>
				</g>
			</g>
			<g>
				<g>
					<line class="st7" x1="54.6" y1="20.1" x2="54.1" y2="21.4"/>
				</g>
			</g>
		</g>
		<g>
			<line class="st7" x1="41.4" y1="22.8" x2="42.7" y2="24"/>
			<line class="st7" x1="37.9" y1="31.3" x2="39.7" y2="31.3"/>
			<line class="st7" x1="41.4" y1="39.9" x2="42.7" y2="38.6"/>
			<line class="st7" x1="50" y1="43.5" x2="50" y2="41.7"/>
			<line class="st7" x1="58.6" y1="39.9" x2="57.3" y2="38.6"/>
			<path class="st7" d="M61.2,36"/>
			<line class="st7" x1="62.1" y1="31.3" x2="60.3" y2="31.3"/>
			<line class="st7" x1="58.6" y1="22.8" x2="57.3" y2="24"/>
			<line class="st7" x1="50" y1="19.2" x2="50" y2="21"/>
		</g>
	</g>
</g>
</svg>
