<?xml version="1.0" encoding="utf-8"?>
<!-- Generator: Adobe Illustrator 22.0.1, SVG Export Plug-In . SVG Version: 6.00 Build 0)  -->
<svg version="1.1" id="Layer_1" xmlns="http://www.w3.org/2000/svg" xmlns:xlink="http://www.w3.org/1999/xlink" x="0px" y="0px"
	 viewBox="0 0 750 750" style="enable-background:new 0 0 750 750;" xml:space="preserve">
<style type="text/css">
	.st0{fill:#E5F0FF;}
	.st1{fill:#F1BBC5;}
	.st2{fill:#BAD1FF;}
	.st3{fill:#C8E0FE;}
	.st4{fill:#F4E0EA;}
	.st5{fill:#CAE1FC;}
	.st6{fill:#E0E2FF;}
	.st7{fill:#CFDCFF;}
	.st8{fill:#DBD6F7;}
	.st9{fill:#CBD6FE;}
	.st10{fill:#FFFFFF;}
	.st11{fill:#979FFF;}
	.st12{fill:#F0F1FF;}
	.st13{fill:#CBCFFF;}
	.st14{fill:#FAAAB3;}
	.st15{fill:#2A2B7C;}
	.st16{fill:#9595BE;}
	.st17{fill:#FAF0F5;}
	.st18{fill:#FDD5D9;}
	.st19{fill:#E5F0FE;}
	.st20{fill:#B0BCD8;}
	.st21{fill:#5B74BB;}
	.st22{fill:#FFAAAC;}
	.st23{fill:#FDD7D0;}
	.st24{fill:#EB9C7D;}
	.st25{fill:#FFC4C5;}
	.st26{fill:#FEE3DE;}
	.st27{fill:#F1BAA4;}
	.st28{fill:#FA918F;}
	.st29{fill:#FCB2B1;}
	.st30{fill:#F5B29C;}
	.st31{fill:#ECB49F;}
	.st32{fill:#E29E92;}
	.st33{fill:#DA7F63;}
	.st34{fill:#0B1238;}
	.st35{fill:#DB6B5F;}
	.st36{fill:#F89896;}
	.st37{fill:#B5D4FC;}
	.st38{fill:#C5655F;}
	.st39{fill:#E1A0B3;}
	.st40{fill:#D3E3FF;}
	.st41{fill:#2E3054;}
	.st42{fill:#5F67A0;}
	.st43{fill:#F5A988;}
	.st44{fill:#CB4C3D;}
	.st45{fill:#CFA0A4;}
	.st46{fill:#2B2236;}
	.st47{fill:#CFA09F;}
	.st48{fill:#D96E4E;}
	.st49{fill:#1F304F;}
	.st50{fill:#DB5C52;}
	.st51{fill:#CED3E7;}
	.st52{fill:#B8BFE7;}
	.st53{fill:#FDC8BC;}
	.st54{fill:#A8C7FF;}
	.st55{fill:#C6BDD9;}
	.st56{fill:#EC5C54;}
	.st57{fill:#E9EBFF;}
	.st58{fill:#E6E2F9;}
	.st59{fill:#DBE2FE;}
	.st60{fill:#DBC3E4;}
	.st61{fill:#FFC5C0;}
	.st62{fill:#E5C2D3;}
	.st63{fill:#9DAFE2;}
</style>
<g>
	<rect x="65.8" y="423.2" class="st0" width="12.2" height="73"/>
	<rect x="81.3" y="425.8" class="st1" width="8" height="69"/>
	<path class="st2" d="M499.8,692.7c-44.1,0-79.9-3.6-79.9-7.9c0-2.5,11.4-4.7,29.2-6.1c-6.5,3.7-12.7,6.8-9.6,6.8c0,0,0,0,0.1,0
		c5.5-0.1,36.3-2.1,36.3-2.1s0.5-2.2,1.2-6.2c7.2-0.2,14.8-0.3,22.7-0.3c1.1,0,2.2,0,3.3,0c-5.5,6.4-19.9,15.6-16.8,15.6
		c0.1,0,0.3,0,0.5-0.1c5.5-1,35.6-7.9,35.6-7.9s0.1-2.7,0.2-7.4c33,1,57.2,4,57.2,7.6C579.7,689.1,543.9,692.7,499.8,692.7"/>
	<path class="st3" d="M255.1,695c-70.5,0-127.6-6.1-127.6-13.7c0-6.5,41.7-11.9,97.8-13.3c1.2,9.9,2,15.7,2,15.7s38.9,5.1,45.9,5.7
		c0.1,0,0.3,0,0.4,0c5.6,0-21.5-13.4-25.4-21c-0.1-0.3-0.3-0.5-0.4-0.8c2.5,0,4.9,0,7.4,0c6.8,0,13.5,0.1,20,0.2
		c1.6,9,2.6,14.3,2.6,14.3s39.1,2.8,46.2,3c0,0,0.1,0,0.1,0c5.8,0-15.5-9.2-23.8-16.6c48.2,2,82.4,7,82.4,12.8
		C382.7,688.9,325.6,695,255.1,695"/>
	<path class="st4" d="M246.9,72.7c-19.1,0-34.6,15.5-34.6,34.6s15.5,34.6,34.6,34.6c19.1,0,34.6-15.5,34.6-34.6S266,72.7,246.9,72.7
		 M158.2,192.1c-19.2,0-36.2,14-39.4,33.6c-3.5,21.8,11.3,42.3,33,45.8c2.2,0.4,4.3,0.5,6.4,0.5c19.2,0,36.2-14,39.4-33.6
		c3.5-21.8-11.3-42.3-33-45.8C162.5,192.2,160.4,192.1,158.2,192.1 M131.5,386.5c-1.9-1.8-3.8-3.7-5.7-5.6c0.2-1.2,0.4-2.5,0.4-3.8
		c0-1-0.1-2-0.2-3c-0.1-0.9-0.3-1.8-0.5-2.6v0c0,0,0,0,0,0c-3-12.4-13.8-14.9-23.1-21.8c-1.4-1-2.5-2.1-3.3-3.3
		c-0.4-0.6-0.8-1.3-1.2-2c-1.3-2.7-1.5-5.6-1.5-9c0-1.9,0.1-4,0.1-6.2c0-0.8,0-1.6,0-2.5c0-0.1,0-0.2,0-0.3l0,0c0-0.4,0-0.8,0-1.2
		l0,0c-0.3-12-0.2-41.1-16.4-41.1c-0.1,0-0.2,0-0.4,0h-0.4v0c-1.5,0.1-2.9,0.4-4.3,0.9c-2.6-12.6-3.9-25.6-3.9-39
		c0-106.7,86.5-193.3,193.3-193.3c44.1,0,84.7,14.8,117.2,39.6c-22.8,5.2-39.9,25.7-39.9,50.1c0,28.4,23,51.4,51.4,51.4
		c20.5,0,38.3-12,46.5-29.4c3.2,6.8,6,13.9,8.4,21.1c-7.3,0.9-14.6,2.2-21.9,3.8c-49.4,11.1-91.6,37-123,72c-0.4-0.4-0.8-0.7-1.2-1
		c-6.4-4-13.7-6-16.6-6c-0.3,0-0.6,0-0.8,0.1c0.1,0.4,0.1,0.8,0.2,1.2c-0.8-0.6-1.6-1.2-2.4-1.8c-2.2-1.7-4.1-3.7-4.6-7.2
		c0,0,0,0,0,0c0,0,0,0,0,0c0,0,0,0,0,0c0,0,0,0,0,0c0,0,0,0,0,0c0,0,0,0,0,0c0,0,0,0,0,0c0,0,0,0,0,0c0,0,0,0,0,0c0,0,0,0,0,0
		c0,0,0,0,0,0c0,0,0-0.1,0-0.1c0,0,0,0,0,0c0,0,0,0,0,0c0,0,0,0,0,0c0,0,0,0,0,0c0,0,0,0,0,0c0,0,0,0,0,0c0,0,0,0,0,0c0,0,0,0,0,0
		c0,0,0,0,0,0c0,0,0,0,0,0c0,0,0,0,0,0c0,0,0,0,0,0c0,0,0,0,0,0c0,0,0,0,0,0c0-0.3-0.1-0.6-0.1-0.9c0.9,0.1,1.7,0.1,2.5,0.1
		c4.2,0,8-1.3,10.8-4.4c14.5-16.4,14.1-64.5-11.6-66.3c-0.7,0-1.4-0.1-2.1-0.1c-9.7,0-17.8,4.9-22.3,16c-3.9,9.6-7.3,29.4-2.1,39.9
		c0.4,7.1-2,13.7-6.3,18.8c-0.4-1-0.7-1.5-0.7-1.5s-2,1.6-5.2,3.8c0,0,0,0,0,0L214.8,264c0,0,0,0-0.1,0c-0.7,0-1.3,0.4-1.9,1.2
		c-6.3,3.5-5.9,7.7-5.9,7.7s-9.3,46.5-10.5,82.7c-1,0.2-2,0.4-3,0.6C169.9,361.4,148.9,372,131.5,386.5"/>
	<path class="st5" d="M370.2,468.2c17.9,79.7-32.3,158.8-112.1,176.7c-79.7,17.8-158.8-32.3-176.7-112.1
		C63.6,453.1,113.8,374,193.5,356.1C273.3,338.3,352.4,388.5,370.2,468.2"/>
	<path class="st6" d="M503.5,214.7c-1.1-1.1-2.2-1.5-3.1-1.5c-0.2,0-0.4,0-0.6,0.1c0.3-0.7,0.5-1.3,0.7-2L503.5,214.7 M455.4,274.4
		c1.4-9.3,2.1-18.8,2.1-28.5c0-21.1-3.4-41.4-9.6-60.4c3.1-0.4,6.2-0.7,9.3-1c-1.3,16.8,0.6,45.1,10,48.7c2.5,0.9,4.7,1.3,6.7,1.3
		c1,0,2-0.1,2.8-0.3c0.3,2.1,0.6,4.4,0.6,6.9c0,0,0,0,0,0c0,4.3-0.7,8.9-3,12.7c0.3-0.8,0.5-1.3,0.5-1.3S464.5,264,455.4,274.4
		 M441.1,323.8c0.8-1.9,1.6-3.8,2.4-5.7C445,320.3,443.7,321.8,441.1,323.8 M528.6,483.5c-4.8-24.5-7.2-47-7.2-59.4
		c0-8.1,0.4-16.3,1.3-24.4c9.5-8.7,16.4-19.2,21.3-29.8c15.8-3.5,30.1-13.5,34.6-27.8c4-12.8-1.1-34.9-15.1-39.9
		c1.9,0.4,3.8,0.6,5.5,0.6c8,0,14.1-4.1,14.1-13.8c0-13.6-10.8-23.6-21.8-30.4c-10.4-6.4-19.1-9-26-19.7c-3-4.6-5.7-9.7-7-15.1
		c-1.5-6.1-2.4-11.5-4.3-17.2c-1.9-5.8-1.8-12.9-4-19c35.7,6.7,69.1,21.6,97.7,43.2c-1.7,3.2-3.1,6.7-4,10.4
		c-5.4,22.6,8.6,45.3,31.3,50.7c3.3,0.8,6.5,1.1,9.8,1.1c6.2,0,12.2-1.4,17.7-3.9c15,22.9,26.3,48.9,32.6,77.2c1.3,6,2.4,12,3.3,18
		c-7,6.6-13.9,13.5-20.5,20c-1.9-12.3-13.7-21.2-26.5-30.6l-1-14c-1.2-6.9-5.8-13.2-9.6-19.4c0,0,0,0,0,0c-0.2-0.3-0.4-0.6-0.6-1
		c0,0-0.1-0.1-0.1-0.1c-0.2,0.8-0.5,1.6-0.8,2.4v0c-0.1,0.1-0.1,0.3-0.2,0.4c-3.4,8.5-10.5,17.6-17.9,27c-0.3,0.4-0.6,0.8-0.9,1.2
		c-17.9,22.9-36.7,47.9-7.7,71.5c-11.2,6.4-18,13-20.8,20.1c-22.9,8.9-46.7,15.2-71.5,21.3C529.8,483.2,529.2,483.4,528.6,483.5
		 M370.1,533.3c4.7-20.8,5-42.9,0.1-65.1c-0.1-0.6-0.3-1.1-0.4-1.7c1.9,0.3,3.9,0.5,6,0.5c19.3,0,35-15.7,35-35
		c0-16.6-11.6-30.6-27.1-34.1c14.2-11.2,26.8-24.3,37.4-39c-1.2,13.7,2.8,29.6,17.3,43.9c-2.2,12.3-5.4,31.6-8.8,63.4
		c-1.6,14.5-3,30.2-4.4,45.2C403.5,518.3,383.4,525.8,370.1,533.3"/>
	<path class="st7" d="M676.1,540c10.7-18.4,17-35.3-1.7-47.8c10.7-6.3,31.3-16.7,31.5-31.5c0.2-16.4-15.7-20.6-28.7-20.6
		c-2.1,0-4.2,0.1-6.1,0.3c14.1-15.2,18.5-26.6,17-36.1c6.5-6.5,13.5-13.3,20.5-20C716.5,440.1,703.9,494.8,676.1,540 M523,646.6
		c0.1-14.9-0.1-32.7-0.7-50.9c0.9,0,1.8,0,2.7,0c29.8,0,51.3-3.9,39.7-16.8c-17-19.1-29.1-59.4-36.1-95.4c0.6-0.1,1.2-0.3,1.7-0.4
		c24.7-6.1,48.6-12.4,71.5-21.3c-4.7,12.1,2.2,25.7,18.5,42.8c-0.4-0.4-0.8-0.5-1.3-0.5c-3.4,0-9.4,7.7-9.9,9.4
		c-1,3.4,0.5,10.6,1.4,14.3c3,11.8,10.7,21.9,17.7,32.2c5,7.4,9.7,15,14.1,22.7c-30.3,30.4-69.3,52.8-114.3,62.9
		C526.4,645.9,524.7,646.3,523,646.6 M467.5,651c-49.4-2-96.1-19.6-134-49.1c18-19.1,30.7-42.8,36.6-68.6c13.3-7.5,33.4-15,55-22
		c-3.6,40-6.2,75.9-6.2,75.9s19.1,2.6,43.6,4.9c2.5,27.7,4.9,49.4,5,54.6C467.6,648.3,467.6,649.7,467.5,651 M481.8,651.2
		c2.7-15.9,5.9-36.1,8.5-56.8c1.2,0.1,2.4,0.2,3.6,0.2c6.9,26.9,12.8,48.2,14.1,54.5C499.3,650.3,490.5,651,481.8,651.2"/>
	<path class="st8" d="M382.8,210.2c-11.2,0-20.2,9.1-20.2,20.2c0,11.2,9.1,20.2,20.2,20.2c11.2,0,20.2-9.1,20.2-20.2
		C403,219.3,394,210.2,382.8,210.2 M345.8,413.9c-13-18-29.8-32.7-49-43.2c1.8-8.3,4.2-16.4,7.3-24.3c3.4-8.7,8.6-15.1,8.6-24.7
		c0-14.4-0.6-28.3-3.7-42.3c-1.1-5-2.1-14.2-5.9-18.1c31.4-35,73.6-61,123-72c7.3-1.6,14.6-2.9,21.9-3.8c6.2,19,9.6,39.3,9.6,60.4
		c0,9.7-0.7,19.2-2.1,28.5c-5.8,6.6-11.1,12.7-13.2,15.2c-7.1,8.4-7.1,20.8-0.6,26.4c0.9,0.8,1.6,1.5,2,2.1
		c-0.8,1.9-1.6,3.8-2.4,5.7c-2,1.6-4.8,3.4-7.6,6.2c-5.8,5.6-11.4,16.3-12.5,28.9c-10.6,14.7-23.2,27.8-37.4,39
		c-2.5-0.6-5.2-0.9-7.9-0.9C363.1,397,351.9,403.8,345.8,413.9"/>
	<path class="st9" d="M333.5,602c-10-7.8-19.4-16.4-28.1-25.8c16.2-4.7,26.4-9.7,26.4-9.7c-6.5-27.6-12.8-54.1-18.5-78.3
		c4.3-20-19.6-102.5-17-115.4c0.1-0.7,0.3-1.4,0.4-2.1c19.2,10.5,36,25.2,49,43.2c-3.2,5.3-5,11.5-5,18.1c0,17.3,12.5,31.7,29,34.5
		c0.1,0.6,0.3,1.1,0.4,1.7c5,22.2,4.7,44.3-0.1,65.1C364.2,559.1,351.5,582.8,333.5,602"/>
	<path class="st10" d="M173.9,164.9c-5.8,0-10.5-4.7-10.5-10.5c0-5.8,4.7-10.5,10.5-10.5s10.5,4.7,10.5,10.5
		C184.3,160.2,179.6,164.9,173.9,164.9 M173.9,148.8c-3.1,0-5.6,2.5-5.6,5.6c0,3.1,2.5,5.6,5.6,5.6c3.1,0,5.6-2.5,5.6-5.6
		C179.5,151.3,177,148.8,173.9,148.8z"/>
	<rect x="649.3" y="366.7" class="st11" width="1.5" height="310.3"/>
	<path class="st11" d="M650.1,339.2c-0.3,0.9-0.6,1.9-1,2.8c-11.7,29.3-68,65.9-26.6,99.7c-30.2,17.2-28.3,35.7-2.3,62.9
		c-2.8-2.9-10.6,6.9-11.2,8.9c-1,3.4,0.5,10.6,1.4,14.3c3,11.8,10.7,21.9,17.7,32.2c8.4,12.3,15.8,25.1,22.5,38.1
		c-2.9-37.1,61.5-80.6,23.6-106c10.7-6.3,31.3-16.7,31.5-31.5c0.2-19.1-21.3-21.6-34.9-20.2c32.5-35,13.1-50.1-9.5-66.6l-1-14
		C659.1,352.3,654,345.7,650.1,339.2"/>
	<path class="st12" d="M650.8,340.3c-0.2-0.3-0.4-0.6-0.6-1C650.4,339.7,650.6,340,650.8,340.3C650.8,340.3,650.8,340.3,650.8,340.3
		 M649.3,341.7L649.3,341.7c0.3-0.9,0.6-1.7,0.8-2.5C649.9,340,649.6,340.8,649.3,341.7 M630.3,370.2L630.3,370.2
		c0.3-0.4,0.6-0.8,0.9-1.2C630.9,369.4,630.6,369.8,630.3,370.2"/>
	<path class="st13" d="M650.7,597.8c-0.1-1.9-0.1-3.8,0.1-5.6v0.4C650.7,594.3,650.6,596.1,650.7,597.8 M650.7,598.1
		c-0.5-0.9-1-1.8-1.4-2.7v-0.1C649.8,596.3,650.3,597.2,650.7,598.1"/>
	<path class="st13" d="M650.7,598.1c-0.5-0.9-1-1.9-1.4-2.8v-30l-39.2-39.2c-0.2-0.8-0.4-1.7-0.6-2.7l39.7,39.7v-48.4l-48.7-48.7
		c0.1-0.6,0.2-1.2,0.4-1.8l48.3,48.3v-9l-45.7-45.6c0.3-0.4,0.5-0.9,0.8-1.3l44.8,44.8v-55.4l-40.4-40.4c0.1-0.5,0.3-1.1,0.5-1.6
		l40,39.9v-54.8l-19-19c0.3-0.4,0.6-0.8,0.9-1.2c0,0,0,0,0,0l18.1,18.1v-45.5c0.3-0.8,0.6-1.6,0.8-2.5c0,0,0.1,0.1,0.1,0.1
		c0.2,0.3,0.4,0.6,0.6,1c0,1.1,0,48.6,0,48.7v15.5l22-22c0.4,0.3,0.8,0.7,1.2,1l-22.9,22.9c-0.1,0.1-0.2,0.1-0.3,0.1v10.9l28.7-28.7
		c0.3,0.4,0.7,0.7,1,1.1l-29.4,29.4c-0.1,0.1-0.2,0.1-0.3,0.1c0,0,0,26.5,0,26.6v16.8l22.6-22.6c0.7,0,1.5-0.1,2.2-0.1l-24.5,24.5
		c-0.1,0.1-0.2,0.1-0.3,0.1v16.2l39.2-39.2c0.6,0.2,1.1,0.3,1.6,0.5l-40.6,40.6c-0.1,0.1-0.2,0.1-0.3,0.1c0,0,0,20.5,0,20.6V532
		l31.8-31.8c0.3,0.4,0.5,0.9,0.8,1.3l-32.4,32.4c-0.1,0.1-0.2,0.1-0.3,0.1v58.2c-0.2,1.9-0.2,3.8-0.1,5.6
		C650.7,597.9,650.7,598,650.7,598.1"/>
	<path class="st11" d="M650.5,614.7l0.4-1.8c0.4-1.9,9.2-46.9,24-56.3c2.9-1.9,6-2.2,9-1.1c2.6,1,4.2,2.8,4.7,5.2
		c3,14.8-35.1,51.2-36.7,52.7L650.5,614.7 M682.4,556.2c-2.3-0.6-4.6-0.1-6.9,1.3c-12.8,8.1-21.3,45-23.2,53.7
		c6.9-6.8,37.6-37.7,35-50.3c-0.4-2.1-1.7-3.5-4-4.4C683.1,556.4,682.8,556.3,682.4,556.2z"/>
	<path class="st14" d="M80,588.9c0,0-38.3-63.1-42.2-29.8C34,592.4,80,588.9,80,588.9"/>
	<rect x="79.1" y="547.2" class="st15" width="1.4" height="114.6"/>
	<path class="st14" d="M72.4,546.7c-17.7-5.2-30.2-21.1-29-40c0.6-10,5.1-8.8,11.2-14.9c6.5-6.4,2.9-8.9-2.5-16
		c-10-13.1-19.5-27.8-15.4-45.2c3.9-16.5,23.4-16.2,19.1-33.4c-5.6-22.2-3.3-44.2-0.8-66.9c1.5-13.3,6.3-45.8,24.7-46.3
		c17.3-0.5,16.4,31.7,16.8,42.7c0.3,10.2-1.8,17.2,6,22.9c10,7.3,21.5,9.8,23.6,24.4c2.5,17.3-16.7,24.6-17.6,39.9
		c-0.8,12.7,17.4,20.1,23.9,30.6c12.2,19.7-11.5,19.8-13.5,35.5c-0.1,1.1-0.8,1.7-1.2,2.6c6.6,5,15.8,7.7,19.6,15.8
		c4.4,9.4,1.2,19-5.3,26.3c-13,14.5-37.6,27.4-57.2,22.7C73.9,547.1,73.2,546.9,72.4,546.7"/>
	<path class="st16" d="M80,651.2h-0.9V548c0.3,0,0.6,0.1,0.9,0.1V651.2"/>
	<path class="st17" d="M79.1,284L79.1,284l0.4,0C79.4,284,79.3,284,79.1,284"/>
	<path class="st18" d="M80,548.1c-0.3,0-0.6,0-0.9-0.1v-35.1l0.6,0.6l0-1.3l-0.6-0.6v-61.8l0.6,0.6l-0.1-1.4l-0.5-0.5v-9l0.6,0.6
		l-0.1-1.3l-0.5-0.5V383l0.6,0.6l-0.2-1.5l-0.4-0.4v-8l0.6,0.6l0.1-1.1l-0.7-0.7v-47l0.6,0.6l0.2-1l-0.8-0.8V284c0.1,0,0.3,0,0.4,0
		H80v57.4l-0.7,0.7l0.6,0.6l0.1-0.1v59.1l-0.7,0.7l0.6,0.6L80,403v12.7l-0.7,0.7l0.6,0.6l0.1-0.1v48l-0.7,0.7l0.6,0.6l0.1-0.1v7.1
		l-0.7,0.7l0.6,0.6l0.1-0.1v15.5l-0.7,0.7l0.6,0.6l0.1-0.1V527l-0.7,0.7l0.6,0.6l0.1-0.1v12.7l-0.7,0.7l0.6,0.6l0.1-0.1V548.1"/>
	<path class="st17" d="M125.5,371.4C125.5,371.4,125.5,371.4,125.5,371.4C125.5,371.4,125.5,371.4,125.5,371.4"/>
	<path class="st18" d="M79.9,417l-0.6-0.6l0.7-0.7l45.2-45.2c0.1,0.3,0.2,0.6,0.3,0.9c0,0,0,0,0,0L80,416.9L79.9,417"/>
	<path class="st18" d="M79.9,403.1l-0.6-0.6l0.7-0.7l40.1-40.1c0.2,0.2,0.4,0.4,0.6,0.6L80,403L79.9,403.1"/>
	<path class="st19" d="M116.7,429.2c-0.2-0.2-0.4-0.3-0.5-0.5h0C116.3,428.9,116.5,429,116.7,429.2"/>
	<path class="st18" d="M79.9,466.2l-0.6-0.6l36.9-36.9c0.2,0.2,0.4,0.3,0.5,0.5c0,0,0.1,0.1,0.1,0.1L80,466.1L79.9,466.2"/>
	<path class="st17" d="M96.4,326.3c0-0.4,0-0.8,0-1.2l0,0C96.3,325.5,96.4,325.9,96.4,326.3L96.4,326.3"/>
	<path class="st18" d="M79.9,342.8l-0.6-0.6l0.7-0.7l16.3-16.3c0,0.4,0,0.8,0,1.2L80,342.6L79.9,342.8"/>
	<path class="st19" d="M121.2,433.2c-0.2-0.2-0.4-0.3-0.5-0.5C120.9,432.9,121.1,433,121.2,433.2L121.2,433.2"/>
	<path class="st18" d="M79.9,474.5l-0.6-0.6l0.7-0.7l40.6-40.5c0,0,0.1,0.1,0.1,0.1c0.2,0.2,0.4,0.3,0.5,0.5L80,474.4L79.9,474.5"/>
	<path class="st19" d="M131.3,491.3c-0.2-0.2-0.5-0.4-0.7-0.5l0.1-0.1L131.3,491.3L131.3,491.3"/>
	<path class="st18" d="M79.9,542.3l-0.6-0.6l0.7-0.7l50.6-50.1c0.2,0.2,0.5,0.4,0.7,0.5L80,542.2L79.9,542.3"/>
	<path class="st19" d="M129.9,441.3c-0.2-0.2-0.4-0.4-0.6-0.6l0,0L129.9,441.3L129.9,441.3"/>
	<path class="st18" d="M79.9,491.2l-0.6-0.6l50-50c0.2,0.2,0.4,0.4,0.6,0.6L80,491.1L79.9,491.2"/>
	<path class="st10" d="M51.6,412L51.6,412c0.2-0.2,0.4-0.4,0.6-0.6l0,0C52,411.6,51.8,411.8,51.6,412"/>
	<path class="st18" d="M79.7,440.2l-0.6-0.6L51.6,412c0.2-0.2,0.4-0.4,0.6-0.6l27.4,27.4L79.7,440.2"/>
	<path class="st10" d="M46.3,416.6c0.1-0.1,0.3-0.2,0.4-0.3C46.6,416.4,46.5,416.5,46.3,416.6"/>
	<path class="st18" d="M79.7,450.4l-0.6-0.6l-33-33c0.1-0.1,0.1-0.1,0.2-0.2c0.1-0.1,0.3-0.2,0.4-0.3c0,0,0.1-0.1,0.1-0.1L79.6,449
		L79.7,450.4"/>
	<path class="st10" d="M56.2,490L56.2,490c0.2-0.2,0.4-0.5,0.5-0.7C56.6,489.5,56.4,489.8,56.2,490"/>
	<path class="st18" d="M79.7,513.5L56.2,490c0.2-0.2,0.4-0.5,0.5-0.7l23,23L79.7,513.5"/>
	<path class="st18" d="M79.9,528.4l-0.6-0.6L80,527l41.7-41.7c0.2,0.2,0.5,0.3,0.8,0.5L80,528.2L79.9,528.4"/>
	<path class="st18" d="M79.7,326.1l-0.6-0.6L59.7,306c0.1-0.3,0.2-0.6,0.3-0.9L79.9,325L79.7,326.1"/>
	<path class="st18" d="M79.7,374.3l-0.6-0.6l-26-26c0-0.4,0.1-0.8,0.1-1.1l25.9,25.9l0.7,0.7L79.7,374.3"/>
	<path class="st18" d="M79.7,383.6l-0.6-0.6l-26.6-26.6c0-0.4,0-0.8,0.1-1.2c0,0,0,0,0,0l26.5,26.5l0.4,0.4L79.7,383.6"/>
	<path class="st11" d="M51.3,607.7c0,40.9,14.6,74,32.7,74c18.1,0,32.7-33.1,32.7-74H51.3"/>
	<path class="st20" d="M51.3,679.1c0,2.5,14.6,4.6,32.7,4.6c18.1,0,32.7-2,32.7-4.6H51.3"/>
	<path class="st6" d="M439.5,164.4c-2.5-5.4-5.2-10.6-8.2-15.7v-18.3c0-9-7-16.4-15.7-16.4h-10.2c-7.4-7.9-15.4-15.2-24-21.7
		c3.7-0.8,7.6-1.3,11.5-1.3c28.4,0,51.4,23,51.4,51.4C444.4,150.3,442.6,157.7,439.5,164.4"/>
	<path class="st8" d="M393,193.8c-28.4,0-51.4-23-51.4-51.4c0-24.4,17-44.9,39.9-50.1c8.6,6.6,16.6,13.8,24,21.7H376
		c-8.6,0-15.7,7.3-15.7,16.4v26.8c0,9,7,16.4,15.7,16.4h39.6c8.6,0,15.7-7.3,15.7-16.4v-8.5c3,5.1,5.7,10.3,8.2,15.7
		C431.2,181.8,413.5,193.8,393,193.8"/>
	<path class="st21" d="M431.3,157.2c0,9-7,16.4-15.7,16.4H376c-8.6,0-15.7-7.3-15.7-16.4v-26.8c0-9,7-16.4,15.7-16.4h39.6
		c8.6,0,15.7,7.3,15.7,16.4V157.2"/>
	<path class="st22" d="M427.9,155.9c0,8.2-6.4,14.8-14.2,14.8h-35.9c-7.8,0-14.2-6.6-14.2-14.8v-24.3c0-8.2,6.3-14.8,14.2-14.8h35.9
		c7.8,0,14.2,6.6,14.2,14.8V155.9"/>
	<path class="st23" d="M375.1,120.8L365,156.6c0,0,38,16.5,60.4-4.5l-9.1-31.1C416.4,121,398.5,130.6,375.1,120.8"/>
	<path class="st24" d="M384.4,142.6c-0.1-0.1-0.3-0.2-0.4-0.4c-2.3-2.1-3.9,0.8-4.7,1.2c-0.7,0.4-3.3,5.3-4,3.8
		c-1.5-3-1.8-2.9-2.5-2.4c-0.7,0.5-1.4,9.2,4.1,5.7c5.5-3.4,5.7,1.4,5.7,1.4c1.2,3.3,2.5,5.2,5.5,6.5c6.6,2.8,14.8-1.6,19.2-10
		c0.3-0.6,0.6-1.2,0.8-1.8c0,0,0.9-0.1,1.3-0.1c3.2,0,6.2-1.8,7.5-4.8c1.2-2.8,0.6-5.9-1.2-8.2c-0.6-0.8-1.4-1.2-2.3-1.8
		c-3.3-2.2-7-0.7-8,0.2c-0.5,0.4-0.9,0.8-1.2,1.4c-0.5,0.8-0.7,1.8-1.4,2.5c-0.6,0.6-1.8,0.5-1.5,1.7c0.1,0.6,0.3,0.8,0.2,1.4
		c-0.1,0.8,0.1,1.4,0.6,2.2c0.2,0.2,0.7,0.5,0.6,0.9c0,0.4-0.7,0.6-0.9,0.8c-1.7,0.8-6.2,0-5.2-2.7c0.3-0.8,1.2-1.5,1.8-2.1
		c0.4-0.3,0.9-0.9,1.3-1.1c0.4-0.2,0.7-0.1,1.2-0.5c0.4-0.4-0.9,0-0.8-0.6c0.1-0.6,1.9-1,1.5-1.6c-0.2-0.3-0.6,0-1,0.4
		c-0.3,0.3-0.6,0.6-0.7,0.5c-0.3-0.2,0.9-1.3,0.7-1.8c-0.1-0.2-0.3,0.2-0.6,0.7c-0.3,0.4-0.6,0.9-0.9,0.7c-0.4-0.4,0.8-1.6,0.4-1.7
		c-0.2-0.1-0.5,0.4-0.7,0.8c-0.2,0.4-0.5,0.8-0.6,0.8c-0.2,0,0.5-1.3,0-1.3c-0.4,0-0.4,2.8-1.1,3.6c-0.3,0.3-0.8,0.6-1.2,0.9
		c-0.4,0.4-0.7,0.8-1.1,1.2c-0.7,0.8-1.1,1.8-1.1,2.9c0,0.5-0.1,1.1,0,1.6c0.1,0.5,0.5,1,0.5,1.5c-0.5-0.4-0.8-0.9-1.3-1.2
		c-0.9-0.5-1.9-0.6-2.9-0.6c-0.8,0-1.8,0.2-2.6,0.5c-0.7,0.3-1.1,0.9-1.8,1.2C385.2,143.8,384.9,143.1,384.4,142.6"/>
	<path class="st24" d="M390.1,148.2c-0.5,0-0.9-0.2-1.2-0.6c-0.1-0.1-8.9-12.2,4.6-24c0.6-0.6,1.6-0.5,2.2,0.1
		c0.6,0.6,0.5,1.6-0.1,2.2c-11.2,9.8-4.4,19.4-4.1,19.8c0.5,0.7,0.4,1.7-0.3,2.2C390.8,148.1,390.5,148.2,390.1,148.2"/>
	<path class="st25" d="M395,167c-6.7,0-13.8-0.1-20.3-1.9c-1.9-0.5-4.9-1.2-5-3.5c0-1.2,0.4-2.1,1.1-2.9c5.6,1.8,14.7,4.1,24.6,4.1
		c5.4,0,11.1-0.7,16.5-2.6c-0.3,2.3-3,4-5.1,5C403.1,167,399,167,395,167"/>
	<path class="st26" d="M395.4,162.8c-9.8,0-19-2.3-24.6-4.1c0.4-0.5,1-0.9,1.6-1.3c3.2-2.2,7.2-2.9,11.1-3.4c1,2.1,2.4,3.5,4.7,4.5
		c1.3,0.6,2.7,0.8,4.2,0.8c3.8,0,7.8-2,11.1-5.3c3.1,0.5,6.8,1.2,8.1,4.2c0.3,0.7,0.4,1.4,0.4,2
		C406.5,162.1,400.8,162.8,395.4,162.8"/>
	<path class="st27" d="M392.3,159.4c-1.4,0-2.8-0.3-4.2-0.8c-2.3-1-3.7-2.4-4.7-4.5c1.6-0.2,3.3-0.3,4.8-0.5c2-0.2,3.9-0.3,5.9-0.3
		c2.6,0,5.2,0.2,7.8,0.6c0.1,0,0.2,0,0.2,0c0.4,0.1,0.8,0.1,1.2,0.2C400.1,157.4,396.1,159.4,392.3,159.4"/>
	<path class="st25" d="M417.8,162.5c-0.8,0-1.5-0.2-2-0.6c-1.1-0.8-1.2-1.9-0.8-3c1.5-0.7,3-1.4,4.5-2.3c1.8,0.6,3,2.7,1.4,4.7
		C420.3,162.1,419,162.5,417.8,162.5"/>
	<path class="st26" d="M415,159c0.2-0.5,0.5-0.9,0.9-1.3l-0.5,0.3c0.8-1.1,1.9-1.5,2.9-1.5c0.4,0,0.8,0.1,1.2,0.2
		C418,157.5,416.5,158.3,415,159"/>
	<path class="st5" d="M692.6,690.1c0,2.6-20.1,4.7-45,4.7c-24.8,0-45-2.1-45-4.7c0-2.6,20.1-4.7,45-4.7
		C672.4,685.5,692.6,687.6,692.6,690.1"/>
	<polyline class="st28" points="674.6,690.8 699.9,613.1 607.8,613.1 633.1,690.8 674.6,690.8 	"/>
	<path class="st29" d="M630.6,632.1c-4.6,0-8.3-3.4-8.3-7.7c0-4.2,3.7-7.7,8.3-7.7c4.6,0,8.3,3.4,8.3,7.7
		C638.8,628.6,635.1,632.1,630.6,632.1"/>
	<path class="st30" d="M373.2,329.6c2.1,3.4,6,6.2,9.4,7.8c1.9-8.3,17.1-18.2,24-22.6c2.4-1.5,19.8-9.9,19.2-17.7
		c-0.6-7.8-11.8-0.5-11.8-0.5s10.2-5.5,9-7.5c-2-3.3-27.2,14.5-29.5,16c-6.2,4.2-14.1,8.3-19.4,13.7
		C370.6,322.3,371,326.2,373.2,329.6"/>
	<path class="st30" d="M392.8,306.1c0,0,6.1-16.3,9.5-15.7c3.4,0.6,0,11.2,0,11.2L392.8,306.1"/>
	<path class="st10" d="M290.5,257.3c0,0,8.7-2,18.5,9.5c9.8,11.5,21.8,67.8,29.6,69.1c7.8,1.4,44.8-27.3,44.8-27.3l15.4,16.8
		c0,0-50.4,50.1-63.6,51c-13.3,0.9-37.8-48.2-37.8-48.2S262.1,263.8,290.5,257.3"/>
	<path class="st31" d="M227,260.6c1.4-0.4,3-0.9,5-1.6c15.4-5.3,24.5-20,19.1-36.1c0-0.1,19.1,1.5,21.4,2.8c7.6,4.2,4.2,13.1,5,20.5
		c0.7,6.8,6.3,8.1,10.3,12.3c3.9,4,3.8,10.6,3,15.7c-1.8,11.4-7.8,21.5-11,32.5c-2.3,7.8-3.6,21.9-12.1,26.6
		c-18.6,10.3-33.9-32-37.5-41.6c-2.5-6.6-6.3-13.1-7.7-20C220.8,263.4,222.2,262.2,227,260.6"/>
	<path class="st32" d="M277.5,246.2C277.5,246.2,277.5,246.1,277.5,246.2C277.5,246.1,277.5,246.2,277.5,246.2 M277.5,246.2
		C277.5,246.2,277.5,246.2,277.5,246.2C277.5,246.2,277.5,246.2,277.5,246.2 M277.5,246.3C277.5,246.2,277.5,246.2,277.5,246.3
		C277.5,246.2,277.5,246.2,277.5,246.3 M277.5,246.3C277.5,246.3,277.5,246.3,277.5,246.3C277.5,246.3,277.5,246.3,277.5,246.3
		 M277.5,246.3C277.5,246.3,277.5,246.3,277.5,246.3C277.5,246.3,277.5,246.3,277.5,246.3 M277.5,246.4
		C277.5,246.4,277.5,246.4,277.5,246.4C277.5,246.4,277.5,246.4,277.5,246.4 M277.5,246.4C277.5,246.4,277.5,246.4,277.5,246.4
		C277.5,246.4,277.5,246.4,277.5,246.4 M277.5,246.5C277.5,246.5,277.5,246.5,277.5,246.5C277.5,246.5,277.5,246.5,277.5,246.5
		 M277.5,246.6C277.5,246.5,277.5,246.5,277.5,246.6C277.5,246.5,277.5,246.5,277.5,246.6 M277.5,246.6
		C277.5,246.6,277.5,246.6,277.5,246.6C277.5,246.6,277.5,246.6,277.5,246.6 M277.5,246.6C277.5,246.6,277.5,246.6,277.5,246.6
		C277.5,246.6,277.5,246.6,277.5,246.6 M277.5,246.7C277.5,246.7,277.5,246.7,277.5,246.7C277.5,246.7,277.5,246.7,277.5,246.7
		 M277.5,246.7C277.5,246.7,277.5,246.7,277.5,246.7C277.5,246.7,277.5,246.7,277.5,246.7 M282.1,253.9c-2.2-1.7-4.1-3.7-4.6-7.2
		C278.1,250.2,279.9,252.2,282.1,253.9"/>
	<path class="st33" d="M281.1,253.9c-8.2,0-16.5-8-21.2-15.8c4.9,3.5,11.5,6.4,17.5,7.1c0,0.3,0,0.6,0.1,0.9c0,0,0,0,0,0
		c0,0,0,0,0,0c0,0,0,0,0,0c0,0,0,0,0,0c0,0,0,0,0,0c0,0,0,0,0,0c0,0,0,0,0,0c0,0,0,0,0,0c0,0,0,0,0,0c0,0,0,0,0,0c0,0,0,0,0,0
		c0,0,0,0,0,0c0,0,0,0,0,0c0,0,0,0,0,0c0,0,0,0.1,0,0.1c0,0,0,0,0,0c0,0,0,0,0,0c0,0,0,0,0,0c0,0,0,0,0,0c0,0,0,0,0,0c0,0,0,0,0,0
		c0,0,0,0,0,0c0,0,0,0,0,0c0,0,0,0,0,0c0,0,0,0,0,0c0,0,0,0,0,0c0.5,3.4,2.4,5.4,4.6,7.2C281.8,253.9,281.4,253.9,281.1,253.9"/>
	<path class="st31" d="M258.7,237.3c-1.5-1.2-2.9-2.4-4-3.6c-8.2-9-4.4-32.4-0.1-43.1c4.8-11.9,13.8-16.6,24.4-15.9
		c25.7,1.8,26.1,49.9,11.6,66.3C283.2,249.5,267.8,244.2,258.7,237.3"/>
	<path class="st34" d="M305.7,199.5c-0.1,0.8-0.4,1.7-0.8,2.6c-3.5,7.7-12.1,1.8-16.3-2.3c-0.8,10.3-6.2,3.5-11.4,1.5
		c-17.9-6.9-13.9,32.4-4.6,24.9c-2.9,19.4-29.5,13.5-36.8,0.5c-10.8-19.3-0.8-39.4,16.3-50.3c10.4-6.7,27-6.6,37.3,0.2
		C299.2,182.9,307.4,189.9,305.7,199.5"/>
	<path class="st10" d="M277.6,229.3c0,0,8.1,6.3,18.1,0.5C295.7,229.8,287.7,248.8,277.6,229.3"/>
	<path class="st35" d="M245.6,247.8c0,0,12.2,30.3,28.4,30.8c15,0.4,10.6-22.8,10.6-22.8s9.4-3.8,19.7,12.1
		c1.3,2.1,3.3,11.4,2.1,17.9c-4.5,23.9-16.1,82.9-26.1,111.3c0,0-56.4,12.1-75.9-0.8c-19.5-12.9,2.6-123.4,2.6-123.4
		s-0.7-6.5,12.1-10.2C232,259,245.6,247.8,245.6,247.8"/>
	<path class="st30" d="M256.7,460.5c-9.3,64.6,21.1,221.6,21.1,221.6s39.1,2.8,46.2,3c7.1,0.1-21.8-11.9-26.3-19.5
		c-4.5-7.5-9.6-9.6-8.9-29.9c0.7-20.3-1.8-250.5-1.8-250.5l-44.5,4.6C242.4,389.8,266,395.8,256.7,460.5"/>
	<path class="st30" d="M219.1,461.3c-13.1,64,8.1,222.4,8.1,222.4s38.9,5.1,45.9,5.7c7,0.5-21-13.2-25.1-21c-4-7.8-9-10.2-7.2-30.3
		c1.8-20.2,12.8-250.2,12.8-250.2l-44.7,2C209.1,389.9,232.2,397.3,219.1,461.3"/>
	<path class="st34" d="M286.2,373.9c0,0,21.3,89.2,45.6,192.6c0,0-74,36.5-140.9,5.1c0,0,10.3-73.3,7.7-117.7
		c-2.6-44.4,18.7-87,18.7-87L286.2,373.9"/>
	<path class="st10" d="M214.8,264l25.6-12.3c0,0,16.5,63.1,16.6,63.5c1.9,7.2-0.6,19-0.6,26.6c0,12,0,24,0.1,36
		c0.2,24.4,0.9,48.7,2.8,73c0.8,9.7,0.9,19.5,1.8,29.3c0.6,6.3,3.7,12.5,2.4,18.8c-9.8,1.6-20.6-0.3-30.6-0.3
		c-10.2,0-20.2,1.9-30.4,1.7c-1.8,0-3.9,0.2-6.1,0.4c-4.7,0.5-9.9,1-13.5-1c-6-3.5,0.9-13.3,0.8-18.6c-0.1-7.8-0.1-15.1,0.7-22.9
		c1.9-18.7,4.3-37.5,8.3-55.9C201.1,363.8,204.3,263.6,214.8,264"/>
	<path class="st10" d="M284.4,254.5c3.4,24.4-7.5,60.7-7.5,60.7c-0.2,7.8-0.7,16.4-1,24.2c-0.7,25-0.3,49.6-0.3,74.5
		c0,11.6,0.6,22.7,2.3,34.1c1.5,10,2.8,20.1,4.9,29.8c1.2,5.5,3.3,11.6,3,17.3c6.9-0.2,22.1-8.8,27.4-6.3c5-18.9-19.4-103-16.9-116
		c1.8-9.1,4.3-17.8,7.7-26.4c3.4-8.7,8.6-15.1,8.6-24.7c0-14.4-0.6-28.3-3.7-42.3c-1.3-5.5-2.3-16-7.1-19.1
		C294.7,255.9,286.4,254,284.4,254.5"/>
	<polyline class="st14" points="277.3,421.9 182.7,466.5 156.6,398.4 255.1,360.6 277.3,421.9 	"/>
	<path class="st36" d="M157.4,400.4l-0.8-2l22-8.4L157.4,400.4 M277,422.1l-29-58.7l7.1-2.7l22.1,61.3L277,422.1"/>
	<polyline class="st14" points="277.3,422.6 182.6,469.3 150.4,403.8 245,357.2 277.3,422.6 	"/>
	<path class="st37" d="M196.2,381.2c0.2-1.8,0.5-3.5,0.7-5.4c0,0,0,0,0,0C196.7,377.7,196.5,379.5,196.2,381.2L196.2,381.2"/>
	<path class="st38" d="M196.9,375.9C196.9,375.9,196.9,375.9,196.9,375.9c1.8-14.9,3.5-32.1,5.1-48.5c0,0,0,0,0,0
		C200.4,343.8,198.8,361,196.9,375.9"/>
	<path class="st0" d="M196.2,381.2c0.2-1.7,0.5-3.5,0.7-5.3c1.8-14.9,3.5-32.1,5.2-48.5c7.9-23.9,17.5-43.5,28-44
		c0,0,1.1,20.4-14.1,55.3c-4.8,11-5.8,23.4-5,35.3L196.2,381.2"/>
	<path class="st39" d="M211.7,443.2l-13.5-31.1c1.1-6.7-6.7-3.7-5.3-9.9c1.3-5.8,2.4-13,3.5-21l0,0L211,374
		c1.8,25.7,12.5,48.6,12.5,48.6L211.7,443.2"/>
	<path class="st30" d="M195.3,372c5.1,14.9,19,47.3,25.4,53.1c6.4,5.9,28.9,17.1,17.5,26.9c-5.3,4.6-9.2,4.2-15.4,4.5
		c-3.6-7.1-6.2-12.3-10.7-18.7c-8.4-11.8-18.1-21.6-26.9-33L195.3,372"/>
	<path class="st10" d="M197.3,279.9c9.3-13.1,20.7-26.6,31.8-9.4c11,17.3-9.8,44.2-19.7,67.2c-9.9,23-9.6,29.1-6.9,37.7
		c2.8,8.6,23.6,52,23.6,52l-14.4,15.8c0,0-46.5-61.8-45.2-71.8C167.7,361.5,182.2,301.2,197.3,279.9"/>
	<polyline class="st40" points="238.3,253.3 232.7,277.5 238.6,277.7 234.8,287.3 255.9,315.8 237.6,286.3 240.4,275.8 233.9,276.2 
		238.3,253.3 	"/>
	<polyline class="st40" points="289.1,257.4 296.8,280 291,280.7 295.6,289.6 277.1,318.6 292.8,288.9 289,279.1 295.5,278.9 
		289.1,257.4 	"/>
	<path class="st41" d="M282,210.6c0,0-4.5-2.1-9.1,1.4C272.9,212,277.8,212,282,210.6"/>
	<path class="st41" d="M295.3,209.9c0,0,4.2-2.1,4.9,0.3C300.2,210.3,299.1,205,295.3,209.9"/>
	<path class="st42" d="M296.5,222.3c-3.2-0.7-5-5.1-3.9-9.8c1-4.7,4.5-8,7.7-7.3c3.2,0.7,5,5.1,3.9,9.8
		C303.1,219.7,299.7,223,296.5,222.3 M300,206.4c-2.7-0.6-5.7,2.2-6.6,6.2c-0.9,4,0.6,7.8,3.4,8.4c2.7,0.6,5.7-2.2,6.6-6.2
		C304.2,210.8,302.7,207,300,206.4z"/>
	<path class="st42" d="M277.8,225.1c-3.2-0.7-5-5.1-3.9-9.8c1-4.7,4.5-8,7.7-7.3c3.2,0.7,5,5.1,3.9,9.8
		C284.5,222.5,281,225.8,277.8,225.1 M281.3,209.2c-2.7-0.6-5.7,2.2-6.6,6.2c-0.9,4,0.6,7.8,3.4,8.4c2.7,0.6,5.7-2.2,6.6-6.2
		C285.6,213.6,284.1,209.8,281.3,209.2z"/>
	<path class="st41" d="M296.8,214.2c-0.1,1.4-0.7,2.5-1.3,2.5c-0.6,0-1.1-1.2-1-2.6c0.1-1.4,0.7-2.5,1.3-2.5
		C296.4,211.6,296.9,212.8,296.8,214.2"/>
	<path class="st41" d="M283.1,216.7c-0.1,1.6-0.8,2.9-1.5,2.9c-0.7,0-1.3-1.4-1.2-3c0.1-1.6,0.8-2.9,1.5-2.9
		C282.7,213.7,283.2,215,283.1,216.7"/>
	<path class="st33" d="M287.1,229c0.1,0,4.4-0.9,3.8-4.6c-0.6-3.7-3-11.8-3-11.8c0.8,1.1,3.6,8.5,4.4,10.6c0.9,2.3,1.1,4.3-1.7,4.7
		C290.7,228,288.4,228.8,287.1,229 M287.1,229L287.1,229"/>
	<polyline class="st42" points="285.3,217.4 285,214.3 292.7,213.8 292.9,216.9 285.3,217.4 	"/>
	<path class="st42" d="M228.3,326.5c-0.5,0-0.9-0.3-1.1-0.8c-0.4-1.3-10-31.3,3.9-37c2.5-1,4.9-0.9,7,0.4c8.2,5.1,9.8,26.8,9.8,27.7
		c0,0.6-0.4,1.2-1,1.2c-0.6,0-1.2-0.4-1.2-1c0-0.2-1.6-21.5-8.8-26c-1.5-0.9-3.1-1-5-0.2c-12,4.9-2.7,33.9-2.6,34.2
		c0.2,0.6-0.1,1.2-0.7,1.4C228.6,326.5,228.4,326.5,228.3,326.5"/>
	<path class="st41" d="M229.6,326.5c0,1.4-1,2.5-2.1,2.5c-1.2,0-2.1-1.1-2.1-2.5c0-1.4,1-2.5,2.1-2.5
		C228.7,324,229.6,325.1,229.6,326.5"/>
	<path class="st41" d="M249.8,317.5c0,1.4-1,2.5-2.1,2.5c-1.2,0-2.1-1.1-2.1-2.5c0-1.4,1-2.5,2.1-2.5
		C248.9,315,249.8,316.1,249.8,317.5"/>
	<path class="st42" d="M302.6,309.8c0.3,3.7-2.5,6.9-6.2,7.2c-3.7,0.3-6.9-2.5-7.2-6.2c-0.3-3.7,2.5-6.9,6.2-7.2
		C299.1,303.3,302.4,306.1,302.6,309.8"/>
	<path class="st13" d="M299.3,310.1c0.1,1.9-1.3,3.5-3.1,3.6c-1.9,0.1-3.5-1.2-3.6-3.1c-0.1-1.9,1.3-3.5,3.1-3.6
		C297.5,306.8,299.1,308.2,299.3,310.1"/>
	<path class="st42" d="M277.7,246.5c-0.1-0.2-0.3-0.2-0.5-0.3c0.5,1.7,1.1,3.2,1.8,4.5c0.1,0.1,0.2,0.7,0.3,1.5
		c6.6,9,20.6,31.2,16.3,51.5c-0.1,0.6,0.3,1.2,0.9,1.3c0.1,0,0.2,0,0.3,0c0.5,0,0.9-0.4,1-0.9C303.6,276.8,278.8,247.7,277.7,246.5"
		/>
	<path class="st42" d="M249.9,245.2c0.1-0.1,0.1-0.3,0.2-0.5c-1.2,0.3-11.4,2.9-17.5,13c-5,8.3-5.8,19.2-2.1,32.4
		c0.1,0.5,0.6,0.8,1.1,0.8c0.1,0,0.2,0,0.3,0c0.6-0.2,0.9-0.8,0.8-1.4c-3.5-12.6-2.8-22.9,1.9-30.6c4.3-7.1,11-10.2,14.3-11.4
		C249.2,246.7,249.5,246,249.9,245.2"/>
	<path class="st34" d="M306.2,672.8c-4.8,0.2-9.4,1.1-14.3,1.1c-3.3,0-6-0.3-9-1.1c-2.3-0.6-4.9-2.5-7.3-2.6
		c1.4,7.5,2.2,11.8,2.2,11.8s39.1,2.8,46.2,3C329,685.1,315.8,679,306.2,672.8"/>
	<path class="st34" d="M257.9,677.4c-4.6-0.3-9.6,0.2-13.9-0.5c-6.9-1-12.9-2.9-18.5-7.1c1,8.7,1.7,13.9,1.7,13.9s38.9,5.1,45.9,5.7
		C277.9,689.7,266.9,683.7,257.9,677.4"/>
	<path class="st43" d="M493.9,509.1c6.9,50.9-18,174.2-18,174.2s-30.8,2-36.3,2.1c-5.6,0.1,17.2-9.3,20.8-15.2
		c3.6-5.9,7.6-7.5,7.2-23.5c-0.4-15.9-21.1-181.4-6-211.6c15-30.2,36.7-28,41.9-5.2C508.7,452.8,487,458.2,493.9,509.1"/>
	<path class="st41" d="M455.6,674.6c10.3,5.5,17.3,4.4,21.1,2.7l-0.8,6.1c0,0-30.8,2-36.3,2.1C435.2,685.4,448,679.8,455.6,674.6"/>
	<path class="st30" d="M512.1,509.6c15,49.1,10.2,174.9,10.2,174.9s-30.1,6.9-35.6,7.9c-5.5,1,15.5-11.9,18.1-18.3
		c2.6-6.4,6.3-8.6,3.3-24.3c-2.9-15.7-49.9-175.7-39.9-207.9c10-32.2,31.7-33.5,40.5-11.9C517.7,451.7,497.1,460.5,512.1,509.6"/>
	<path class="st41" d="M500.8,679.1c11.1,3.8,17.8,1.6,21.2-0.7l0.2,6.1c0,0-30.1,6.9-35.6,7.9C482.5,693.1,494.2,685.5,500.8,679.1
		"/>
	<path class="st35" d="M488.5,357.5c10.5-0.1,39-1.1,39.5,14.3c0.2,6.6-3.8,14.5-4.6,21.2c-1.3,10.3-2,20.7-2,31.1
		c0,30.7,14.6,122.7,43.2,154.8c28.6,32.1-145.7,8.4-145.7,8.4s5-68,10.6-121.1c6.3-58.6,12.1-74.7,11.4-83.1
		c-1.8-21.5,31.9-25.5,47.3-25.6C488.4,357.5,488.4,357.5,488.5,357.5"/>
	<path class="st41" d="M467.1,172.9c2.8-10.6,16.9-13.9,26.1-11.2c11.3,3.3,21.1,13.6,26.1,24.1c3.1,6.5,2.6,14.4,4.8,20.8
		c1.9,5.7,2.8,11.1,4.3,17.2c1.3,5.5,4,10.5,7,15.1c6.9,10.7,15.6,13.3,26,19.7c11,6.8,21.8,16.8,21.8,30.4
		c0,11.9-9.2,15.3-19.7,13.2c14,4.9,19.1,27.1,15.1,39.9c-9.5,30.1-61.9,40.9-80.8,13.5c-10.5-15.1-5.1-34.7-3.5-51.5
		c2-20.8,10.4-42.9,4.7-63.7c-1.6-5.8-5.1-12.2-4.5-18.4c0.4-4.2,4-12.3,9.1-7.4L467.1,172.9"/>
	<path class="st24" d="M474.8,226.5c0,0,7.7,22.4-4.7,32c-12.5,9.5,0,47.7,20.8,32c20.8-15.7,27.9-35.4,27.9-35.4s-17.2-5.6-18.4-18
		c-1.2-12.3-3-41.5-3-43.8C497.4,191.1,471.3,194.5,474.8,226.5"/>
	<path class="st35" d="M506.5,248.4c0,0-13.2,18-25.1,16.6c-11.9-1.4-6.7-12.4-6.7-12.4s-27,30.6-32.5,37.1
		c-7.1,8.4-7.1,20.8-0.6,26.4c6.5,5.6-0.5,6.8-8,14c-12.8,12.3-24.4,49.1,9.8,77.2c1,0.8,84.9,8.4,76.9-5.1
		c-8-13.5,22.3-124.6,22.3-124.6S526.2,251.2,506.5,248.4"/>
	<path class="st44" d="M475.4,421.7l-8.9-9c0,0,1.8-1.1,4.8-3.2c6.1,0.3,12.6,0.5,18.8,0.5c7.8,0,15.2-0.3,20.8-1.2
		C501.1,415,489.4,419.6,475.4,421.7"/>
	<path class="st45" d="M522.7,399.7c0.2-2.2,0.5-4.5,0.8-6.7c0.8-6.7,4.8-14.6,4.6-21.2c0-0.2,0-0.4,0-0.6c1.1,0.1,2.3,0.1,3.4,0.1
		c4.2,0,8.4-0.5,12.6-1.4C539.1,380.6,532.2,391,522.7,399.7"/>
	<path class="st44" d="M520.2,402c-2.2-4.1-1.3-16.3,1.2-31.6c2.2,0.4,4.4,0.7,6.7,0.9c0,0.2,0,0.4,0,0.6c0.2,6.6-3.8,14.5-4.6,21.2
		c-0.3,2.2-0.5,4.5-0.8,6.7C521.9,400.5,521,401.2,520.2,402"/>
	<path class="st46" d="M531.5,371.3c-1.2,0-2.3,0-3.4-0.1c-2.3-0.1-4.5-0.4-6.7-0.9c6-37.3,21.2-92.8,21.2-92.8s8.3,14,11.6,39
		c1.5,11.6-0.6,32.9-10.1,53.4C539.9,370.9,535.7,371.3,531.5,371.3"/>
	<path class="st44" d="M490.1,410c-6.2,0-12.7-0.2-18.8-0.5c11.7-8.3,41.1-31.4,45.4-56.5c6.2-36.2,3.6-48,3.6-48
		s-8.2-30.5,10.3-30.5c3.2,0,7.1,0.9,12,3c0,0-15.1,55.5-21.2,92.8c-2.5,15.3-3.4,27.5-1.2,31.6c-2.9,2.5-6,4.8-9.3,6.9
		C505.3,409.7,497.9,410,490.1,410"/>
	<path class="st30" d="M435.7,417.8c-6.1-2.7-9.1-5.6-3.5-3.6c3.6,1.3,8,2.7,10.2,2.3c2.2-0.4-12.2-3.8-11.9-6.7
		c0.2-1.8,8.1,3,13,4.2c0,0,2.2-0.5-0.4-1.7c-2.6-1.2-13-5.1-12-6.8c1-1.7,12.3,6.5,13.3,5.3c1-1.2-12.5-6.4-10.5-8.1
		c0.9-0.8,7,3.2,13.7,6.7c2.4,1.2,4.6,2.2,6.4,2.5c6.9,1.2-0.1-3.1-4.2-5.7c-4.1-2.6,1.3-0.8,8.7,1.9c7.4,2.7,8.8,3.9,8.8,3.9
		c1.2,1,8.6-1.8,9.7-2.1c2.9-0.9,5.7-3.2,8.6-1.8c2.1,1,4,4.4,4.5,6.4c2,9.6-17.7,8.7-23.7,8.8C456.1,423.4,445.2,422.1,435.7,417.8
		"/>
	<path class="st35" d="M540.8,274.5c0,0,11.6,19.1,14.8,44c3.3,25-11.6,97.9-82.6,106.9l-2.7-15.2c0,0,43.1-23.3,49-54.7
		c5.9-31.4,1.8-50.8,1.8-50.8S507.2,260.2,540.8,274.5"/>
	<path class="st47" d="M477.2,241.1c0-2.4-0.2-4.8-0.6-6.9c0,0,0,0,0,0C477,236.3,477.2,238.7,477.2,241.1
		C477.2,241.1,477.2,241.1,477.2,241.1"/>
	<path class="st48" d="M477.2,241.1c0-2.4-0.2-4.8-0.6-6.9c0.5-0.1,0.9-0.2,1.3-0.3c4.1-1.2,11.8-6.1,17-12.6c0,0,0,0,0.1,0
		C495,221.4,487.7,238.9,477.2,241.1"/>
	<path class="st24" d="M458.8,174.3c-3.5,10.1-3.6,54.4,8.3,58.9c4.4,1.7,8.1,1.6,10.9,0.7c4.6-1.4,14-7.6,19-15.3
		c4.3-6.7,7.2-16.9,2.8-32C490.3,154.1,464.7,156.9,458.8,174.3"/>
	<path class="st41" d="M457,195.2c6,3.2,14.5-1.5,20.5-5.5c0,0,1.8,12.9,15.7,12.6c0,0,0.9,7.6,1.5,14.9c0.6,7.3,0.4,27.4,15.9,31.8
		c15.4,4.5,7.3-59.9-3.1-68.3c-10.4-8.4-16.9-20.8-28.2-20.5C462.2,161.1,435.6,183.7,457,195.2"/>
	<path class="st44" d="M498.5,334.4c-10.4,0-11.5-8.8-11.5-8.8c3.5,2.8,7.1,3.8,10.6,3.8c10.9,0,20.6-10.3,20.6-10.3
		s-3.6,12.6-15.4,14.9C501.2,334.2,499.8,334.4,498.5,334.4"/>
	<path class="st49" d="M473.4,201.1c0,0,5-6.8,13,0.3c0,0,0,1.2-1.5,0.2c-1.6-1-3.9-2-6-1.7C476.8,200.2,474,201.7,473.4,201.1"/>
	<path class="st49" d="M465.1,201.3c0,0-2.3-2.3-4.9-2.6c-2.6-0.2-4.3,2.2-4.3,2.2s-0.2,0.8,1,0.4c1.2-0.4,2.7-1.7,4.7-1
		C463.4,201.1,464.7,201.8,465.1,201.3"/>
	<path class="st48" d="M469.5,220.2c-1.4-0.3-3.6-1-3.6-1.2c-2.8-0.4-2.6-2.4-1.7-4.7c0.8-2.1,3.6-9.5,4.4-10.6c0,0-2.4,8.1-3,11.9
		C465.1,219.2,469.4,220.1,469.5,220.2 M469.5,220.2C469.5,220.2,469.5,220.2,469.5,220.2S469.5,220.2,469.5,220.2"/>
	<path class="st50" d="M474,221.6c0,0-7.1,3.9-12.2-1.2c0,0,1.3,6.1,5.3,6.4C471.1,227.2,474,221.6,474,221.6"/>
	<path class="st10" d="M506.4,247.3c0,0-17.8,19.5-26.6,16.4c-8.8-3.1-4.5-11.4-4.5-11.4l-4,4.3c0,0-1.7,12.1,8.3,12.1
		c10,0,22.5-6.9,31.1-19.6L506.4,247.3"/>
	<path class="st49" d="M478.2,206.7c0-0.1,0-0.1,0-0.2c-0.1-0.4-0.6-0.6-1-0.4c-0.1,0-0.2,0.1-0.2,0.2c-0.3,0-0.5,0.2-0.6,0.5
		c-0.8,1.1-0.6,2.9,0.5,3.7c0.3,0.2,0.6,0.2,0.9,0C479.1,209.6,479.4,207.5,478.2,206.7"/>
	<path class="st49" d="M461.9,206.3c0-0.1,0-0.1,0-0.2c-0.1-0.4-0.6-0.6-1-0.4c-0.1,0-0.2,0.1-0.2,0.2c-0.3,0-0.5,0.2-0.6,0.5
		c-0.8,1.1-0.6,2.9,0.5,3.8c0.3,0.2,0.6,0.2,0.9,0C462.8,209.2,463.1,207.2,461.9,206.3"/>
	<path class="st35" d="M471.7,256.4c-6.3-0.4-12.2,6-15.3,10.9c-5.8,9.2-3.3,26-1.4,36.1L471.7,256.4"/>
	<path class="st51" d="M672.5,289.2c-14.9-22.7-33.5-42.3-54.7-58.4c7.3-13.5,21.6-22,37-22c3.2,0,6.5,0.4,9.8,1.1
		c22.6,5.4,36.6,28.1,31.3,50.7C692.7,273.8,683.8,283.9,672.5,289.2"/>
	<path class="st52" d="M654.8,293.1c-3.2,0-6.5-0.4-9.8-1.1c-22.6-5.4-36.6-28.1-31.3-50.7c0.9-3.7,2.2-7.2,4-10.4
		c21.3,16,39.9,35.7,54.7,58.4C667.1,291.7,661,293.1,654.8,293.1"/>
	<path class="st53" d="M690.1,253.1c-5.3,22.2-27.6,36-49.8,30.7c-22.2-5.3-36-27.6-30.7-49.8c5.3-22.2,27.6-36,49.8-30.7
		C681.7,208.6,695.4,230.9,690.1,253.1"/>
	<polyline class="st35" points="680.6,244.7 671.6,242.6 674,232.2 683,234.3 680.6,244.7 	"/>
	<polyline class="st54" points="677.3,258.5 668.3,256.3 670.8,245.9 679.8,248.1 677.3,258.5 	"/>
	<polyline class="st34" points="674,272.2 665,270.1 667.5,259.7 676.5,261.8 674,272.2 	"/>
	<polyline class="st10" points="666.3,274.8 624.2,264.8 636,215.2 678.1,225.2 666.3,274.8 	"/>
	<path class="st54" d="M643.2,233.6c-0.3,1.3,0.9,2.6,2.6,3.1c0.2,0,20.3,4.8,20.3,4.8l2.1-8.7c0.3-1.3-0.9-2.6-2.6-3.1l-20.3-4.8
		L643.2,233.6"/>
	<path class="st35" d="M659.5,259.4c-1.3,5.4-6.7,8.7-12,7.4c-5.4-1.3-8.7-6.7-7.4-12c1.3-5.4,6.7-8.7,12-7.4
		C657.5,248.6,660.8,254,659.5,259.4"/>
	<polyline class="st10" points="649.9,263.6 646.8,262.8 649.7,250.6 652.8,251.4 649.9,263.6 	"/>
	<polyline class="st10" points="643.4,257.2 644.1,254.1 656.3,257 655.5,260.1 643.4,257.2 	"/>
	<path class="st51" d="M564.8,164.7c-2.1,0-4.3-0.2-6.4-0.5c-21.8-3.5-36.6-24.1-33-45.8c3.2-19.6,20.1-33.6,39.4-33.6
		c2.1,0,4.3,0.2,6.4,0.5c21.8,3.5,36.6,24.1,33,45.8C601,150.8,584.1,164.7,564.8,164.7"/>
	<path class="st22" d="M598.5,119.8c-3.5,21.8-24.1,36.6-45.8,33c-21.8-3.5-36.6-24.1-33-45.8c3.5-21.8,24-36.6,45.8-33
		C587.2,77.5,602,98,598.5,119.8"/>
	<path class="st10" d="M557.2,91l-12.9-2.1c-1.2-0.2-2.3,0.6-2.5,1.8c-0.2,1.2,0.6,2.3,1.8,2.5l1,0.2L538,134
		c-0.4,2.7,1.4,5.3,4.1,5.7l1.1,0.2c2.7,0.4,5.3-1.4,5.7-4.1l6.6-40.6l1,0.2c1.2,0.2,2.4-0.6,2.5-1.8
		C559.2,92.3,558.4,91.2,557.2,91"/>
	<path class="st11" d="M542.1,108.5L538,134c-0.4,2.7,1.4,5.3,4.1,5.7l1.1,0.2c2.7,0.4,5.3-1.4,5.7-4.1l4.1-25.6L542.1,108.5"/>
	<path class="st10" d="M579.6,94.6l-12.9-2.1c-1.2-0.2-2.4,0.6-2.5,1.8c-0.2,1.2,0.6,2.4,1.8,2.5l1,0.2l-6.6,40.6
		c-0.4,2.7,1.4,5.2,4.1,5.7l1.1,0.2c2.7,0.4,5.3-1.4,5.7-4.1l6.6-40.6l1,0.2c1.2,0.2,2.3-0.6,2.5-1.8
		C581.7,95.9,580.8,94.8,579.6,94.6"/>
	<path class="st35" d="M564.6,112.1l-4.1,25.6c-0.4,2.7,1.4,5.2,4.1,5.7l1.1,0.2c2.7,0.4,5.3-1.4,5.7-4.1l4.2-25.6L564.6,112.1"/>
	<path class="st55" d="M246.9,141.8c-19.1,0-34.6-15.5-34.6-34.6s15.5-34.6,34.6-34.6c19.1,0,34.6,15.5,34.6,34.6
		S266,141.8,246.9,141.8"/>
	<path class="st54" d="M271.9,92.4c4.5,18.6-6.9,37.2-25.5,41.7c-18.6,4.5-37.2-6.9-41.7-25.5c-4.5-18.6,6.9-37.2,25.5-41.7
		S267.4,73.8,271.9,92.4"/>
	<path class="st42" d="M236.9,107c-6.3,1.5-12.7-2.4-14.3-8.7l-2.4-10.1l2.4-0.6l2.4,10.1c1.2,5,6.3,8.1,11.3,6.9
		c5-1.2,8.1-6.3,6.9-11.3l-2.4-10.1l2.4-0.6l2.4,10.1C247.2,99.1,243.3,105.5,236.9,107"/>
	<path class="st10" d="M224.5,86.7c0.5,2-0.2,3.9-1.5,4.2c-1.3,0.3-2.7-1.1-3.2-3.1c-0.5-2,0.2-3.9,1.5-4.2
		C222.5,83.3,224,84.7,224.5,86.7"/>
	<path class="st10" d="M243.6,81.9c0.5,2-0.2,3.9-1.5,4.2c-1.3,0.3-2.7-1.1-3.2-3.1c-0.5-2,0.2-3.9,1.5-4.2
		C241.7,78.5,243.1,79.9,243.6,81.9"/>
	<path class="st42" d="M250.3,124.6c-5.6,1.3-11.2-2.1-12.5-7.6l-2.5-10.3l2.4-0.6l2.5,10.3c1,4.2,5.3,6.8,9.5,5.8
		c4.2-1,6.8-5.3,5.8-9.5l-1.8-8c-1.3-5.5,2.1-11.1,7.6-12.5l0.6,2.4c-4.2,1-6.8,5.3-5.8,9.5l1.8,8
		C259.3,117.7,255.9,123.3,250.3,124.6"/>
	<path class="st10" d="M268.9,91.3c0.7,2.8-1,5.6-3.9,6.3c-2.8,0.7-5.6-1-6.3-3.9c-0.7-2.8,1-5.6,3.9-6.3
		C265.4,86.8,268.3,88.5,268.9,91.3"/>
	<path class="st56" d="M265.9,92.1c0.3,1.2-0.4,2.3-1.6,2.6c-1.2,0.3-2.3-0.4-2.6-1.6c-0.3-1.2,0.4-2.3,1.6-2.6
		C264.5,90.2,265.6,90.9,265.9,92.1"/>
	<path class="st55" d="M158.3,272c-2.1,0-4.3-0.2-6.4-0.5c-21.8-3.5-36.6-24.1-33-45.8c3.2-19.6,20.1-33.6,39.4-33.6
		c2.1,0,4.3,0.2,6.4,0.5c21.8,3.5,36.6,24.1,33,45.8C194.5,258,177.6,272,158.3,272"/>
	<path class="st22" d="M192,227c-3.5,21.8-24.1,36.6-45.8,33c-21.8-3.5-36.6-24-33-45.8c3.5-21.8,24.1-36.6,45.8-33
		C180.7,184.7,195.5,205.3,192,227"/>
	<path class="st54" d="M130.8,221.9c-2.8,2.8-2.8,7.4,0,10.2c0.3,0.3,16.3,16.1,16.3,16.1l31.1-31.1c2.8-2.8,2.8-7.4,0-10.2
		l-16.2-16.2L130.8,221.9"/>
	<path class="st10" d="M139.1,224.4c1.7,1.7,1.7,4.5,0,6.2c-1.7,1.7-4.5,1.7-6.2,0c-1.7-1.7-1.7-4.5,0-6.2
		C134.6,222.7,137.4,222.7,139.1,224.4"/>
	<path class="st10" d="M147.9,215.7c1.7,1.7,1.7,4.5,0,6.2c-1.7,1.7-4.5,1.7-6.2,0c-1.7-1.7-1.7-4.5,0-6.2
		C143.3,213.9,146.1,213.9,147.9,215.7"/>
	<path class="st10" d="M156.6,206.9c1.7,1.7,1.7,4.5,0,6.2c-1.7,1.7-4.5,1.7-6.2,0c-1.7-1.7-1.7-4.5,0-6.2
		C152.1,205.2,154.9,205.2,156.6,206.9"/>
	<path class="st10" d="M165.4,198.2c1.7,1.7,1.7,4.5,0,6.2c-1.7,1.7-4.5,1.7-6.2,0c-1.7-1.7-1.7-4.5,0-6.2
		C160.9,196.4,163.6,196.4,165.4,198.2"/>
	<path class="st10" d="M149.2,234.5c1.7,1.7,1.7,4.5,0,6.2c-1.7,1.7-4.5,1.7-6.2,0c-1.7-1.7-1.7-4.5,0-6.2
		C144.7,232.8,147.5,232.8,149.2,234.5"/>
	<path class="st10" d="M157.9,225.7c1.7,1.7,1.7,4.5,0,6.2c-1.7,1.7-4.5,1.7-6.2,0c-1.7-1.7-1.7-4.5,0-6.2
		C153.4,224,156.2,224,157.9,225.7"/>
	<path class="st10" d="M166.7,217c1.7,1.7,1.7,4.5,0,6.2c-1.7,1.7-4.5,1.7-6.2,0c-1.7-1.7-1.7-4.5,0-6.2
		C162.2,215.3,165,215.3,166.7,217"/>
	<path class="st10" d="M175.4,208.2c1.7,1.7,1.7,4.5,0,6.2c-1.7,1.7-4.5,1.7-6.2,0c-1.7-1.7-1.7-4.5,0-6.2
		C170.9,206.5,173.7,206.5,175.4,208.2"/>
	<path class="st57" d="M375.8,467c-2,0-4-0.2-6-0.5c-4.1-17.3-11-33.1-20.2-47.1c12.1-6,23.6-13.2,34.1-21.5
		c15.5,3.6,27.1,17.5,27.1,34.1C410.8,451.3,395.1,467,375.8,467"/>
	<path class="st58" d="M349.6,419.4c-1.2-1.9-2.5-3.7-3.8-5.5c6.1-10.1,17.3-16.9,30-16.9c2.7,0,5.3,0.3,7.9,0.9
		C373.1,406.2,361.7,413.4,349.6,419.4"/>
	<path class="st59" d="M369.8,466.5c-16.5-2.8-29-17.2-29-34.5c0-6.6,1.8-12.8,5-18.1c1.3,1.8,2.6,3.6,3.8,5.5
		C358.8,433.4,365.7,449.3,369.8,466.5"/>
	<path class="st5" d="M711,114c0,18.9-15.3,34.2-34.2,34.2c-18.9,0-34.3-15.3-34.3-34.2c0-18.9,15.3-34.2,34.3-34.2
		C695.7,79.8,711,95.1,711,114"/>
	<path class="st10" d="M469.6,66c0,7.8-6.3,14.1-14.1,14.1s-14.1-6.3-14.1-14.1c0-7.8,6.3-14.1,14.1-14.1S469.6,58.2,469.6,66"/>
	<path class="st60" d="M382.8,250.7c-11.2,0-20.2-9.1-20.2-20.2c0-11.2,9.1-20.2,20.2-20.2c11.2,0,20.2,9.1,20.2,20.2
		C403,241.6,394,250.7,382.8,250.7"/>
	<path class="st10" d="M420.1,526.2c0,6.9-5.6,12.5-12.5,12.5c-6.9,0-12.5-5.6-12.5-12.5c0-6.9,5.6-12.5,12.5-12.5
		C414.6,513.7,420.1,519.3,420.1,526.2"/>
	<path class="st61" d="M392.4,694.3c8-0.1,27-0.8,24.2-13.5c-1,0-2.1-0.1-3.2-0.2c-1.5-0.2-3.1-0.4-4.3-0.1
		c13.3-5.2,13.1-18.9,12.4-31.8c-5.9,3.9-13,12-14.6,19.3c-7.1-6.9-9,2.7-10.7,8.7c-2.5,8.3-4.3,13.6-12.4,18.7L392.4,694.3"/>
	<path class="st3" d="M389.1,698.5c-14.9,0-27-1.9-27-4.3c0-2.4,12.1-4.3,27-4.3c0.3,0,0.6,0,1,0c-1.6,1.9-3.6,3.7-6.4,5.4l8.7-1
		c4.5,0,12.6-0.3,18.2-2.8c3.5,0.7,5.5,1.6,5.5,2.6C416.1,696.6,404,698.5,389.1,698.5"/>
	<path class="st62" d="M383.6,695.3c2.8-1.8,4.8-3.5,6.4-5.4c8.4,0,15.7,0.7,20.5,1.7c-5.6,2.5-13.7,2.7-18.2,2.8L383.6,695.3"/>
	<path class="st63" d="M388.4,696.4c-2.1-0.7,9-30,9.1-32.8c0-12.9-7.3-15.6-9.8-1.6c3-12.3,0.5-37.2-10.9-44.7
		c-6.8,5.6-5.8,18-3.9,26C375.1,653,380,693.6,388.4,696.4"/>
	<path class="st15" d="M385.8,690.3c-6.6-20.3-9.8-41-37.6-38.7c-0.5,9.7,9.5,14.6,17.2,17.6c-6.1-0.9-10.9,2.2-7.4,7.5
		c2.6,4,12.4,4.1,16.3,4.9c-9.7,6.1,7.5,12.4,12.5,13.1L385.8,690.3"/>
</g>
</svg>
