<?xml version="1.0" encoding="utf-8"?>
<!-- Generator: Adobe Illustrator 22.0.1, SVG Export Plug-In . SVG Version: 6.00 Build 0)  -->
<svg version="1.1" id="Ñëîé_1" xmlns="http://www.w3.org/2000/svg" xmlns:xlink="http://www.w3.org/1999/xlink" x="0px" y="0px"
	 viewBox="0 0 1700 1500" style="enable-background:new 0 0 1700 1500;" xml:space="preserve">
<style type="text/css">
	.st0{fill:#FFFFFF;}
	.st1{opacity:0.4;fill:#FFFFFF;}
	.st2{fill:#E4F1FE;}
	.st3{fill:#BCBEC0;}
	.st4{fill:#414042;}
	.st5{fill:#231F20;}
	.st6{fill:#A80000;}
	.st7{fill:#E6E7E8;}
	.st8{fill:#D91E18;}
	.st9{fill:#173077;}
	.st10{fill:#1F3A93;}
	.st11{fill:#F1F2F2;}
	.st12{fill:#D4DBC8;}
	.st13{fill:#C9CCC0;}
	.st14{fill:#FFFFFF;stroke:#FFFFFF;stroke-width:1.8759;stroke-miterlimit:10;}
	.st15{fill:#6D6E71;}
	.st16{fill:#D1D3D4;}
	.st17{fill:#939598;}
	.st18{fill:#A7A9AC;}
	.st19{fill:#808285;}
	.st20{fill:#EDEDED;}
	.st21{fill:#231F20;stroke:#231F20;stroke-width:0.6125;stroke-miterlimit:10;}
	.st22{fill:#231F20;stroke:#231F20;stroke-width:0.623;stroke-miterlimit:10;}
	.st23{fill:#FF7416;}
	.st24{fill:#FF8431;}
	.st25{fill:#F96806;}
	.st26{fill:#FF7C24;}
</style>
<g id="XMLID_77_">
	<rect id="XMLID_2138_" y="0" class="st0" width="1700" height="1500"/>
	<g id="XMLID_2311_">
		<path id="XMLID_2603_" class="st1" d="M995,807.9c0-20.2-11.2-37.8-27.7-47c-4.3-2.4-7-6.9-7-11.8v-31.5H785.5v32.9
			c0,4.6-2.4,9-6.3,11.4c-15.6,9.4-26,26.5-26,46v405.4c0,0.2,0,0.4,0,0.6c0,0.3,0,0.6,0,0.9c0,7.2,7.7,13.9,21,19.4
			c21.8,9.1,58.4,15.1,99.9,15.1c41.5,0,78.2-6,99.9-15.1c13.3-5.5,21-12.2,21-19.4c0-0.3,0-0.6,0-0.9c0-0.2,0-0.4,0-0.6V807.9z"/>
		<path id="XMLID_2602_" class="st2" d="M990.2,874.7H756.8v337.1c0,0.2,0,0.4,0,0.6c0,0.3,0,0.6,0,0.9c0,7.2,7.5,13.8,20.3,19.3
			c21,9,56.4,15,96.4,15c40.1,0,75.4-5.9,96.4-15c12.8-5.5,20.3-12.2,20.3-19.3c0-0.3,0-0.6,0-0.9c0-0.2,0-0.4,0-0.6V874.7z"/>
		<path id="XMLID_2466_" class="st3" d="M874.1,1255.4c-40.8,0-79-5.8-102.3-15.5c-16.4-6.9-24.8-15.3-24.8-25.1c0-0.3,0-0.6,0-0.9
			c0-0.2,0-0.4,0-0.6V807.9c0-21.1,10.8-40.3,29-51.2c2.1-1.3,3.4-3.6,3.4-6.1v-39h187v37.6c0,2.6,1.5,5.1,3.9,6.4
			c19,10.5,30.8,30.6,30.8,52.3v405.4c0,0.2,0,0.4,0,0.6c0,0.3,0,0.6,0,0.9c0,9.8-8.3,18.2-24.8,25.1
			C953.1,1249.6,914.9,1255.4,874.1,1255.4z M759.3,1213.2l0.1,0.9l0,0.4c0,0.1,0,0.2,0,0.3c0,3.2,4.5,8.5,17.2,13.8
			c21.9,9.1,58.4,14.6,97.6,14.6c39.2,0,75.7-5.5,97.6-14.6c12.7-5.3,17.2-10.6,17.2-13.8c0-0.1,0-0.2,0-0.3l0-0.4l0.1-0.8l0,0.1
			V807.9c0-17.3-9.4-33.2-24.5-41.6c-6.3-3.5-10.2-10.1-10.2-17.1v-25.4H791.7v26.8c0,6.8-3.6,13.2-9.3,16.6
			c-14.4,8.7-23,23.9-23,40.7V1213.2z"/>
		<path id="XMLID_2350_" class="st4" d="M919,763h-92.2c-20.4,0-37-31-37-52.5v-16.8h166.3v16.8C956.1,732,939.5,763,919,763z"/>
		<path id="XMLID_2348_" class="st4" d="M971.3,647H770.9c-2.5,0-4.5-2-4.5-4.5v-6.4c0-2.5,2-4.5,4.5-4.5h200.5c2.5,0,4.5,2,4.5,4.5
			v6.4C975.8,645,973.8,647,971.3,647z"/>
		<path id="XMLID_2346_" class="st5" d="M976.1,721.5h-210c-7.1,0-12.9-5.8-12.9-12.9v-59.1c0-7.1,5.8-12.9,12.9-12.9h210
			c7.1,0,12.9,5.8,12.9,12.9v59.1C989,715.8,983.2,721.5,976.1,721.5z"/>
		<path id="XMLID_2345_" class="st0" d="M973.1,1112.1H775.1c-8.7,0-15.8-7.1-15.8-15.8V956.1c0-8.7,7.1-15.8,15.8-15.8h198.1
			c8.7,0,15.8,7.1,15.8,15.8v140.2C988.9,1105,981.9,1112.1,973.1,1112.1z"/>
		<g id="XMLID_2322_">
			<path id="XMLID_2342_" class="st5" d="M781.3,1031v-45.2h8.8v45.2H781.3z"/>
			<path id="XMLID_2334_" class="st5" d="M819.2,1031v-20c0-3.7-2.1-6-5.5-6c-3.4,0-5.5,2.3-5.5,6v20H800v-33h8.1v3
				c1.5-1.4,2.2-1.8,3.6-2.5c1.5-0.6,3.1-1,4.8-1c6.9,0,11.1,4.7,11.1,12.3v21.1H819.2z"/>
			<path id="XMLID_2332_" class="st5" d="M852.7,1005.2c-1.5-0.5-3.2-0.8-5-0.8c-3.2,0-5,1.1-5,3.2c0,1.6,1.1,2.5,3.4,2.8l5.2,0.5
				c6.3,0.6,9.8,4,9.8,9.6c0,7-5.4,10.8-15,10.8c-3,0-5.8-0.4-8.1-1.4c-1.8-0.7-2.8-1.4-4.9-3.4l5.4-5.4c1.4,1.2,2,1.6,3.2,2.1
				c1.6,0.6,3.4,1,5.5,1c3.8,0,6-1.3,6-3.5c0-1.8-1.1-2.7-3.5-3l-5.2-0.5c-6.5-0.6-9.6-3.6-9.6-9.1c0-6.6,5.1-10.7,13.4-10.7
				c2.8,0,5.7,0.5,7.9,1.3c1.5,0.6,2.3,1.1,4.1,2.5l-5.1,5.1C854.1,1005.7,853.6,1005.5,852.7,1005.2z"/>
			<path id="XMLID_2330_" class="st5" d="M887.1,1031v-3c-1.5,1.4-2.2,1.8-3.6,2.5c-1.5,0.6-3.1,1-4.8,1c-6.8,0-11-4.7-11-12.3
				v-21.1h8.2v20c0,3.7,2.1,6,5.5,6c3.4,0,5.5-2.3,5.5-6v-20h8.2v33H887.1z"/>
			<path id="XMLID_2328_" class="st5" d="M912.7,985.8v45.2h-8.2v-45.2H912.7z"/>
			<path id="XMLID_2325_" class="st5" d="M926,993.8c-2.9,0-5.2-2.3-5.2-5.2s2.3-5.1,5.2-5.1c2.8,0,5.1,2.3,5.1,5
				C931.1,991.5,928.9,993.8,926,993.8z M921.9,1031v-33h8.2v33H921.9z"/>
			<path id="XMLID_2323_" class="st5" d="M958.5,1031v-20c0-3.7-2.1-6-5.5-6c-3.4,0-5.5,2.3-5.5,6v20h-8.2v-33h8.1v3
				c1.5-1.4,2.2-1.8,3.6-2.5c1.5-0.6,3.1-1,4.8-1c6.9,0,11.1,4.7,11.1,12.3v21.1H958.5z"/>
		</g>
		<g id="XMLID_2312_">
			<path id="XMLID_2320_" class="st5" d="M838.3,1086v-20.7l-5.2,4.6v-5.1l5.2-4.6h4.7v25.7H838.3z"/>
			<path id="XMLID_2317_" class="st5" d="M858.8,1086.2c-4.6,0-7.8-3.1-7.8-7.7v-10.8c0-4.5,3.2-7.7,7.8-7.7c4.6,0,7.8,3.1,7.8,7.7
				v10.8C866.6,1083.1,863.4,1086.2,858.8,1086.2z M858.8,1082c1.9,0,3.1-1.4,3.1-3.5v-10.7c0-2.1-1.2-3.5-3.1-3.5
				c-1.9,0-3.1,1.4-3.1,3.5v10.7C855.6,1080.6,856.9,1082,858.8,1082z"/>
			<path id="XMLID_2315_" class="st5" d="M901.5,1086v-11.4c0-2.1-1.2-3.4-3.1-3.4c-1.9,0-3.1,1.3-3.1,3.3v11.5h-4.7v-11.4
				c0-2.1-1.2-3.4-3.1-3.4c-2,0-3.1,1.3-3.1,3.4v11.4h-4.7v-18.8h4.6v1.7c0.9-0.8,1.3-1.1,2.1-1.4c0.8-0.4,1.7-0.5,2.7-0.5
				c1,0,2,0.2,2.9,0.7c0.8,0.4,1.2,0.8,2,1.7c1.1-1,1.6-1.4,2.5-1.8c0.9-0.4,1.9-0.6,3-0.6c4.2,0,6.8,2.7,6.8,7v12H901.5z"/>
			<path id="XMLID_2313_" class="st5" d="M915.9,1060.3v25.7h-4.7v-25.7H915.9z"/>
		</g>
	</g>
	<g id="XMLID_81_">
		<path id="XMLID_2271_" class="st1" d="M1243.4,1144.8c13,40.1-6.2,82.6-43.4,96.7c-0.5,0.2-0.9,0.4-1.4,0.5c-1,0.4-2,0.7-3,1
			c-37.4,11.5-78.2-9.2-93.2-48l-93.5-240.9l77.3-27.5l77.3-27.5L1243.4,1144.8z"/>
		<path id="XMLID_2269_" class="st3" d="M1249.2,1142.8c13,40.1-8.8,83.6-49.2,98.8c37.2-14.2,56.5-56.7,43.4-96.7l-80-245.8
			l6.4-2.3L1249.2,1142.8z"/>
		<path id="XMLID_2268_" class="st3" d="M1102.3,1195.1c15,38.7,55.9,59.5,93.2,48c-40.5,12.8-83.9-7.1-99.1-45.9l-94-240.8l6.4-2.3
			L1102.3,1195.1z"/>
		<g id="XMLID_2463_">
			<path id="XMLID_2465_" class="st4" d="M1146.8,949.1l-93.5,33.3c-10.4,3.7-21.4,2.1-30.1-3.4c-6.3-4-11.4-10-14.1-17.6l-8.3-23.3
				l158.6-56.5l8.3,23.3C1174.2,922.9,1164.8,942.7,1146.8,949.1z"/>
			<path id="XMLID_2464_" class="st5" d="M1169.6,896.9l-167,59.5c-5.7,2-11.9-0.9-14-6.6l-1.8-5.2c-1-2.8-0.8-5.8,0.4-8.4
				c1.2-2.5,3.4-4.6,6.2-5.6l167-59.5c5.7-2,11.9,0.9,14,6.6l1.8,5.2C1178.3,888.6,1175.3,894.8,1169.6,896.9z"/>
		</g>
		<path id="XMLID_2462_" class="st3" d="M1064.3,1114.6l32.2,82.5c15.5,39.7,60.7,59.6,102,44.9h0c41.3-14.7,63.8-58.7,50.7-99.3
			l-27.2-84.3L1064.3,1114.6z"/>
		<path id="XMLID_2461_" class="st6" d="M1058.3,1081.6l44.2,113.4c15.4,39.8,58,60.6,96.1,47h0c38.1-13.6,57.9-56.6,44.7-97.2
			l-29.5-90.7L1058.3,1081.6z"/>
	</g>
	<g id="XMLID_79_">
		<g id="XMLID_3008_">
			<g id="XMLID_3010_">
				<g id="XMLID_3026_">
					<g id="XMLID_3029_">
						<rect id="XMLID_3030_" x="431" y="370.6" class="st4" width="68.2" height="172.7"/>
					</g>
					<g id="XMLID_3027_">
						<rect id="XMLID_3028_" x="431" y="390.7" class="st7" width="68.2" height="152.6"/>
					</g>
				</g>
				<g id="XMLID_3011_">
					<g id="XMLID_3024_">
						<polygon id="XMLID_3025_" class="st4" points="437.8,516.1 435.4,516.1 439.5,524.1 443.6,516.1 441.2,516.1 441.2,506.1 
							437.8,506.1 						"/>
					</g>
					<g id="XMLID_3021_">
						<g id="XMLID_3022_">
							<polygon id="XMLID_3023_" class="st4" points="450.6,516.1 448.2,516.1 452.3,524.1 456.4,516.1 454,516.1 454,506.1 
								450.6,506.1 							"/>
						</g>
					</g>
					<g id="XMLID_3018_">
						<g id="XMLID_3019_">
							<polygon id="XMLID_3020_" class="st4" points="463.4,516.1 461,516.1 465.1,524.1 469.1,516.1 466.8,516.1 466.8,506.1 
								463.4,506.1 							"/>
						</g>
					</g>
					<g id="XMLID_3015_">
						<g id="XMLID_3016_">
							<polygon id="XMLID_3017_" class="st4" points="476.2,516.1 473.8,516.1 477.9,524.1 481.9,516.1 479.6,516.1 479.6,506.1 
								476.2,506.1 							"/>
						</g>
					</g>
					<g id="XMLID_3012_">
						<g id="XMLID_3013_">
							<polygon id="XMLID_3014_" class="st4" points="489,516.1 486.6,516.1 490.7,524.1 494.7,516.1 492.3,516.1 492.3,506.1 
								489,506.1 							"/>
						</g>
					</g>
				</g>
			</g>
			
				<ellipse id="XMLID_3009_" transform="matrix(0.2319 -0.9727 0.9727 0.2319 -76.7153 795.0521)" class="st8" cx="465.1" cy="446.1" rx="21.5" ry="21.5"/>
		</g>
		<path id="XMLID_3007_" class="st3" d="M464.9,531.1c-178.3,0-306.4,165.9-306.4,370.5c0,129.5,21.9,284,114.2,338.7
			c60.2,35.6,130,31.8,192.2,31.8s132,3.9,192.2-31.8c92.3-54.7,114.2-209.2,114.2-338.7C771.3,696.9,643.2,531.1,464.9,531.1z"/>
		<path id="XMLID_3006_" class="st9" d="M745.2,1074.1H185.1c-14.6,0-26.4-11.8-26.4-26.4v-249c0-14.6,11.8-26.4,26.4-26.4h560.1
			c14.6,0,26.4,11.8,26.4,26.4v249C771.6,1062.3,759.8,1074.1,745.2,1074.1z"/>
		<path id="XMLID_3005_" class="st0" d="M464.9,539.5c-168.8,0-290.1,162.7-290.1,363.4c0,127,20.7,278.7,108.1,332.3
			c57,35,123.1,31.2,181.9,31.2s124.9,3.8,181.9-31.2c87.4-53.6,108.1-205.3,108.1-332.3C755,702.2,633.7,539.5,464.9,539.5z"/>
		<path id="XMLID_3004_" class="st10" d="M464.9,583.5c-163.4,0-258.9,137.6-258.9,307.4c0,107.4,6.6,315.4,96.5,315.8
			c0.1,0,0.2,0,0.2,0c13.2,0,23.7-11.1,23.7-24.5v-53.6c0-13.7,10.9-24.7,24.4-24.7h114h114c13.5,0,24.4,11.1,24.4,24.7v53.6
			c0,13.4,10.5,24.5,23.7,24.5c0.1,0,0.2,0,0.2,0c89.9-0.4,96.5-208.4,96.5-315.8C723.8,721.1,628.4,583.5,464.9,583.5z"/>
		<g id="XMLID_2035_">
			<g id="XMLID_3002_">
				<path id="XMLID_3003_" class="st0" d="M605.3,1060.9H322.8c-12.9,0-24.4-6-31.9-15.3c-5.6-7-8.9-15.8-8.9-25.4V746.5
					c0-22.5,18.2-40.7,40.7-40.7h282.6c22.5,0,40.7,18.2,40.7,40.7v273.6C646.1,1042.6,627.8,1060.9,605.3,1060.9z"/>
			</g>
			<g id="XMLID_3000_">
				<path id="XMLID_3001_" class="st11" d="M614.7,1041.7H313.4c-4.1,0-7.8-2.1-9.9-5.4c-1.2-1.8-1.8-4-1.8-6.3V736.6
					c0-6.5,5.2-11.7,11.7-11.7h301.3c6.5,0,11.7,5.2,11.7,11.7V1030C626.4,1036.5,621.2,1041.7,614.7,1041.7z"/>
			</g>
			<g id="XMLID_2995_">
				<path id="XMLID_2999_" class="st12" d="M602,1028.3H326.1c-3.8,0-7.1-2-9-4.9c-1.1-1.7-1.7-3.6-1.7-5.8V749
					c0-5.9,4.8-10.7,10.7-10.7H602c5.9,0,10.7,4.8,10.7,10.7v268.6C612.7,1023.5,607.9,1028.3,602,1028.3z"/>
				<path id="XMLID_2996_" class="st13" d="M602,1030.5H326.1c-4.4,0-8.5-2.2-10.8-5.9c-1.3-2.1-2-4.5-2-6.9V749
					c0-7.1,5.8-12.9,12.9-12.9H602c7.1,0,12.9,5.8,12.9,12.9v268.6C614.8,1024.7,609.1,1030.5,602,1030.5z M326.1,740.5
					c-4.7,0-8.5,3.8-8.5,8.5v268.6c0,1.6,0.5,3.2,1.3,4.6c1.6,2.5,4.3,3.9,7.2,3.9H602c4.7,0,8.5-3.8,8.5-8.5V749
					c0-4.7-3.8-8.5-8.5-8.5H326.1z"/>
			</g>
			<g id="XMLID_2992_">
				<path id="XMLID_2993_" class="st5" d="M472.6,913.8h-15.9V897h15.9V913.8z"/>
			</g>
			<g id="XMLID_2989_">
				<path id="XMLID_2990_" class="st5" d="M563.9,897h-9.8v16.7h-15.9V897h-42.8v-14.2l37.7-79.5h16.9l-37.7,79.5h25.8v-32.5h15.9
					v32.5h9.8V897z"/>
			</g>
			<g id="XMLID_2366_">
				<path id="XMLID_2368_" class="st5" d="M436.9,883.1c0,9.4-2.6,17-7.9,22.9c-5.6,6.2-12.9,9.3-22.1,9.3c-8.9,0-16.3-2.3-21.9-7
					c-5.7-4.7-8.8-11.4-9.5-20.3h15.7c1.4,8,6.2,12,14.6,12c4.9,0,8.8-1.7,11.5-5.2c2.4-3,3.6-7,3.6-12.1v-11.9
					c0-4.8-1.2-8.8-3.7-11.9c-2.5-3.1-6.1-4.7-10.8-4.7c-6.9,0-11.8,3-14.8,8.8h-13.5v-59.8h56v15.3h-40.1v25.2
					c4.6-3.3,9.7-4.9,15.2-4.9c8.7,0,15.6,2.9,20.6,8.8c4.6,5.6,6.9,12.8,6.9,21.6V883.1z"/>
			</g>
			<g id="XMLID_2036_">
				<g id="XMLID_2053_">
					<path id="XMLID_2054_" class="st5" d="M423.2,984.5h-4.2v-13.4c0-1.1-0.4-2.1-1.2-2.9c-0.8-0.8-1.8-1.2-2.9-1.2
						c-1.1,0-2.1,0.4-2.9,1.2c-0.8,0.8-1.2,1.8-1.2,2.9v13.4h-4.2v-13.4c0-1.1-0.4-2.1-1.2-2.9c-0.8-0.8-1.8-1.2-2.9-1.2
						s-2.1,0.4-2.9,1.2c-0.8,0.8-1.2,1.8-1.2,2.9v13.4h-4.2v-21.3h4.2v2.3c1.5-1.7,3.5-2.6,5.7-2.6c2.5,0,4.3,1,5.5,2.9
						c1.5-1.9,3.5-2.9,5.7-2.9c2.4,0,4.2,0.7,5.6,2c1.4,1.3,2.1,3.2,2.1,5.5V984.5z"/>
				</g>
				<g id="XMLID_2050_">
					<path id="XMLID_2051_" class="st5" d="M458.2,984.5h-4.2v-13.4c0-1.1-0.4-2.1-1.2-2.9c-0.8-0.8-1.8-1.2-2.9-1.2
						c-1.1,0-2.1,0.4-2.9,1.2c-0.8,0.8-1.2,1.8-1.2,2.9v13.4h-4.2v-13.4c0-1.1-0.4-2.1-1.2-2.9c-0.8-0.8-1.8-1.2-2.9-1.2
						c-1.1,0-2.1,0.4-2.9,1.2c-0.8,0.8-1.2,1.8-1.2,2.9v13.4h-4.2v-21.3h4.2v2.3c1.5-1.7,3.5-2.6,5.7-2.6c2.5,0,4.3,1,5.5,2.9
						c1.5-1.9,3.5-2.9,5.7-2.9c2.4,0,4.2,0.7,5.6,2c1.4,1.3,2.1,3.2,2.1,5.5V984.5z"/>
				</g>
				<g id="XMLID_2046_">
					<path id="XMLID_2047_" class="st5" d="M481.2,973.9c0,7.3-3,11-9,11c-3.5,0-6.1-1.3-7.6-4c-0.9-1.7-1.4-4-1.4-7
						c0-7.3,3-11,9-11C478.2,962.9,481.2,966.5,481.2,973.9z M477,973.9c0-4.5-1.6-6.8-4.8-6.8c-3.2,0-4.8,2.3-4.8,6.8
						c0,4.5,1.6,6.8,4.8,6.8C475.4,980.7,477,978.4,477,973.9z"/>
				</g>
				<g id="XMLID_2043_">
					<path id="XMLID_2044_" class="st5" d="M493.4,984.5h-1.5c-2.1,0-3.5-0.5-4.4-1.4c-0.9-0.9-1.3-2.4-1.3-4.5v-24.3h4.2v23.6
						c0,1,0.2,1.7,0.5,2.1c0.3,0.4,1,0.6,1.9,0.6h0.6V984.5z"/>
				</g>
				<g id="XMLID_2040_">
					<path id="XMLID_2041_" class="st5" d="M509.4,954.1l-12.5,30.5h-3.5l12.5-30.5H509.4z"/>
				</g>
				<g id="XMLID_2037_">
					<path id="XMLID_2038_" class="st5" d="M531.3,984.5h-19v-30.5h4.6v26.2h14.4V984.5z"/>
				</g>
			</g>
		</g>
		<path id="XMLID_2034_" class="st10" d="M563.6,1124.7H366.5c-10.3,0-18.7,8.4-18.7,18.7v47.8c0,10.3,8.4,18.7,18.7,18.7h197.1
			c10.3,0,18.7-8.4,18.7-18.7v-47.8C582.3,1133.1,573.9,1124.7,563.6,1124.7z"/>
		<g id="XMLID_2030_">
			<g id="XMLID_2032_">
				<path id="XMLID_2033_" class="st14" d="M465,1173.2L465,1173.2c-1.7,0-3.1-1.4-3.1-3.1v-29.7c0-1.7,1.4-3.1,3.1-3.1l0,0
					c1.7,0,3.1,1.4,3.1,3.1v29.7C468.1,1171.8,466.7,1173.2,465,1173.2z"/>
			</g>
			<path id="XMLID_2031_" class="st14" d="M473.8,1150.8l-0.7-0.3v5.1l0.3,0.1c6.8,3.3,11,10.2,10.9,17.7
				c-0.2,10-8.2,18.3-18.2,18.9c-5.4,0.3-10.5-1.6-14.4-5.2c-3.9-3.7-6-8.7-6-14c0-7.3,4.3-14.1,10.9-17.4l0.3-0.1v-5.1l-0.7,0.3
				c-10.1,4-16.3,14.3-15.1,25c1.2,11,10.1,19.9,21.1,21.2c0.9,0.1,1.9,0.2,2.8,0.2c5.9,0,11.5-2.1,16-6.1c5.1-4.6,8-11.1,8-17.9
				C489,1163.2,483.1,1154.5,473.8,1150.8z"/>
		</g>
		<g id="XMLID_2025_">
			<g id="XMLID_2026_">
				<path id="XMLID_2027_" class="st14" d="M300.9,1174.2h-24.1c-1,0-1.9-0.5-2.4-1.3c-0.5-0.8-0.5-1.8,0-2.6l12-20
					c0.5-0.8,1.4-1.3,2.4-1.3c1,0,1.9,0.5,2.4,1.3l12,20c0.5,0.8,0.5,1.8,0,2.6C302.8,1173.7,301.9,1174.2,300.9,1174.2z
					 M278,1170.9h21.8l-10.9-18.1L278,1170.9z"/>
			</g>
		</g>
		<g id="XMLID_2020_">
			<g id="XMLID_2021_">
				<path id="XMLID_2022_" class="st14" d="M660.5,1150.3c0.5,0.8,0.5,1.8,0,2.6l-12,20c-0.5,0.8-1.4,1.3-2.4,1.3
					c-1,0-1.9-0.5-2.4-1.3l-12-20c-0.5-0.8-0.5-1.8,0-2.6c0.5-0.8,1.4-1.3,2.4-1.3h24.1C659.1,1149,660,1149.5,660.5,1150.3z
					 M646.1,1170.3l10.9-18.1h-21.8L646.1,1170.3z"/>
			</g>
		</g>
		<path id="XMLID_2019_" class="st15" d="M518.8,1272.1H411.4c-3.1,0-5.6-2.5-5.6-5.6v-1.2c0-3.1,2.5-5.6,5.6-5.6h107.4
			c3.1,0,5.6,2.5,5.6,5.6v1.2C524.3,1269.7,521.8,1272.1,518.8,1272.1z"/>
	</g>
	<g id="XMLID_2604_">
		
			<rect id="XMLID_2901_" x="1293.8" y="1245.1" transform="matrix(-1.836970e-16 1 -1 -1.836970e-16 2571.2039 -68.4837)" class="st16" width="52.1" height="12.6"/>
		<g id="XMLID_2896_">
			<path id="XMLID_2900_" class="st0" d="M611.3,1224.1h693.6c4.8,0,8.6,3.9,8.6,8.6v37.3c0,4.8-3.9,8.6-8.6,8.6H611.3
				c-4.8,0-8.6-3.9-8.6-8.6v-37.3C602.6,1227.9,606.5,1224.1,611.3,1224.1z"/>
			<path id="XMLID_2897_" class="st17" d="M598.7,1270v-37.3c0-6.9,5.7-12.6,12.6-12.6h693.6c6.9,0,12.6,5.7,12.6,12.6v37.3
				c0,6.9-5.7,12.6-12.6,12.6H611.3C604.3,1282.6,598.7,1277,598.7,1270z M1309.6,1232.7c0-2.6-2.1-4.7-4.7-4.7H611.3
				c-2.6,0-4.7,2.1-4.7,4.7v37.3c0,2.6,2.1,4.7,4.7,4.7h693.6c2.6,0,4.7-2.1,4.7-4.7V1232.7z"/>
		</g>
		<path id="XMLID_2895_" class="st5" d="M1308.7,1273.8c0.9-3,1.7-6,2.2-9.1c0.8-4.4,1.3-8.9,1.3-13.3c-0.1-4.5-0.5-8.9-1.3-13.3
			c-0.6-3.1-1.3-6.1-2.2-9.1c-0.7-2.4-1.4-4.9-5.2-4.9c-2.9,0-5.3,1.9-5.3,4.2v23.1v23.1c0,2.3,2.4,4.2,5.3,4.2
			C1307.2,1278.7,1307.9,1276.2,1308.7,1273.8z"/>
		<polygon id="XMLID_2894_" class="st17" points="1415.9,1252.7 1538.5,1252.7 1527.7,1250 1415.9,1250 		"/>
		<g id="XMLID_2881_">
			<path id="XMLID_2893_" class="st18" d="M1417.8,1264.3v-26.6c0-1.2-15.4-7.2-15.4-7.2c-0.2-0.1-0.4-0.1-0.7-0.1h-73.5
				c-1.2,0-2.2,1.2-2.2,2.8v36.5c0,1.5,1,2.8,2.2,2.8h73.5c0.2,0,0.4,0,0.7-0.1C1402.5,1272.2,1417.8,1265.5,1417.8,1264.3z"/>
			
				<rect id="XMLID_2892_" x="1350.7" y="1216.4" transform="matrix(-1.836970e-16 1 -1 -1.836970e-16 2611.7061 -108.9862)" class="st17" width="19.3" height="70"/>
			
				<rect id="XMLID_2891_" x="1360.9" y="1249.3" transform="matrix(-1.836970e-16 1 -1 -1.836970e-16 2633.2314 -130.5116)" class="st19" width="42" height="4.1"/>
			<g id="XMLID_2884_">
				<path id="XMLID_2890_" class="st17" d="M1326.2,1232.5v-0.6c0-0.9,0.7-1.6,1.6-1.6h27c0.9,0,1.6,0.7,1.6,1.6v0.6
					c0,0.9-0.7,1.6-1.6,1.6h-27C1326.9,1234,1326.2,1233.3,1326.2,1232.5z"/>
				<path id="XMLID_2889_" class="st17" d="M1326.2,1240.1v-0.6c0-0.9,0.7-1.6,1.6-1.6h27c0.9,0,1.6,0.7,1.6,1.6v0.6
					c0,0.9-0.7,1.6-1.6,1.6h-27C1326.9,1241.7,1326.2,1241,1326.2,1240.1z"/>
				<path id="XMLID_2888_" class="st17" d="M1326.2,1247.8v-0.6c0-0.9,0.7-1.6,1.6-1.6h27c0.9,0,1.6,0.7,1.6,1.6v0.6
					c0,0.9-0.7,1.6-1.6,1.6h-27C1326.9,1249.4,1326.2,1248.7,1326.2,1247.8z"/>
				<path id="XMLID_2887_" class="st17" d="M1326.2,1255.5v-0.6c0-0.9,0.7-1.6,1.6-1.6h27c0.9,0,1.6,0.7,1.6,1.6v0.6
					c0,0.9-0.7,1.6-1.6,1.6h-27C1326.9,1257,1326.2,1256.3,1326.2,1255.5z"/>
				<path id="XMLID_2886_" class="st17" d="M1326.2,1263.1v-0.6c0-0.9,0.7-1.6,1.6-1.6h27c0.9,0,1.6,0.7,1.6,1.6v0.6
					c0,0.9-0.7,1.6-1.6,1.6h-27C1326.9,1264.7,1326.2,1264,1326.2,1263.1z"/>
				<path id="XMLID_2885_" class="st17" d="M1326.2,1270.8v-0.6c0-0.9,0.7-1.6,1.6-1.6h27c0.9,0,1.6,0.7,1.6,1.6v0.6
					c0,0.9-0.7,1.6-1.6,1.6h-27C1326.9,1272.4,1326.2,1271.7,1326.2,1270.8z"/>
			</g>
			<path id="XMLID_2883_" class="st19" d="M1322.9,1276.7v-50.6c0-1.1,0.9-2,2-2h0.8c1.1,0,2,0.9,2,2v50.6c0,1.1-0.9,2-2,2h-0.8
				C1323.8,1278.7,1322.9,1277.8,1322.9,1276.7z"/>
			<path id="XMLID_2882_" class="st19" d="M1382.9,1264.9v-27.1h36.5c1.4,0,2.6,1.2,2.6,2.6v21.8c0,1.4-1.2,2.6-2.6,2.6H1382.9z"/>
		</g>
		<g id="XMLID_2878_">
			
				<rect id="XMLID_2880_" x="488.9" y="1156.9" transform="matrix(-1.836970e-16 1 -1 -1.836970e-16 1755.889 762.4551)" class="st7" width="15.6" height="204.5"/>
			
				<rect id="XMLID_2879_" x="488.9" y="1141.3" transform="matrix(-1.836970e-16 1 -1 -1.836970e-16 1740.2634 746.8295)" class="st11" width="15.6" height="204.5"/>
		</g>
		<g id="XMLID_2875_">
			
				<rect id="XMLID_2877_" x="928.4" y="932.8" transform="matrix(-1.836970e-16 1 -1 -1.836970e-16 2194.2979 321.7874)" class="st20" width="15.6" height="650.5"/>
			
				<rect id="XMLID_2876_" x="928.4" y="917.2" transform="matrix(-1.836970e-16 1 -1 -1.836970e-16 2178.6724 306.1617)" class="st11" width="15.6" height="650.5"/>
		</g>
		<g id="XMLID_2756_">
			<g id="XMLID_2873_">
				<path id="XMLID_2874_" class="st5" d="M808.7,1224c0,8.5,0,17,0,25.5c0,1-5.8,1-5.8,0c0-8.5,0-17,0-25.5
					C803,1223,808.7,1223,808.7,1224L808.7,1224z"/>
			</g>
			<g id="XMLID_2871_">
				<path id="XMLID_2872_" class="st5" d="M852.9,1224c0,8.5,0,17,0,25.5c0,1-5.8,1-5.8,0c0-8.5,0-17,0-25.5
					C847.1,1223,852.9,1223,852.9,1224L852.9,1224z"/>
			</g>
			<g id="XMLID_2869_">
				<path id="XMLID_2870_" class="st5" d="M818.4,1224c0,6.3,0,12.6,0,18.9c0,0.6-3.8,0.6-3.8,0c0-6.3,0-12.6,0-18.9
					C814.5,1223.4,818.4,1223.4,818.4,1224L818.4,1224z"/>
			</g>
			<g id="XMLID_2867_">
				<path id="XMLID_2868_" class="st5" d="M826,1224c0,6.3,0,12.6,0,18.9c0,0.6-3.8,0.6-3.8,0c0-6.3,0-12.6,0-18.9
					C822.2,1223.4,826,1223.4,826,1224L826,1224z"/>
			</g>
			<g id="XMLID_2865_">
				<path id="XMLID_2866_" class="st5" d="M833.7,1224c0,6.3,0,12.6,0,18.9c0,0.6-3.8,0.6-3.8,0c0-6.3,0-12.6,0-18.9
					C829.9,1223.4,833.7,1223.4,833.7,1224L833.7,1224z"/>
			</g>
			<g id="XMLID_2863_">
				<path id="XMLID_2864_" class="st5" d="M841.4,1224c0,6.3,0,12.6,0,18.9c0,0.6-3.8,0.6-3.8,0c0-6.3,0-12.6,0-18.9
					C837.5,1223.4,841.4,1223.4,841.4,1224L841.4,1224z"/>
			</g>
			<g id="XMLID_2861_">
				<path id="XMLID_2862_" class="st5" d="M852.9,1224c0,8.5,0,17,0,25.5c0,1-5.8,1-5.8,0c0-8.5,0-17,0-25.5
					C847.1,1223,852.9,1223,852.9,1224L852.9,1224z"/>
			</g>
			<g id="XMLID_2859_">
				<path id="XMLID_2860_" class="st5" d="M897,1224c0,8.5,0,17,0,25.5c0,1-5.8,1-5.8,0c0-8.5,0-17,0-25.5
					C891.3,1223,897,1223,897,1224L897,1224z"/>
			</g>
			<g id="XMLID_2857_">
				<path id="XMLID_2858_" class="st5" d="M862.5,1224c0,6.3,0,12.6,0,18.9c0,0.6-3.8,0.6-3.8,0c0-6.3,0-12.6,0-18.9
					C858.7,1223.4,862.5,1223.4,862.5,1224L862.5,1224z"/>
			</g>
			<g id="XMLID_2855_">
				<path id="XMLID_2856_" class="st5" d="M870.2,1224c0,6.3,0,12.6,0,18.9c0,0.6-3.8,0.6-3.8,0c0-6.3,0-12.6,0-18.9
					C866.4,1223.4,870.2,1223.4,870.2,1224L870.2,1224z"/>
			</g>
			<g id="XMLID_2853_">
				<path id="XMLID_2854_" class="st5" d="M877.9,1224c0,6.3,0,12.6,0,18.9c0,0.6-3.8,0.6-3.8,0c0-6.3,0-12.6,0-18.9
					C874,1223.4,877.9,1223.4,877.9,1224L877.9,1224z"/>
			</g>
			<g id="XMLID_2851_">
				<path id="XMLID_2852_" class="st5" d="M885.5,1224c0,6.3,0,12.6,0,18.9c0,0.6-3.8,0.6-3.8,0c0-6.3,0-12.6,0-18.9
					C881.7,1223.4,885.5,1223.4,885.5,1224L885.5,1224z"/>
			</g>
			<g id="XMLID_2849_">
				<path id="XMLID_2850_" class="st5" d="M897,1224c0,8.5,0,17,0,25.5c0,1-5.8,1-5.8,0c0-8.5,0-17,0-25.5
					C891.3,1223,897,1223,897,1224L897,1224z"/>
			</g>
			<g id="XMLID_2847_">
				<path id="XMLID_2848_" class="st5" d="M941.2,1224c0,8.5,0,17,0,25.5c0,1-5.8,1-5.8,0c0-8.5,0-17,0-25.5
					C935.4,1223,941.2,1223,941.2,1224L941.2,1224z"/>
			</g>
			<g id="XMLID_2845_">
				<path id="XMLID_2846_" class="st5" d="M906.7,1224c0,6.3,0,12.6,0,18.9c0,0.6-3.8,0.6-3.8,0c0-6.3,0-12.6,0-18.9
					C902.9,1223.4,906.7,1223.4,906.7,1224L906.7,1224z"/>
			</g>
			<g id="XMLID_2843_">
				<path id="XMLID_2844_" class="st5" d="M914.4,1224c0,6.3,0,12.6,0,18.9c0,0.6-3.8,0.6-3.8,0c0-6.3,0-12.6,0-18.9
					C910.5,1223.4,914.4,1223.4,914.4,1224L914.4,1224z"/>
			</g>
			<g id="XMLID_2841_">
				<path id="XMLID_2842_" class="st5" d="M922,1224c0,6.3,0,12.6,0,18.9c0,0.6-3.8,0.6-3.8,0c0-6.3,0-12.6,0-18.9
					C918.2,1223.4,922,1223.4,922,1224L922,1224z"/>
			</g>
			<g id="XMLID_2839_">
				<path id="XMLID_2840_" class="st5" d="M929.7,1224c0,6.3,0,12.6,0,18.9c0,0.6-3.8,0.6-3.8,0c0-6.3,0-12.6,0-18.9
					C925.9,1223.4,929.7,1223.4,929.7,1224L929.7,1224z"/>
			</g>
			<g id="XMLID_2837_">
				<path id="XMLID_2838_" class="st5" d="M941.2,1224c0,8.5,0,17,0,25.5c0,1-5.8,1-5.8,0c0-8.5,0-17,0-25.5
					C935.4,1223,941.2,1223,941.2,1224L941.2,1224z"/>
			</g>
			<g id="XMLID_2835_">
				<path id="XMLID_2836_" class="st5" d="M985.4,1224c0,8.5,0,17,0,25.5c0,1-5.8,1-5.8,0c0-8.5,0-17,0-25.5
					C979.6,1223,985.4,1223,985.4,1224L985.4,1224z"/>
			</g>
			<g id="XMLID_2833_">
				<path id="XMLID_2834_" class="st5" d="M950.8,1224c0,6.3,0,12.6,0,18.9c0,0.6-3.8,0.6-3.8,0c0-6.3,0-12.6,0-18.9
					C947,1223.4,950.8,1223.4,950.8,1224L950.8,1224z"/>
			</g>
			<g id="XMLID_2831_">
				<path id="XMLID_2832_" class="st5" d="M958.5,1224c0,6.3,0,12.6,0,18.9c0,0.6-3.8,0.6-3.8,0c0-6.3,0-12.6,0-18.9
					C954.7,1223.4,958.5,1223.4,958.5,1224L958.5,1224z"/>
			</g>
			<g id="XMLID_2829_">
				<path id="XMLID_2830_" class="st5" d="M966.2,1224c0,6.3,0,12.6,0,18.9c0,0.6-3.8,0.6-3.8,0c0-6.3,0-12.6,0-18.9
					C962.4,1223.4,966.2,1223.4,966.2,1224L966.2,1224z"/>
			</g>
			<g id="XMLID_2827_">
				<path id="XMLID_2828_" class="st5" d="M973.9,1224c0,6.3,0,12.6,0,18.9c0,0.6-3.8,0.6-3.8,0c0-6.3,0-12.6,0-18.9
					C970,1223.4,973.9,1223.4,973.9,1224L973.9,1224z"/>
			</g>
			<g id="XMLID_2825_">
				<path id="XMLID_2826_" class="st5" d="M985.4,1224c0,8.5,0,17,0,25.5c0,1-5.8,1-5.8,0c0-8.5,0-17,0-25.5
					C979.6,1223,985.4,1223,985.4,1224L985.4,1224z"/>
			</g>
			<g id="XMLID_2823_">
				<path id="XMLID_2824_" class="st5" d="M1029.5,1224c0,8.5,0,17,0,25.5c0,1-5.8,1-5.8,0c0-8.5,0-17,0-25.5
					C1023.8,1223,1029.5,1223,1029.5,1224L1029.5,1224z"/>
			</g>
			<g id="XMLID_2821_">
				<path id="XMLID_2822_" class="st5" d="M995,1224c0,6.3,0,12.6,0,18.9c0,0.6-3.8,0.6-3.8,0c0-6.3,0-12.6,0-18.9
					C991.2,1223.4,995,1223.4,995,1224L995,1224z"/>
			</g>
			<g id="XMLID_2819_">
				<path id="XMLID_2820_" class="st5" d="M1002.7,1224c0,6.3,0,12.6,0,18.9c0,0.6-3.8,0.6-3.8,0c0-6.3,0-12.6,0-18.9
					C998.8,1223.4,1002.7,1223.4,1002.7,1224L1002.7,1224z"/>
			</g>
			<g id="XMLID_2817_">
				<path id="XMLID_2818_" class="st5" d="M1010.3,1224c0,6.3,0,12.6,0,18.9c0,0.6-3.8,0.6-3.8,0c0-6.3,0-12.6,0-18.9
					C1006.5,1223.4,1010.3,1223.4,1010.3,1224L1010.3,1224z"/>
			</g>
			<g id="XMLID_2815_">
				<path id="XMLID_2816_" class="st5" d="M1018,1224c0,6.3,0,12.6,0,18.9c0,0.6-3.8,0.6-3.8,0c0-6.3,0-12.6,0-18.9
					C1014.2,1223.4,1018,1223.4,1018,1224L1018,1224z"/>
			</g>
			<g id="XMLID_2813_">
				<path id="XMLID_2814_" class="st5" d="M1029.5,1224c0,8.5,0,17,0,25.5c0,1-5.8,1-5.8,0c0-8.5,0-17,0-25.5
					C1023.8,1223,1029.5,1223,1029.5,1224L1029.5,1224z"/>
			</g>
			<g id="XMLID_2811_">
				<path id="XMLID_2812_" class="st5" d="M1073.7,1224c0,8.5,0,17,0,25.5c0,1-5.8,1-5.8,0c0-8.5,0-17,0-25.5
					C1067.9,1223,1073.7,1223,1073.7,1224L1073.7,1224z"/>
			</g>
			<g id="XMLID_2809_">
				<path id="XMLID_2810_" class="st5" d="M1039.2,1224c0,6.3,0,12.6,0,18.9c0,0.6-3.8,0.6-3.8,0c0-6.3,0-12.6,0-18.9
					C1035.3,1223.4,1039.2,1223.4,1039.2,1224L1039.2,1224z"/>
			</g>
			<g id="XMLID_2807_">
				<path id="XMLID_2808_" class="st5" d="M1046.8,1224c0,6.3,0,12.6,0,18.9c0,0.6-3.8,0.6-3.8,0c0-6.3,0-12.6,0-18.9
					C1043,1223.4,1046.8,1223.4,1046.8,1224L1046.8,1224z"/>
			</g>
			<g id="XMLID_2805_">
				<path id="XMLID_2806_" class="st5" d="M1054.5,1224c0,6.3,0,12.6,0,18.9c0,0.6-3.8,0.6-3.8,0c0-6.3,0-12.6,0-18.9
					C1050.7,1223.4,1054.5,1223.4,1054.5,1224L1054.5,1224z"/>
			</g>
			<g id="XMLID_2803_">
				<path id="XMLID_2804_" class="st5" d="M1062.2,1224c0,6.3,0,12.6,0,18.9c0,0.6-3.8,0.6-3.8,0c0-6.3,0-12.6,0-18.9
					C1058.3,1223.4,1062.2,1223.4,1062.2,1224L1062.2,1224z"/>
			</g>
			<g id="XMLID_2801_">
				<path id="XMLID_2802_" class="st5" d="M1073.7,1224c0,8.5,0,17,0,25.5c0,1-5.8,1-5.8,0c0-8.5,0-17,0-25.5
					C1067.9,1223,1073.7,1223,1073.7,1224L1073.7,1224z"/>
			</g>
			<g id="XMLID_2799_">
				<path id="XMLID_2800_" class="st5" d="M1117.8,1224c0,8.5,0,17,0,25.5c0,1-5.8,1-5.8,0c0-8.5,0-17,0-25.5
					C1112.1,1223,1117.8,1223,1117.8,1224L1117.8,1224z"/>
			</g>
			<g id="XMLID_2797_">
				<path id="XMLID_2798_" class="st5" d="M1083.3,1224c0,6.3,0,12.6,0,18.9c0,0.6-3.8,0.6-3.8,0c0-6.3,0-12.6,0-18.9
					C1079.5,1223.4,1083.3,1223.4,1083.3,1224L1083.3,1224z"/>
			</g>
			<g id="XMLID_2795_">
				<path id="XMLID_2796_" class="st5" d="M1091,1224c0,6.3,0,12.6,0,18.9c0,0.6-3.8,0.6-3.8,0c0-6.3,0-12.6,0-18.9
					C1087.2,1223.4,1091,1223.4,1091,1224L1091,1224z"/>
			</g>
			<g id="XMLID_2793_">
				<path id="XMLID_2794_" class="st5" d="M1098.7,1224c0,6.3,0,12.6,0,18.9c0,0.6-3.8,0.6-3.8,0c0-6.3,0-12.6,0-18.9
					C1094.8,1223.4,1098.7,1223.4,1098.7,1224L1098.7,1224z"/>
			</g>
			<g id="XMLID_2791_">
				<path id="XMLID_2792_" class="st5" d="M1106.3,1224c0,6.3,0,12.6,0,18.9c0,0.6-3.8,0.6-3.8,0c0-6.3,0-12.6,0-18.9
					C1102.5,1223.4,1106.3,1223.4,1106.3,1224L1106.3,1224z"/>
			</g>
			<g id="XMLID_2789_">
				<path id="XMLID_2790_" class="st5" d="M1117.8,1224c0,8.5,0,17,0,25.5c0,1-5.8,1-5.8,0c0-8.5,0-17,0-25.5
					C1112.1,1223,1117.8,1223,1117.8,1224L1117.8,1224z"/>
			</g>
			<g id="XMLID_2787_">
				<path id="XMLID_2788_" class="st5" d="M1162,1224c0,8.5,0,17,0,25.5c0,1-5.8,1-5.8,0c0-8.5,0-17,0-25.5
					C1156.2,1223,1162,1223,1162,1224L1162,1224z"/>
			</g>
			<g id="XMLID_2785_">
				<path id="XMLID_2786_" class="st5" d="M1127.5,1224c0,6.3,0,12.6,0,18.9c0,0.6-3.8,0.6-3.8,0c0-6.3,0-12.6,0-18.9
					C1123.7,1223.4,1127.5,1223.4,1127.5,1224L1127.5,1224z"/>
			</g>
			<g id="XMLID_2783_">
				<path id="XMLID_2784_" class="st5" d="M1135.2,1224c0,6.3,0,12.6,0,18.9c0,0.6-3.8,0.6-3.8,0c0-6.3,0-12.6,0-18.9
					C1131.3,1223.4,1135.2,1223.4,1135.2,1224L1135.2,1224z"/>
			</g>
			<g id="XMLID_2781_">
				<path id="XMLID_2782_" class="st5" d="M1142.8,1224c0,6.3,0,12.6,0,18.9c0,0.6-3.8,0.6-3.8,0c0-6.3,0-12.6,0-18.9
					C1139,1223.4,1142.8,1223.4,1142.8,1224L1142.8,1224z"/>
			</g>
			<g id="XMLID_2779_">
				<path id="XMLID_2780_" class="st5" d="M1150.5,1224c0,6.3,0,12.6,0,18.9c0,0.6-3.8,0.6-3.8,0c0-6.3,0-12.6,0-18.9
					C1146.7,1223.4,1150.5,1223.4,1150.5,1224L1150.5,1224z"/>
			</g>
			<g id="XMLID_2777_">
				<path id="XMLID_2778_" class="st5" d="M1162,1224c0,8.5,0,17,0,25.5c0,1-5.8,1-5.8,0c0-8.5,0-17,0-25.5
					C1156.2,1223,1162,1223,1162,1224L1162,1224z"/>
			</g>
			<g id="XMLID_2775_">
				<path id="XMLID_2776_" class="st5" d="M1206.2,1224c0,8.5,0,17,0,25.5c0,1-5.8,1-5.8,0c0-8.5,0-17,0-25.5
					C1200.4,1223,1206.2,1223,1206.2,1224L1206.2,1224z"/>
			</g>
			<g id="XMLID_2773_">
				<path id="XMLID_2774_" class="st5" d="M1171.7,1224c0,6.3,0,12.6,0,18.9c0,0.6-3.8,0.6-3.8,0c0-6.3,0-12.6,0-18.9
					C1167.8,1223.4,1171.7,1223.4,1171.7,1224L1171.7,1224z"/>
			</g>
			<g id="XMLID_2771_">
				<path id="XMLID_2772_" class="st5" d="M1179.3,1224c0,6.3,0,12.6,0,18.9c0,0.6-3.8,0.6-3.8,0c0-6.3,0-12.6,0-18.9
					C1175.5,1223.4,1179.3,1223.4,1179.3,1224L1179.3,1224z"/>
			</g>
			<g id="XMLID_2769_">
				<path id="XMLID_2770_" class="st5" d="M1187,1224c0,6.3,0,12.6,0,18.9c0,0.6-3.8,0.6-3.8,0c0-6.3,0-12.6,0-18.9
					C1183.2,1223.4,1187,1223.4,1187,1224L1187,1224z"/>
			</g>
			<g id="XMLID_2767_">
				<path id="XMLID_2768_" class="st5" d="M1194.7,1224c0,6.3,0,12.6,0,18.9c0,0.6-3.8,0.6-3.8,0c0-6.3,0-12.6,0-18.9
					C1190.8,1223.4,1194.7,1223.4,1194.7,1224L1194.7,1224z"/>
			</g>
			<g id="XMLID_2765_">
				<path id="XMLID_2766_" class="st5" d="M1206.2,1224c0,8.5,0,17,0,25.5c0,1-5.8,1-5.8,0c0-8.5,0-17,0-25.5
					C1200.4,1223,1206.2,1223,1206.2,1224L1206.2,1224z"/>
			</g>
			<g id="XMLID_2763_">
				<path id="XMLID_2764_" class="st5" d="M1215.8,1224c0,6.3,0,12.6,0,18.9c0,0.6-3.8,0.6-3.8,0c0-6.3,0-12.6,0-18.9
					C1212,1223.4,1215.8,1223.4,1215.8,1224L1215.8,1224z"/>
			</g>
			<g id="XMLID_2761_">
				<path id="XMLID_2762_" class="st5" d="M1223.5,1224c0,6.3,0,12.6,0,18.9c0,0.6-3.8,0.6-3.8,0c0-6.3,0-12.6,0-18.9
					C1219.6,1223.4,1223.5,1223.4,1223.5,1224L1223.5,1224z"/>
			</g>
			<g id="XMLID_2759_">
				<path id="XMLID_2760_" class="st5" d="M1231.2,1224c0,6.3,0,12.6,0,18.9c0,0.6-3.8,0.6-3.8,0c0-6.3,0-12.6,0-18.9
					C1227.3,1223.4,1231.2,1223.4,1231.2,1224L1231.2,1224z"/>
			</g>
			<g id="XMLID_2757_">
				<path id="XMLID_2758_" class="st5" d="M1238.8,1224c0,6.3,0,12.6,0,18.9c0,0.6-3.8,0.6-3.8,0c0-6.3,0-12.6,0-18.9
					C1235,1223.4,1238.8,1223.4,1238.8,1224L1238.8,1224z"/>
			</g>
		</g>
		<path id="XMLID_2755_" class="st5" d="M1249.1,1224.1h3.1c3.3,0,6,2.7,6,6v42.6c0,3.3-2.7,6-6,6h-3.1c-3.3,0-6-2.7-6-6v-42.6
			C1243.1,1226.8,1245.8,1224.1,1249.1,1224.1z"/>
		
			<rect id="XMLID_2754_" x="1258.2" y="1231.1" transform="matrix(-1 -1.224647e-16 1.224647e-16 -1 2559.5942 2502.7195)" class="st5" width="43.2" height="40.6"/>
		<g id="XMLID_2748_">
			<path id="XMLID_2752_" class="st21" d="M1196.6,1257.7h10.8l-2.4-3h2.6l2.4,3v2.7h-13.4V1257.7z"/>
			<path id="XMLID_2749_" class="st21" d="M1196.5,1269.4c0-2.6,1.6-4.5,4-4.5h5.7c2.4,0,4,1.8,4,4.5c0,2.6-1.6,4.5-4,4.5h-5.7
				C1198.1,1273.8,1196.5,1272,1196.5,1269.4z M1198.7,1269.4c0,1.1,0.7,1.8,1.8,1.8h5.6c1.1,0,1.8-0.7,1.8-1.8
				c0-1.1-0.7-1.8-1.8-1.8h-5.6C1199.4,1267.6,1198.7,1268.3,1198.7,1269.4z"/>
		</g>
		<g id="XMLID_2742_">
			<path id="XMLID_2746_" class="st21" d="M1152.4,1253.8h2.2l5.8,5.5c0.6,0.6,1,0.8,1.6,0.8c1,0,1.7-0.7,1.7-1.8
				c0-1.2-0.6-1.7-1.7-1.8v-2.7c0.8,0,1.2,0.1,1.6,0.3c1.5,0.7,2.3,2.2,2.3,4.2c0,2.6-1.6,4.4-3.9,4.4c-1.1,0-1.8-0.3-3.1-1.6
				l-4.4-4.1v5.7h-2.2V1253.8z"/>
			<path id="XMLID_2743_" class="st21" d="M1152.3,1269.4c0-2.6,1.6-4.5,4-4.5h5.7c2.4,0,4,1.8,4,4.5c0,2.6-1.6,4.5-4,4.5h-5.7
				C1153.9,1273.8,1152.3,1272,1152.3,1269.4z M1154.5,1269.4c0,1.1,0.7,1.8,1.8,1.8h5.6c1.1,0,1.8-0.7,1.8-1.8
				c0-1.1-0.7-1.8-1.8-1.8h-5.6C1155.2,1267.6,1154.5,1268.3,1154.5,1269.4z"/>
		</g>
		<g id="XMLID_2736_">
			<path id="XMLID_2740_" class="st21" d="M1114.5,1261.9c-0.6,0.6-1.4,0.9-2.3,0.9c-2.4,0-4-1.8-4-4.7c0-1.4,0.4-2.7,1.2-3.5
				c0.8-0.9,1.7-1.1,2.8-1.2v2.7c-1.2,0.1-1.8,0.8-1.8,2c0,1.2,0.7,2,1.9,2c1.2,0,1.9-0.8,1.9-2.1v-0.4h2.1v0.4
				c0,1.2,0.6,1.9,1.7,1.9c1,0,1.7-0.7,1.7-1.8c0-1.1-0.6-1.7-1.6-1.8v-2.7c0.8,0.1,1.1,0.1,1.6,0.4c1.4,0.7,2.3,2.2,2.3,4.2
				c0,2.6-1.6,4.5-3.9,4.5c-0.8,0-1.5-0.2-2.1-0.8c-0.3-0.2-0.4-0.4-0.7-0.9C1114.9,1261.4,1114.8,1261.6,1114.5,1261.9z"/>
			<path id="XMLID_2737_" class="st21" d="M1108.1,1269.4c0-2.6,1.6-4.5,4-4.5h5.7c2.4,0,4,1.8,4,4.5c0,2.6-1.6,4.5-4,4.5h-5.7
				C1109.8,1273.8,1108.1,1272,1108.1,1269.4z M1110.3,1269.4c0,1.1,0.7,1.8,1.8,1.8h5.6c1.1,0,1.8-0.7,1.8-1.8
				c0-1.1-0.7-1.8-1.8-1.8h-5.6C1111.1,1267.6,1110.3,1268.3,1110.3,1269.4z"/>
		</g>
		<path id="XMLID_2734_" class="st21" d="M1066,1261.8h-1.9v-2.6h1.9v-6h2.3l9.2,5v2.9l-9.2-5v3.1h2.5v2.6h-2.5v1.3h-2.3V1261.8z"/>
		<path id="XMLID_2731_" class="st21" d="M1064,1269.4c0-2.6,1.6-4.5,4-4.5h5.7c2.4,0,4,1.8,4,4.5c0,2.6-1.6,4.5-4,4.5h-5.7
			C1065.6,1273.8,1064,1272,1064,1269.4z M1066.2,1269.4c0,1.1,0.7,1.8,1.8,1.8h5.6c1.1,0,1.8-0.7,1.8-1.8c0-1.1-0.7-1.8-1.8-1.8
			h-5.6C1066.9,1267.6,1066.2,1268.3,1066.2,1269.4z"/>
		<g id="XMLID_2725_">
			<path id="XMLID_2729_" class="st21" d="M1028.9,1258.7c0,1.1-0.3,2-0.9,2.7c-0.8,0.9-1.9,1.3-3.6,1.3c-1.7,0-2.7-0.4-3.5-1.3
				c-0.7-0.8-1.1-1.9-1.1-3.2c0-1.4,0.4-2.5,1.1-3.3c0.4-0.5,0.9-0.8,1.5-1c0.4-0.1,0.6-0.2,1.3-0.2v2.7c-1.2,0.2-1.7,0.7-1.7,1.8
				c0,1.3,0.7,1.9,2.4,1.9c1.7,0,2.4-0.6,2.4-1.8c0-0.9-0.3-1.5-1.1-1.8v-2.5h7.6v8.4h-2.2v-5.9h-2.9
				C1028.7,1257.1,1028.9,1257.8,1028.9,1258.7z"/>
			<path id="XMLID_2726_" class="st21" d="M1019.8,1269.4c0-2.6,1.6-4.5,4-4.5h5.7c2.4,0,4,1.8,4,4.5c0,2.6-1.6,4.5-4,4.5h-5.7
				C1021.5,1273.8,1019.8,1272,1019.8,1269.4z M1022,1269.4c0,1.1,0.7,1.8,1.8,1.8h5.6c1.1,0,1.8-0.7,1.8-1.8c0-1.1-0.7-1.8-1.8-1.8
				h-5.6C1022.7,1267.6,1022,1268.3,1022,1269.4z"/>
		</g>
		<path id="XMLID_2722_" class="st21" d="M983.8,1258.8c0,2.2-1.7,3.9-4,3.9c-2.5,0-4.2-1.8-4.2-4.6c0-2.7,1.6-4.6,4.1-4.6
			c1,0,1.8,0.3,3.6,1.2l5.8,3.1v2.9l-5.5-3.1C983.8,1258.1,983.8,1258.4,983.8,1258.8z M981.8,1258.1c0-1.2-0.8-1.9-2-1.9
			c-1.2,0-2,0.7-2,1.9c0,1.1,0.8,1.9,1.9,1.9C981,1260,981.8,1259.3,981.8,1258.1z"/>
		<path id="XMLID_2719_" class="st21" d="M975.6,1269.4c0-2.6,1.6-4.5,4-4.5h5.7c2.4,0,4,1.8,4,4.5c0,2.6-1.6,4.5-4,4.5h-5.7
			C977.3,1273.8,975.6,1272,975.6,1269.4z M977.9,1269.4c0,1.1,0.7,1.8,1.8,1.8h5.6c1.1,0,1.8-0.7,1.8-1.8c0-1.1-0.7-1.8-1.8-1.8
			h-5.6C978.6,1267.6,977.9,1268.3,977.9,1269.4z"/>
		<g id="XMLID_2713_">
			<path id="XMLID_2717_" class="st21" d="M931.6,1258.2v-2.9l11.2,4.8v-3.9h-2.1v-2.6h4.3v9.4h-2.2L931.6,1258.2z"/>
			<path id="XMLID_2714_" class="st21" d="M931.5,1269.4c0-2.6,1.6-4.5,4-4.5h5.7c2.4,0,4,1.8,4,4.5c0,2.6-1.6,4.5-4,4.5h-5.7
				C933.1,1273.8,931.5,1272,931.5,1269.4z M933.7,1269.4c0,1.1,0.7,1.8,1.8,1.8h5.6c1.1,0,1.8-0.7,1.8-1.8c0-1.1-0.7-1.8-1.8-1.8
				h-5.6C934.4,1267.6,933.7,1268.3,933.7,1269.4z"/>
		</g>
		<g id="XMLID_2705_">
			<path id="XMLID_2709_" class="st21" d="M893.4,1262.1c-0.6,0.5-1.3,0.7-2.1,0.7c-2.4,0-4-1.9-4-4.7s1.6-4.7,4-4.7
				c0.8,0,1.5,0.2,2.2,0.8c0.3,0.3,0.5,0.5,0.9,1.1c0.5-0.7,0.7-0.9,1.3-1.2c0.5-0.3,1-0.4,1.5-0.4c2.2,0,3.8,1.9,3.8,4.5
				c0,2.6-1.6,4.5-3.8,4.5c-0.6,0-1.1-0.1-1.6-0.4c-0.5-0.3-0.8-0.5-1.3-1.2C894,1261.6,893.8,1261.8,893.4,1262.1z M893.3,1258.2
				c0-1.1-0.8-2-1.9-2s-1.8,0.9-1.8,2c0,1.1,0.8,2,1.8,2C892.4,1260.2,893.3,1259.3,893.3,1258.2z M898.8,1258.2
				c0-1.1-0.7-1.8-1.7-1.8c-1,0-1.7,0.8-1.7,1.8c0,1,0.7,1.8,1.7,1.8C898,1260,898.8,1259.2,898.8,1258.2z"/>
			<path id="XMLID_2706_" class="st21" d="M887.3,1269.4c0-2.6,1.6-4.5,4-4.5h5.7c2.4,0,4,1.8,4,4.5c0,2.6-1.6,4.5-4,4.5h-5.7
				C889,1273.8,887.3,1272,887.3,1269.4z M889.5,1269.4c0,1.1,0.7,1.8,1.8,1.8h5.6c1.1,0,1.8-0.7,1.8-1.8c0-1.1-0.7-1.8-1.8-1.8
				h-5.6C890.3,1267.6,889.5,1268.3,889.5,1269.4z"/>
		</g>
		<g id="XMLID_2698_">
			<path id="XMLID_2702_" class="st21" d="M848.7,1257.5c0-2.3,1.7-3.9,4-3.9c2.5,0,4.2,1.8,4.2,4.6c0,2.7-1.6,4.6-4.1,4.6
				c-1,0-1.9-0.3-3.6-1.2l-5.8-3.1v-2.9l5.6,3.1C848.7,1258.2,848.7,1257.9,848.7,1257.5z M854.6,1258.2c0-1.2-0.8-1.9-2-1.9
				c-1.2,0-2,0.7-2,1.9c0,1.1,0.8,1.9,1.9,1.9C853.9,1260.1,854.6,1259.3,854.6,1258.2z"/>
			<path id="XMLID_2699_" class="st21" d="M843.2,1269.4c0-2.6,1.6-4.5,4-4.5h5.7c2.4,0,4,1.8,4,4.5c0,2.6-1.6,4.5-4,4.5h-5.7
				C844.8,1273.8,843.2,1272,843.2,1269.4z M845.4,1269.4c0,1.1,0.7,1.8,1.8,1.8h5.6c1.1,0,1.8-0.7,1.8-1.8c0-1.1-0.7-1.8-1.8-1.8
				h-5.6C846.1,1267.6,845.4,1268.3,845.4,1269.4z"/>
		</g>
		<g id="XMLID_2689_">
			<path id="XMLID_2696_" class="st21" d="M799.1,1254.4h10.8l-2.4-3h2.6l2.4,3v2.7h-13.4V1254.4z"/>
			<path id="XMLID_2693_" class="st21" d="M799,1266.1c0-2.6,1.6-4.5,4-4.5h5.7c2.4,0,4,1.8,4,4.5c0,2.6-1.6,4.5-4,4.5H803
				C800.6,1270.5,799,1268.7,799,1266.1z M801.2,1266.1c0,1.1,0.7,1.8,1.8,1.8h5.6c1.1,0,1.8-0.7,1.8-1.8c0-1.1-0.7-1.8-1.8-1.8H803
				C801.9,1264.3,801.2,1265,801.2,1266.1z"/>
			<path id="XMLID_2690_" class="st21" d="M799,1277.3c0-2.6,1.6-4.5,4-4.5h5.7c2.4,0,4,1.8,4,4.5c0,2.6-1.6,4.5-4,4.5H803
				C800.6,1281.7,799,1279.9,799,1277.3z M801.2,1277.3c0,1.1,0.7,1.8,1.8,1.8h5.6c1.1,0,1.8-0.7,1.8-1.8s-0.7-1.8-1.8-1.8H803
				C801.9,1275.5,801.2,1276.2,801.2,1277.3z"/>
		</g>
		<path id="XMLID_2608_" class="st17" d="M606.4,1171.2h0.3c4.5,0,8.1,3.6,8.1,8.1v141.8c0,4.5-3.6,8.1-8.1,8.1h-0.3
			c-4.5,0-8.1-3.6-8.1-8.1v-141.8C598.3,1174.8,602,1171.2,606.4,1171.2z"/>
		<g id="XMLID_2605_">
			<path id="XMLID_2607_" class="st17" d="M391.2,1305.7c0.2,0,0.5-0.1,0.6-0.2c0.1-0.1,0.2-0.2,0.3-0.3c0.3-0.6,0.5-1.2,0.6-1.8
				c0.1-0.3,0.1-0.6,0.2-0.9c0.4-1.8,0.6-3.6,0.8-5.4c0-0.3,0.1-0.6,0.1-0.9c0-0.3,0.1-0.6,0.1-1c0-0.3,0.1-0.7,0.1-1
				c0-0.4,0.1-0.7,0.1-1.1c0-0.4,0.1-0.7,0.1-1.1c0-0.4,0.1-0.8,0.1-1.1c0-0.4,0.1-0.8,0.1-1.2c0-0.4,0.1-0.8,0.1-1.2
				c0-0.4,0.1-0.8,0.1-1.2c0-0.4,0.1-0.9,0.1-1.3c0-0.4,0.1-0.9,0.1-1.3c0-0.5,0.1-0.9,0.1-1.4c0-0.5,0-0.9,0.1-1.4
				c0-0.5,0-0.9,0.1-1.4c0-0.5,0-1,0.1-1.5c0-0.5,0-1,0.1-1.5c0-0.5,0-1,0.1-1.5c0-0.5,0-1,0.1-1.5c0-0.5,0-1,0.1-1.6
				c0-0.5,0-1.1,0-1.6c0-0.5,0-1.1,0-1.6c0-0.5,0-1.1,0-1.6c0-0.6,0-1.1,0-1.7c0-0.6,0-1.1,0-1.7c0-0.6,0-1.1,0-1.7
				c0-0.6,0-1.2,0-1.7c0-0.6,0-1.2,0-1.8c0-0.6,0-1.2,0-1.8c0-0.6,0-1.2,0-1.8c0-0.6,0-1.2,0-1.8c0-0.6,0-1.2,0-1.8
				c0-0.4,0-0.8,0-1.2c0-0.4,0-0.8,0-1.2c0-0.6,0-1.2,0-1.8c0-0.6,0-1.2,0-1.8c0-0.6,0-1.2,0-1.8c0-0.6,0-1.2,0-1.8
				c0-0.6,0-1.2,0-1.8c0-0.6,0-1.2,0-1.7c0-0.6,0-1.1,0-1.7c0-0.6,0-1.1,0-1.7c0-0.6,0-1.1,0-1.7c0-0.5,0-1.1,0-1.6
				c0-0.5,0-1.1,0-1.6c0-0.5,0-1.1,0-1.6c0-0.5,0-1-0.1-1.6c0-0.5,0-1-0.1-1.5c0-0.5,0-1-0.1-1.5c0-0.5,0-1-0.1-1.5
				c0-0.5,0-1-0.1-1.5c0-0.5,0-0.9-0.1-1.4c0-0.5,0-0.9-0.1-1.4c0-0.5,0-0.9-0.1-1.4c0-0.4-0.1-0.9-0.1-1.3c0-0.4-0.1-0.9-0.1-1.3
				c0-0.4-0.1-0.8-0.1-1.2c0-0.4-0.1-0.8-0.1-1.2c0-0.4-0.1-0.8-0.1-1.2c0-0.4-0.1-0.8-0.1-1.1c0-0.4-0.1-0.7-0.1-1.1
				c0-0.4-0.1-0.7-0.1-1.1c0-0.3-0.1-0.7-0.1-1c0-0.3-0.1-0.6-0.1-1c0-0.3-0.1-0.6-0.1-0.9c-0.2-1.8-0.4-3.6-0.8-5.4
				c-0.1-0.3-0.1-0.6-0.2-0.9c-0.1-0.6-0.3-1.2-0.6-1.8c-0.1-0.1-0.1-0.2-0.3-0.3c-0.2-0.1-0.4-0.1-0.6-0.2
				c-0.7-0.1-1.5-0.2-2.2-0.2c-1.6,0-3.3,0.2-4.6,0.6c-1.7,0.5-2.7,1.4-2.7,2.4c0,0,0,26,0,51.6s0,51.6,0,51.6c0,0.9,1,1.8,2.7,2.4
				c1.3,0.4,3,0.6,4.6,0.6C389.7,1305.9,390.5,1305.8,391.2,1305.7z"/>
			<path id="XMLID_2606_" class="st17" d="M391.8,1305.6c0.1,0,0.2-0.1,0.2-0.1c0.2-0.2,0.3-0.5,0.4-0.7c0-0.1,0.1-0.2,0.1-0.3
				c0-0.1,0.1-0.3,0.1-0.4c0-0.1,0.1-0.3,0.1-0.4c0-0.2,0.1-0.3,0.1-0.5c0-0.2,0.1-0.4,0.1-0.6c0-0.2,0.1-0.4,0.1-0.6
				c0-0.2,0.1-0.4,0.1-0.7c0-0.2,0.1-0.5,0.1-0.7c0-0.2,0.1-0.5,0.1-0.7c0-0.3,0.1-0.5,0.1-0.8c0-0.3,0.1-0.6,0.1-0.8
				c0-0.3,0.1-0.6,0.1-0.9c0-0.3,0.1-0.6,0.1-0.9c0-0.3,0.1-0.6,0.1-1c0-0.3,0.1-0.7,0.1-1c0-0.4,0.1-0.7,0.1-1.1
				c0-0.4,0.1-0.7,0.1-1.1c0-0.4,0.1-0.8,0.1-1.1c0-0.4,0.1-0.8,0.1-1.2c0-0.4,0.1-0.8,0.1-1.2c0-0.4,0.1-0.8,0.1-1.2
				c0-0.4,0.1-0.9,0.1-1.3c0-0.4,0.1-0.9,0.1-1.3c0-0.5,0.1-0.9,0.1-1.4c0-0.5,0-0.9,0.1-1.4c0-0.5,0-0.9,0.1-1.4c0-0.5,0-1,0.1-1.5
				c0-0.5,0-1,0.1-1.5c0-0.5,0-1,0.1-1.5c0-0.5,0-1,0.1-1.5c0-0.5,0-1,0.1-1.6c0-0.5,0-1.1,0-1.6c0-0.5,0-1.1,0-1.6
				c0-0.5,0-1.1,0-1.6c0-0.6,0-1.1,0-1.7c0-0.6,0-1.1,0-1.7c0-0.6,0-1.1,0-1.7c0-0.6,0-1.2,0-1.7c0-0.6,0-1.2,0-1.8
				c0-0.6,0-1.2,0-1.8c0-0.6,0-1.2,0-1.8c0-0.6,0-1.2,0-1.8c0-0.6,0-1.2,0-1.8c0-0.4,0-0.8,0-1.2c0-0.4,0-0.8,0-1.2
				c0-0.6,0-1.2,0-1.8c0-0.6,0-1.2,0-1.8c0-0.6,0-1.2,0-1.8c0-0.6,0-1.2,0-1.8c0-0.6,0-1.2,0-1.8c0-0.6,0-1.2,0-1.7
				c0-0.6,0-1.1,0-1.7c0-0.6,0-1.1,0-1.7c0-0.6,0-1.1,0-1.7c0-0.5,0-1.1,0-1.6c0-0.5,0-1.1,0-1.6c0-0.5,0-1.1,0-1.6
				c0-0.5,0-1-0.1-1.6c0-0.5,0-1-0.1-1.5c0-0.5,0-1-0.1-1.5c0-0.5,0-1-0.1-1.5c0-0.5,0-1-0.1-1.5c0-0.5,0-0.9-0.1-1.4
				c0-0.5,0-0.9-0.1-1.4c0-0.5,0-0.9-0.1-1.4c0-0.4-0.1-0.9-0.1-1.3c0-0.4-0.1-0.9-0.1-1.3c0-0.4-0.1-0.8-0.1-1.2
				c0-0.4-0.1-0.8-0.1-1.2c0-0.4-0.1-0.8-0.1-1.2c0-0.4-0.1-0.8-0.1-1.1c0-0.4-0.1-0.7-0.1-1.1c0-0.4-0.1-0.7-0.1-1.1
				c0-0.3-0.1-0.7-0.1-1c0-0.3-0.1-0.6-0.1-1c0-0.3-0.1-0.6-0.1-0.9c0-0.3-0.1-0.6-0.1-0.9c0-0.3-0.1-0.6-0.1-0.8
				c0-0.3-0.1-0.5-0.1-0.8c0-0.3-0.1-0.5-0.1-0.7c0-0.2-0.1-0.5-0.1-0.7c0-0.2-0.1-0.4-0.1-0.7c0-0.2-0.1-0.4-0.1-0.6
				c0-0.2-0.1-0.4-0.1-0.6c0-0.2-0.1-0.3-0.1-0.5c0-0.1-0.1-0.3-0.1-0.4c0-0.1-0.1-0.3-0.1-0.4c0-0.1-0.1-0.2-0.1-0.3
				c-0.1-0.2-0.2-0.5-0.4-0.7c0-0.1-0.1-0.1-0.2-0.1c-0.1,0-0.2,0-0.3,0c-0.1,0-0.1,0-0.2,0c-0.1,0-0.1,0.1-0.1,0.1
				c0,0.1-0.1,0.1-0.1,0.2c0,0.1-0.1,0.2-0.1,0.2c0,0.1-0.1,0.2-0.1,0.3c0,0.1-0.1,0.2-0.1,0.4c0,0.1-0.1,0.3-0.1,0.4
				c0,0.2-0.1,0.3-0.1,0.5c0,0.2-0.1,0.3-0.1,0.5c0,0.2-0.1,0.4-0.1,0.6c0,0.2-0.1,0.4-0.1,0.6c0,0.2-0.1,0.4-0.1,0.7
				c0,0.2-0.1,0.5-0.1,0.7c0,0.3-0.1,0.5-0.1,0.8c0,0.3-0.1,0.5-0.1,0.8c0,0.3-0.1,0.6-0.1,0.9c0,0.3-0.1,0.6-0.1,0.9
				c0,0.3-0.1,0.6-0.1,1c0,0.3-0.1,0.7-0.1,1c0,0.3-0.1,0.7-0.1,1c0,0.4-0.1,0.7-0.1,1.1c0,0.4-0.1,0.8-0.1,1.1
				c0,0.4-0.1,0.8-0.1,1.2c0,0.4-0.1,0.8-0.1,1.2c0,0.4-0.1,0.8-0.1,1.2c0,0.4-0.1,0.9-0.1,1.3c0,0.4,0,0.9-0.1,1.3
				c0,0.5,0,0.9-0.1,1.4c0,0.5,0,0.9-0.1,1.4c0,0.5,0,0.9-0.1,1.4c0,0.5,0,1-0.1,1.4c0,0.5,0,1-0.1,1.5c0,0.5,0,1-0.1,1.5
				c0,0.5,0,1-0.1,1.5c0,0.5,0,1-0.1,1.6c0,0.5,0,1.1,0,1.6c0,0.5,0,1.1,0,1.6c0,0.5,0,1.1,0,1.6c0,0.6,0,1.1,0,1.7
				c0,0.6,0,1.1,0,1.7c0,0.6,0,1.1,0,1.7c0,0.6,0,1.2,0,1.7c0,0.6,0,1.2,0,1.8c0,0.6,0,1.2,0,1.8c0,0.6,0,1.2,0,1.8
				c0,0.6,0,1.2,0,1.8c0,0.6,0,1.2,0,1.8c0,0.3,0,0.6,0,0.9c0,0.4,0,0.8,0,1.2c0,0.4,0,0.8,0,1.2c0,0.3,0,0.6,0,0.9
				c0,0.6,0,1.2,0,1.8c0,0.6,0,1.2,0,1.8c0,0.6,0,1.2,0,1.8c0,0.6,0,1.2,0,1.8c0,0.6,0,1.2,0,1.8c0,0.6,0,1.2,0,1.7
				c0,0.6,0,1.1,0,1.7c0,0.6,0,1.1,0,1.7c0,0.6,0,1.1,0,1.7c0,0.5,0,1.1,0,1.6c0,0.5,0,1.1,0,1.6c0,0.5,0,1.1,0,1.6
				c0,0.5,0,1,0.1,1.6c0,0.5,0,1,0.1,1.5c0,0.5,0,1,0.1,1.5c0,0.5,0,1,0.1,1.5c0,0.5,0,1,0.1,1.4c0,0.5,0,0.9,0.1,1.4
				c0,0.5,0,0.9,0.1,1.4c0,0.5,0,0.9,0.1,1.4c0,0.4,0,0.9,0.1,1.3c0,0.4,0.1,0.9,0.1,1.3c0,0.4,0.1,0.8,0.1,1.2
				c0,0.4,0.1,0.8,0.1,1.2c0,0.4,0.1,0.8,0.1,1.2c0,0.4,0.1,0.8,0.1,1.1c0,0.4,0.1,0.7,0.1,1.1c0,0.3,0.1,0.7,0.1,1
				c0,0.3,0.1,0.7,0.1,1c0,0.3,0.1,0.6,0.1,1c0,0.3,0.1,0.6,0.1,0.9c0,0.3,0.1,0.6,0.1,0.9c0,0.3,0.1,0.5,0.1,0.8
				c0,0.3,0.1,0.5,0.1,0.8c0,0.2,0.1,0.5,0.1,0.7c0,0.2,0.1,0.4,0.1,0.7c0,0.2,0.1,0.4,0.1,0.6c0,0.2,0.1,0.4,0.1,0.6
				c0,0.2,0.1,0.3,0.1,0.5c0,0.2,0.1,0.3,0.1,0.5c0,0.1,0.1,0.3,0.1,0.4c0,0.1,0.1,0.2,0.1,0.4c0,0.1,0.1,0.2,0.1,0.3
				c0,0.1,0.1,0.2,0.1,0.2c0,0.1,0.1,0.1,0.1,0.2c0,0,0.1,0.1,0.1,0.1c0,0,0.1,0,0.2,0C391.6,1305.6,391.7,1305.6,391.8,1305.6z"/>
		</g>
	</g>
	<g id="XMLID_1575_">
		<g id="XMLID_1589_">
			
				<rect id="XMLID_1800_" x="1234.4" y="1303.9" transform="matrix(-1.836970e-16 1 -1 -1.836970e-16 2571.1157 49.4221)" class="st16" width="53" height="12.8"/>
			<g id="XMLID_1795_">
				<path id="XMLID_1799_" class="st0" d="M540.2,1282.5h705.5c4.9,0,8.8,3.9,8.8,8.8v37.9c0,4.9-3.9,8.8-8.8,8.8H540.2
					c-4.9,0-8.8-3.9-8.8-8.8v-37.9C531.4,1286.4,535.3,1282.5,540.2,1282.5z"/>
				<path id="XMLID_1796_" class="st16" d="M527.3,1329.2v-37.9c0-7.1,5.8-12.8,12.8-12.8h705.5c7.1,0,12.8,5.7,12.8,12.8v37.9
					c0,7.1-5.8,12.8-12.8,12.8H540.2C533.1,1342.1,527.3,1336.3,527.3,1329.2z M1250.4,1291.3c0-2.6-2.1-4.8-4.8-4.8H540.2
					c-2.6,0-4.8,2.1-4.8,4.8v37.9c0,2.6,2.1,4.8,4.8,4.8h705.5c2.6,0,4.8-2.1,4.8-4.8V1291.3z"/>
			</g>
			<path id="XMLID_1794_" class="st5" d="M1249.5,1333.1c0.9-3.1,1.7-6.1,2.3-9.2c0.8-4.5,1.3-9,1.4-13.6c-0.1-4.5-0.5-9.1-1.4-13.6
				c-0.6-3.1-1.3-6.2-2.3-9.2c-0.7-2.4-1.5-5-5.3-5c-3,0-5.4,1.9-5.4,4.2v23.5v23.5c0,2.3,2.4,4.2,5.4,4.2
				C1248,1338,1248.7,1335.5,1249.5,1333.1z"/>
			<polygon id="XMLID_1793_" class="st17" points="1358.6,1311.7 1483.2,1311.7 1472.3,1308.9 1358.6,1308.9 			"/>
			<g id="XMLID_1780_">
				<path id="XMLID_1792_" class="st18" d="M1360.5,1323.4v-27.1c0-1.2-15.6-7.3-15.6-7.3c-0.2-0.1-0.4-0.1-0.7-0.1h-74.8
					c-1.2,0-2.2,1.3-2.2,2.8v37.1c0,1.6,1,2.8,2.2,2.8h74.8c0.2,0,0.5,0,0.7-0.1C1344.9,1331.5,1360.5,1324.6,1360.5,1323.4z"/>
				
					<rect id="XMLID_1791_" x="1292.2" y="1274.7" transform="matrix(-1.836970e-16 1 -1 -1.836970e-16 2612.3108 8.2269)" class="st17" width="19.6" height="71.2"/>
				
					<rect id="XMLID_1790_" x="1302.6" y="1308.2" transform="matrix(-1.836970e-16 1 -1 -1.836970e-16 2634.2046 -13.6667)" class="st19" width="42.7" height="4.1"/>
				<g id="XMLID_1783_">
					<path id="XMLID_1789_" class="st17" d="M1267.3,1291.1v-0.6c0-0.9,0.7-1.6,1.6-1.6h27.5c0.9,0,1.6,0.7,1.6,1.6v0.6
						c0,0.9-0.7,1.6-1.6,1.6h-27.5C1268,1292.7,1267.3,1291.9,1267.3,1291.1z"/>
					<path id="XMLID_1788_" class="st17" d="M1267.3,1298.9v-0.6c0-0.9,0.7-1.6,1.6-1.6h27.5c0.9,0,1.6,0.7,1.6,1.6v0.6
						c0,0.9-0.7,1.6-1.6,1.6h-27.5C1268,1300.5,1267.3,1299.7,1267.3,1298.9z"/>
					<path id="XMLID_1787_" class="st17" d="M1267.3,1306.7v-0.6c0-0.9,0.7-1.6,1.6-1.6h27.5c0.9,0,1.6,0.7,1.6,1.6v0.6
						c0,0.9-0.7,1.6-1.6,1.6h-27.5C1268,1308.2,1267.3,1307.5,1267.3,1306.7z"/>
					<path id="XMLID_1786_" class="st17" d="M1267.3,1314.5v-0.6c0-0.9,0.7-1.6,1.6-1.6h27.5c0.9,0,1.6,0.7,1.6,1.6v0.6
						c0,0.9-0.7,1.6-1.6,1.6h-27.5C1268,1316,1267.3,1315.3,1267.3,1314.5z"/>
					<path id="XMLID_1785_" class="st17" d="M1267.3,1322.3v-0.6c0-0.9,0.7-1.6,1.6-1.6h27.5c0.9,0,1.6,0.7,1.6,1.6v0.6
						c0,0.9-0.7,1.6-1.6,1.6h-27.5C1268,1323.8,1267.3,1323.1,1267.3,1322.3z"/>
					<path id="XMLID_1784_" class="st17" d="M1267.3,1330.1v-0.6c0-0.9,0.7-1.6,1.6-1.6h27.5c0.9,0,1.6,0.7,1.6,1.6v0.6
						c0,0.9-0.7,1.6-1.6,1.6h-27.5C1268,1331.6,1267.3,1330.9,1267.3,1330.1z"/>
				</g>
				<path id="XMLID_1782_" class="st19" d="M1264,1336v-51.5c0-1.1,0.9-2,2-2h0.8c1.1,0,2,0.9,2,2v51.5c0,1.1-0.9,2-2,2h-0.8
					C1264.9,1338,1264,1337.1,1264,1336z"/>
				<path id="XMLID_1781_" class="st19" d="M1325,1324v-27.5h37.1c1.5,0,2.7,1.2,2.7,2.7v22.2c0,1.5-1.2,2.7-2.7,2.7H1325z"/>
			</g>
			<g id="XMLID_1777_">
				
					<rect id="XMLID_1779_" x="862.8" y="986.2" transform="matrix(-1.836970e-16 1 -1 -1.836970e-16 2187.7632 446.3684)" class="st20" width="15.9" height="661.6"/>
				
					<rect id="XMLID_1778_" x="862.8" y="970.3" transform="matrix(-1.836970e-16 1 -1 -1.836970e-16 2171.8704 430.4755)" class="st11" width="15.9" height="661.6"/>
			</g>
			<g id="XMLID_1658_">
				<g id="XMLID_1775_">
					<path id="XMLID_1776_" class="st5" d="M741,1282.4c0,8.6,0,17.3,0,25.9c0,1-5.9,1-5.9,0c0-8.6,0-17.3,0-25.9
						C735.1,1281.5,741,1281.5,741,1282.4L741,1282.4z"/>
				</g>
				<g id="XMLID_1773_">
					<path id="XMLID_1774_" class="st5" d="M785.9,1282.4c0,8.6,0,17.3,0,25.9c0,1-5.9,1-5.9,0c0-8.6,0-17.3,0-25.9
						C780,1281.5,785.9,1281.5,785.9,1282.4L785.9,1282.4z"/>
				</g>
				<g id="XMLID_1771_">
					<path id="XMLID_1772_" class="st5" d="M750.8,1282.4c0,6.4,0,12.8,0,19.2c0,0.7-3.9,0.7-3.9,0c0-6.4,0-12.8,0-19.2
						C746.9,1281.8,750.8,1281.8,750.8,1282.4L750.8,1282.4z"/>
				</g>
				<g id="XMLID_1769_">
					<path id="XMLID_1770_" class="st5" d="M758.6,1282.4c0,6.4,0,12.8,0,19.2c0,0.7-3.9,0.7-3.9,0c0-6.4,0-12.8,0-19.2
						C754.7,1281.8,758.6,1281.8,758.6,1282.4L758.6,1282.4z"/>
				</g>
				<g id="XMLID_1767_">
					<path id="XMLID_1768_" class="st5" d="M766.4,1282.4c0,6.4,0,12.8,0,19.2c0,0.7-3.9,0.7-3.9,0c0-6.4,0-12.8,0-19.2
						C762.5,1281.8,766.4,1281.8,766.4,1282.4L766.4,1282.4z"/>
				</g>
				<g id="XMLID_1765_">
					<path id="XMLID_1766_" class="st5" d="M774.2,1282.4c0,6.4,0,12.8,0,19.2c0,0.7-3.9,0.7-3.9,0c0-6.4,0-12.8,0-19.2
						C770.3,1281.8,774.2,1281.8,774.2,1282.4L774.2,1282.4z"/>
				</g>
				<g id="XMLID_1763_">
					<path id="XMLID_1764_" class="st5" d="M785.9,1282.4c0,8.6,0,17.3,0,25.9c0,1-5.9,1-5.9,0c0-8.6,0-17.3,0-25.9
						C780,1281.5,785.9,1281.5,785.9,1282.4L785.9,1282.4z"/>
				</g>
				<g id="XMLID_1761_">
					<path id="XMLID_1762_" class="st5" d="M830.8,1282.4c0,8.6,0,17.3,0,25.9c0,1-5.9,1-5.9,0c0-8.6,0-17.3,0-25.9
						C825,1281.5,830.8,1281.5,830.8,1282.4L830.8,1282.4z"/>
				</g>
				<g id="XMLID_1759_">
					<path id="XMLID_1760_" class="st5" d="M795.7,1282.4c0,6.4,0,12.8,0,19.2c0,0.7-3.9,0.7-3.9,0c0-6.4,0-12.8,0-19.2
						C791.8,1281.8,795.7,1281.8,795.7,1282.4L795.7,1282.4z"/>
				</g>
				<g id="XMLID_1757_">
					<path id="XMLID_1758_" class="st5" d="M803.5,1282.4c0,6.4,0,12.8,0,19.2c0,0.7-3.9,0.7-3.9,0c0-6.4,0-12.8,0-19.2
						C799.6,1281.8,803.5,1281.8,803.5,1282.4L803.5,1282.4z"/>
				</g>
				<g id="XMLID_1755_">
					<path id="XMLID_1756_" class="st5" d="M811.3,1282.4c0,6.4,0,12.8,0,19.2c0,0.7-3.9,0.7-3.9,0c0-6.4,0-12.8,0-19.2
						C807.4,1281.8,811.3,1281.8,811.3,1282.4L811.3,1282.4z"/>
				</g>
				<g id="XMLID_1753_">
					<path id="XMLID_1754_" class="st5" d="M819.1,1282.4c0,6.4,0,12.8,0,19.2c0,0.7-3.9,0.7-3.9,0c0-6.4,0-12.8,0-19.2
						C815.2,1281.8,819.1,1281.8,819.1,1282.4L819.1,1282.4z"/>
				</g>
				<g id="XMLID_1751_">
					<path id="XMLID_1752_" class="st5" d="M830.8,1282.4c0,8.6,0,17.3,0,25.9c0,1-5.9,1-5.9,0c0-8.6,0-17.3,0-25.9
						C825,1281.5,830.8,1281.5,830.8,1282.4L830.8,1282.4z"/>
				</g>
				<g id="XMLID_1749_">
					<path id="XMLID_1750_" class="st5" d="M875.7,1282.4c0,8.6,0,17.3,0,25.9c0,1-5.9,1-5.9,0c0-8.6,0-17.3,0-25.9
						C869.9,1281.5,875.7,1281.5,875.7,1282.4L875.7,1282.4z"/>
				</g>
				<g id="XMLID_1747_">
					<path id="XMLID_1748_" class="st5" d="M840.6,1282.4c0,6.4,0,12.8,0,19.2c0,0.7-3.9,0.7-3.9,0c0-6.4,0-12.8,0-19.2
						C836.7,1281.8,840.6,1281.8,840.6,1282.4L840.6,1282.4z"/>
				</g>
				<g id="XMLID_1745_">
					<path id="XMLID_1746_" class="st5" d="M848.4,1282.4c0,6.4,0,12.8,0,19.2c0,0.7-3.9,0.7-3.9,0c0-6.4,0-12.8,0-19.2
						C844.5,1281.8,848.4,1281.8,848.4,1282.4L848.4,1282.4z"/>
				</g>
				<g id="XMLID_1743_">
					<path id="XMLID_1744_" class="st5" d="M856.2,1282.4c0,6.4,0,12.8,0,19.2c0,0.7-3.9,0.7-3.9,0c0-6.4,0-12.8,0-19.2
						C852.3,1281.8,856.2,1281.8,856.2,1282.4L856.2,1282.4z"/>
				</g>
				<g id="XMLID_1741_">
					<path id="XMLID_1742_" class="st5" d="M864,1282.4c0,6.4,0,12.8,0,19.2c0,0.7-3.9,0.7-3.9,0c0-6.4,0-12.8,0-19.2
						C860.1,1281.8,864,1281.8,864,1282.4L864,1282.4z"/>
				</g>
				<g id="XMLID_1739_">
					<path id="XMLID_1740_" class="st5" d="M875.7,1282.4c0,8.6,0,17.3,0,25.9c0,1-5.9,1-5.9,0c0-8.6,0-17.3,0-25.9
						C869.9,1281.5,875.7,1281.5,875.7,1282.4L875.7,1282.4z"/>
				</g>
				<g id="XMLID_1737_">
					<path id="XMLID_1738_" class="st5" d="M920.6,1282.4c0,8.6,0,17.3,0,25.9c0,1-5.9,1-5.9,0c0-8.6,0-17.3,0-25.9
						C914.8,1281.5,920.6,1281.5,920.6,1282.4L920.6,1282.4z"/>
				</g>
				<g id="XMLID_1735_">
					<path id="XMLID_1736_" class="st5" d="M885.5,1282.4c0,6.4,0,12.8,0,19.2c0,0.7-3.9,0.7-3.9,0c0-6.4,0-12.8,0-19.2
						C881.6,1281.8,885.5,1281.8,885.5,1282.4L885.5,1282.4z"/>
				</g>
				<g id="XMLID_1733_">
					<path id="XMLID_1734_" class="st5" d="M893.3,1282.4c0,6.4,0,12.8,0,19.2c0,0.7-3.9,0.7-3.9,0c0-6.4,0-12.8,0-19.2
						C889.4,1281.8,893.3,1281.8,893.3,1282.4L893.3,1282.4z"/>
				</g>
				<g id="XMLID_1731_">
					<path id="XMLID_1732_" class="st5" d="M901.1,1282.4c0,6.4,0,12.8,0,19.2c0,0.7-3.9,0.7-3.9,0c0-6.4,0-12.8,0-19.2
						C897.2,1281.8,901.1,1281.8,901.1,1282.4L901.1,1282.4z"/>
				</g>
				<g id="XMLID_1729_">
					<path id="XMLID_1730_" class="st5" d="M908.9,1282.4c0,6.4,0,12.8,0,19.2c0,0.7-3.9,0.7-3.9,0c0-6.4,0-12.8,0-19.2
						C905,1281.8,908.9,1281.8,908.9,1282.4L908.9,1282.4z"/>
				</g>
				<g id="XMLID_1727_">
					<path id="XMLID_1728_" class="st5" d="M920.6,1282.4c0,8.6,0,17.3,0,25.9c0,1-5.9,1-5.9,0c0-8.6,0-17.3,0-25.9
						C914.8,1281.5,920.6,1281.5,920.6,1282.4L920.6,1282.4z"/>
				</g>
				<g id="XMLID_1725_">
					<path id="XMLID_1726_" class="st5" d="M965.6,1282.4c0,8.6,0,17.3,0,25.9c0,1-5.9,1-5.9,0c0-8.6,0-17.3,0-25.9
						C959.7,1281.5,965.6,1281.5,965.6,1282.4L965.6,1282.4z"/>
				</g>
				<g id="XMLID_1723_">
					<path id="XMLID_1724_" class="st5" d="M930.5,1282.4c0,6.4,0,12.8,0,19.2c0,0.7-3.9,0.7-3.9,0c0-6.4,0-12.8,0-19.2
						C926.6,1281.8,930.5,1281.8,930.5,1282.4L930.5,1282.4z"/>
				</g>
				<g id="XMLID_1721_">
					<path id="XMLID_1722_" class="st5" d="M938.3,1282.4c0,6.4,0,12.8,0,19.2c0,0.7-3.9,0.7-3.9,0c0-6.4,0-12.8,0-19.2
						C934.4,1281.8,938.3,1281.8,938.3,1282.4L938.3,1282.4z"/>
				</g>
				<g id="XMLID_1719_">
					<path id="XMLID_1720_" class="st5" d="M946.1,1282.4c0,6.4,0,12.8,0,19.2c0,0.7-3.9,0.7-3.9,0c0-6.4,0-12.8,0-19.2
						C942.2,1281.8,946.1,1281.8,946.1,1282.4L946.1,1282.4z"/>
				</g>
				<g id="XMLID_1717_">
					<path id="XMLID_1718_" class="st5" d="M953.9,1282.4c0,6.4,0,12.8,0,19.2c0,0.7-3.9,0.7-3.9,0c0-6.4,0-12.8,0-19.2
						C950,1281.8,953.9,1281.8,953.9,1282.4L953.9,1282.4z"/>
				</g>
				<g id="XMLID_1715_">
					<path id="XMLID_1716_" class="st5" d="M965.6,1282.4c0,8.6,0,17.3,0,25.9c0,1-5.9,1-5.9,0c0-8.6,0-17.3,0-25.9
						C959.7,1281.5,965.6,1281.5,965.6,1282.4L965.6,1282.4z"/>
				</g>
				<g id="XMLID_1713_">
					<path id="XMLID_1714_" class="st5" d="M1010.5,1282.4c0,8.6,0,17.3,0,25.9c0,1-5.9,1-5.9,0c0-8.6,0-17.3,0-25.9
						C1004.6,1281.5,1010.5,1281.5,1010.5,1282.4L1010.5,1282.4z"/>
				</g>
				<g id="XMLID_1711_">
					<path id="XMLID_1712_" class="st5" d="M975.4,1282.4c0,6.4,0,12.8,0,19.2c0,0.7-3.9,0.7-3.9,0c0-6.4,0-12.8,0-19.2
						C971.5,1281.8,975.4,1281.8,975.4,1282.4L975.4,1282.4z"/>
				</g>
				<g id="XMLID_1709_">
					<path id="XMLID_1710_" class="st5" d="M983.2,1282.4c0,6.4,0,12.8,0,19.2c0,0.7-3.9,0.7-3.9,0c0-6.4,0-12.8,0-19.2
						C979.3,1281.8,983.2,1281.8,983.2,1282.4L983.2,1282.4z"/>
				</g>
				<g id="XMLID_1707_">
					<path id="XMLID_1708_" class="st5" d="M991,1282.4c0,6.4,0,12.8,0,19.2c0,0.7-3.9,0.7-3.9,0c0-6.4,0-12.8,0-19.2
						C987.1,1281.8,991,1281.8,991,1282.4L991,1282.4z"/>
				</g>
				<g id="XMLID_1705_">
					<path id="XMLID_1706_" class="st5" d="M998.8,1282.4c0,6.4,0,12.8,0,19.2c0,0.7-3.9,0.7-3.9,0c0-6.4,0-12.8,0-19.2
						C994.9,1281.8,998.8,1281.8,998.8,1282.4L998.8,1282.4z"/>
				</g>
				<g id="XMLID_1703_">
					<path id="XMLID_1704_" class="st5" d="M1010.5,1282.4c0,8.6,0,17.3,0,25.9c0,1-5.9,1-5.9,0c0-8.6,0-17.3,0-25.9
						C1004.6,1281.5,1010.5,1281.5,1010.5,1282.4L1010.5,1282.4z"/>
				</g>
				<g id="XMLID_1701_">
					<path id="XMLID_1702_" class="st5" d="M1055.4,1282.4c0,8.6,0,17.3,0,25.9c0,1-5.9,1-5.9,0c0-8.6,0-17.3,0-25.9
						C1049.5,1281.5,1055.4,1281.5,1055.4,1282.4L1055.4,1282.4z"/>
				</g>
				<g id="XMLID_1699_">
					<path id="XMLID_1700_" class="st5" d="M1020.3,1282.4c0,6.4,0,12.8,0,19.2c0,0.7-3.9,0.7-3.9,0c0-6.4,0-12.8,0-19.2
						C1016.4,1281.8,1020.3,1281.8,1020.3,1282.4L1020.3,1282.4z"/>
				</g>
				<g id="XMLID_1697_">
					<path id="XMLID_1698_" class="st5" d="M1028.1,1282.4c0,6.4,0,12.8,0,19.2c0,0.7-3.9,0.7-3.9,0c0-6.4,0-12.8,0-19.2
						C1024.2,1281.8,1028.1,1281.8,1028.1,1282.4L1028.1,1282.4z"/>
				</g>
				<g id="XMLID_1695_">
					<path id="XMLID_1696_" class="st5" d="M1035.9,1282.4c0,6.4,0,12.8,0,19.2c0,0.7-3.9,0.7-3.9,0c0-6.4,0-12.8,0-19.2
						C1032,1281.8,1035.9,1281.8,1035.9,1282.4L1035.9,1282.4z"/>
				</g>
				<g id="XMLID_1693_">
					<path id="XMLID_1694_" class="st5" d="M1043.7,1282.4c0,6.4,0,12.8,0,19.2c0,0.7-3.9,0.7-3.9,0c0-6.4,0-12.8,0-19.2
						C1039.8,1281.8,1043.7,1281.8,1043.7,1282.4L1043.7,1282.4z"/>
				</g>
				<g id="XMLID_1691_">
					<path id="XMLID_1692_" class="st5" d="M1055.4,1282.4c0,8.6,0,17.3,0,25.9c0,1-5.9,1-5.9,0c0-8.6,0-17.3,0-25.9
						C1049.5,1281.5,1055.4,1281.5,1055.4,1282.4L1055.4,1282.4z"/>
				</g>
				<g id="XMLID_1689_">
					<path id="XMLID_1690_" class="st5" d="M1100.3,1282.4c0,8.6,0,17.3,0,25.9c0,1-5.9,1-5.9,0c0-8.6,0-17.3,0-25.9
						C1094.5,1281.5,1100.3,1281.5,1100.3,1282.4L1100.3,1282.4z"/>
				</g>
				<g id="XMLID_1687_">
					<path id="XMLID_1688_" class="st5" d="M1065.2,1282.4c0,6.4,0,12.8,0,19.2c0,0.7-3.9,0.7-3.9,0c0-6.4,0-12.8,0-19.2
						C1061.3,1281.8,1065.2,1281.8,1065.2,1282.4L1065.2,1282.4z"/>
				</g>
				<g id="XMLID_1685_">
					<path id="XMLID_1686_" class="st5" d="M1073,1282.4c0,6.4,0,12.8,0,19.2c0,0.7-3.9,0.7-3.9,0c0-6.4,0-12.8,0-19.2
						C1069.1,1281.8,1073,1281.8,1073,1282.4L1073,1282.4z"/>
				</g>
				<g id="XMLID_1683_">
					<path id="XMLID_1684_" class="st5" d="M1080.8,1282.4c0,6.4,0,12.8,0,19.2c0,0.7-3.9,0.7-3.9,0c0-6.4,0-12.8,0-19.2
						C1076.9,1281.8,1080.8,1281.8,1080.8,1282.4L1080.8,1282.4z"/>
				</g>
				<g id="XMLID_1681_">
					<path id="XMLID_1682_" class="st5" d="M1088.6,1282.4c0,6.4,0,12.8,0,19.2c0,0.7-3.9,0.7-3.9,0c0-6.4,0-12.8,0-19.2
						C1084.7,1281.8,1088.6,1281.8,1088.6,1282.4L1088.6,1282.4z"/>
				</g>
				<g id="XMLID_1679_">
					<path id="XMLID_1680_" class="st5" d="M1100.3,1282.4c0,8.6,0,17.3,0,25.9c0,1-5.9,1-5.9,0c0-8.6,0-17.3,0-25.9
						C1094.5,1281.5,1100.3,1281.5,1100.3,1282.4L1100.3,1282.4z"/>
				</g>
				<g id="XMLID_1677_">
					<path id="XMLID_1678_" class="st5" d="M1145.2,1282.4c0,8.6,0,17.3,0,25.9c0,1-5.9,1-5.9,0c0-8.6,0-17.3,0-25.9
						C1139.4,1281.5,1145.2,1281.5,1145.2,1282.4L1145.2,1282.4z"/>
				</g>
				<g id="XMLID_1675_">
					<path id="XMLID_1676_" class="st5" d="M1110.1,1282.4c0,6.4,0,12.8,0,19.2c0,0.7-3.9,0.7-3.9,0c0-6.4,0-12.8,0-19.2
						C1106.2,1281.8,1110.1,1281.8,1110.1,1282.4L1110.1,1282.4z"/>
				</g>
				<g id="XMLID_1673_">
					<path id="XMLID_1674_" class="st5" d="M1117.9,1282.4c0,6.4,0,12.8,0,19.2c0,0.7-3.9,0.7-3.9,0c0-6.4,0-12.8,0-19.2
						C1114,1281.8,1117.9,1281.8,1117.9,1282.4L1117.9,1282.4z"/>
				</g>
				<g id="XMLID_1671_">
					<path id="XMLID_1672_" class="st5" d="M1125.7,1282.4c0,6.4,0,12.8,0,19.2c0,0.7-3.9,0.7-3.9,0c0-6.4,0-12.8,0-19.2
						C1121.8,1281.8,1125.7,1281.8,1125.7,1282.4L1125.7,1282.4z"/>
				</g>
				<g id="XMLID_1669_">
					<path id="XMLID_1670_" class="st5" d="M1133.5,1282.4c0,6.4,0,12.8,0,19.2c0,0.7-3.9,0.7-3.9,0c0-6.4,0-12.8,0-19.2
						C1129.6,1281.8,1133.5,1281.8,1133.5,1282.4L1133.5,1282.4z"/>
				</g>
				<g id="XMLID_1667_">
					<path id="XMLID_1668_" class="st5" d="M1145.2,1282.4c0,8.6,0,17.3,0,25.9c0,1-5.9,1-5.9,0c0-8.6,0-17.3,0-25.9
						C1139.4,1281.5,1145.2,1281.5,1145.2,1282.4L1145.2,1282.4z"/>
				</g>
				<g id="XMLID_1665_">
					<path id="XMLID_1666_" class="st5" d="M1155,1282.4c0,6.4,0,12.8,0,19.2c0,0.7-3.9,0.7-3.9,0c0-6.4,0-12.8,0-19.2
						C1151.1,1281.8,1155,1281.8,1155,1282.4L1155,1282.4z"/>
				</g>
				<g id="XMLID_1663_">
					<path id="XMLID_1664_" class="st5" d="M1162.8,1282.4c0,6.4,0,12.8,0,19.2c0,0.7-3.9,0.7-3.9,0c0-6.4,0-12.8,0-19.2
						C1158.9,1281.8,1162.8,1281.8,1162.8,1282.4L1162.8,1282.4z"/>
				</g>
				<g id="XMLID_1661_">
					<path id="XMLID_1662_" class="st5" d="M1170.6,1282.4c0,6.4,0,12.8,0,19.2c0,0.7-3.9,0.7-3.9,0c0-6.4,0-12.8,0-19.2
						C1166.7,1281.8,1170.6,1281.8,1170.6,1282.4L1170.6,1282.4z"/>
				</g>
				<g id="XMLID_1659_">
					<path id="XMLID_1660_" class="st5" d="M1178.4,1282.4c0,6.4,0,12.8,0,19.2c0,0.7-3.9,0.7-3.9,0c0-6.4,0-12.8,0-19.2
						C1174.5,1281.8,1178.4,1281.8,1178.4,1282.4L1178.4,1282.4z"/>
				</g>
			</g>
			<path id="XMLID_1657_" class="st5" d="M1188.9,1282.5h3.1c3.4,0,6.1,2.7,6.1,6.1v43.3c0,3.4-2.7,6.1-6.1,6.1h-3.1
				c-3.4,0-6.1-2.7-6.1-6.1v-43.3C1182.8,1285.2,1185.5,1282.5,1188.9,1282.5z"/>
			
				<rect id="XMLID_1656_" x="1198.2" y="1289.6" transform="matrix(-1 -1.224647e-16 1.224647e-16 -1 2440.2305 2620.5374)" class="st5" width="43.9" height="41.3"/>
			<g id="XMLID_1650_">
				<path id="XMLID_1654_" class="st22" d="M1135.5,1316.7h11l-2.4-3h2.7l2.4,3v2.7h-13.7V1316.7z"/>
				<path id="XMLID_1651_" class="st22" d="M1135.3,1328.6c0-2.7,1.7-4.6,4.1-4.6h5.8c2.4,0,4.1,1.9,4.1,4.6c0,2.7-1.7,4.5-4.1,4.5
					h-5.8C1137,1333.1,1135.3,1331.3,1135.3,1328.6z M1137.6,1328.6c0,1.1,0.7,1.8,1.8,1.8h5.7c1.1,0,1.9-0.7,1.9-1.8
					c0-1.1-0.7-1.8-1.9-1.8h-5.7C1138.3,1326.8,1137.6,1327.5,1137.6,1328.6z"/>
			</g>
			<g id="XMLID_1644_">
				<path id="XMLID_1648_" class="st22" d="M1090.5,1312.7h2.2l5.9,5.6c0.6,0.6,1.1,0.8,1.7,0.8c1.1,0,1.7-0.7,1.7-1.8
					c0-1.2-0.6-1.8-1.7-1.8v-2.7c0.8,0,1.2,0.1,1.7,0.3c1.5,0.7,2.3,2.2,2.3,4.2c0,2.7-1.6,4.5-4,4.5c-1.2,0-1.8-0.3-3.1-1.6
					l-4.4-4.2v5.8h-2.2V1312.7z"/>
				<path id="XMLID_1645_" class="st22" d="M1090.4,1328.6c0-2.7,1.7-4.6,4.1-4.6h5.8c2.4,0,4.1,1.9,4.1,4.6c0,2.7-1.7,4.5-4.1,4.5
					h-5.8C1092.1,1333.1,1090.4,1331.3,1090.4,1328.6z M1092.7,1328.6c0,1.1,0.7,1.8,1.8,1.8h5.7c1.1,0,1.9-0.7,1.9-1.8
					c0-1.1-0.7-1.8-1.9-1.8h-5.7C1093.4,1326.8,1092.7,1327.5,1092.7,1328.6z"/>
			</g>
			<g id="XMLID_1638_">
				<path id="XMLID_1642_" class="st22" d="M1052,1321c-0.6,0.6-1.4,0.9-2.4,0.9c-2.5,0-4.1-1.9-4.1-4.8c0-1.4,0.4-2.7,1.2-3.6
					c0.8-0.9,1.7-1.1,2.9-1.2v2.7c-1.2,0.1-1.8,0.8-1.8,2c0,1.2,0.7,2,1.9,2s1.9-0.8,1.9-2.1v-0.4h2.2v0.4c0,1.2,0.6,1.9,1.7,1.9
					c1.1,0,1.7-0.7,1.7-1.8c0-1.1-0.6-1.7-1.7-1.8v-2.7c0.8,0.1,1.1,0.1,1.6,0.4c1.4,0.7,2.3,2.3,2.3,4.2c0,2.7-1.6,4.6-3.9,4.6
					c-0.9,0-1.6-0.3-2.1-0.8c-0.3-0.3-0.4-0.4-0.7-0.9C1052.4,1320.5,1052.3,1320.7,1052,1321z"/>
				<path id="XMLID_1639_" class="st22" d="M1045.5,1328.6c0-2.7,1.7-4.6,4.1-4.6h5.8c2.4,0,4.1,1.9,4.1,4.6c0,2.7-1.7,4.5-4.1,4.5
					h-5.8C1047.2,1333.1,1045.5,1331.3,1045.5,1328.6z M1047.8,1328.6c0,1.1,0.7,1.8,1.8,1.8h5.7c1.1,0,1.9-0.7,1.9-1.8
					c0-1.1-0.7-1.8-1.9-1.8h-5.7C1048.5,1326.8,1047.8,1327.5,1047.8,1328.6z"/>
			</g>
			<path id="XMLID_1636_" class="st22" d="M1002.7,1320.9h-1.9v-2.6h1.9v-6.1h2.4l9.4,5.1v3l-9.4-5.1v3.1h2.6v2.6h-2.6v1.4h-2.4
				V1320.9z"/>
			<path id="XMLID_1633_" class="st22" d="M1000.6,1328.6c0-2.7,1.7-4.6,4.1-4.6h5.8c2.4,0,4.1,1.9,4.1,4.6c0,2.7-1.7,4.5-4.1,4.5
				h-5.8C1002.3,1333.1,1000.6,1331.3,1000.6,1328.6z M1002.8,1328.6c0,1.1,0.7,1.8,1.8,1.8h5.7c1.1,0,1.9-0.7,1.9-1.8
				c0-1.1-0.7-1.8-1.9-1.8h-5.7C1003.6,1326.8,1002.8,1327.5,1002.8,1328.6z"/>
			<g id="XMLID_1627_">
				<path id="XMLID_1631_" class="st22" d="M965,1317.7c0,1.1-0.3,2.1-0.9,2.8c-0.8,0.9-1.9,1.3-3.7,1.3s-2.7-0.4-3.6-1.3
					c-0.7-0.8-1.1-1.9-1.1-3.3c0-1.4,0.4-2.6,1.1-3.3c0.4-0.5,0.9-0.8,1.5-1c0.4-0.1,0.7-0.2,1.3-0.2v2.7c-1.2,0.2-1.7,0.7-1.7,1.8
					c0,1.3,0.7,1.9,2.5,1.9c1.7,0,2.5-0.6,2.5-1.8c0-0.9-0.3-1.5-1.1-1.8v-2.5h7.7v8.5h-2.2v-6.1h-2.9
					C964.8,1316.1,965,1316.8,965,1317.7z"/>
				<path id="XMLID_1628_" class="st22" d="M955.7,1328.6c0-2.7,1.7-4.6,4.1-4.6h5.8c2.4,0,4.1,1.9,4.1,4.6c0,2.7-1.7,4.5-4.1,4.5
					h-5.8C957.4,1333.1,955.7,1331.3,955.7,1328.6z M957.9,1328.6c0,1.1,0.7,1.8,1.8,1.8h5.7c1.1,0,1.9-0.7,1.9-1.8
					c0-1.1-0.7-1.8-1.9-1.8h-5.7C958.7,1326.8,957.9,1327.5,957.9,1328.6z"/>
			</g>
			<path id="XMLID_1624_" class="st22" d="M919.1,1317.8c0,2.3-1.7,3.9-4.1,3.9c-2.5,0-4.2-1.9-4.2-4.7c0-2.8,1.7-4.6,4.2-4.6
				c1.1,0,1.8,0.3,3.7,1.3l5.9,3.2v3l-5.6-3.1C919,1317.1,919.1,1317.4,919.1,1317.8z M917,1317.1c0-1.2-0.8-1.9-2-1.9
				c-1.2,0-2,0.8-2,1.9c0,1.2,0.8,1.9,2,1.9C916.2,1319.1,917,1318.3,917,1317.1z"/>
			<path id="XMLID_1621_" class="st22" d="M910.8,1328.6c0-2.7,1.7-4.6,4.1-4.6h5.8c2.4,0,4.1,1.9,4.1,4.6c0,2.7-1.7,4.5-4.1,4.5
				h-5.8C912.4,1333.1,910.8,1331.3,910.8,1328.6z M913,1328.6c0,1.1,0.7,1.8,1.8,1.8h5.7c1.1,0,1.9-0.7,1.9-1.8
				c0-1.1-0.7-1.8-1.9-1.8h-5.7C913.7,1326.8,913,1327.5,913,1328.6z"/>
			<g id="XMLID_1615_">
				<path id="XMLID_1619_" class="st22" d="M866,1317.2v-3l11.4,4.9v-3.9h-2.2v-2.6h4.4v9.5h-2.2L866,1317.2z"/>
				<path id="XMLID_1616_" class="st22" d="M865.8,1328.6c0-2.7,1.7-4.6,4.1-4.6h5.8c2.4,0,4.1,1.9,4.1,4.6c0,2.7-1.7,4.5-4.1,4.5
					h-5.8C867.5,1333.1,865.8,1331.3,865.8,1328.6z M868.1,1328.6c0,1.1,0.7,1.8,1.8,1.8h5.7c1.1,0,1.9-0.7,1.9-1.8
					c0-1.1-0.7-1.8-1.9-1.8h-5.7C868.8,1326.8,868.1,1327.5,868.1,1328.6z"/>
			</g>
			<g id="XMLID_1607_">
				<path id="XMLID_1611_" class="st22" d="M827.2,1321.2c-0.6,0.5-1.3,0.8-2.2,0.8c-2.4,0-4.1-1.9-4.1-4.8c0-2.9,1.6-4.8,4.1-4.8
					c0.9,0,1.6,0.3,2.2,0.8c0.3,0.3,0.5,0.5,0.9,1.1c0.5-0.7,0.7-0.9,1.3-1.3c0.5-0.3,1-0.4,1.6-0.4c2.2,0,3.9,1.9,3.9,4.6
					c0,2.6-1.6,4.6-3.9,4.6c-0.6,0-1.1-0.1-1.6-0.4c-0.5-0.3-0.8-0.5-1.3-1.3C827.7,1320.7,827.5,1320.9,827.2,1321.2z M827,1317.2
					c0-1.2-0.8-2.1-1.9-2.1c-1.1,0-1.9,0.9-1.9,2.1c0,1.1,0.8,2.1,1.8,2.1C826.1,1319.2,827,1318.3,827,1317.2z M832.6,1317.2
					c0-1.1-0.7-1.9-1.7-1.9c-1,0-1.7,0.8-1.7,1.9c0,1.1,0.7,1.8,1.7,1.8C831.8,1319,832.6,1318.2,832.6,1317.2z"/>
				<path id="XMLID_1608_" class="st22" d="M820.9,1328.6c0-2.7,1.7-4.6,4.1-4.6h5.8c2.4,0,4.1,1.9,4.1,4.6c0,2.7-1.7,4.5-4.1,4.5
					H825C822.6,1333.1,820.9,1331.3,820.9,1328.6z M823.2,1328.6c0,1.1,0.7,1.8,1.8,1.8h5.7c1.1,0,1.9-0.7,1.9-1.8
					c0-1.1-0.7-1.8-1.9-1.8H825C823.9,1326.8,823.2,1327.5,823.2,1328.6z"/>
			</g>
			<g id="XMLID_1600_">
				<path id="XMLID_1604_" class="st22" d="M781.6,1316.5c0-2.3,1.7-4,4.1-4c2.5,0,4.2,1.9,4.2,4.7c0,2.8-1.7,4.7-4.2,4.7
					c-1,0-1.9-0.3-3.7-1.2l-5.9-3.2v-3l5.6,3.1C781.6,1317.2,781.6,1316.9,781.6,1316.5z M787.7,1317.2c0-1.2-0.8-1.9-2-1.9
					c-1.2,0-2,0.8-2,1.9c0,1.2,0.8,1.9,2,1.9C786.9,1319.1,787.7,1318.4,787.7,1317.2z"/>
				<path id="XMLID_1601_" class="st22" d="M776,1328.6c0-2.7,1.7-4.6,4.1-4.6h5.8c2.4,0,4.1,1.9,4.1,4.6c0,2.7-1.7,4.5-4.1,4.5
					h-5.8C777.7,1333.1,776,1331.3,776,1328.6z M778.3,1328.6c0,1.1,0.7,1.8,1.8,1.8h5.7c1.1,0,1.9-0.7,1.9-1.8
					c0-1.1-0.7-1.8-1.9-1.8h-5.7C779,1326.8,778.3,1327.5,778.3,1328.6z"/>
			</g>
			<g id="XMLID_1591_">
				<path id="XMLID_1598_" class="st22" d="M731.2,1313.3h11l-2.4-3h2.7l2.4,3v2.7h-13.7V1313.3z"/>
				<path id="XMLID_1595_" class="st22" d="M731.1,1325.2c0-2.7,1.7-4.6,4.1-4.6h5.8c2.4,0,4.1,1.9,4.1,4.6c0,2.7-1.7,4.5-4.1,4.5
					h-5.8C732.8,1329.8,731.1,1327.9,731.1,1325.2z M733.3,1325.2c0,1.1,0.7,1.8,1.8,1.8h5.7c1.1,0,1.9-0.7,1.9-1.8
					c0-1.1-0.7-1.8-1.9-1.8h-5.7C734.1,1323.4,733.3,1324.1,733.3,1325.2z"/>
				<path id="XMLID_1592_" class="st22" d="M731.1,1336.6c0-2.7,1.7-4.6,4.1-4.6h5.8c2.4,0,4.1,1.9,4.1,4.6c0,2.7-1.7,4.5-4.1,4.5
					h-5.8C732.8,1341.2,731.1,1339.3,731.1,1336.6z M733.3,1336.6c0,1.1,0.7,1.8,1.8,1.8h5.7c1.1,0,1.9-0.7,1.9-1.8
					c0-1.1-0.7-1.8-1.9-1.8h-5.7C734.1,1334.8,733.3,1335.5,733.3,1336.6z"/>
			</g>
			<path id="XMLID_1590_" class="st16" d="M535.2,1228.8h0.3c4.6,0,8.2,3.7,8.2,8.2v144.2c0,4.6-3.7,8.2-8.2,8.2h-0.3
				c-4.6,0-8.2-3.7-8.2-8.2V1237C527,1232.4,530.7,1228.8,535.2,1228.8z"/>
		</g>
		<path id="XMLID_1588_" class="st23" d="M1274.6,1278.5h250.2c3.1,0,5.7,2.5,5.7,5.7v52.2c0,3.1-2.5,5.7-5.7,5.7h-250.2
			c-3.1,0-5.7-2.5-5.7-5.7v-52.2C1268.9,1281,1271.4,1278.5,1274.6,1278.5z"/>
		<path id="XMLID_1587_" class="st24" d="M1526.8,1268.8L1526.8,1268.8c3,0,5.5,2.4,5.5,5.5v71.6c0,3-2.4,5.5-5.5,5.5l0,0
			c-3,0-5.5-2.4-5.5-5.5v-71.6C1521.3,1271.2,1523.7,1268.8,1526.8,1268.8z"/>
		<g id="XMLID_1583_">
			<path id="XMLID_1586_" class="st25" d="M1330.5,1289.7H1513c1.4,0,2.6,1.2,2.6,2.6v0.5c0,1.4-1.2,2.6-2.6,2.6h-182.4
				c-1.4,0-2.6-1.2-2.6-2.6v-0.5C1327.9,1290.8,1329.1,1289.7,1330.5,1289.7z"/>
			<path id="XMLID_1585_" class="st25" d="M1330.5,1307.1H1513c1.4,0,2.6,1.2,2.6,2.6v0.5c0,1.4-1.2,2.6-2.6,2.6h-182.4
				c-1.4,0-2.6-1.2-2.6-2.6v-0.5C1327.9,1308.3,1329.1,1307.1,1330.5,1307.1z"/>
			<path id="XMLID_1584_" class="st25" d="M1330.5,1324.6H1513c1.4,0,2.6,1.2,2.6,2.6v0.5c0,1.4-1.2,2.6-2.6,2.6h-182.4
				c-1.4,0-2.6-1.2-2.6-2.6v-0.5C1327.9,1325.8,1329.1,1324.6,1330.5,1324.6z"/>
		</g>
		<rect id="XMLID_1582_" x="352.7" y="1250.2" class="st23" width="174.3" height="119.3"/>
		<path id="XMLID_1558_" class="st26" d="M398.8,1372.1h-40.6c-3,0-5.5-2.5-5.5-5.5v-113.5c0-3,2.5-5.5,5.5-5.5h40.6
			c3,0,5.5,2.5,5.5,5.5v113.5C404.3,1369.6,401.9,1372.1,398.8,1372.1z"/>
		<path id="XMLID_1542_" class="st26" d="M1317.6,1346h-44.5c-2.3,0-4.2-1.9-4.2-4.2v-63.4c0-2.3,1.9-4.2,4.2-4.2h44.5
			c2.3,0,4.2,1.9,4.2,4.2v63.4C1321.9,1344.1,1320,1346,1317.6,1346z"/>
		<path id="XMLID_1532_" class="st24" d="M354.1,1387.7L354.1,1387.7c-2.6,0-4.7-2.1-4.7-4.7v-145.5c0-2.6,2.1-4.7,4.7-4.7h0
			c2.6,0,4.7,2.1,4.7,4.7V1383C358.8,1385.6,356.7,1387.7,354.1,1387.7z"/>
		<g id="XMLID_1281_">
			<path id="XMLID_1530_" class="st25" d="M512.2,1357.9H406.6c-1.3,0-2.3-1-2.3-2.3v-0.8c0-1.3,1-2.3,2.3-2.3h105.5
				c1.3,0,2.3,1,2.3,2.3v0.8C514.5,1356.8,513.4,1357.9,512.2,1357.9z"/>
			<path id="XMLID_1299_" class="st25" d="M512.2,1342.5H406.6c-1.3,0-2.3-1-2.3-2.3v-0.8c0-1.3,1-2.3,2.3-2.3h105.5
				c1.3,0,2.3,1,2.3,2.3v0.8C514.5,1341.5,513.4,1342.5,512.2,1342.5z"/>
			<path id="XMLID_1296_" class="st25" d="M512.2,1327.2H406.6c-1.3,0-2.3-1-2.3-2.3v-0.8c0-1.3,1-2.3,2.3-2.3h105.5
				c1.3,0,2.3,1,2.3,2.3v0.8C514.5,1326.1,513.4,1327.2,512.2,1327.2z"/>
			<path id="XMLID_1295_" class="st25" d="M512.2,1311.8H406.6c-1.3,0-2.3-1-2.3-2.3v-0.8c0-1.3,1-2.3,2.3-2.3h105.5
				c1.3,0,2.3,1,2.3,2.3v0.8C514.5,1310.8,513.4,1311.8,512.2,1311.8z"/>
			<path id="XMLID_1294_" class="st25" d="M512.2,1296.5H406.6c-1.3,0-2.3-1-2.3-2.3v-0.8c0-1.3,1-2.3,2.3-2.3h105.5
				c1.3,0,2.3,1,2.3,2.3v0.8C514.5,1295.4,513.4,1296.5,512.2,1296.5z"/>
			<path id="XMLID_1293_" class="st25" d="M512.2,1281.1H406.6c-1.3,0-2.3-1-2.3-2.3v-0.8c0-1.3,1-2.3,2.3-2.3h105.5
				c1.3,0,2.3,1,2.3,2.3v0.8C514.5,1280.1,513.4,1281.1,512.2,1281.1z"/>
			<path id="XMLID_1292_" class="st25" d="M512.2,1265.7H406.6c-1.3,0-2.3-1-2.3-2.3v-0.8c0-1.3,1-2.3,2.3-2.3h105.5
				c1.3,0,2.3,1,2.3,2.3v0.8C514.5,1264.7,513.4,1265.7,512.2,1265.7z"/>
		</g>
	</g>
</g>
</svg>
