<?xml version="1.0" encoding="utf-8"?>
<!-- Generator: Adobe Illustrator 22.0.1, SVG Export Plug-In . SVG Version: 6.00 Build 0)  -->
<svg version="1.1" id="Capa_1" xmlns="http://www.w3.org/2000/svg" xmlns:xlink="http://www.w3.org/1999/xlink" x="0px" y="0px"
	 viewBox="0 0 290.5 197.8" style="enable-background:new 0 0 290.5 197.8;" xml:space="preserve">
<style type="text/css">
	.st0{fill:#F9AB92;}
	.st1{fill:#90AFBF;}
	.st2{fill:#2A2B4E;}
</style>
<g>
	<path class="st0" d="M116.2,105.9c0,0,19.3,2,31.1-13.1c0,0,5.4-9.1,22.7-26.8c0,0,21-20,23-53.8c0,0,1.7-12.2,10.2-12.2
		c8.5,0,25,15.6,8.5,59.9c0,0-4.9,9.4,1.4,15.4c0,0,62.5,0.1,70.2,9.4c0,0,10.2,15.2,0,26.4c0,0,16.2,13.2,0,26.4
		c0,0,15.2,16.2,0,29.4c0,0,4.8,17.6-9.4,27.8c0,0-29.3,5.8-97.7,1.5c0,0-16.2-3-26.4-9.1c-10.2-6.1-33.5-3-33.5-3V105.9z"/>
	<rect x="92.4" y="100.4" class="st1" width="35" height="91.3"/>
	<rect y="95.2" class="st2" width="103" height="99.5"/>
</g>
</svg>
