<?xml version="1.0" encoding="utf-8"?>
<!-- Generator: Adobe Illustrator 22.0.1, SVG Export Plug-In . SVG Version: 6.00 Build 0)  -->
<svg version="1.1" id="layer" xmlns="http://www.w3.org/2000/svg" xmlns:xlink="http://www.w3.org/1999/xlink" x="0px" y="0px"
	 viewBox="0 0 1000 1000" style="enable-background:new 0 0 1000 1000;" xml:space="preserve">
<style type="text/css">
	.st0{fill:#FFFFFF;}
	.st1{fill:#869399;}
	.st2{fill:#3D6179;}
	.st3{fill:#FF896E;}
	.st4{fill:#444257;}
	.st5{fill:none;stroke:#313040;stroke-width:3;stroke-miterlimit:10;}
	.st6{fill:#292836;}
	.st7{fill:#D4C4B0;}
	.st8{fill:url(#SVGID_1_);}
	.st9{fill:#313040;}
	.st10{fill:#FFA48F;}
	.st11{fill:url(#SVGID_2_);}
	.st12{fill:url(#SVGID_3_);}
	.st13{fill:none;stroke:#313040;stroke-width:3.281;stroke-miterlimit:10;}
</style>
<rect class="st0" width="1000" height="1000"/>
<g>
	<path class="st1" d="M982.8,472.6c-2,11-5.2,22.2-9.8,33.5c-1.4,3.5-3,7.1-4.7,10.6c-2.2,4.5-4.5,8.9-7.1,13.4
		c-9,15.6-20.8,31.5-35.6,47.5c-174.8,189-298.6,79.5-462.8,134.9C298.6,767.9,1.5,604.2,154.5,345.5
		c39.9-67.5,147.7-109.6,234.4-87.4c86.7,22.2,196.4-161.4,327.5-97.3c47.6,23.3,111.3,59.7,164.7,105.7c9,7.8,17.7,15.8,26,24.1
		c6.9,6.9,13.5,13.9,19.7,21.1c8.8,10.2,16.9,20.7,24.1,31.6C977.1,382.8,991,426.4,982.8,472.6z"/>
	<g>
		<path class="st2" d="M590,389.5c38.2-27.1,152-13.4,171.7,15.1c19.7,28.6,8.8,50.8-4.2,58.9c-13,8.1-131.7,32-169.6-2
			C549.9,427.6,573.4,401.2,590,389.5z"/>
		
			<ellipse transform="matrix(0.7594 -0.6506 0.6506 0.7594 -127.237 507.9496)" class="st3" cx="623.2" cy="426" rx="35.4" ry="35.4"/>
		<path class="st4" d="M643.1,411.8c6.5-1.7,10,4.9,6.5,8.2c-3.5,3.3-5.7,2.7-8.6,6.3s-3.1,7.3-2,12.8s-7.1,13.5-13.6,6.9
			c-6.5-6.7-3.5-16.4,1-22C630.9,418.6,638.5,413,643.1,411.8z"/>
		<path class="st5" d="M614.8,413.7c0.1-6.1,4.6-8.2,7.4-7.7"/>
		<path class="st5" d="M610.9,432.3c-3.4,5-1.1,9.4,1.5,10.6"/>
	</g>
	<path class="st6" d="M982.8,472.6c-2,11-5.2,22.2-9.8,33.5c-1.4,3.5-3,7.1-4.7,10.6h-397c-6.2,0-11.5-4-13.4-9.6
		c-0.5-1.4-0.7-2.9-0.7-4.5v-15.8c0-7.8,6.3-14.1,14.2-14.1H982.8z"/>
	<rect x="534.2" y="242.8" class="st0" width="24.1" height="373.6"/>
	<path class="st0" d="M973,506.1c-1.4,3.5-3,7.1-4.7,10.6c-2.2,4.5-4.5,8.9-7.1,13.4H557.9v-24.1H973z"/>
	<path class="st0" d="M907.2,290.6H557.9v-24.1h323.2C890.1,274.2,898.9,282.3,907.2,290.6z"/>
	<rect x="664.4" y="266.7" class="st0" width="24.1" height="241.3"/>
	<rect x="795.8" y="266.7" class="st0" width="24.1" height="241.3"/>
	<path class="st0" d="M950.9,343.3V508h-24.1V311.7C935.7,321.9,943.8,332.4,950.9,343.3z"/>
</g>
<ellipse class="st6" cx="347.8" cy="819" rx="266.7" ry="72.6"/>
<g>
	<path class="st7" d="M475.1,797.3c2.2,5.1-1.2,22.2,7,26.2c8.1,3.9,75.3,21.4,91.3,14.3c16-7.2,18.6-13.2,13.7-20.7
		s-47.3-15.7-54.9-19.6c-7.7-3.9-21.8-12.5-23.7-16.8C503.4,769.1,461.4,766,475.1,797.3z"/>
	<path class="st6" d="M423.5,340.2c14.9-22.7-72.4-70.3-104.8-19.4c-12.2,13.1-13.3,15.2-26,17.5c-68,17-105.2,108.8-35.2,135.7
		c77.8,30,76.3,49,112.9,46.3c80.2-6,60.3-99.9,71.4-121.7C454.5,373.4,455,348.1,423.5,340.2z"/>
	
		<linearGradient id="SVGID_1_" gradientUnits="userSpaceOnUse" x1="-2610.6631" y1="478.3403" x2="-2656.0078" y2="446.2966" gradientTransform="matrix(-1 0 0 1 -2321.2312 0)">
		<stop  offset="0" style="stop-color:#FFA48F"/>
		<stop  offset="0.3141" style="stop-color:#F9967F"/>
		<stop  offset="0.9222" style="stop-color:#EA7257"/>
		<stop  offset="1" style="stop-color:#E86D51"/>
	</linearGradient>
	<path class="st8" d="M318.6,401.4c0,0-16.7,33.2-39,47.1c-22.4,13.9-10.3,61.1,12.7,65.3c23,4.2,23.1,4.8,25.8-1.9
		c9-22.2-1-41.6,7.4-51.9C334,449.8,318.6,401.4,318.6,401.4z"/>
	<path class="st9" d="M508,777.9c-14.3,10.6-31.4,16.9-52.5,14.9c-12.5-28.7-50-99.3-70.1-153.4c0,0-28.6,143.3-83.1,171.9
		c-33,17.3-132.1,27.5-158.2-21.7c-14.8-28-16.6-71.5,8.7-102.7c44.8,17.1,87.4,28.6,112.9,15.7c11.3-27.8,60.6-142,81.2-157.2
		c20.6-15.1,73.2-28.7,90.5,13C454.8,600,508,777.9,508,777.9z"/>
	<path class="st4" d="M142.1,700.8c0,0,15.4-98.6,46.1-150.1c30.8-51.5,39.1-84.3,100.1-109.1c-27.1,36,29.4,74.5,33.5,50.1
		c5.7,14,27.7,67.5,11.3,95.6c-3.1,5.2-59.9,117.3-74.3,127.2C244.3,724.4,212.4,737.2,142.1,700.8z"/>
	<path class="st9" d="M440,605.3c0,0,25.3-10.2,11.5,25.6c-22.6,20.7-133.7,60.6-161.9,53.1c-28.3-7.5-50.1-21.7-59.5-42.5
		c-9.4-20.7-26.7-84.9-17.9-115.8c8.8-30.9,46.5-66.7,78.5-19.6c32,47.1,0.9,72.8,47.8,110.5C355.9,629.1,440,605.3,440,605.3z"/>
	<path class="st10" d="M469.2,630.8c14.7,0.9,26.3-15.3,16.6-34.6c-9.7-19.4-36.8-25.5-42.9-11.1
		C436.8,599.6,469.2,630.8,469.2,630.8z"/>
	<path class="st4" d="M446.6,596.9c0,0,36.4-1.9,22.6,33.9c-22.6,20.7-151.3,55.9-179.6,48.3c-28.3-7.5-39.6-15.1-49-35.8
		c-9.4-20.7-30.8-95.2-22-126.1c8.8-30.9,46.5-66.7,78.5-19.6c32,47.1,0.9,72.8,47.8,110.5C362.5,620.8,446.6,596.9,446.6,596.9z"/>
	<path class="st10" d="M337.5,359.3c0,0-55,94.2,3.7,115.8c49,18,77-70.4,77-70.4C442.6,355.1,361.3,309.4,337.5,359.3z"/>
	
		<linearGradient id="SVGID_2_" gradientUnits="userSpaceOnUse" x1="-6171.98" y1="-3856.6055" x2="-6153.6323" y2="-3869.6809" gradientTransform="matrix(-0.9003 -0.4354 -0.4354 0.9003 -6827.1152 1241.9556)">
		<stop  offset="0" style="stop-color:#E86D51"/>
		<stop  offset="7.780015e-02" style="stop-color:#EA7257"/>
		<stop  offset="0.6859" style="stop-color:#F9967F"/>
		<stop  offset="1" style="stop-color:#FFA48F"/>
	</linearGradient>
	<path class="st11" d="M410.5,419.6c0,0-11,24.8-11.8,27.5c-0.8,2.7-0.4,2.9,0.4,3.8c4.7,5.4,6,14.1-5.9,10.7
		c-4.5-1.2-11.5-6.1-9.6-9.7c1.9-3.6,17.8-36.8,17.8-36.8C403.3,411.4,411.2,413.5,410.5,419.6z"/>
	<path class="st6" d="M427.5,408.2c-11.4-4.1-30.5-13.8-24.1-38.1c-20.5,53.5-70.1,11.8-84.5,48c1.6-19.1,13.4-119.8,83.3-94
		C438.7,337.5,427.5,408.2,427.5,408.2z"/>
	
		<linearGradient id="SVGID_3_" gradientUnits="userSpaceOnUse" x1="-14430.6162" y1="-5381.1958" x2="-14406.4912" y2="-5381.5508" gradientTransform="matrix(-0.7962 -0.6051 -0.6051 0.7962 -14413.1143 -4035.7046)">
		<stop  offset="0" style="stop-color:#FFA48F"/>
		<stop  offset="0.3141" style="stop-color:#F9967F"/>
		<stop  offset="0.9222" style="stop-color:#EA7257"/>
		<stop  offset="1" style="stop-color:#E86D51"/>
	</linearGradient>
	<path class="st12" d="M336.6,402.3c0,0-4.2-15.7-12-14.6c-7.9,1.1-19.1,17.5-6.9,32.4C322.6,423.8,336.7,410.9,336.6,402.3z"/>
	<path class="st9" d="M411.9,415.5c-2-8-16.4-15.9-28.5-12.4c-7.5,2.2-5.4,8.1,1.1,7.8c6.5-0.2,17.8,2.7,20.4,5.9
		C407.5,419.9,413.5,421.8,411.9,415.5z"/>
	<path class="st5" d="M400.8,425.2c-7.5,14.9-23.7,4.4-17.1-8.7"/>
	<path class="st13" d="M355.6,467.1c6.6-4.9,18.7-4.9,22.9,1.7"/>
</g>
</svg>
