<?xml version="1.0" encoding="utf-8"?>
<!-- Generator: Adobe Illustrator 22.0.1, SVG Export Plug-In . SVG Version: 6.00 Build 0)  -->
<svg version="1.1" xmlns="http://www.w3.org/2000/svg" xmlns:xlink="http://www.w3.org/1999/xlink" x="0px" y="0px"
	 viewBox="0 0 3107.5 2680.1" style="enable-background:new 0 0 3107.5 2680.1;" xml:space="preserve">
<style type="text/css">
	.st0{opacity:0.64;fill:url(#SVGID_1_);}
	.st1{fill:#F7A56D;}
	.st2{fill:#F16042;}
</style>
<g id="Layer_2">
</g>
<g id="Layer_3">
</g>
<g id="Layer_1">
	<radialGradient id="SVGID_1_" cx="1553.7711" cy="1340.0728" r="6233.4937" gradientUnits="userSpaceOnUse">
		<stop  offset="0" style="stop-color:#FDFDFD"/>
		<stop  offset="0.3166" style="stop-color:#F9F9F9"/>
		<stop  offset="0.6441" style="stop-color:#ECECEC"/>
		<stop  offset="0.9756" style="stop-color:#D8D8D8"/>
		<stop  offset="1" style="stop-color:#D6D6D6"/>
	</radialGradient>
	<rect x="-775.1" y="-988.8" class="st0" width="4657.8" height="4657.8"/>
	<g>
		<path class="st1" d="M2489.7,1272.8c-16.2-39.6-37.2-76.6-62.4-110.3L3107.5,0H2434l-807.8,1158.1c-36.3,47.5-64.3,101.6-81.8,160
			c-12.6-56.6-34.7-109.6-64.7-157.3l3.3-0.3L673.6,0H0l656.4,1121.9c-31.6,41.1-57,87.3-74.7,137.2l-227.4,529.6
			c-18.8,45.2,2.6,96.9,47.8,115.8c45.1,18.8,96.9-2.6,115.7-47.7l85.2-204.5c1.1-1.8,2.3-3.9,3.4-6.2
			c45.2-91.1,87.2-29.2,90.5,28.6c1.2,21.2,1.4,65.2,2.9,76.5l-8.2,684.6c-0.6,48.9,38.6,89,87.5,89.6c48.9,0.5,89-38.6,89.6-87.5
			l7.1-585.8c2.4-12.5,14.2-22,28.4-21.8c14.7,0.2,26.6,10.5,28,23.8l-8.5,704.3c-0.5,48.9,40.1,89.1,90.7,89.6
			c50.8,0.6,92.4-38.5,92.9-87.4l8.1-671.3c0.3,0,0.5,0,0.8,0l0.3-21.9c0.1-14.5,11.4-26.2,25.1-26.1c12.4,0.2,22.5,9.9,24.2,22.5
			l-7,582.7c-0.6,48.9,38.6,89,87.5,89.6c48.9,0.6,89-38.6,89.6-87.5l7.4-614.5c0,0,0.1,0,0.1-0.1l0.3-27.6
			c0.2-14.6,11.9-26.2,26.1-26.1c12.6,0.2,22.7,9.9,24.6,22.2c0.1-0.1,0.1-0.1,0.2-0.2l-2.5,342.4c-0.5,43,33.9,78.3,77,78.8
			c43,0.6,78.3-33.9,78.8-76.9l2.1-224.6l15.5,281.6c2.5,42.9,39.3,75.8,82.2,73.2c43-2.5,75.8-39.3,73.3-82.2l-18.2-341.9
			c0.1,0.1,0.1,0.1,0.2,0.2c1.4-12.5,10.9-22.6,23.6-23.3c14.2-0.8,26.4,10.3,27.2,24.9l1.6,27.6c0,0,0.1,0,0.1,0.1l35.4,613.6
			c2.8,48.8,44.7,86.1,93.5,83.3c48.9-2.9,86.2-44.7,83.3-93.5l-33.6-581.8c1.2-12.6,10.9-22.8,23.2-23.6
			c13.7-0.8,25.5,10.4,26.3,24.9l1.3,21.9c0.3,0,0.5,0,0.8,0l38.8,670.2c2.8,48.9,46.1,86,96.8,83.1c50.6-2.9,89.3-44.8,86.5-93.7
			l-40.7-703.1c0.8-13.3,12.3-24.2,26.9-25c14.2-0.9,26.5,8.1,29.4,20.4l33.8,584.9c2.8,48.9,44.7,86.1,93.5,83.3
			c48.8-2.9,86.1-44.7,83.3-93.5l-39.5-683.5c1-11.4-0.9-55.3-0.6-76.5c0.6-57.9,39.7-121.6,89.1-32.7c1.3,2.3,2.5,4.3,3.7,6.1
			l94.4,200.4c20.8,44.2,73.6,63.2,117.8,42.4c44.2-20.9,63.2-73.6,42.4-117.9L2489.7,1272.8z"/>
		<g>
			<path class="st2" d="M1552.4,1429.5c-271.1-281.4-524.9,48.1-396.1,279.9c101.3,182.2,396.2,396.6,396.2,396.6
				c27.7-19.9,294.7-214.5,396.1-396.6C2077.4,1477.6,1823.6,1148.1,1552.4,1429.5z"/>
		</g>
	</g>
</g>
</svg>
