<svg width="1130" height="1508" viewBox="0 0 1130 1508" xmlns="http://www.w3.org/2000/svg" xmlns:xlink="http://www.w3.org/1999/xlink" overflow="hidden"><defs><path d="M0 534.72 773.987 534.72 773.987 0 0 0Z" id="path-1"/><path d="M0 534.72 773.987 534.72 773.987 0 0 0Z" id="path-3"/><path d="M0 534.72 773.987 534.72 773.987 0 0 0Z" id="path-5"/><path d="M0 534.72 773.987 534.72 773.987 0 0 0Z" id="path-7"/><path d="M0 534.72 773.987 534.72 773.987 0 0 0Z" id="path-9"/><path d="M0 534.72 773.987 534.72 773.987 0 0 0Z" id="path-11"/></defs><g id="Page-1" fill="none" fill-rule="evenodd"><g id="Artboard-4" transform="translate(-11646 -6834)"><g id="smartphone" transform="translate(11646 6819)"><rect x="483" y="1242" width="620" height="281" id="Rectangle-path" fill="#C8D2D6" fill-rule="nonzero"/><path d="M904 1523 483 1523 483 1242 731.022 1242C826.562 1242 904 1317.18 904 1409.94L904 1523Z" id="Shape" fill="#E7ECED" fill-rule="nonzero"/><circle cx="723.5" cy="1377.5" r="64.5" id="Oval" fill="#7383BF" fill-rule="nonzero"/><path d="M685.27 295C717.466 280.848 740 248.782 740 211.391 740 160.917 699.083 120 648.609 120 611.191 120 579.126 142.534 565 174.73L685.27 295Z" id="Shape" fill="#FBCE9D" fill-rule="nonzero"/><path d="M814.27 424C846.466 409.848 869 377.782 869 340.391 869 289.917 828.083 249 777.609 249 740.191 249 708.126 271.534 694 303.73L814.27 424Z" id="Shape" fill="#FBCE9D" fill-rule="nonzero"/><path d="M942.27 552C974.466 537.848 997 505.782 997 468.391 997 417.917 956.083 377 905.609 377 868.191 377 836.126 399.534 822 431.73L942.27 552Z" id="Shape" fill="#FBCE9D" fill-rule="nonzero"/><path d="M1071.27 681C1103.47 666.848 1126 634.782 1126 597.391 1126 546.917 1085.08 506 1034.61 506 997.191 506 965.126 528.534 951 560.73L1071.27 681Z" id="Shape" fill="#FBCE9D" fill-rule="nonzero"/><path d="M543.588 880 282.412 880C232.135 880 191 837.925 191 786.5 191 735.075 232.135 693 282.412 693L543.588 693C593.865 693 635 735.075 635 786.5 635 837.925 593.865 880 543.588 880Z" id="Shape" fill="#FBCE9D" fill-rule="nonzero"/><path d="M1078.5 833 789.327 1118.98C766.026 1142.02 728.241 1142.02 704.967 1118.98L453.188 869.956 281.842 869.956C266.811 877.234 225.801 850.977 241.534 864.324L522.699 1141.3C524.623 1143.2 526.86 1144.57 528.888 1146.29L528.888 1230 1048.99 1230 1048.99 1114.01C1096.29 1078.81 1127 1023.03 1127 959.967 1126.97 911.284 1108.59 866.947 1078.5 833Z" id="Shape" fill="#F7B563" fill-rule="nonzero"/><path d="M478.017 85 74 489.006 271.165 686.166C274.411 685.828 277.554 685.179 280.852 685.179L540.553 685.179C590.545 685.179 631.448 726.081 631.448 776.072 631.448 826.063 590.545 866.964 540.553 866.964L451.969 866.964 617.009 1032 1021 627.994 478.017 85Z" id="Shape" fill="#27BCBD" fill-rule="nonzero"/><g id="Group-5" transform="matrix(0.694658 -0.71934 0.71934 0.694658 0.087776 557.321)"><g id="Fill-17-Clipped"><mask id="mask-2" fill="#FFFFFF"><use width="100%" height="100%" xlink:href="#path-1"></use></mask><g id="path-1"></g><path d="M226.04 296.494C226.145 296.928 226.373 297.589 226.823 298.517 233.537 308.894 246.061 315.373 259.476 315.373 279.878 315.373 296.449 301.056 297.204 282.776L297.264 281.361 298.19 282.486C298.551 282.925 298.932 283.464 299.372 284.089 300.095 285.118 300.995 286.398 302.238 287.824 302.732 288.392 303.018 288.606 303.154 288.685 303.187 288.614 303.221 288.52 303.244 288.455 303.351 288.161 303.528 287.669 304.074 287.669 304.471 287.669 304.76 287.971 304.99 288.266 305.023 288.305 305.054 288.343 305.084 288.38 304.767 287.392 304.161 285.9 303.569 284.607 300.218 277.811 298.074 274.906 296.408 274.906 295.295 274.906 294.058 276.144 292.491 277.711 291.945 278.256 291.354 278.847 290.701 279.453 287.817 282.45 284.489 285.033 284.454 285.06 284.357 285.142 284.257 285.23 284.161 285.321 284.639 285.209 285.077 285.456 285.128 285.884 285.132 286.041 285.125 286.136 285.117 286.222 285.091 286.53 285.09 286.554 285.306 286.697 285.831 286.949 285.889 287.294 285.899 287.619 285.9 287.661 285.901 287.701 285.907 287.744 286.468 287.453 287.817 286.315 288.746 285.533 289.438 284.948 290.155 284.344 290.817 283.844 291.563 283.234 292.449 282.645 293.294 282.195L294.375 281.619 294.103 282.75C290.421 298.087 275.473 309.222 258.559 309.222L258.554 309.222C258.303 309.222 258.049 309.221 257.796 309.218 248.91 309.049 240.39 305.833 233.888 300.288L232.088 299.452C231.341 299.103 230.802 298.898 230.48 298.842 230.505 298.918 230.548 299.024 230.617 299.165L231.032 300.001 229.881 299.869C228.678 299.74 228.204 299.561 226.195 296.693 226.14 296.618 226.088 296.55 226.04 296.494M259.476 316.397C245.676 316.397 232.794 309.728 225.851 298.993 225.201 297.66 224.559 295.995 225.018 295.331 225.159 295.131 225.387 295.013 225.642 295.013 226.082 295.013 226.534 295.356 227.106 296.124 228.365 297.916 228.886 298.493 229.348 298.707 229.34 298.522 229.378 298.342 229.488 298.181 229.63 297.974 230.085 297.623 231.128 297.946 231.067 297.741 231.037 297.55 231.043 297.368L231.075 296.062 232.004 297.041C238.535 303.939 247.944 308.003 257.819 308.193 274.12 308.521 288.589 298.216 292.707 283.758 292.296 284.031 291.894 284.326 291.524 284.628 290.87 285.122 290.165 285.717 289.485 286.291 287.249 288.173 286.069 289.083 285.265 288.745L285.072 288.664 284.988 288.479C284.814 288.101 284.805 287.828 284.801 287.65 284.835 287.627 284.811 287.606 284.733 287.568 284.174 287.204 284.035 286.823 284.012 286.501 283.959 286.527 283.909 286.554 283.865 286.579 283.455 286.791 283.101 286.976 282.767 286.976 282.549 286.976 282.401 286.898 282.312 286.834L282.116 286.685 282.067 286.369C282.062 286.198 282.046 285.74 283.73 284.289 283.786 284.245 287.054 281.71 289.905 278.749 290.567 278.134 291.15 277.55 291.687 277.011 293.505 275.198 294.818 273.885 296.408 273.885 298.683 273.885 300.82 276.583 304.574 284.193 306.817 289.095 306.422 289.651 306.274 289.859 306.148 290.038 305.945 290.139 305.716 290.139 305.372 290.139 305.01 289.95 304.205 288.992 304.064 289.33 303.805 289.752 303.234 289.752 302.72 289.752 302.168 289.369 301.385 288.469 300.105 287.002 299.188 285.699 298.453 284.651 298.368 284.532 298.286 284.416 298.207 284.303 296.618 302.416 279.913 316.397 259.476 316.397" id="Fill-17" fill="#35B5AF" fill-rule="nonzero" mask="url(#mask-2)"/></g><path d="M294.38 230.216C294.57 235.984 292.576 240.874 288.263 245.196 284.385 249.165 279.817 251.098 274.299 251.098 273.931 251.098 273.56 251.087 273.156 251.07 267.568 250.887 262.962 248.81 259.072 244.717 255.182 240.623 253.259 235.768 253.353 230.288 253.451 224.671 255.469 220.046 259.529 216.156 263.557 212.293 268.369 210.335 273.824 210.335L274.231 210.339C279.81 210.339 284.406 212.231 288.276 216.124 292.288 220.159 294.285 224.759 294.38 230.216ZM306.483 180.357 294.587 180.357 294.587 206.269C289.02 201.657 282.394 199.193 274.827 198.933 265.718 198.625 257.778 201.71 251.223 208.098 244.676 214.372 241.354 222.03 241.354 230.854 241.354 239.36 244.415 246.767 250.456 252.874 256.544 259.029 264.105 262.259 272.907 262.473 273.333 262.488 273.755 262.495 274.176 262.495 282.633 262.495 290.21 259.446 296.706 253.421 303.415 247.096 306.706 239.452 306.483 230.755L306.483 180.357Z" id="Fill-1" fill="#FFFFFF" fill-rule="nonzero"/><path d="M329.612 201.578C327.953 202.45 326.5 203.444 325.239 204.576L325.239 200.338 313.76 200.338 313.76 261.18 326.175 261.18 326.175 225.165C326.175 221.773 326.73 219.223 327.852 217.402 328.369 216.596 329.526 215.212 332.095 213.196 334.061 211.654 336.658 210.828 339.819 210.745L341.802 210.689 341.802 199.302 339.83 199.239C336.342 199.12 333.024 199.885 329.612 201.578" id="Fill-3" fill="#FFFFFF" fill-rule="nonzero"/><path d="M400.242 230.061C400.339 235.876 398.309 240.779 394.02 245.07 390.145 249.04 385.579 250.97 380.06 250.97 379.692 250.97 379.319 250.963 378.912 250.944 373.327 250.764 368.72 248.684 364.831 244.593 360.955 240.514 359.118 235.791 359.216 230.161 359.312 224.543 361.331 219.923 365.389 216.03 369.476 212.114 374.152 210.21 379.681 210.21L380.093 210.212C385.602 210.212 390.161 212.106 394.033 215.998 398.02 220.008 400.051 224.62 400.242 230.061M380.584 198.809C371.489 198.502 363.534 201.581 356.982 207.973 350.432 214.251 347.111 221.907 347.111 230.731 347.111 239.235 350.174 246.642 356.215 252.749 362.304 258.904 369.865 262.131 378.664 262.348 379.091 262.361 379.515 262.369 379.937 262.369 388.468 262.369 395.981 259.314 402.269 253.285 408.886 246.941 412.243 239.318 412.243 230.631 412.243 222.192 409.144 214.783 403.047 208.62 397.032 202.433 389.477 199.134 380.584 198.809" id="Fill-5" fill="#FFFFFF" fill-rule="nonzero"/><path d="M473.089 230.061C473.182 235.876 471.154 240.779 466.865 245.07 462.989 249.04 458.422 250.97 452.906 250.97 452.536 250.97 452.162 250.963 451.758 250.944 446.17 250.764 441.566 248.684 437.674 244.593 433.8 240.514 431.965 235.791 432.062 230.161 432.157 224.543 434.176 219.923 438.235 216.03 442.321 212.114 446.995 210.21 452.524 210.21L452.937 210.212C458.446 210.212 463.007 212.106 466.876 215.998 470.866 220.008 472.895 224.62 473.089 230.061M453.428 198.809C444.327 198.502 436.379 201.581 429.826 207.973 423.277 214.251 419.956 221.907 419.956 230.731 419.956 239.235 423.019 246.642 429.058 252.749 435.148 258.904 442.709 262.131 451.51 262.348 451.938 262.361 452.36 262.369 452.78 262.369 461.313 262.369 468.827 259.314 475.11 253.285 481.729 246.941 485.086 239.318 485.086 230.631 485.086 222.192 481.991 214.783 475.89 208.62 469.877 202.433 462.319 199.134 453.428 198.809" id="Fill-7" fill="#FFFFFF" fill-rule="nonzero"/><path d="M545.061 229.848C545.156 235.409 543.287 240.129 539.343 244.278 535.477 248.344 530.862 250.457 525.232 250.732 524.878 250.748 524.525 250.757 524.177 250.757L524.173 250.757C518.791 250.757 514.193 248.815 510.139 244.84 505.84 240.539 503.842 235.611 504.038 229.75 504.131 224.32 506.128 219.722 510.139 215.686 514.011 211.791 518.609 209.899 524.183 209.899 529.952 209.899 534.723 211.831 538.785 215.817 542.913 219.777 544.965 224.367 545.061 229.848M523.59 198.595C515.965 198.856 509.341 201.31 503.83 205.895L503.83 179.918 491.934 179.918 491.934 229.916 491.934 230.266C491.712 239.016 495.002 246.656 501.71 252.984 508.164 259.068 515.742 262.156 524.24 262.156 524.661 262.156 525.084 262.148 525.511 262.134 534.362 261.812 541.912 258.549 547.96 252.436 554.069 246.26 557.167 238.849 557.167 230.417 557.167 221.661 553.811 214.003 547.206 207.67 540.702 201.33 532.724 198.272 523.59 198.595" id="Fill-9" fill="#FFFFFF" fill-rule="nonzero"/><g id="Fill-11-Clipped"><mask id="mask-4" fill="#FFFFFF"><use width="100%" height="100%" xlink:href="#path-3"></use></mask><g id="path-1"></g><path d="M563.373 262.356 575.27 262.356 575.27 200.287 563.373 200.287Z" id="Fill-11" fill="#FFFFFF" fill-rule="nonzero" mask="url(#mask-4)"/></g><g id="Fill-13-Clipped"><mask id="mask-6" fill="#FFFFFF"><use width="100%" height="100%" xlink:href="#path-5"></use></mask><g id="path-1"></g><path d="M569.247 194.23C573.135 194.23 576.289 191.209 576.289 187.478 576.289 183.75 573.135 180.727 569.247 180.727 565.36 180.727 562.206 183.75 562.206 187.478 562.206 191.209 565.36 194.23 569.247 194.23" id="Fill-13" fill="#FFFFFF" fill-rule="nonzero" mask="url(#mask-6)"/></g><g id="Fill-14-Clipped"><mask id="mask-8" fill="#FFFFFF"><use width="100%" height="100%" xlink:href="#path-7"></use></mask><g id="path-1"></g><path d="M258.177 353.712C209.96 353.712 170.732 315.149 170.732 267.75 170.732 220.352 209.96 181.787 258.177 181.787 260.394 181.787 262.193 183.548 262.193 185.721 262.193 187.894 260.394 189.654 258.177 189.654 214.388 189.654 178.764 224.691 178.764 267.75 178.764 310.81 214.388 345.844 258.177 345.844 301.967 345.844 337.59 310.81 337.59 267.75 337.59 265.577 339.388 263.815 341.607 263.815 343.823 263.815 345.623 265.577 345.623 267.75 345.623 315.149 306.395 353.712 258.177 353.712" id="Fill-14" fill="#FFFFFF" fill-rule="nonzero" mask="url(#mask-8)"/></g><g id="Fill-15-Clipped"><mask id="mask-10" fill="#FFFFFF"><use width="100%" height="100%" xlink:href="#path-9"></use></mask><g id="path-1"></g><path d="M258.177 183.27C210.793 183.27 172.243 221.166 172.243 267.75 172.243 314.333 210.793 352.233 258.177 352.233 305.562 352.233 344.113 314.333 344.113 267.75 344.113 266.397 342.988 265.296 341.607 265.296 340.226 265.296 339.101 266.397 339.101 267.75 339.101 311.628 302.799 347.325 258.177 347.325 213.555 347.325 177.253 311.628 177.253 267.75 177.253 223.872 213.555 188.174 258.177 188.174 259.558 188.174 260.684 187.073 260.684 185.721 260.684 184.37 259.558 183.27 258.177 183.27M258.177 355.192C209.126 355.192 169.221 315.965 169.221 267.75 169.221 219.536 209.126 180.306 258.177 180.306 261.224 180.306 263.704 182.734 263.704 185.721 263.704 188.708 261.224 191.134 258.177 191.134 215.221 191.134 180.274 225.503 180.274 267.75 180.274 309.996 215.221 344.363 258.177 344.363 301.133 344.363 336.08 309.996 336.08 267.75 336.08 264.766 338.559 262.336 341.607 262.336 344.655 262.336 347.134 264.766 347.134 267.75 347.134 315.965 307.228 355.192 258.177 355.192" id="Fill-15" fill="#FFFFFF" fill-rule="nonzero" mask="url(#mask-10)"/></g><g id="Fill-16-Clipped"><mask id="mask-12" fill="#FFFFFF"><use width="100%" height="100%" xlink:href="#path-11"></use></mask><g id="path-1"></g><path d="M304.075 284.407C296.96 269.979 295.853 273.934 290.314 279.091 287.4 282.116 284.105 284.663 284.105 284.663 284.105 284.663 282.332 286.19 282.657 286.436 282.981 286.678 284.516 285.381 284.583 285.942 284.578 286.398 284.412 286.736 284.99 287.116 285.587 287.409 285.173 287.58 285.494 288.281 286.271 288.61 289.026 285.855 291.163 284.242 291.863 283.67 292.717 283.09 293.567 282.638 289.922 297.826 275.185 309.036 257.809 308.706 247.337 308.505 238.007 304.156 231.593 297.38 231.583 297.716 231.743 298.224 232.334 298.992 230.948 298.349 229.287 297.703 230.117 299.379 229.01 299.251 228.733 299.379 226.656 296.415 225.276 294.569 224.864 295.722 226.323 298.727 232.954 308.982 245.313 315.884 259.476 315.884 280.152 315.884 296.993 301.183 297.753 282.796 298.689 283.929 299.799 285.836 301.81 288.147 304.38 291.097 303.291 286.958 304.546 288.566 307.757 292.456 304.075 284.407 304.075 284.407" id="Fill-16" fill="#FFFFFF" fill-rule="nonzero" mask="url(#mask-12)"/></g></g><g id="Group" fill="#E7ECED" fill-rule="nonzero" transform="matrix(1 0 0 1 0 15)"><path d="M480.847 75.225 423.104 17.4978C399.768-5.83261 361.924-5.83261 338.613 17.4978L17.9152 338.083C-5.4215 361.413-5.4215 399.247 17.9152 422.578L75.658 480.305 480.847 75.225Z" id="Shape"/><path d="M1112.08 706.318 1025.41 619.662 620.242 1024.74 706.896 1111.37C730.232 1134.7 768.076 1134.7 791.387 1111.37L1112.06 790.787C1135.42 767.483 1135.42 729.649 1112.08 706.318Z" id="Shape"/></g><circle cx="886.5" cy="885.5" r="52.5" id="Oval" fill="#FFFFFF" fill-rule="nonzero"/><path d="M217.253 307C210.534 307 203.815 304.428 198.697 299.309 188.434 289.046 188.434 272.457 198.697 262.194L251.19 209.697C261.453 199.434 278.041 199.434 288.303 209.697 298.566 219.96 298.566 236.549 288.303 246.813L235.81 299.309C230.692 304.428 223.972 307 217.253 307Z" id="Shape" fill="#424A60" fill-rule="nonzero"/></g></g></g></svg>