<?xml version="1.0" encoding="utf-8"?>
<!-- Generator: Adobe Illustrator 21.1.0, SVG Export Plug-In . SVG Version: 6.00 Build 0)  -->
<svg version="1.1" id="Layer_1" xmlns="http://www.w3.org/2000/svg" xmlns:xlink="http://www.w3.org/1999/xlink" x="0px" y="0px"
	 viewBox="0 0 150 150" style="enable-background:new 0 0 150 150;" xml:space="preserve">
<style type="text/css">
	.st0{fill:#4987BD;}
	.st1{fill:#263160;}
	.st2{fill:#5A5E58;}
	.st3{fill:#B9C2B6;}
	.st4{fill:#1F284F;}
	.st5{fill:#808080;}
	.st6{fill:#4D4D4D;}
	.st7{fill:#CCCCCC;}
	.st8{fill:#A34231;}
	.st9{fill:#EDDCBB;}
	.st10{fill:#ED6868;}
	.st11{fill:#444945;}
</style>
<g>
	<g>
		<path class="st0" d="M88.7,13.4H61.3C47,13.4,35.5,25.4,36,39.7l1.5,40.2c0.5,13.6,11.7,24.4,25.3,24.4h24.4
			c13.6,0,24.8-10.8,25.3-24.4l1.5-40.2C114.5,25.4,103,13.4,88.7,13.4z"/>
	</g>
	<g>
		<path class="st1" d="M104,24.3c-4-4.4-9.5-6.8-15.3-6.8H61.3c-5.8,0-11.2,2.4-15.3,6.8c-4,4.4-6.1,10.1-5.9,16.2l1.5,41.9
			c0.4,11.9,9.7,21.3,21.2,21.3h24.4c11.5,0,20.8-9.3,21.2-21.3l1.5-41.9C110.1,34.4,108,28.6,104,24.3z"/>
	</g>
	<g>
		<rect x="48.3" y="33.5" class="st2" width="53.7" height="35.7"/>
		<rect x="49" y="34.2" class="st3" width="52.4" height="34.4"/>
	</g>
	<g>
		<g>
			<path class="st4" d="M64.5,87.1l-10.4-1c-3.1,0-5.6-2.5-5.6-5.6l0,0c0-3.1,2.5-5.6,5.6-5.6l10.4-1V87.1z"/>
		</g>
		<path class="st5" d="M54.1,85.4C54.1,85.4,54.1,85.4,54.1,85.4c-2.8,0-5-2.2-5-4.9s2.2-4.9,4.9-4.9c0,0,0,0,0.1,0l9.6-0.9v11.8
			L54.1,85.4z"/>
		<path class="st6" d="M53.3,79.7l5.9-3.4c0.5-0.3,1.2,0.1,1.2,0.7v6.8c0,0.6-0.6,1-1.2,0.7L53.3,81C52.8,80.7,52.8,80,53.3,79.7z"
			/>
		<path class="st7" d="M54.1,80l2.7-1.6c0.2-0.1,0.5,0,0.5,0.3v3.1c0,0.3-0.3,0.4-0.5,0.3l-2.7-1.6C53.9,80.5,53.9,80.2,54.1,80z"/>
	</g>
	<g>
		<g>
			<g>
				<path class="st4" d="M86.1,87.6l10.4-1c3.1,0,5.6-2.5,5.6-5.6l0,0c0-3.1-2.5-5.6-5.6-5.6l-10.4-1V87.6z"/>
			</g>
		</g>
		<path class="st5" d="M96.4,85.9C96.4,85.9,96.4,85.9,96.4,85.9c2.8,0,5-2.2,5-4.9S99.1,76,96.4,76c0,0,0,0-0.1,0l-9.6-0.9v11.8
			L96.4,85.9z"/>
		<path class="st6" d="M97.2,80.2l-5.9-3.4c-0.5-0.3-1.2,0.1-1.2,0.7v6.8c0,0.6,0.6,1,1.2,0.7l5.9-3.4
			C97.7,81.2,97.7,80.5,97.2,80.2z"/>
		<path class="st7" d="M96.4,80.5L93.7,79c-0.2-0.1-0.5,0-0.5,0.3v3.1c0,0.3,0.3,0.4,0.5,0.3l2.7-1.6C96.7,81,96.7,80.7,96.4,80.5z"
			/>
	</g>
	<g>
		<g>
			<g>
				<path class="st4" d="M79.7,74h-9.2c-0.5,0-0.9,0.4-0.9,0.9v12.2c0,0.5,0.4,0.9,0.9,0.9h9.2c0.5,0,0.9-0.4,0.9-0.9V74.8
					C80.6,74.4,80.2,74,79.7,74z"/>
			</g>
			<path class="st5" d="M79.5,74.3h-8.6c-0.4,0-0.8,0.4-0.8,0.8v11.6c0,0.5,0.4,0.8,0.8,0.8h8.6c0.4,0,0.8-0.4,0.8-0.8V75.1
				C80.3,74.7,79.9,74.3,79.5,74.3z"/>
		</g>
		<g>
			<path class="st6" d="M75.2,77c-2.1,0-3.7,1.7-3.7,3.7s1.7,3.7,3.7,3.7s3.7-1.7,3.7-3.7S77.2,77,75.2,77z M75.2,83.8
				c-1.7,0-3.1-1.4-3.1-3.1s1.4-3.1,3.1-3.1s3.1,1.4,3.1,3.1S76.9,83.8,75.2,83.8z"/>
			<path class="st6" d="M75.2,78.9h-0.1c-0.3,0-0.6,0.3-0.6,0.6V82c0,0.3,0.3,0.6,0.6,0.6h0.1c0.3,0,0.6-0.3,0.6-0.6v-2.5
				C75.9,79.2,75.6,78.9,75.2,78.9z"/>
		</g>
	</g>
	<path class="st8" d="M81.2,98.8H68.8c-1,0-1.8,0.6-1.8,1.3v1.1c0,0.7,0.8,1.3,1.8,1.3h12.4c1,0,1.8-0.6,1.8-1.3v-1.1
		C83,99.4,82.2,98.8,81.2,98.8z"/>
	<g>
		<path class="st9" d="M81.5,100.8v31.6c0,0-1.8,3.3-5.3,4c-0.4,0.1-0.7,0.1-1.1,0.1c-0.4,0-0.8,0-1.2-0.1c-3.2-0.7-5.3-3.9-5.3-3.9
			v-31.6H81.5z"/>
		<path class="st10" d="M76.2,127.7v8.7c-0.4,0.1-0.7,0.1-1.1,0.1c-0.4,0-0.8,0-1.2-0.1v-8.7H76.2z"/>
	</g>
	<g>
		<g id="XMLID_82_">
			<g>
				<polygon id="XMLID_57_" class="st11" points="85.7,41.2 84.4,42.5 79.1,42.5 77.8,41.2 				"/>
				<g id="XMLID_55_">
					<polygon id="XMLID_56_" class="st11" points="85.4,50.2 84.4,51 79.1,51 78,50.2 79.1,49.3 84.4,49.3 					"/>
				</g>
				<polygon id="XMLID_54_" class="st11" points="86.1,49.9 84.8,48.5 84.8,43.3 86.1,41.9 				"/>
				<polygon id="XMLID_53_" class="st11" points="77.8,59.1 79.1,57.8 84.4,57.8 85.7,59.1 				"/>
				<polygon id="XMLID_52_" class="st11" points="86.1,50.4 84.7,51.8 84.7,57.1 86.1,58.4 				"/>
			</g>
		</g>
		<g id="XMLID_22_">
			<g>
				<polygon id="XMLID_72_" class="st11" points="69.5,41.2 68.1,42.5 62.9,42.5 61.5,41.2 				"/>
				<g id="XMLID_70_">
					<polygon id="XMLID_71_" class="st11" points="69.2,50.2 68.1,51 62.8,51 61.8,50.2 62.8,49.3 68.1,49.3 					"/>
				</g>
				<polygon id="XMLID_69_" class="st11" points="69.8,49.9 68.5,48.5 68.5,43.3 69.8,41.9 				"/>
				<polygon id="XMLID_68_" class="st11" points="61.1,49.9 62.5,48.5 62.5,43.3 61.1,41.9 				"/>
				<polygon id="XMLID_67_" class="st11" points="61.5,59.1 62.8,57.8 68.1,57.8 69.4,59.1 				"/>
				<polygon id="XMLID_66_" class="st11" points="69.8,50.4 68.5,51.8 68.5,57.1 69.8,58.4 				"/>
			</g>
		</g>
		<rect x="73" y="57.8" class="st11" width="1.6" height="1.3"/>
	</g>
	<path class="st11" d="M56.5,51c0,1.5-1.2,2.6-2.6,2.6s-2.6-1.2-2.6-2.6s2.6-6,2.6-6S56.5,49.6,56.5,51z"/>
	<g>
		<g>
			<path class="st11" d="M91.4,47.1c0-0.2,0-0.4,0-0.5h0.3l0,0.3h0c0.1-0.2,0.3-0.4,0.6-0.4c0.3,0,0.5,0.2,0.6,0.4h0
				c0.1-0.1,0.1-0.2,0.2-0.3c0.1-0.1,0.2-0.1,0.4-0.1c0.3,0,0.7,0.2,0.7,0.9v1.2h-0.4v-1.1c0-0.4-0.1-0.6-0.4-0.6
				c-0.2,0-0.4,0.2-0.4,0.3c0,0.1,0,0.1,0,0.2v1.2h-0.4v-1.2c0-0.3-0.1-0.5-0.4-0.5c-0.2,0-0.4,0.2-0.4,0.4c0,0,0,0.1,0,0.2v1.2
				h-0.4V47.1z"/>
			<path class="st11" d="M96.5,48.3c0,0.5-0.1,0.7-0.3,0.9c-0.2,0.2-0.5,0.2-0.7,0.2c-0.2,0-0.5-0.1-0.7-0.2l0.1-0.3
				c0.1,0.1,0.3,0.2,0.6,0.2c0.4,0,0.6-0.2,0.6-0.7v-0.2h0c-0.1,0.2-0.3,0.3-0.6,0.3c-0.5,0-0.8-0.4-0.8-1c0-0.7,0.4-1,0.9-1
				c0.3,0,0.5,0.2,0.6,0.3h0l0-0.3h0.3c0,0.1,0,0.3,0,0.5V48.3z M96.1,47.4c0-0.1,0-0.1,0-0.2c-0.1-0.2-0.2-0.4-0.5-0.4
				c-0.3,0-0.6,0.3-0.6,0.7c0,0.4,0.2,0.7,0.6,0.7c0.2,0,0.4-0.1,0.5-0.4c0-0.1,0-0.1,0-0.2V47.4z"/>
		</g>
		<g>
			<path class="st11" d="M94.4,51v2.4c0,0.2,0,0.4,0,0.5h-0.3l0-0.3h0c-0.1,0.2-0.3,0.4-0.7,0.4c-0.5,0-0.8-0.4-0.8-1
				c0-0.7,0.4-1.1,0.9-1.1c0.3,0,0.5,0.1,0.6,0.3h0V51H94.4z M94,52.7c0,0,0-0.1,0-0.2c-0.1-0.2-0.2-0.4-0.5-0.4
				c-0.4,0-0.6,0.3-0.6,0.8c0,0.4,0.2,0.7,0.6,0.7c0.2,0,0.5-0.2,0.5-0.4c0,0,0-0.1,0-0.2V52.7z"/>
			<path class="st11" d="M95,51h0.4v2.9H95V51z"/>
		</g>
		<rect x="89.7" y="50.1" class="st11" width="8.8" height="0.4"/>
	</g>
</g>
</svg>
