<?xml version="1.0" encoding="utf-8"?>
<!-- Generator: Adobe Illustrator 21.1.0, SVG Export Plug-In . SVG Version: 6.00 Build 0)  -->
<svg version="1.1" id="Layer_1" xmlns="http://www.w3.org/2000/svg" xmlns:xlink="http://www.w3.org/1999/xlink" x="0px" y="0px"
	 viewBox="0 0 150 150" style="enable-background:new 0 0 150 150;" xml:space="preserve">
<style type="text/css">
	.st0{fill:#CCCCCC;}
	.st1{fill:#DAE56B;}
	.st2{fill:#E8F0A7;}
	.st3{fill:#64B044;}
	.st4{fill:#D3362D;}
	.st5{fill:#EA4D20;}
	.st6{fill:#5F9653;}
	.st7{fill:#8DC375;}
	.st8{fill:#BADBAC;}
	.st9{fill:#FFFFFF;}
	.st10{fill:#F5DF3C;}
	.st11{fill:#64A74A;}
</style>
<g>
	<path class="st0" d="M56.3,81.9c0.4,1.5-0.2,2.9-1.2,3.1l-1,0.2c-1,0.2-2.1-0.7-2.5-2.2L39.4,37c-0.4-1.5,1.1-3.1,2.1-3.3l1-0.2
		c1-0.3,3.1,0.5,3.4,2L56.3,81.9z"/>
	<path class="st0" d="M84.6,84c-1,1.1-2.5,1.5-3.2,0.8l-0.8-0.7c-0.8-0.7-0.6-2.2,0.4-3.3l30.8-36.2c1-1.1,3.2-0.9,4-0.2l0.8,0.7
		c0.8,0.7,1.3,2.8,0.3,3.9L84.6,84z"/>
	<path class="st1" d="M123.7,83.3c0,24.7-23.1,34.8-51.6,34.8c-28.5,0-51.6-10.1-51.6-34.8c0-5.2,23.1-9.4,51.6-9.4
		C100.6,73.9,123.7,78.1,123.7,83.3z"/>
	<path class="st2" d="M123.7,82.7c0,5.2-23.1,9.4-51.6,9.4c-28.5,0-51.6-4.2-51.6-9.4c0-5.2,23.1-9.4,51.6-9.4
		C100.6,73.3,123.7,77.5,123.7,82.7z"/>
	<path class="st1" d="M121.5,82.7c0,4.3-22.1,7.8-49.3,7.8c-27.2,0-49.3-3.5-49.3-7.8c0-4.3,22.1-7.8,49.3-7.8
		C99.4,74.9,121.5,78.4,121.5,82.7z"/>
	<g>
		<path class="st3" d="M62.9,90.4c-0.6,0-1.3,0-1.9-0.1c-0.6,0-1.3-0.1-1.9-0.1c-1.8-0.1-3.6-0.2-5.4-0.3c-0.4,0-0.9-0.1-1.3-0.1
			c-0.8-0.1-1.6-0.1-2.3-0.2c-10.3-0.8-18.5-2.2-23.2-3.9c-1.2-1.5-2.4-3-3.3-4.5c-5.5-8.4-6.7-16.9-2.5-21.3
			c5.7-5.9,19-2.1,29.9,8.3c1.8,1.8,3.5,3.6,4.9,5.5c0.4,0.5,0.7,0.9,1,1.4c2.2,3.2,3.9,6.4,4.9,9.4c0.3,0.9,0.5,1.8,0.7,2.6
			C62.8,88.3,62.9,89.4,62.9,90.4z"/>
		<path class="st2" d="M53.8,90c-0.4,0-0.9-0.1-1.3-0.1c-0.8-0.1-1.6-0.1-2.3-0.2c-0.8-0.8-1.7-1.6-2.5-2.4
			c-3.9-3.7-7.4-7.2-10.2-10.1c-4.3-4.4-6.9-7.5-6.6-7.7c0.3-0.3,3.9,2.7,9.1,7.4c2.8,2.5,6,5.5,9.3,8.7c1.1,1,2.1,2,3.1,3
			C52.8,89,53.3,89.5,53.8,90z"/>
	</g>
	<g>
		<path class="st4" d="M72.1,82.6c-7,4.8-16.6,3.1-21.5-3.9c-4.8-7-3.1-16.6,3.9-21.5L72.1,82.6z"/>
		<path class="st5" d="M69.7,81c-5.8,4-13.8,2.6-17.8-3.2c-4-5.8-2.6-13.8,3.2-17.8c0.3-0.2,0.6-0.4,0.9-0.6l14.5,21
			C70.2,80.6,70,80.8,69.7,81z"/>
		<ellipse transform="matrix(0.9867 -0.1627 0.1627 0.9867 -10.6897 10.2854)" class="st4" cx="57.4" cy="70.4" rx="1.8" ry="0.8"/>
		<ellipse transform="matrix(0.425 -0.9052 0.9052 0.425 -33.785 99.7917)" class="st4" cx="61.7" cy="76.5" rx="1.8" ry="0.8"/>
		<ellipse transform="matrix(0.9471 -0.3209 0.3209 0.9471 -21.2326 25.247)" class="st4" cx="66" cy="77" rx="0.8" ry="1.8"/>
		<ellipse transform="matrix(0.6534 -0.757 0.757 0.6534 -29.4521 66.5536)" class="st4" cx="58" cy="65.4" rx="0.8" ry="1.8"/>
	</g>
	<g>
		<path class="st4" d="M68.1,64.2c3.8-7.6,13.1-10.8,20.7-7c7.6,3.8,10.8,13.1,7,20.7L68.1,64.2z"/>
		<path class="st5" d="M71,64.5c3.1-6.3,10.8-8.9,17.2-5.8c6.3,3.1,8.9,10.8,5.8,17.2c-0.2,0.3-0.3,0.6-0.5,0.9L70.6,65.4
			C70.7,65.1,70.9,64.8,71,64.5z"/>
		<ellipse transform="matrix(0.7851 -0.6194 0.6194 0.7851 -23.3504 68.3698)" class="st4" cx="86.9" cy="67.8" rx="1.8" ry="0.8"/>
		
			<ellipse transform="matrix(0.9979 -6.547195e-02 6.547195e-02 0.9979 -4.0532 5.3898)" class="st4" cx="80.2" cy="64.5" rx="0.8" ry="1.8"/>
		<ellipse transform="matrix(0.6739 -0.7388 0.7388 0.6739 -24.0353 77.8269)" class="st4" cx="76.1" cy="66.1" rx="0.8" ry="1.8"/>
		<ellipse transform="matrix(0.2054 -0.9787 0.9787 0.2054 -0.3215 144.4415)" class="st4" cx="88.8" cy="72.4" rx="0.8" ry="1.8"/>
	</g>
	<g>
		<path class="st6" d="M78.7,70.2c0,1.3-0.1,2.7-0.3,4.1v0c0,0.2,0,0.4-0.1,0.6c-0.1,0.4-0.1,0.7-0.2,1.1c-0.2,0.9-0.4,1.9-0.7,2.8
			c-0.1,0.5-0.3,1-0.5,1.5c-0.4,1.1-0.9,2.3-1.4,3.4c-0.2,0.4-0.4,0.9-0.7,1.3c-0.4,0.7-0.7,1.4-1.2,2c-0.7,1.2-1.5,2.4-2.4,3.4
			c-2.8,0-5.5-0.1-8.2-0.1c-0.6,0-1.3,0-1.9-0.1c-0.6,0-1.3-0.1-1.9-0.1c-1.8-0.1-3.6-0.2-5.4-0.3c-0.4,0-0.9-0.1-1.3-0.1
			c-0.1-0.4-0.1-0.9-0.1-1.3c-0.2-3.8,0.8-8.5,2.8-13.2c0.1-0.3,0.3-0.7,0.5-1.1c0.1-0.1,0.1-0.3,0.2-0.4c4.9-9.8,13-15.6,18.4-13.1
			c2.4,1.2,3.8,3.8,4.3,7.3C78.7,68.7,78.7,69.5,78.7,70.2z"/>
		<path class="st3" d="M68.2,74.9c-1.3,3-3.1,7.1-5.3,11.6c-0.1,0.3-0.2,0.5-0.4,0.8c-0.5,1.1-1,2.1-1.5,3.1c-0.6,0-1.3-0.1-1.9-0.1
			c0.7-1.4,1.4-3,2.1-4.5c0.2-0.4,0.3-0.7,0.5-1.1c1.8-3.8,3.6-7.1,4.9-9.7c1.8-3.3,3-5.3,3.2-5.1C70.2,69.9,69.5,71.8,68.2,74.9z"
			/>
	</g>
	<g>
		<path class="st7" d="M94.8,79.3c0,0.5,0,1-0.1,1.5c0,0.2-0.1,0.4-0.1,0.6c-0.3,1.6-0.9,3.1-1.7,4.4c-0.4,0.6-0.8,1.2-1.4,1.7
			c-0.9,1-2.1,1.9-3.4,2.5c-3.2,0.2-6.6,0.3-10.1,0.4c-1.8-0.7-3.3-1.9-4.6-3.4c-1.8-2.1-2.8-4.8-2.8-7.8c0-1.6,0.3-3.1,0.9-4.5
			c1.3-3.2,3.8-5.7,7-6.8c1.3-0.5,2.7-0.8,4.1-0.8c5.4,0,10,3.5,11.5,8.4h0c0.3,1,0.5,2.1,0.5,3.2C94.8,79,94.8,79.2,94.8,79.3z"/>
		<circle class="st8" cx="82.7" cy="79.3" r="9.9"/>
		<ellipse class="st9" cx="82.7" cy="73.9" rx="0.8" ry="2.1"/>
		<ellipse class="st2" cx="82.7" cy="73.9" rx="0.8" ry="2.1"/>
		
			<ellipse transform="matrix(0.996 -8.962056e-02 8.962056e-02 0.996 -7.3177 7.7505)" class="st2" cx="82.6" cy="85.4" rx="0.8" ry="2.1"/>
		<ellipse class="st2" cx="77" cy="79.6" rx="2.1" ry="0.8"/>
		
			<ellipse transform="matrix(0.996 -8.957240e-02 8.957240e-02 0.996 -6.7811 8.2389)" class="st2" cx="88.4" cy="79.7" rx="2.1" ry="0.8"/>
		<ellipse transform="matrix(0.7069 -0.7073 0.7073 0.7069 -30.3848 77.7974)" class="st2" cx="78.7" cy="75.6" rx="0.8" ry="2.1"/>
		<ellipse transform="matrix(0.641 -0.7675 0.7675 0.641 -33.1231 96.6002)" class="st2" cx="86.7" cy="83.7" rx="0.8" ry="2.1"/>
		<ellipse transform="matrix(0.7074 -0.7068 0.7068 0.7074 -36.0883 80.1204)" class="st2" cx="78.7" cy="83.6" rx="2.1" ry="0.8"/>
		<ellipse transform="matrix(0.641 -0.7675 0.7675 0.641 -26.8525 93.8216)" class="st2" cx="86.9" cy="75.6" rx="2.1" ry="0.8"/>
	</g>
	<path class="st10" d="M69.1,87.3c0,0.9-0.7,1.7-1.7,1.7h-3.8c-0.9,0-1.7-0.7-1.7-1.7V83c0-0.9,0.7-1.7,1.7-1.7h3.8
		c0.9,0,1.7,0.7,1.7,1.7V87.3z"/>
	<path class="st10" d="M50,81.8c0.5,0.7,0.4,1.8-0.3,2.3l-3.1,2.3c-0.7,0.5-1.8,0.4-2.3-0.3l-2.5-3.4c-0.5-0.7-0.4-1.8,0.3-2.3
		l3.1-2.3c0.7-0.5,1.8-0.4,2.3,0.3L50,81.8z"/>
	<g>
		<g>
			<path class="st6" d="M126.1,66.1c-4,3.2-9.6,2.8-9.6,2.8s0.9-5.6,4.9-8.7c4-3.2,9.6-2.8,9.6-2.8S130.1,62.9,126.1,66.1z"/>
			<path class="st11" d="M126.1,66.1c-4,3.2-9.6,2.8-9.6,2.8L131,57.4C131,57.4,130.1,62.9,126.1,66.1z"/>
		</g>
		<g>
			<path class="st6" d="M113.9,65.7c-0.6,5.1-4.9,8.8-4.9,8.8s-3.3-4.6-2.7-9.7c0.6-5.1,4.9-8.8,4.9-8.8S114.5,60.6,113.9,65.7z"/>
			<path class="st11" d="M113.9,65.7c-0.6,5.1-4.9,8.8-4.9,8.8l2.2-18.4C111.2,56,114.5,60.6,113.9,65.7z"/>
		</g>
		<g>
			<path class="st3" d="M119.1,72.2c-5.1-0.6-9.7,2.7-9.7,2.7s3.7,4.3,8.8,4.9c5.1,0.6,9.7-2.7,9.7-2.7S124.2,72.8,119.1,72.2z"/>
			<path class="st6" d="M119.1,72.2c-5.1-0.6-9.7,2.7-9.7,2.7l18.4,2.2C127.9,77.1,124.2,72.8,119.1,72.2z"/>
		</g>
		<g>
			<path class="st6" d="M103.2,74.1c-0.6,5.1-4.9,8.8-4.9,8.8s-3.3-4.6-2.7-9.7c0.6-5.1,4.9-8.8,4.9-8.8S103.8,69,103.2,74.1z"/>
			<path class="st11" d="M103.2,74.1c-0.6,5.1-4.9,8.8-4.9,8.8l2.2-18.4C100.5,64.5,103.8,69,103.2,74.1z"/>
		</g>
		<g>
			<path class="st3" d="M108.4,80.7c-5.1-0.6-9.7,2.7-9.7,2.7s3.7,4.3,8.8,4.9c5.1,0.6,9.7-2.7,9.7-2.7S113.5,81.3,108.4,80.7z"/>
			<path class="st6" d="M108.4,80.7c-5.1-0.6-9.7,2.7-9.7,2.7l18.4,2.2C117.1,85.6,113.5,81.3,108.4,80.7z"/>
		</g>
		<g>
			
				<rect x="88.9" y="76" transform="matrix(0.7849 -0.6196 0.6196 0.7849 -24.5888 82.486)" class="st3" width="35.2" height="1.4"/>
		</g>
	</g>
	<g>
		<path class="st4" d="M115.3,78.9c-0.9,3.4-3,6.6-6.1,8.8c-0.2,0.1-0.3,0.2-0.5,0.3h0c-3.7,0.7-8.2,1.2-13.1,1.6h0
			c-1.4-0.5-2.8-1.1-4-2c-0.6-0.4-1.1-0.8-1.7-1.4c-0.5-0.5-1-1-1.5-1.6c-0.2-0.3-0.4-0.5-0.6-0.8l0.1-0.1l2-1.4l2.8-1.9l2.1-1.5
			l4-2.8h0l12.1-8.4l2.3-1.6C115.8,70,116.4,74.7,115.3,78.9z"/>
		<path class="st5" d="M111.4,68.6c4,5.8,2.6,13.8-3.2,17.8c-5.8,4-13.8,2.6-17.8-3.2c-0.2-0.3-0.4-0.6-0.6-0.9l21-14.5
			C111,68,111.2,68.3,111.4,68.6z"/>
		<ellipse transform="matrix(0.9866 -0.1632 0.1632 0.9866 -11.837 17.5418)" class="st4" cx="100.9" cy="80.8" rx="0.8" ry="1.8"/>
		<ellipse transform="matrix(0.425 -0.9052 0.9052 0.425 -7.8381 140.866)" class="st4" cx="107" cy="76.6" rx="0.8" ry="1.8"/>
		
			<ellipse transform="matrix(0.9472 -0.3207 0.3207 0.9472 -17.4982 38.2996)" class="st4" cx="107.5" cy="72.3" rx="1.8" ry="0.8"/>
		
			<ellipse transform="matrix(0.6526 -0.7577 0.7577 0.6526 -27.5276 100.5689)" class="st4" cx="95.9" cy="80.3" rx="1.8" ry="0.8"/>
	</g>
	<path class="st10" d="M94.6,85.2c0.5,0.7,0.4,1.8-0.3,2.3l-3.1,2.3c-0.7,0.5-1.8,0.4-2.3-0.3L86.3,86c-0.5-0.7-0.4-1.8,0.3-2.3
		l3.1-2.3c0.7-0.5,1.8-0.4,2.3,0.3L94.6,85.2z"/>
</g>
</svg>
