<?xml version="1.0" encoding="utf-8"?>
<!-- Generator: Adobe Illustrator 21.1.0, SVG Export Plug-In . SVG Version: 6.00 Build 0)  -->
<svg version="1.1" id="Layer_1" xmlns="http://www.w3.org/2000/svg" xmlns:xlink="http://www.w3.org/1999/xlink" x="0px" y="0px"
	 viewBox="0 0 750 750" style="enable-background:new 0 0 750 750;" xml:space="preserve">
<style type="text/css">
	.st0{clip-path:url(#SVGID_2_);fill:#79C7CB;}
	.st1{fill:#67AAAD;}
	.st2{fill-rule:evenodd;clip-rule:evenodd;fill:#67AAAD;}
	.st3{clip-path:url(#SVGID_4_);fill:#67AAAD;}
	.st4{clip-path:url(#SVGID_6_);fill:#67AAAD;}
	.st5{fill:#566977;}
	.st6{fill:#FEB27E;}
	.st7{fill:#F98F53;}
	.st8{fill:#EB874E;}
	.st9{fill-rule:evenodd;clip-rule:evenodd;fill:#F98F53;}
	.st10{fill:#F0A76D;}
	.st11{fill:#313C44;}
	.st12{fill:#DD6047;}
	.st13{clip-path:url(#SVGID_8_);fill:#FEB27E;}
	.st14{clip-path:url(#SVGID_8_);fill:#FEB17E;}
	.st15{clip-path:url(#SVGID_8_);fill:#FEB17F;}
	.st16{clip-path:url(#SVGID_8_);fill:#FEB07F;}
	.st17{clip-path:url(#SVGID_8_);fill:#FEAF80;}
	.st18{clip-path:url(#SVGID_8_);fill:#FEAE80;}
	.st19{clip-path:url(#SVGID_8_);fill:#FEAE81;}
	.st20{clip-path:url(#SVGID_8_);fill:#FEAD82;}
	.st21{clip-path:url(#SVGID_8_);fill:#FEAC82;}
	.st22{clip-path:url(#SVGID_8_);fill:#FEAA83;}
	.st23{clip-path:url(#SVGID_8_);fill:#FEA984;}
	.st24{clip-path:url(#SVGID_8_);fill:#FEA885;}
	.st25{clip-path:url(#SVGID_8_);fill:#FEA786;}
	.st26{clip-path:url(#SVGID_8_);fill:#FFA587;}
	.st27{clip-path:url(#SVGID_8_);fill:#FFA488;}
	.st28{clip-path:url(#SVGID_8_);fill:#FFA289;}
	.st29{clip-path:url(#SVGID_8_);fill:#FFA08A;}
	.st30{clip-path:url(#SVGID_8_);fill:#FF9F8B;}
	.st31{clip-path:url(#SVGID_8_);fill:#FF9D8D;}
	.st32{clip-path:url(#SVGID_8_);fill:#FF9B8E;}
	.st33{clip-path:url(#SVGID_10_);fill:#FEB27E;}
	.st34{clip-path:url(#SVGID_10_);fill:#FEB17E;}
	.st35{clip-path:url(#SVGID_10_);fill:#FEB17F;}
	.st36{clip-path:url(#SVGID_10_);fill:#FEB07F;}
	.st37{clip-path:url(#SVGID_10_);fill:#FEAF80;}
	.st38{clip-path:url(#SVGID_10_);fill:#FEAE80;}
	.st39{clip-path:url(#SVGID_10_);fill:#FEAE81;}
	.st40{clip-path:url(#SVGID_10_);fill:#FEAD82;}
	.st41{clip-path:url(#SVGID_10_);fill:#FEAC82;}
	.st42{clip-path:url(#SVGID_10_);fill:#FEAA83;}
	.st43{clip-path:url(#SVGID_10_);fill:#FEA984;}
	.st44{clip-path:url(#SVGID_10_);fill:#FEA885;}
	.st45{clip-path:url(#SVGID_10_);fill:#FEA786;}
	.st46{clip-path:url(#SVGID_10_);fill:#FFA587;}
	.st47{clip-path:url(#SVGID_10_);fill:#FFA488;}
	.st48{clip-path:url(#SVGID_10_);fill:#FFA289;}
	.st49{clip-path:url(#SVGID_10_);fill:#FFA08A;}
	.st50{clip-path:url(#SVGID_10_);fill:#FF9F8B;}
	.st51{clip-path:url(#SVGID_10_);fill:#FF9D8D;}
	.st52{clip-path:url(#SVGID_10_);fill:#FF9B8E;}
	.st53{fill:#F9A06E;}
	.st54{fill-rule:evenodd;clip-rule:evenodd;fill:#FEB27E;}
	.st55{fill:#F5AC79;}
	.st56{fill:#F0F0F0;}
	.st57{fill:#D9D9D9;}
	.st58{fill:#E3E3E3;}
	.st59{fill:#DEDEDE;}
</style>
<g>
	<defs>
		<rect id="SVGID_1_" width="750" height="750"/>
	</defs>
	<clipPath id="SVGID_2_">
		<use xlink:href="#SVGID_1_"  style="overflow:visible;"/>
	</clipPath>
	<rect class="st0" width="750" height="750"/>
</g>
<g>
	<path class="st1" d="M314,585.4l135.6,0.9l7.4,16.9c39.4-9.1,74.6-26.9,91-15c0.7,0.5,1.4,1,2.2,1.5c28.1,16.7-0.9,39.9-39,64.7
		l-35.7-34.8c-24.1,18.2-59.6,27.9-96.6,37.5c-32-6.1-67.3-18.6-98.5-39.2l-35.7,34.8c-31.7-11.4-46.2-28.1-45.6-49.4
		c0.2-8,6.4-15.2,15.4-17.3c23.2-5.2,53.7,9.2,92.6,18.2L314,585.4"/>
	<path class="st1" d="M457.9,686.6c5.7,9,12.2,10.3,20,4.7c3.8-2.7,8.4-4.6,13.2-5.8c15.8-3.8,25.2-11,30.3-20.5
		c1.1-2.1,0.2-4.7-2.1-5.8c-10.9-5.4-31.7,2.7-55.1,12.8L457.9,686.6"/>
	<path class="st1" d="M298.1,688.4c-5.7,9-12.2,10.3-20,4.7c-3.8-2.7-8.4-4.6-13.2-5.8c-15.8-3.8-25.2-11-30.3-20.5
		c-1.1-2.1-0.2-4.7,2.1-5.8c10.9-5.4,31.7,2.7,55.1,12.8L298.1,688.4"/>
	<path class="st1" d="M280.4,618c50.2,26.9,115.2,44.1,185.4,54.3l-7.9,14.4c-72.9-1.4-142.3-12.1-213.2-33.8L280.4,618"/>
	<path class="st1" d="M475.4,619.6c-50.2,26.9-115.2,44.1-185.4,54.3l7.9,14.4c72.9-1.4,142.3-12.1,213.2-33.8L475.4,619.6"/>
	<path class="st1" d="M445.6,369.4c29-1.6,38.9,49.5,50.5,111.6c1.6,8.4,6,16.1,12.7,21.4c23.5,18.9,51.2,32.8,76,45.1
		c5.1,2.5,11.1,1.9,15.6-1.6c30.2-23.8,6.2,2.7,13.6,3.6c5.9,0.7,19.6-7.2,26-0.4c0.5,7.2-4.3,13.7-13.4,20.4
		c-12.5,9.3-29.7,8.5-41.3-1.8l-0.2-0.2l-85.7-28c-7.9-2.6-14.1-8.7-16.9-16.5l-38.2-107.2L445.6,369.4"/>
	<path class="st1" d="M309.5,372.4c-29-1.6-38.9,49.5-50.5,111.6c-1.6,8.4-6,16.1-12.7,21.4c-23.5,18.9-51.2,32.8-76,45.1
		c-5.1,2.5-11.1,1.9-15.6-1.6c-30.2-23.8-6.2,2.7-13.6,3.6c-5.9,0.7-19.6-7.2-26-0.4c-0.5,7.2,4.3,13.7,13.4,20.4
		c12.5,9.3,29.7,8.5,41.3-1.8l0.2-0.2l85.7-28c7.9-2.6,14.1-8.7,16.9-16.5l38.2-107.2L309.5,372.4"/>
	<path class="st1" d="M616.3,211.5c-44.7,7.6-83.9-3.9-107.8-20.2c-7.4-5-13.8-10.6-19.7-16.3c-13.2-12.7-24.2-26.4-39.3-38.3
		c-22-17.2-56.8-31-101.2-27l-23.4-12.6c0.3-0.8,0.7-1.6,1.2-2.3c1.8-3.2,4.3-6.4,7.3-9.5c17.3-17.7,52.9-32.4,86-34.1
		c41.5-2.1,70.1,14.1,84.5,32.9c17.3,22.7,19.6,50,31.2,74.4c9.8,20.5,28.4,40,61,49.3h0C602.3,210.1,609,210.6,616.3,211.5"/>
	<path class="st1" d="M477.7,227.1c-7.9,23.4-19.4,48-32.6,68.9H313c-6.4-7-12.2-14.6-17.4-22c-0.8-1.1-1.6-2.3-2.4-3.4
		c-2.7-3.9-5.2-7.9-7.5-11.8C232,167.6,269.2,76,389.5,91.8c7.7,1,15.8,1.4,23.8,1.5C493.9,93.8,500.7,159,477.7,227.1"/>
	<path class="st1" d="M471,222.2c-8.8-5.1-19.2-6.9-29.4-7.1c-2.4,0-4.9,0-7.3,0c-7.1,0.1-14.1,0.2-21-1.6
		c-5.1-1.3-9.8-3.5-14.5-5.8c-7.9-3.8-16.4-7.9-24.8-11.9c-5.6-2.7-11.5-5.6-15.5-10.4c-5.1-6.1-10.5-22.4-16.8-27.3
		c-6.8-5.3-12.8,3.4-21.3,4.8c-2.2,0.3-4.4,0.7-6.2,1.9c-1.9,1.2-3.3,3.2-4.5,5.1c-7.7,11.5-15.5,23.1-23.3,34.7
		c-2.2,3.3-4.5,6.7-5.5,10.6c-1.6,5.8-0.2,11.8,1.9,17.5c1.1,3.1,2.4,6.2,3.6,9.2c3.5,9.3,5.7,18.9,6.9,28.6l2.4,3.4
		c5.2,7.4,11,15,17.4,22h132c13.2-20.9,24.7-45.5,32.6-68.9C475.6,225.2,473.4,223.6,471,222.2"/>
	<path class="st1" d="M330.1,163c-59.6,55.2-55.5,131.2,11.2,158.3c25.9,10.5,55.3,10.5,81.2,0c25.5-10.3,39.8-31.9,50-66.9
		c1.8-6.1-1.3-13.6-1.3-13.6c-13.8-7.2-33.9-12.3-56.7-16.5c-35.7-6.5-66.7-28.7-84-60.5C330.4,163.6,330.2,163.3,330.1,163"/>
	<path class="st2" d="M479.7,216.6c-2.6-2.9-13.6-17.5-13.6-17.5c12.1,66.4-10.2,122-10.1,121.8
		C474.6,279.1,475.7,264.3,479.7,216.6"/>
	<path class="st2" d="M300.2,298.7c-3.5-7.8-6.4-14.4-8.7-20.3c-4.3-10.7-6.9-19.2-8.6-28.7c-1.5-8.3-2.4-17.5-3-29.8
		c-0.2-3-0.3-6.1-0.5-9.4c2.6-2.3,15.2-23.3,16-24.6c-7.9,30.1-6,59.9-2.6,81.2C295.7,285.3,299.8,297.5,300.2,298.7"/>
	<path class="st1" d="M367.1,231.1c0,0-0.5,0.8-1.4,2.1c-0.5,0.6-1,1.4-1.7,2.2c-0.7,0.8-1.4,1.8-2.4,2.6c-1,0.9-2.1,1.8-3.3,2.7
		c-1.2,1-2.5,1.6-3.9,2.3c-1.4,0.6-2.8,1.5-4.5,1.6c-1.6,0.2-3.2,0.6-4.8,0.7c-1.6-0.2-3.2-0.4-4.8-0.6c-1.6-0.1-3-1.1-4.5-1.6
		c-0.7-0.3-1.4-0.6-2.1-0.9c-0.7-0.4-1.2-0.9-1.8-1.3c-1.2-0.9-2.3-1.8-3.2-2.6c-1-0.7-1.7-1.9-2.4-2.7c-0.7-0.8-1.3-1.7-1.7-2.3
		c-0.9-1.3-1.4-2.1-1.4-2.1l0,0l0-0.3l0.2,0c0,0,0.6,0.5,1.7,1.4c0.5,0.4,1.2,1,2,1.6c0.8,0.6,1.6,1.5,2.6,2c1,0.6,2.1,1.2,3.3,1.9
		c0.6,0.3,1.2,0.7,1.8,1c0.6,0.2,1.3,0.4,2,0.6c1.3,0.3,2.7,1.1,4.1,1.1c1.4,0.1,2.9,0.2,4.3,0.4c1.5-0.1,2.9-0.3,4.3-0.5
		c1.4,0,2.8-0.7,4.1-1.2c1.3-0.5,2.6-0.8,3.8-1.6c1.2-0.7,2.2-1.3,3.3-1.9c1-0.5,1.9-1.3,2.7-1.9c0.8-0.6,1.4-1.1,2-1.6
		c1.1-0.9,1.7-1.4,1.7-1.4l0.2,0.1L367.1,231.1L367.1,231.1"/>
	<path class="st1" d="M438.2,232.5c0,0-0.5,0.8-1.4,2.1c-0.5,0.6-1,1.4-1.7,2.2c-0.7,0.8-1.4,1.8-2.4,2.6c-1,0.9-2.1,1.8-3.3,2.7
		c-1.2,1-2.5,1.6-3.9,2.3c-1.4,0.6-2.8,1.5-4.5,1.6c-1.6,0.2-3.2,0.6-4.8,0.7c-1.6-0.2-3.2-0.4-4.8-0.6c-1.6-0.1-3-1.1-4.5-1.6
		c-0.7-0.3-1.4-0.6-2.1-0.9c-0.7-0.4-1.2-0.9-1.8-1.3c-1.2-0.9-2.3-1.8-3.2-2.6c-1-0.7-1.7-1.9-2.4-2.7c-0.7-0.8-1.3-1.6-1.7-2.3
		c-0.9-1.3-1.4-2.1-1.4-2.1l0,0l0-0.3l0.2,0c0,0,0.6,0.5,1.7,1.4c0.5,0.4,1.2,1,2,1.6c0.8,0.6,1.6,1.5,2.6,2c1,0.6,2.1,1.2,3.3,1.9
		c0.6,0.3,1.2,0.7,1.8,1c0.6,0.2,1.3,0.4,2,0.6c1.3,0.3,2.7,1.1,4.1,1.1c1.4,0.1,2.9,0.2,4.3,0.4c1.5-0.1,2.9-0.3,4.3-0.5
		c1.4,0,2.8-0.7,4.1-1.2c1.3-0.5,2.6-0.8,3.8-1.6c1.2-0.7,2.2-1.3,3.3-1.9c1-0.5,1.9-1.3,2.7-1.9c0.8-0.6,1.4-1.1,2-1.6
		c1.1-0.9,1.7-1.4,1.7-1.4l0.2,0.1L438.2,232.5L438.2,232.5"/>
	<path class="st1" d="M402.7,285.8c0,0-0.5,0.6-1.5,1.7c-0.5,0.5-1.1,1.1-1.9,1.8c-0.7,0.7-1.5,1.5-2.6,2.1
		c-1.1,0.7-2.2,1.5-3.5,2.2c-1.3,0.8-2.7,1.3-4.3,1.8c-1.5,0.5-3.1,1.3-4.8,1.3c-1.7,0.2-3.4,0.5-5.2,0.6c-1.7-0.2-3.5-0.3-5.2-0.5
		c-1.7-0.1-3.3-0.9-4.8-1.3c-0.8-0.3-1.5-0.5-2.3-0.8c-0.7-0.3-1.3-0.7-2-1.1c-1.3-0.7-2.5-1.4-3.5-2.1c-1.1-0.6-1.9-1.6-2.6-2.2
		c-0.8-0.7-1.4-1.3-1.9-1.9c-1-1.1-1.5-1.7-1.5-1.7l0,0l0-0.3l0.2,0c0,0,0.7,0.4,1.9,1.1c0.6,0.4,1.3,0.8,2.1,1.3
		c0.9,0.5,1.7,1.2,2.8,1.6c1.1,0.5,2.3,1,3.5,1.5c0.6,0.3,1.3,0.6,1.9,0.8c0.7,0.2,1.4,0.3,2.1,0.5c1.4,0.3,2.9,0.9,4.5,0.9
		c1.6,0.1,3.1,0.2,4.7,0.3c1.6,0,3.1-0.3,4.7-0.4c1.6,0,3-0.6,4.5-0.9c1.4-0.4,2.9-0.7,4.1-1.3c1.2-0.5,2.4-1.1,3.5-1.5
		c1.1-0.4,2-1,2.9-1.5c0.8-0.5,1.6-0.9,2.2-1.3c1.2-0.7,1.9-1.1,1.9-1.1l0.3,0.1L402.7,285.8L402.7,285.8"/>
	<path class="st1" d="M342.4,281c-5.9,6.8-19.1,5.1-29.6-3.9c-10.4-9-14.2-21.8-8.3-28.6s19.1-5.1,29.6,3.9
		C344.6,261.3,348.3,274.1,342.4,281"/>
	<g>
		<defs>
			<path id="SVGID_3_" d="M342.4,281c-5.9,6.8-19.1,5.1-29.6-3.9c-10.4-9-14.2-21.8-8.3-28.6s19.1-5.1,29.6,3.9
				C344.6,261.3,348.3,274.1,342.4,281"/>
		</defs>
		<clipPath id="SVGID_4_">
			<use xlink:href="#SVGID_3_"  style="overflow:visible;"/>
		</clipPath>
		<rect x="298.7" y="242.6" class="st3" width="49.6" height="44.1"/>
		<path class="st3" d="M340.9,279.7c-6.5,7.5-19.5,6.9-29.2-1.4c-9.6-8.3-12.2-21.1-5.7-28.6c6.5-7.5,19.5-6.9,29.2,1.4
			S347.4,272.2,340.9,279.7"/>
		<path class="st3" d="M340.3,279.1c-6.2,7.2-18.8,6.7-28.1-1.3c-9.3-8-11.7-20.3-5.5-27.6c6.2-7.2,18.8-6.7,28.1,1.3
			C344.1,259.5,346.5,271.9,340.3,279.1"/>
		<path class="st3" d="M339.6,278.6c-6,7-18.1,6.4-27-1.3c-8.9-7.7-11.3-19.5-5.3-26.5c6-7,18.1-6.4,27,1.3
			C343.2,259.8,345.6,271.6,339.6,278.6"/>
		<path class="st3" d="M339,278c-5.7,6.7-17.3,6.1-25.9-1.2s-10.8-18.7-5.1-25.4c5.7-6.7,17.3-6.1,25.9,1.2
			C342.4,260,344.7,271.3,339,278"/>
		<path class="st3" d="M338.3,277.4c-5.5,6.4-16.6,5.9-24.8-1.2c-8.2-7-10.4-17.9-4.9-24.3c5.5-6.4,16.6-5.9,24.8,1.2
			C341.6,260.2,343.8,271,338.3,277.4"/>
		<path class="st3" d="M337.7,276.9c-5.3,6.1-15.9,5.6-23.7-1.1c-7.8-6.7-9.9-17.1-4.6-23.2c5.3-6.1,15.9-5.6,23.7,1.1
			C340.8,260.4,342.9,270.8,337.7,276.9"/>
		<path class="st3" d="M337,276.3c-5,5.8-15.1,5.4-22.6-1.1c-7.5-6.4-9.4-16.3-4.4-22.2c5-5.8,15.1-5.4,22.6,1.1
			C340,260.6,342,270.5,337,276.3"/>
		<path class="st3" d="M336.3,275.7c-4.8,5.5-14.4,5.1-21.5-1c-7.1-6.1-9-15.5-4.2-21.1c4.8-5.5,14.4-5.1,21.5,1
			C339.2,260.8,341.1,270.2,336.3,275.7"/>
		<path class="st3" d="M335.7,275.2c-4.5,5.3-13.6,4.8-20.4-1c-6.7-5.8-8.5-14.7-4-20c4.5-5.3,13.6-4.8,20.4,1
			C338.4,261,340.2,269.9,335.7,275.2"/>
		<path class="st3" d="M335,274.6c-4.3,5-12.9,4.6-19.3-0.9c-6.4-5.5-8.1-14-3.8-18.9c4.3-5,12.9-4.6,19.3,0.9
			S339.3,269.6,335,274.6"/>
		<path class="st3" d="M334.4,274c-4,4.7-12.2,4.3-18.2-0.9c-6-5.2-7.6-13.2-3.6-17.9c4-4.7,12.2-4.3,18.2,0.9
			C336.8,261.4,338.4,269.4,334.4,274"/>
		<path class="st3" d="M333.7,273.5c-3.8,4.4-11.4,4.1-17.1-0.8c-5.6-4.9-7.1-12.4-3.4-16.8c3.8-4.4,11.4-4.1,17.1,0.8
			C336,261.6,337.5,269.1,333.7,273.5"/>
		<path class="st3" d="M333.1,272.9c-3.5,4.1-10.7,3.8-16-0.7c-5.3-4.5-6.7-11.6-3.1-15.7c3.6-4.1,10.7-3.8,16,0.7
			C335.2,261.8,336.6,268.8,333.1,272.9"/>
		<path class="st3" d="M332.4,272.4c-3.3,3.8-10,3.5-14.9-0.7c-4.9-4.2-6.2-10.8-2.9-14.6c3.3-3.8,10-3.5,14.9,0.7
			C334.4,262,335.7,268.5,332.4,272.4"/>
		<path class="st3" d="M331.7,271.8c-3.1,3.6-9.2,3.3-13.8-0.6c-4.6-3.9-5.8-10-2.7-13.5c3.1-3.6,9.2-3.3,13.8,0.6
			C333.6,262.2,334.8,268.2,331.7,271.8"/>
		<path class="st3" d="M331.1,271.2c-2.8,3.3-8.5,3-12.7-0.6c-4.2-3.6-5.3-9.2-2.5-12.5c2.8-3.3,8.5-3,12.7,0.6
			C332.8,262.4,333.9,267.9,331.1,271.2"/>
		<path class="st3" d="M330.4,270.7c-2.6,3-7.8,2.7-11.6-0.5c-3.8-3.3-4.8-8.4-2.3-11.4c2.6-3,7.8-2.7,11.6,0.5
			C332,262.6,333,267.7,330.4,270.7"/>
		<path class="st3" d="M329.8,270.1c-2.3,2.7-7,2.5-10.5-0.5c-3.5-3-4.4-7.6-2.1-10.3c2.3-2.7,7-2.5,10.5,0.5
			C331.2,262.8,332.1,267.4,329.8,270.1"/>
		<path class="st3" d="M329.1,269.5c-2.1,2.4-6.3,2.2-9.4-0.4c-3.1-2.7-3.9-6.8-1.8-9.2c2.1-2.4,6.3-2.2,9.4,0.4
			C330.4,263,331.2,267.1,329.1,269.5"/>
		<path class="st3" d="M328.5,269c-1.8,2.1-5.6,2-8.3-0.4c-2.7-2.4-3.5-6-1.6-8.1c1.8-2.1,5.6-2,8.3,0.4
			C329.6,263.2,330.3,266.8,328.5,269"/>
		<path class="st3" d="M327.8,268.4c-1.6,1.9-4.8,1.7-7.2-0.3c-2.4-2-3-5.2-1.4-7.1c1.6-1.9,4.8-1.7,7.2,0.3
			C328.8,263.4,329.4,266.5,327.8,268.4"/>
		<path class="st3" d="M327.1,267.8c-1.4,1.6-4.1,1.4-6.1-0.3c-2-1.7-2.6-4.4-1.2-6c1.4-1.6,4.1-1.4,6.1,0.3
			C328,263.6,328.5,266.3,327.1,267.8"/>
		<path class="st3" d="M326.5,267.3c-1.1,1.3-3.3,1.2-5-0.2c-1.7-1.4-2.1-3.6-1-4.9c1.1-1.3,3.4-1.2,5,0.2
			C327.2,263.8,327.6,266,326.5,267.3"/>
	</g>
	<path class="st1" d="M455.7,249.9c5.3,7.1,0.7,19.6-10.3,27.9c-11,8.3-24.3,9.3-29.6,2.2c-5.3-7.1-0.7-19.6,10.3-27.9
		C437.1,243.8,450.4,242.8,455.7,249.9"/>
	<g>
		<defs>
			<path id="SVGID_5_" d="M455.7,249.9c5.3,7.1,0.7,19.6-10.3,27.9c-11,8.3-24.3,9.3-29.6,2.2c-5.3-7.1-0.7-19.6,10.3-27.9
				C437.1,243.8,450.4,242.8,455.7,249.9"/>
		</defs>
		<clipPath id="SVGID_6_">
			<use xlink:href="#SVGID_5_"  style="overflow:visible;"/>
		</clipPath>
		<rect x="410.5" y="242.8" class="st4" width="50" height="43.9"/>
		<path class="st4" d="M456.8,264.9c0,11.6-9.4,21-21,21s-21-9.4-21-21c0-11.6,9.4-21,21-21S456.8,253.3,456.8,264.9"/>
		<path class="st4" d="M456,264.9c0,11.2-9,20.2-20.2,20.2c-11.2,0-20.2-9-20.2-20.2c0-11.2,9-20.2,20.2-20.2
			C447,244.7,456,253.8,456,264.9"/>
		<path class="st4" d="M455.2,264.9c0,10.7-8.7,19.4-19.4,19.4c-10.7,0-19.4-8.7-19.4-19.4c0-10.7,8.7-19.4,19.4-19.4
			C446.5,245.5,455.2,254.2,455.2,264.9"/>
		<path class="st4" d="M454.4,264.9c0,10.3-8.3,18.6-18.6,18.6c-10.3,0-18.6-8.3-18.6-18.6c0-10.3,8.3-18.6,18.6-18.6
			C446.1,246.3,454.4,254.7,454.4,264.9"/>
		<path class="st4" d="M453.6,264.9c0,9.8-8,17.8-17.8,17.8c-9.8,0-17.8-8-17.8-17.8c0-9.8,8-17.8,17.8-17.8
			C445.6,247.1,453.6,255.1,453.6,264.9"/>
		<path class="st4" d="M452.8,264.9c0,9.4-7.6,17-17,17c-9.4,0-17-7.6-17-17c0-9.4,7.6-17,17-17
			C445.2,247.9,452.8,255.5,452.8,264.9"/>
		<path class="st4" d="M452.1,264.9c0,9-7.3,16.3-16.3,16.3s-16.3-7.3-16.3-16.3c0-9,7.3-16.3,16.3-16.3S452.1,256,452.1,264.9"/>
		<path class="st4" d="M451.3,264.9c0,8.5-6.9,15.5-15.5,15.5c-8.5,0-15.5-6.9-15.5-15.5c0-8.5,6.9-15.5,15.5-15.5
			C444.3,249.5,451.3,256.4,451.3,264.9"/>
		<path class="st4" d="M450.5,264.9c0,8.1-6.6,14.7-14.7,14.7c-8.1,0-14.7-6.6-14.7-14.7c0-8.1,6.6-14.7,14.7-14.7
			C443.9,250.3,450.5,256.8,450.5,264.9"/>
		<path class="st4" d="M449.7,264.9c0,7.7-6.2,13.9-13.9,13.9c-7.7,0-13.9-6.2-13.9-13.9c0-7.7,6.2-13.9,13.9-13.9
			C443.5,251.1,449.7,257.3,449.7,264.9"/>
		<path class="st4" d="M448.9,264.9c0,7.2-5.9,13.1-13.1,13.1c-7.2,0-13.1-5.9-13.1-13.1c0-7.2,5.9-13.1,13.1-13.1
			C443,251.8,448.9,257.7,448.9,264.9"/>
		<path class="st4" d="M448.1,264.9c0,6.8-5.5,12.3-12.3,12.3c-6.8,0-12.3-5.5-12.3-12.3c0-6.8,5.5-12.3,12.3-12.3
			C442.6,252.6,448.1,258.1,448.1,264.9"/>
		<path class="st4" d="M447.3,264.9c0,6.4-5.2,11.5-11.5,11.5s-11.5-5.2-11.5-11.5c0-6.4,5.2-11.5,11.5-11.5
			S447.3,258.6,447.3,264.9"/>
		<path class="st4" d="M446.5,264.9c0,5.9-4.8,10.7-10.7,10.7s-10.7-4.8-10.7-10.7s4.8-10.7,10.7-10.7S446.5,259,446.5,264.9"/>
		<path class="st4" d="M445.7,264.9c0,5.5-4.4,9.9-9.9,9.9c-5.5,0-9.9-4.4-9.9-9.9c0-5.5,4.4-9.9,9.9-9.9
			C441.3,255,445.7,259.5,445.7,264.9"/>
		<path class="st4" d="M444.9,264.9c0,5-4.1,9.1-9.1,9.1c-5,0-9.1-4.1-9.1-9.1c0-5,4.1-9.1,9.1-9.1
			C440.8,255.8,444.9,259.9,444.9,264.9"/>
		<path class="st4" d="M444.1,264.9c0,4.6-3.7,8.3-8.3,8.3c-4.6,0-8.3-3.7-8.3-8.3c0-4.6,3.7-8.3,8.3-8.3
			C440.4,256.6,444.1,260.3,444.1,264.9"/>
		<path class="st4" d="M443.4,264.9c0,4.2-3.4,7.6-7.6,7.6c-4.2,0-7.6-3.4-7.6-7.6c0-4.2,3.4-7.6,7.6-7.6
			C440,257.4,443.4,260.8,443.4,264.9"/>
		<path class="st4" d="M442.6,264.9c0,3.7-3,6.8-6.8,6.8c-3.7,0-6.8-3-6.8-6.8c0-3.7,3-6.8,6.8-6.8
			C439.5,258.2,442.6,261.2,442.6,264.9"/>
		<path class="st4" d="M441.8,264.9c0,3.3-2.7,6-6,6c-3.3,0-6-2.7-6-6c0-3.3,2.7-6,6-6C439.1,259,441.8,261.6,441.8,264.9"/>
		<path class="st4" d="M441,264.9c0,2.9-2.3,5.2-5.2,5.2c-2.9,0-5.2-2.3-5.2-5.2c0-2.9,2.3-5.2,5.2-5.2
			C438.7,259.8,441,262.1,441,264.9"/>
		<path class="st4" d="M440.2,264.9c0,2.4-2,4.4-4.4,4.4c-2.4,0-4.4-2-4.4-4.4c0-2.4,2-4.4,4.4-4.4
			C438.2,260.5,440.2,262.5,440.2,264.9"/>
		<path class="st4" d="M439.4,264.9c0,2-1.6,3.6-3.6,3.6c-2,0-3.6-1.6-3.6-3.6c0-2,1.6-3.6,3.6-3.6
			C437.8,261.3,439.4,262.9,439.4,264.9"/>
	</g>
	<path class="st1" d="M596.1,207.5c-3.1-0.3-6.2-0.9-9.2-1.6c-20-4.7-38.3-15.9-51.6-31.5c-18.2-21.3-26.3-49.4-41-73.2
		c-6.5-10.7-15.3-21.1-27.5-23.9c-3.9-0.9-8.1-1-11.8-2.5c-3.7-1.5-6.6-4.4-10.2-6.2c-14.4-7.5-31.2,3.7-47.4,5
		c-7.9,0.6-15.9-1.2-23.8-0.9c-9.8,0.4-19.1,4.1-28.2,7.8c-4,1.6-8,3.2-12,4.8c17.3-17.7,52.9-32.4,86-34.1
		c41.5-2.1,70.1,14.1,84.5,32.9c17.3,22.7,19.6,49.8,31.2,74.3C544.8,178.9,563.5,198.5,596.1,207.5"/>
	<path class="st2" d="M380.4,333.5h-20.2v18.5c0,9.3-51.7,20.4-60.7,23.2c-26.9,45.7,51.4,72.2,76.3,108.2h14.8
		c24.9-36.1,92.2-61.4,69.6-109.1c-9-2.8-55-14-55-23.3v-17.6H380.4"/>
	<path class="st1" d="M360.2,333.4v23h45v-23c-5,2.2-14,3.6-22.5,3.6C374.2,336.9,365.2,335.6,360.2,333.4"/>
	<path class="st1" d="M360.2,322.3v11.9c5,2,14,3.2,22.5,3.2c8.4,0,17.5-1.2,22.5-3.2v-11.9H360.2"/>
	<path class="st1" d="M342,363.2c-59.1,6.6-53.9,20.7-65.5,42.9c-0.8,1.6-1.2,3.4-0.1,4.8l26.9,26.1c1.2,1.5,1.7-2,2.2-3.5
		c2.3-6.4,5,0.5,5,0.5l1,54.6c0.2,9.2-1.4,18.3-4.1,27.1c-12,38.4-4.2,74.8-2.6,87.3c1.3,10.4,119.9,7.2,148.4,1.7
		c2.2-0.4,3.7-1.4,3.8-3.6c1-13.1,3.8-60.7-4-90.8c-2.7-10.4-4-21.1-4.2-31.8l-0.7-45.5c0.1-1.6,1.2-2.4,3.3,3.5
		c0.2,1.2,2.1,0.7,2.9-0.2l26.5-23.2c1.6-1.6,1.9-4.2,0.6-6.1c-9.6-30.8-27.2-44.2-60.9-45.2C421.3,412.2,345.9,416.7,342,363.2"/>
	<path class="st1" d="M322.3,554.7c42.2,40.6,79,49,115.7,4.6C401.3,587.5,362.7,585.7,322.3,554.7"/>
	<path class="st1" d="M432.4,510.1c-36.7-40.6-68.9-49-100.8-4.6C363.5,477.4,397.1,479.1,432.4,510.1"/>
	<path class="st1" d="M386.8,537.5c0,2.1-1.7,3.7-3.7,3.7c-2.1,0-3.7-1.7-3.7-3.7c0-2.1,1.7-3.7,3.7-3.7
		C385.1,533.8,386.8,535.5,386.8,537.5"/>
	<path class="st5" d="M308.9,587.9l135.6,0.9l7.4,16.9c39.4-9.1,74.6-26.9,91-15c0.7,0.5,1.4,1,2.2,1.5c28.1,16.7-0.9,39.9-39,64.7
		l-35.7-34.8c-24.1,18.2-59.6,27.9-96.6,37.5c-32-6.1-67.3-18.6-98.5-39.2l-35.7,34.8c-31.7-11.4-46.2-28.1-45.6-49.4
		c0.2-8,6.4-15.2,15.4-17.3c23.2-5.2,53.7,9.2,92.6,18.2L308.9,587.9"/>
	<path class="st6" d="M452.8,689.2c5.7,9,12.2,10.3,20,4.7c3.8-2.7,8.4-4.6,13.2-5.8c15.8-3.8,25.2-11,30.3-20.5
		c1.1-2.1,0.2-4.7-2.1-5.8c-10.9-5.4-31.7,2.7-55.1,12.8L452.8,689.2"/>
	<path class="st6" d="M293,691c-5.7,9-12.2,10.3-20,4.7c-3.8-2.7-8.4-4.6-13.2-5.8c-15.8-3.8-25.2-11-30.3-20.5
		c-1.1-2.1-0.2-4.7,2.1-5.8c10.9-5.4,31.7,2.7,55.1,12.8L293,691"/>
	<path class="st6" d="M275.3,620.5c50.2,26.9,115.2,44.1,185.4,54.3l-7.9,14.4c-72.9-1.4-142.3-12.1-213.2-33.8L275.3,620.5"/>
	<path class="st6" d="M470.4,622.2c-50.2,26.9-115.2,44.1-185.4,54.3l7.9,14.4c72.9-1.4,142.3-12.1,213.2-33.8L470.4,622.2"/>
	<path class="st6" d="M440.5,371.9c29-1.6,38.9,49.5,50.5,111.6c1.6,8.4,6,16.1,12.7,21.4c23.5,18.9,51.2,32.8,76,45.1
		c5.1,2.5,11.1,1.9,15.6-1.6c30.2-23.8,6.2,2.7,13.6,3.6c5.9,0.7,19.6-7.2,26-0.4c0.5,7.2-4.3,13.7-13.4,20.4
		c-12.5,9.3-29.7,8.5-41.3-1.8l-0.2-0.2l-85.7-28c-7.9-2.6-14.1-8.7-16.9-16.5l-38.2-107.2L440.5,371.9"/>
	<path class="st6" d="M304.4,375c-29-1.6-38.9,49.5-50.5,111.6c-1.6,8.4-6,16.1-12.7,21.4c-23.5,18.9-51.2,32.8-76,45.1
		c-5.1,2.5-11.1,1.9-15.6-1.6c-30.2-23.8-6.2,2.7-13.6,3.6c-5.9,0.7-19.6-7.2-26-0.4c-0.5,7.2,4.3,13.7,13.4,20.4
		c12.5,9.3,29.7,8.5,41.3-1.8l0.2-0.2l85.7-28c7.9-2.6,14.1-8.7,16.9-16.5l38.2-107.2L304.4,375"/>
	<path class="st7" d="M611.2,214.1c-44.7,7.6-83.9-3.9-107.8-20.2c-7.4-5-13.8-10.6-19.7-16.3c-13.2-12.7-24.2-26.4-39.3-38.3
		c-22-17.2-56.8-31-101.2-27l-23.4-12.6c0.3-0.8,0.7-1.6,1.2-2.3c1.8-3.2,4.3-6.4,7.3-9.5c17.3-17.7,52.9-32.4,86-34.1
		c41.5-2.1,70.1,14.1,84.5,32.9c17.3,22.7,19.6,50,31.2,74.4c9.8,20.5,28.4,40,61,49.3h0C597.2,212.6,603.9,213.2,611.2,214.1"/>
	<path class="st7" d="M472.6,229.6c-7.9,23.4-19.4,48-32.6,68.9h-132c-6.4-7-12.2-14.6-17.4-22c-0.8-1.1-1.6-2.3-2.4-3.4
		c-2.7-3.9-5.2-7.9-7.5-11.8c-53.8-91.1-16.6-182.7,103.7-166.9c7.7,1,15.8,1.4,23.8,1.5C488.9,96.3,495.6,161.5,472.6,229.6"/>
	<path class="st8" d="M465.9,224.7c-8.8-5.1-19.2-6.9-29.4-7.1c-2.4,0-4.9,0-7.3,0c-7.1,0.1-14.1,0.2-21-1.6
		c-5.1-1.3-9.8-3.5-14.5-5.8c-7.9-3.8-16.4-7.9-24.8-11.9c-5.6-2.7-11.5-5.6-15.5-10.4c-5.1-6.1-10.5-22.4-16.8-27.3
		c-6.8-5.3-12.8,3.4-21.3,4.8c-2.2,0.3-4.4,0.7-6.2,1.9c-1.9,1.2-3.3,3.2-4.5,5.1c-7.7,11.5-15.5,23.1-23.3,34.7
		c-2.2,3.3-4.5,6.7-5.5,10.6c-1.6,5.8-0.2,11.8,1.9,17.5c1.1,3.1,2.4,6.2,3.6,9.2c3.5,9.3,5.7,18.9,6.9,28.6l2.4,3.4
		c5.2,7.4,11,15,17.4,22h132c13.2-20.9,24.7-45.5,32.6-68.9C470.5,227.7,468.3,226.1,465.9,224.7"/>
	<path class="st6" d="M325,165.6c-59.6,55.2-55.5,131.2,11.2,158.3c25.9,10.5,55.3,10.5,81.2,0c25.5-10.3,39.8-31.9,50-66.9
		c1.8-6.1-1.3-13.6-1.3-13.6c-13.8-7.2-33.9-12.3-56.7-16.5c-35.7-6.5-66.7-28.7-84-60.5C325.3,166.1,325.2,165.8,325,165.6"/>
	<path class="st9" d="M474.6,219.1c-2.6-2.9-13.6-17.5-13.6-17.5c12.1,66.4-10.2,122-10.1,121.8
		C469.5,281.6,470.6,266.9,474.6,219.1"/>
	<path class="st10" d="M369.4,269.6c-0.8,0-1.7-0.2-2.5-0.6c-1.6-0.8-2.6-2.2-3.4-3.2c-0.5-0.6-0.4-1.5,0.3-2
		c0.3-0.2,0.6-0.3,0.9-0.3c0.4,0,0.9,0.2,1.2,0.6c0.8,1,1.5,1.9,2.4,2.4c0.3,0.2,0.8,0.3,1.2,0.3c0.4,0,0.7-0.1,1-0.3
		c0.5-0.5,0.5-1.5,0.5-2.5l0-7.9c0-0.8,0.6-2.1,1.5-2.1h0c0.8,0,1.5,1.3,1.5,2.1l0,7.6c0,1.2,0,3.3-1.4,4.7
		C371.7,269,370.6,269.6,369.4,269.6"/>
	<path class="st9" d="M295.1,301.2c-3.5-7.8-6.4-14.4-8.7-20.3c-4.3-10.7-6.9-19.2-8.6-28.7c-1.5-8.3-2.4-17.5-3-29.8
		c-0.2-3-0.3-6.1-0.5-9.4c2.6-2.3,15.2-23.3,16-24.6c-7.9,30.1-6,59.9-2.6,81.2C290.6,287.9,294.7,300.1,295.1,301.2"/>
	<path class="st11" d="M362,233.6c0,0-0.5,0.8-1.4,2.1c-0.5,0.6-1,1.4-1.7,2.2c-0.7,0.8-1.4,1.8-2.4,2.6c-1,0.9-2.1,1.8-3.3,2.7
		c-1.2,1-2.5,1.6-3.9,2.3c-1.4,0.6-2.8,1.5-4.5,1.6c-1.6,0.2-3.2,0.6-4.8,0.7c-1.6-0.2-3.2-0.4-4.8-0.6c-1.6-0.1-3-1.1-4.5-1.6
		c-0.7-0.3-1.4-0.6-2.1-0.9c-0.7-0.4-1.2-0.9-1.8-1.3c-1.2-0.9-2.3-1.8-3.2-2.6c-1-0.7-1.7-1.9-2.4-2.7c-0.7-0.8-1.3-1.6-1.7-2.3
		c-0.9-1.3-1.4-2.1-1.4-2.1l0,0l0-0.3l0.2,0c0,0,0.6,0.5,1.7,1.4c0.5,0.4,1.2,1,2,1.6c0.8,0.6,1.6,1.5,2.6,2c1,0.6,2.1,1.2,3.3,1.9
		c0.6,0.3,1.2,0.7,1.8,1c0.6,0.2,1.3,0.4,2,0.6c1.3,0.3,2.7,1.1,4.1,1.1c1.4,0.1,2.9,0.2,4.3,0.4c1.5-0.1,2.9-0.3,4.3-0.5
		c1.4,0,2.8-0.7,4.1-1.2c1.3-0.5,2.6-0.8,3.8-1.6c1.2-0.7,2.2-1.3,3.3-1.9c1-0.5,1.9-1.3,2.7-1.9c0.8-0.6,1.4-1.1,2-1.6
		c1.1-0.9,1.7-1.4,1.7-1.4l0.2,0.1L362,233.6L362,233.6"/>
	<path class="st11" d="M433.1,235c0,0-0.5,0.8-1.4,2.1c-0.5,0.6-1,1.4-1.7,2.2c-0.7,0.8-1.4,1.8-2.4,2.6c-1,0.9-2.1,1.8-3.3,2.7
		c-1.2,1-2.5,1.6-3.9,2.3c-1.4,0.6-2.8,1.5-4.5,1.6c-1.6,0.2-3.2,0.6-4.8,0.7c-1.6-0.2-3.2-0.4-4.8-0.6c-1.6-0.1-3-1.1-4.5-1.6
		c-0.7-0.3-1.4-0.6-2.1-0.9c-0.7-0.4-1.2-0.9-1.8-1.3c-1.2-0.9-2.3-1.8-3.2-2.6c-1-0.7-1.7-1.9-2.4-2.7c-0.7-0.8-1.3-1.6-1.7-2.3
		c-0.9-1.3-1.4-2.1-1.4-2.1l0,0l0-0.3l0.2,0c0,0,0.6,0.5,1.7,1.4c0.5,0.4,1.2,1,2,1.6c0.8,0.6,1.6,1.5,2.6,2c1,0.6,2.1,1.2,3.3,1.9
		c0.6,0.3,1.2,0.7,1.8,1c0.6,0.2,1.3,0.4,2,0.6c1.3,0.3,2.7,1.1,4.1,1.1c1.4,0.1,2.9,0.2,4.3,0.4c1.5-0.1,2.9-0.3,4.3-0.5
		c1.5,0,2.8-0.7,4.1-1.2c1.3-0.5,2.6-0.8,3.8-1.6c1.2-0.7,2.2-1.3,3.3-1.9c1-0.5,1.9-1.3,2.7-1.9c0.8-0.6,1.4-1.1,2-1.6
		c1.1-0.9,1.7-1.4,1.7-1.4l0.2,0.1L433.1,235L433.1,235"/>
	<path class="st12" d="M397.6,288.4c0,0-0.5,0.6-1.5,1.7c-0.5,0.5-1.1,1.1-1.9,1.8c-0.7,0.7-1.5,1.5-2.6,2.1
		c-1.1,0.7-2.2,1.5-3.5,2.2c-1.3,0.8-2.7,1.3-4.3,1.8c-1.5,0.5-3.1,1.3-4.8,1.3c-1.7,0.2-3.4,0.5-5.2,0.6c-1.7-0.2-3.5-0.3-5.2-0.5
		c-1.7-0.1-3.3-0.9-4.8-1.3c-0.8-0.3-1.5-0.5-2.3-0.8c-0.7-0.3-1.3-0.7-2-1.1c-1.3-0.7-2.5-1.4-3.5-2.1c-1.1-0.6-1.9-1.6-2.6-2.2
		c-0.8-0.7-1.4-1.3-1.9-1.9c-1-1.1-1.5-1.7-1.5-1.7l0,0l0-0.3l0.2,0c0,0,0.7,0.4,1.9,1.1c0.6,0.4,1.3,0.8,2.1,1.3
		c0.8,0.5,1.7,1.2,2.8,1.6c1.1,0.5,2.3,1,3.5,1.5c0.6,0.2,1.3,0.6,1.9,0.8c0.7,0.2,1.4,0.3,2.1,0.5c1.4,0.3,2.9,0.9,4.5,0.9
		c1.6,0.1,3.1,0.2,4.7,0.3c1.6,0,3.1-0.3,4.7-0.4c1.6,0,3-0.6,4.5-0.9c1.4-0.4,2.9-0.7,4.1-1.3c1.2-0.5,2.4-1,3.5-1.5
		c1.1-0.4,2-1,2.9-1.5c0.8-0.5,1.6-0.9,2.2-1.3c1.2-0.7,1.9-1.1,1.9-1.1l0.3,0.1L397.6,288.4L397.6,288.4"/>
	<g>
		<defs>
			<path id="SVGID_7_" d="M337.3,283.5c-5.9,6.8-19.1,5.1-29.6-3.9c-10.4-9-14.2-21.8-8.3-28.6c5.9-6.8,19.1-5.1,29.6,3.9
				C339.5,263.9,343.2,276.7,337.3,283.5"/>
		</defs>
		<clipPath id="SVGID_8_">
			<use xlink:href="#SVGID_7_"  style="overflow:visible;"/>
		</clipPath>
		<rect x="293.6" y="245.1" class="st13" width="49.6" height="44.1"/>
		<path class="st13" d="M335.8,282.2c-6.5,7.5-19.5,6.9-29.2-1.4s-12.2-21.1-5.7-28.6c6.5-7.5,19.5-6.9,29.2,1.4
			C339.8,261.9,342.3,274.7,335.8,282.2"/>
		<path class="st13" d="M335.2,281.7c-6.2,7.2-18.8,6.7-28.1-1.3c-9.3-8-11.7-20.3-5.5-27.6c6.2-7.2,18.8-6.7,28.1,1.3
			C339,262.1,341.4,274.4,335.2,281.7"/>
		<path class="st13" d="M334.5,281.1c-6,7-18.1,6.4-27-1.3c-8.9-7.7-11.3-19.5-5.3-26.5c6-7,18.1-6.4,27,1.3
			C338.2,262.3,340.5,274.2,334.5,281.1"/>
		<path class="st14" d="M333.9,280.6c-5.7,6.7-17.3,6.1-25.9-1.2c-8.5-7.3-10.8-18.7-5.1-25.4c5.7-6.7,17.3-6.1,25.9,1.2
			C337.4,262.5,339.6,273.9,333.9,280.6"/>
		<path class="st15" d="M333.2,280c-5.5,6.4-16.6,5.9-24.8-1.2c-8.2-7-10.4-17.9-4.9-24.3c5.5-6.4,16.6-5.9,24.8,1.2
			C336.5,262.7,338.7,273.6,333.2,280"/>
		<path class="st16" d="M332.6,279.4c-5.3,6.1-15.9,5.6-23.7-1.1c-7.8-6.7-9.9-17.1-4.6-23.2c5.3-6.1,15.9-5.6,23.7,1.1
			C335.7,262.9,337.8,273.3,332.6,279.4"/>
		<path class="st16" d="M331.9,278.9c-5,5.8-15.1,5.4-22.6-1.1c-7.5-6.4-9.4-16.3-4.4-22.2c5-5.8,15.1-5.4,22.6,1.1
			C334.9,263.1,336.9,273,331.9,278.9"/>
		<path class="st17" d="M331.3,278.3c-4.8,5.5-14.4,5.1-21.5-1c-7.1-6.1-9-15.5-4.2-21.1c4.8-5.5,14.4-5.1,21.5,1
			C334.1,263.3,336,272.7,331.3,278.3"/>
		<path class="st18" d="M330.6,277.7c-4.5,5.3-13.6,4.8-20.4-1c-6.7-5.8-8.5-14.7-4-20c4.5-5.3,13.6-4.8,20.4,1
			C333.3,263.5,335.1,272.5,330.6,277.7"/>
		<path class="st19" d="M329.9,277.2c-4.3,5-12.9,4.6-19.3-0.9c-6.4-5.5-8.1-14-3.8-18.9c4.3-5,12.9-4.6,19.3,0.9
			C332.5,263.7,334.2,272.2,329.9,277.2"/>
		<path class="st20" d="M329.3,276.6c-4,4.7-12.2,4.3-18.2-0.9c-6-5.2-7.6-13.2-3.6-17.9c4-4.7,12.2-4.3,18.2,0.9
			C331.7,263.9,333.3,271.9,329.3,276.6"/>
		<path class="st21" d="M328.6,276c-3.8,4.4-11.4,4.1-17.1-0.8c-5.6-4.9-7.1-12.4-3.3-16.8c3.8-4.4,11.4-4.1,17.1,0.8
			C330.9,264.1,332.4,271.6,328.6,276"/>
		<path class="st22" d="M328,275.5c-3.5,4.1-10.7,3.8-16-0.7c-5.3-4.5-6.7-11.6-3.1-15.7c3.5-4.1,10.7-3.8,16,0.7
			C330.1,264.3,331.5,271.3,328,275.5"/>
		<path class="st23" d="M327.3,274.9c-3.3,3.8-10,3.5-14.9-0.7c-4.9-4.2-6.2-10.8-2.9-14.6c3.3-3.8,10-3.5,14.9,0.7
			C329.3,264.5,330.6,271.1,327.3,274.9"/>
		<path class="st24" d="M326.7,274.3c-3.1,3.6-9.2,3.3-13.8-0.6c-4.6-3.9-5.8-10-2.7-13.5c3.1-3.6,9.2-3.3,13.8,0.6
			C328.5,264.7,329.7,270.8,326.7,274.3"/>
		<path class="st25" d="M326,273.8c-2.8,3.3-8.5,3-12.7-0.6c-4.2-3.6-5.3-9.2-2.5-12.5c2.8-3.3,8.5-3,12.7,0.6
			C327.7,264.9,328.8,270.5,326,273.8"/>
		<path class="st26" d="M325.3,273.2c-2.6,3-7.8,2.7-11.6-0.5c-3.8-3.3-4.8-8.4-2.3-11.4c2.6-3,7.8-2.7,11.6,0.5
			C326.9,265.1,327.9,270.2,325.3,273.2"/>
		<path class="st27" d="M324.7,272.6c-2.3,2.7-7,2.5-10.5-0.5c-3.5-3-4.4-7.6-2.1-10.3c2.3-2.7,7-2.5,10.5,0.5
			C326.1,265.3,327,269.9,324.7,272.6"/>
		<path class="st28" d="M324,272.1c-2.1,2.4-6.3,2.2-9.4-0.4c-3.1-2.7-3.9-6.8-1.8-9.2c2.1-2.4,6.3-2.2,9.4,0.4
			C325.3,265.5,326.1,269.7,324,272.1"/>
		<path class="st29" d="M323.4,271.5c-1.8,2.1-5.6,2-8.3-0.4c-2.7-2.4-3.5-6-1.6-8.1c1.8-2.1,5.6-2,8.3,0.4
			C324.5,265.7,325.2,269.4,323.4,271.5"/>
		<path class="st30" d="M322.7,270.9c-1.6,1.9-4.8,1.7-7.2-0.3c-2.4-2-3-5.2-1.4-7.1c1.6-1.9,4.8-1.7,7.2,0.3
			C323.7,265.9,324.3,269.1,322.7,270.9"/>
		<path class="st31" d="M322.1,270.4c-1.4,1.6-4.1,1.4-6.1-0.3c-2-1.7-2.6-4.4-1.2-6c1.4-1.6,4.1-1.4,6.1,0.3
			C322.9,266.1,323.4,268.8,322.1,270.4"/>
		<path class="st32" d="M321.4,269.8c-1.1,1.3-3.4,1.2-5-0.2c-1.7-1.4-2.1-3.6-1-4.9c1.1-1.3,3.4-1.2,5,0.2
			C322.1,266.3,322.5,268.5,321.4,269.8"/>
	</g>
	<g>
		<defs>
			<path id="SVGID_9_" d="M450.6,252.5c5.3,7.1,0.7,19.6-10.3,27.9c-11,8.3-24.3,9.3-29.6,2.2c-5.3-7.1-0.7-19.6,10.3-27.9
				C432,246.4,445.3,245.4,450.6,252.5"/>
		</defs>
		<clipPath id="SVGID_10_">
			<use xlink:href="#SVGID_9_"  style="overflow:visible;"/>
		</clipPath>
		<rect x="405.4" y="245.4" class="st33" width="50" height="43.9"/>
		<path class="st33" d="M451.7,267.5c0,11.6-9.4,21-21,21s-21-9.4-21-21c0-11.6,9.4-21,21-21S451.7,255.9,451.7,267.5"/>
		<path class="st33" d="M450.9,267.5c0,11.2-9,20.2-20.2,20.2s-20.2-9-20.2-20.2c0-11.2,9-20.2,20.2-20.2S450.9,256.3,450.9,267.5"
			/>
		<path class="st33" d="M450.1,267.5c0,10.7-8.7,19.4-19.4,19.4s-19.4-8.7-19.4-19.4c0-10.7,8.7-19.4,19.4-19.4
			S450.1,256.8,450.1,267.5"/>
		<path class="st34" d="M449.3,267.5c0,10.3-8.3,18.6-18.6,18.6s-18.6-8.3-18.6-18.6s8.3-18.6,18.6-18.6S449.3,257.2,449.3,267.5"/>
		<path class="st35" d="M448.5,267.5c0,9.8-8,17.8-17.8,17.8c-9.8,0-17.8-8-17.8-17.8c0-9.8,8-17.8,17.8-17.8
			C440.6,249.7,448.5,257.6,448.5,267.5"/>
		<path class="st36" d="M447.7,267.5c0,9.4-7.6,17-17,17s-17-7.6-17-17c0-9.4,7.6-17,17-17S447.7,258.1,447.7,267.5"/>
		<path class="st36" d="M447,267.5c0,9-7.3,16.3-16.3,16.3s-16.3-7.3-16.3-16.3s7.3-16.3,16.3-16.3S447,258.5,447,267.5"/>
		<path class="st37" d="M446.2,267.5c0,8.5-6.9,15.5-15.5,15.5s-15.5-6.9-15.5-15.5c0-8.5,6.9-15.5,15.5-15.5
			S446.2,258.9,446.2,267.5"/>
		<path class="st38" d="M445.4,267.5c0,8.1-6.6,14.7-14.7,14.7s-14.7-6.6-14.7-14.7c0-8.1,6.6-14.7,14.7-14.7
			S445.4,259.4,445.4,267.5"/>
		<path class="st39" d="M444.6,267.5c0,7.7-6.2,13.9-13.9,13.9c-7.7,0-13.9-6.2-13.9-13.9c0-7.7,6.2-13.9,13.9-13.9
			C438.4,253.6,444.6,259.8,444.6,267.5"/>
		<path class="st40" d="M443.8,267.5c0,7.2-5.9,13.1-13.1,13.1c-7.2,0-13.1-5.9-13.1-13.1s5.9-13.1,13.1-13.1
			C437.9,254.4,443.8,260.3,443.8,267.5"/>
		<path class="st41" d="M443,267.5c0,6.8-5.5,12.3-12.3,12.3s-12.3-5.5-12.3-12.3c0-6.8,5.5-12.3,12.3-12.3S443,260.7,443,267.5"/>
		<path class="st42" d="M442.2,267.5c0,6.4-5.2,11.5-11.5,11.5s-11.5-5.2-11.5-11.5c0-6.4,5.2-11.5,11.5-11.5
			S442.2,261.1,442.2,267.5"/>
		<path class="st43" d="M441.4,267.5c0,5.9-4.8,10.7-10.7,10.7s-10.7-4.8-10.7-10.7s4.8-10.7,10.7-10.7S441.4,261.6,441.4,267.5"/>
		<path class="st44" d="M440.6,267.5c0,5.5-4.4,9.9-9.9,9.9s-9.9-4.4-9.9-9.9c0-5.5,4.4-9.9,9.9-9.9S440.6,262,440.6,267.5"/>
		<path class="st45" d="M439.8,267.5c0,5-4.1,9.1-9.1,9.1c-5,0-9.1-4.1-9.1-9.1s4.1-9.1,9.1-9.1
			C435.8,258.4,439.8,262.4,439.8,267.5"/>
		<path class="st46" d="M439.1,267.5c0,4.6-3.7,8.3-8.3,8.3c-4.6,0-8.3-3.7-8.3-8.3s3.7-8.3,8.3-8.3
			C435.3,259.1,439.1,262.9,439.1,267.5"/>
		<path class="st47" d="M438.3,267.5c0,4.2-3.4,7.6-7.6,7.6s-7.6-3.4-7.6-7.6c0-4.2,3.4-7.6,7.6-7.6S438.3,263.3,438.3,267.5"/>
		<path class="st48" d="M437.5,267.5c0,3.7-3,6.8-6.8,6.8s-6.8-3-6.8-6.8c0-3.7,3-6.8,6.8-6.8S437.5,263.8,437.5,267.5"/>
		<path class="st49" d="M436.7,267.5c0,3.3-2.7,6-6,6s-6-2.7-6-6c0-3.3,2.7-6,6-6S436.7,264.2,436.7,267.5"/>
		<path class="st50" d="M435.9,267.5c0,2.9-2.3,5.2-5.2,5.2s-5.2-2.3-5.2-5.2c0-2.9,2.3-5.2,5.2-5.2S435.9,264.6,435.9,267.5"/>
		<path class="st51" d="M435.1,267.5c0,2.4-2,4.4-4.4,4.4c-2.4,0-4.4-2-4.4-4.4c0-2.4,2-4.4,4.4-4.4
			C433.1,263.1,435.1,265.1,435.1,267.5"/>
		<path class="st52" d="M434.3,267.5c0,2-1.6,3.6-3.6,3.6s-3.6-1.6-3.6-3.6s1.6-3.6,3.6-3.6S434.3,265.5,434.3,267.5"/>
	</g>
	<path class="st53" d="M591,210c-3.1-0.3-6.2-0.9-9.2-1.6c-20-4.7-38.3-15.9-51.6-31.5c-18.2-21.3-26.3-49.4-41-73.2
		c-6.5-10.7-15.3-21.1-27.5-23.9c-3.9-0.9-8.1-1-11.8-2.5c-3.7-1.5-6.6-4.4-10.2-6.2c-14.4-7.5-31.2,3.7-47.4,5
		c-7.9,0.6-15.9-1.2-23.8-0.9c-9.8,0.4-19.1,4.1-28.2,7.8c-4,1.6-8,3.2-12,4.8c17.3-17.7,52.9-32.4,86-34.1
		c41.5-2.1,70.1,14.1,84.5,32.9c17.3,22.7,19.6,49.8,31.2,74.3C539.7,181.4,558.4,201,591,210"/>
	<path class="st54" d="M375.3,336.1h-20.2v18.5c0,9.3-51.7,20.4-60.7,23.2c-26.9,45.7,51.4,72.2,76.3,108.2h14.8
		c24.9-36.1,92.2-61.4,69.6-109.1c-9-2.8-55-14-55-23.3v-17.6H375.3"/>
	<path class="st6" d="M355.1,335.9v23h45v-23c-5,2.2-14,3.6-22.5,3.6C369.1,339.5,360.1,338.1,355.1,335.9"/>
	<path class="st55" d="M355.1,324.8v11.9c5,2,14,3.2,22.5,3.2c8.4,0,17.5-1.2,22.5-3.2v-11.9H355.1"/>
	<path class="st56" d="M336.9,365.7c-59.1,6.6-53.9,20.7-65.5,42.9c-0.8,1.6-1.2,3.4-0.1,4.8l26.9,26.1c1.2,1.5,1.7-2,2.2-3.5
		c2.3-6.4,5,0.5,5,0.5l1,54.6c0.2,9.2-1.4,18.3-4.1,27.1c-12,38.4-4.2,74.8-2.6,87.3c1.3,10.4,119.9,7.2,148.4,1.7
		c2.2-0.4,3.7-1.4,3.8-3.6c1-13.1,3.8-60.7-4-90.8c-2.7-10.4-4-21.1-4.2-31.8l-0.7-45.5c0.1-1.6,1.2-2.4,3.3,3.5
		c0.2,1.2,2.1,0.7,2.9-0.2l26.5-23.2c1.6-1.6,1.9-4.2,0.6-6.1c-9.6-30.8-27.2-44.2-60.9-45.2C416.2,414.8,340.8,419.2,336.9,365.7"
		/>
	<path class="st57" d="M317.2,557.2c42.2,40.6,79,49,115.7,4.6C396.2,590,357.7,588.3,317.2,557.2"/>
	<path class="st58" d="M427.3,512.7c-36.7-40.6-68.9-49-100.8-4.6C358.4,479.9,392,481.7,427.3,512.7"/>
	<path class="st59" d="M381.7,540.1c0,2.1-1.7,3.7-3.7,3.7c-2.1,0-3.7-1.7-3.7-3.7c0-2.1,1.7-3.7,3.7-3.7
		C380,536.4,381.7,538,381.7,540.1"/>
</g>
</svg>
