<?xml version="1.0" encoding="utf-8"?>
<!-- Generator: Adobe Illustrator 21.1.0, SVG Export Plug-In . SVG Version: 6.00 Build 0)  -->
<svg version="1.1" id="Layer_1" xmlns="http://www.w3.org/2000/svg" xmlns:xlink="http://www.w3.org/1999/xlink" x="0px" y="0px"
	 viewBox="0 0 150 150" style="enable-background:new 0 0 150 150;" xml:space="preserve">
<style type="text/css">
	.st0{fill:#CAECF4;}
	.st1{fill:#4DBFD9;}
	.st2{fill:#95D8E9;}
	.st3{fill:#FFFFFF;}
	.st4{fill:#11AACC;}
</style>
<g>
	<g>
		<g>
			<g>
				<path class="st0" d="M104.7,60.6c0-5.1-3.8-10.5-7.6-15.7c-2.8-3.9-3.3-9.8-3.3-12.5h0.3c1.6,0,3-1.1,3-2.5v-2.2
					c0-1.4-1.3-2.5-3-2.5h-9.3h-0.1h-9.3c-1.6,0-3,1.1-3,2.5v2.2c0,1.4,1.3,2.5,3,2.5h0.3c0,2.7-0.5,8.6-3.3,12.5
					C68.8,50.1,65,55.5,65,60.6c0,0,0,0.1,0,0.1c0,0,0,0.1,0,0.1v52.4c0,4.6,7.4,9.5,19.8,9.5l0,0c0,0,0,0,0,0c0,0,0,0,0,0l0,0
					c12.4,0,19.8-4.9,19.8-9.5V60.8c0,0,0,0,0-0.1C104.7,60.7,104.7,60.6,104.7,60.6z"/>
				<path class="st1" d="M69.2,61.5v51.7c0,3.1,7,5.5,15.7,5.5s15.7-2.5,15.7-5.5V61.5H69.2z"/>
				<ellipse class="st2" cx="84.9" cy="61.5" rx="15.7" ry="2.7"/>
				<path class="st1" d="M97.1,30.6c0,1.5-1.2,2.6-2.6,2.6H75c-1.5,0-2.6-1.2-2.6-2.6v-3c0-1.5,1.2-2.6,2.6-2.6h19.5
					c1.5,0,2.6,1.2,2.6,2.6V30.6z"/>
				<path class="st3" d="M91,52.7c0,1.5-1.2,2.6-2.6,2.6h-0.6c-1.5,0-2.6-1.2-2.6-2.6V38.4c0-1.5,1.2-2.6,2.6-2.6h0.6
					c1.5,0,2.6,1.2,2.6,2.6V52.7z"/>
			</g>
			<path class="st3" d="M97.5,105.1c0,1.5-1.2,2.6-2.6,2.6h-1c-1.5,0-2.6-1.2-2.6-2.6V70.8c0-1.5,1.2-2.6,2.6-2.6h1
				c1.5,0,2.6,1.2,2.6,2.6V105.1z"/>
		</g>
		<circle class="st2" cx="87.3" cy="97.5" r="2.4"/>
		<circle class="st2" cx="84.7" cy="85" r="2.4"/>
		<circle class="st2" cx="77.1" cy="69.3" r="2.4"/>
		<circle class="st2" cx="88.1" cy="71.7" r="2.4"/>
		<circle class="st2" cx="89.7" cy="113.2" r="2.4"/>
		<circle class="st2" cx="82.4" cy="108.7" r="2.4"/>
	</g>
	<g>
		<g>
			<path class="st2" d="M44.5,78.4l2.6,41.1c0,1.8,5.5,5.8,15.5,5.8s15.5-4.1,15.5-5.8l2.6-41.1H44.5z"/>
			<ellipse class="st0" cx="62.6" cy="78.4" rx="18.1" ry="3.2"/>
			<path class="st2" d="M79,78.2c0,1.3-7.7,2.4-16.3,2.4c-8.6,0-16.6-1.1-16.6-2.4c0-1.3,8-2.4,16.6-2.4C71.4,75.8,79,76.9,79,78.2z
				"/>
			<path class="st4" d="M48,89.5l1.3,28.2c0,3,5.7,5.4,13.4,5.4c7.6,0,13.1-2.4,13.1-5.4l1.3-28.2H48z"/>
			<path class="st1" d="M77.1,90c0,1.4-6.8,2.6-14.4,2.6C55.1,92.6,48,91.4,48,90c0-1.4,7-2.6,14.7-2.6C70.4,87.4,77.1,88.5,77.1,90
				z"/>
			<path class="st3" d="M72.1,114.5c0,1.5-1.2,2.6-2.6,2.6h-0.6c-1.5,0-2.6-1.2-2.6-2.6v-14.3c0-1.5,1.2-2.6,2.6-2.6h0.6
				c1.5,0,2.6,1.2,2.6,2.6V114.5z"/>
		</g>
		<circle class="st2" cx="54.5" cy="96.9" r="2.4"/>
		<circle class="st2" cx="61.8" cy="102.9" r="2.4"/>
		<circle class="st2" cx="53.6" cy="108.7" r="2.4"/>
		<circle class="st2" cx="59.3" cy="115.7" r="2.4"/>
	</g>
</g>
</svg>
