<?xml version="1.0" encoding="utf-8"?>
<!-- Generator: Adobe Illustrator 22.0.1, SVG Export Plug-In . SVG Version: 6.00 Build 0)  -->
<svg version="1.1" xmlns="http://www.w3.org/2000/svg" xmlns:xlink="http://www.w3.org/1999/xlink" x="0px" y="0px"
	 viewBox="0 0 600 600" style="enable-background:new 0 0 600 600;" xml:space="preserve">
<style type="text/css">
	.st0{fill:#FFFFFF;}
	.st1{fill:#CCE4ED;}
	.st2{fill:#E6F9FF;}
	.st3{fill:#331907;}
	.st4{fill:#683103;}
	.st5{fill:#FAC390;}
	.st6{fill:#EAA178;}
	.st7{fill:#4C2308;}
	.st8{fill:#753E0C;}
	.st9{fill:#EC8793;}
	.st10{fill:#FFFDF3;}
	.st11{fill:#F99978;}
	.st12{fill:#934E0F;}
	.st13{opacity:0.5;fill:#934E0F;}
	.st14{fill:#3C313F;}
	.st15{fill:#646166;}
	.st16{fill:#5B677C;}
	.st17{fill:#8AAD0C;}
	.st18{fill:#FFCC99;}
	.st19{fill:#C0F6FF;}
	.st20{fill:#CC8544;}
	.st21{fill:#AAE5F2;}
</style>
<g id="bg-white">
	<rect class="st0" width="600" height="600"/>
</g>
<g id="art">
	<g>
		<path class="st1" d="M425.4,482.1c0,7.2-6.3,13-14.1,13h-214c-7.8,0-14.1-5.8-14.1-13v-38.5c0-7.2,6.3-13,14.1-13h214
			c7.8,0,14.1,5.8,14.1,13V482.1z"/>
		<path class="st1" d="M391.5,216.4c0-7-5.7-12.7-12.7-12.7h-67.4h-13.5h-67.4c-7,0-12.7,5.7-12.7,12.7l-3.5,90.3
			c0,7,5.9,12.7,13.1,12.7h12.9H369h12.9c7.3,0,13.1-5.7,13.1-12.7L391.5,216.4z"/>
		<path class="st2" d="M365.7,229.9c-4-8.6-34.1-13.3-61.1-12.3c-27-1.1-57.2,3.7-61.1,12.3c-12,26,4.8,91.7,4.8,91.7h18.6h75.5H361
			C361,321.6,377.7,255.8,365.7,229.9z"/>
		<path class="st1" d="M369.7,268.6c-10.6-2.3-28-5.3-56.7-5.3c-2.8,0-5.6,0-8.4,0.1c-2.8-0.1-5.7-0.1-8.5-0.1
			c-28.8,0-46.1,3-56.7,5.3l-0.9,0.2l0.1,0.9c1.9,25.6,8.5,51.9,8.6,52.2l0.2,0.8h114.3l0.2-0.8c0.1-0.3,6.7-26.5,8.6-52.2l0.1-0.9
			L369.7,268.6z"/>
		<path class="st2" d="M433.9,423.3l-30.3-126c-0.1-0.9-0.5-1.7-1.1-2.5c-2-7-8.3-13.8-15.2-15.5c-16.4-4-30.3-10.9-74.4-10.9
			c-2.9,0-5.7,0-8.4,0.1c-2.7-0.1-5.5-0.1-8.4-0.1c-44,0-58,6.9-74.4,10.9c-6.8,1.7-13.1,8.5-15.2,15.5c-0.6,0.8-0.9,1.7-1.1,2.5
			l-30.3,126c-1.5,6.2-2,11.5-1.9,16.1c-0.5,19.6,9.8,24.4,9.8,24.4s0,0,0,0c0,0,27.8,0,119,0c1.5,0,3.1,0,4.6,0
			c98.4,0,118.1,0,119,0c0,0,0,0,0,0s10.3-4.8,9.8-24.4C435.8,434.7,435.3,429.4,433.9,423.3z"/>
		<g>
			<path class="st3" d="M330,214.7"/>
			<path class="st4" d="M301.8,112.8L301.8,112.8c-22.3,2.6-38.2,22.8-35.6,45.1l1.7,14.5l0.1,0l6.9,55.5
				c1.4,12.1,12.4,20.8,24.5,19.4l42.5-5c9-1,9.7-8.4,8.7-17.3l-1.9-61.9l-1.5-13.2l-0.2-1.3C344.3,126.1,324.1,110.2,301.8,112.8z"
				/>
			<polygon class="st5" points="303,230.7 324.1,230.7 324.1,200.4 303,201.5 			"/>
			<path class="st6" d="M303,213.3c3.3,1.2,6.5,1.8,9.4,1.8c3.8,0,7.8-0.9,11.8-2.5v-12.2H303V213.3z"/>
			<path class="st5" d="M328.3,168.6c-0.5,6.3,4.4,11.8,10.9,12.2c6.5,0.4,12.2-4.5,12.7-10.8c0.5-6.3-4.4-11.8-10.9-12.2
				C334.6,157.4,328.9,162.2,328.3,168.6z"/>
			<path class="st5" d="M343.5,171.5c2.3,19.8-15.4,37.2-31.1,39c-12.5,1-32.4-7.8-37.9-30.6l-4.8-23.7c-2.3-19.8,12.6-34.8,32.1-37
				c19.4-2.3,36.7,9.1,39,28.9L343.5,171.5z"/>
			<path class="st7" d="M287.7,181.4c-3,0-5.1-1.5-6-2.5c-0.7-0.8-0.6-2.1,0.3-2.8c0.8-0.7,2.1-0.6,2.8,0.3c0,0,1.4,1.5,4.1,1
				c2.9-0.6,3.4-2.1,3.4-2.2c0.2-1.1,1.2-1.7,2.3-1.5c1.1,0.2,1.8,1.3,1.6,2.4c-0.3,1.5-2,4.3-6.5,5.2
				C289,181.4,288.3,181.4,287.7,181.4z"/>
			<path class="st4" d="M317.4,137.1c-14.6,18.2-40.9,18.2-45.3,39.1c0,0-1.7-8.2-3.7-17.2c-3.2-14.3,5-38.4,32.8-45
				c28.7-6.9,44.9,18.1,44.5,44.9l-2.8,3.1C342.8,162.1,325.2,153.5,317.4,137.1z"/>
			<path class="st4" d="M280.8,170.3c-0.7,0-1.4-0.4-1.8-1.1c-0.5-1-0.1-2.2,0.9-2.7c7.5-3.8,13.4-2.7,13.6-2.7
				c1.1,0.2,1.8,1.3,1.5,2.3c-0.2,1.1-1.3,1.8-2.3,1.6c-0.1,0-4.9-0.9-11.1,2.3C281.4,170.2,281.1,170.3,280.8,170.3z"/>
			<path class="st7" d="M321.4,175.3c-3.4,0-5.4-1.7-6.1-2.8c-0.6-0.9-0.3-2.2,0.7-2.7c0.9-0.6,2.1-0.3,2.7,0.6
				c0.1,0.1,1.1,1.3,3.9,0.8c2.7-0.4,3.5-2.3,3.5-2.3c0.4-1,1.5-1.6,2.5-1.2c1,0.4,1.6,1.5,1.2,2.5c-0.5,1.5-2.5,4.3-6.6,4.9
				C322.6,175.2,322,175.3,321.4,175.3z"/>
			<path class="st4" d="M314.6,163.9c-0.7,0-1.3-0.3-1.7-0.9c-0.6-0.9-0.3-2.1,0.6-2.7c0.2-0.1,5.4-3.2,13.7-2.2
				c1.1,0.1,1.9,1.1,1.7,2.2c-0.1,1.1-1.1,1.9-2.2,1.7c-6.9-0.8-11.2,1.7-11.2,1.7C315.3,163.8,315,163.9,314.6,163.9z"/>
			<path class="st8" d="M311.9,200.4c-0.5,0.1-1,0.1-1.5,0.1c-4,0.2-7.7-1.2-9.2-3.4c-0.5-0.7-0.3-1.7,0.5-2.2
				c0.7-0.5,1.7-0.3,2.2,0.5c0.7,1,3.3,2.1,6.4,2c1.6-0.1,5.6-0.6,7.5-4.3c0.4-0.8,1.4-1.1,2.1-0.7c0.8,0.4,1.1,1.4,0.7,2.1
				C318.9,197.7,315.7,199.8,311.9,200.4z"/>
			<path class="st9" d="M340.4,222.1c-0.4-0.2-0.8-0.4-1.3-0.6c-3.6-1.5-7.1-2.8-9.8-3.5c-1.9-0.5-3.6-0.8-5.1-1.1
				c0,0-2.9,8.4-13,8.7c-8.7,0.3-8.1-9.4-8.1-9.4c-3,0.2-5.6,0.5-7.7,0.9c-21.8,4.8-21.2,26.8-20.7,43.1c1.3-0.9,2-1.4,2-1.4
				c1.6,6.2,5.9,8.3,5.9,8.3s34.4,32.6,43.7,29c19.9-7.7,25.8-24.6,27.3-38c0.1-0.7,0.2-1.3,0.2-1.9
				C355.4,242.8,352,227.5,340.4,222.1z"/>
			<g>
				<path class="st10" d="M298.5,245.9c10.7,14.7,16.8,31.2,16.9,41.8c0,0,4.3,17.8-9.4,22.2c-23.2,7.6-36.2,0.8-54.9-25
					c-18.7-25.8-36.2-57.2-13.3-72.6C263.7,195,279.8,220.1,298.5,245.9z"/>
				<path class="st5" d="M280.4,228.6c0,0-3.4-5.3-10.2-12.9c-7.9-8.9-19.6-7.3-26.2-4c-12.3,6.4-16.4,19.6-10.2,31.4l1.8,3.5
					c0.1,0.3,0.3,0.5,0.4,0.8c3.5,5.2,6.9,8.4,11.8,11c6.2,2.9,12.4,2.9,19.6,0.3C280.5,253.8,288.5,241.7,280.4,228.6z"/>
				<path class="st11" d="M252.4,254.5c1.3,1.5,3.9,1.3,5.8-0.3c1.9-1.7,2.4-4.2,1.1-5.7c-1.3-1.5-3.9-1.3-5.8,0.3
					C251.6,250.4,251.1,253,252.4,254.5z"/>
				<path class="st11" d="M280.4,228.6c0,0-0.2-0.3-0.5-0.8c-1.6,0.4-2.9,1.7-3,3.4c-0.2,2,1.3,3.6,3.4,3.7c1,0,1.9-0.3,2.6-0.9
					C282.3,232.3,281.5,230.5,280.4,228.6z"/>
				<g>
					<path class="st12" d="M258.9,238c-0.8-0.2-1.5,0.3-1.7,1.1c-1.2,4.7-6,4.3-6.3,4.2c-0.8-0.1-1.5,0.5-1.6,1.3
						c0,0.4,0.1,0.8,0.3,1.1c0.2,0.3,0.6,0.5,1,0.5c0.9,0.1,1.9,0,2.8-0.2c0.3-0.1,0.6-0.1,0.9-0.2c2-0.6,4.6-2.2,5.6-6
						C260.1,239,259.7,238.2,258.9,238z"/>
					<path class="st12" d="M274.8,225.7c-0.8-0.1-1.5,0.5-1.6,1.3c-0.2,1.4-0.6,2.4-1.4,2.9c-1,0.7-2.4,0.4-2.4,0.4
						c-0.8-0.2-1.5,0.3-1.7,1.1c-0.1,0.4,0,0.8,0.2,1.1c0.2,0.3,0.5,0.6,0.9,0.6c0.1,0,1.2,0.3,2.6,0c0.2,0,0.4-0.1,0.6-0.1
						c0.5-0.2,1-0.4,1.5-0.7c1.5-1,2.3-2.7,2.6-5C276.2,226.5,275.6,225.8,274.8,225.7z"/>
				</g>
				<path class="st12" d="M275.2,242.2c-0.5-0.3-0.9-0.2-1.1-0.1c-0.5,0.2-0.8,0.7-0.9,1.1l-0.1,0.3c-0.3,1.2-0.4,2.1-1.5,2.8
					c-1.4,1-3,0.8-3.2,0.8c-0.6-0.1-1.1,0-1.5,0.3c-0.3,0.2-0.4,0.5-0.5,0.8c-0.1,0.7,0.4,1.4,1.3,1.6l0,0c1,0.2,1.9,0.2,2.7,0
					c1.1-0.2,1.9-0.6,2.2-0.8c1.8-1,2.7-2.4,3-4.5C275.8,244,276,242.7,275.2,242.2z"/>
			</g>
			<path class="st5" d="M334.1,256.3c-3.1,11.4-5.7,29.5-9.8,32.8c0,0-5,3.6-17.5,2.3c-7.4-0.8-6.8-7.7-15.3-10.2
				c-1.4-0.4-3.1-0.5-4.6-0.8c-0.9-0.1-5.1-0.4-6.3-0.4c-1.3,0-3.3-0.1-4.2,0.9c-1.1,1.3,0.4,2.9,1.8,3.4c0.9,0.3,10.3,1.2,10,3
				c-0.4,2-5.1,1.1-6.5,0.9c-1.8-0.3-8.8-1.3-10.6-1.7c-1.2-0.2-4.2-1.4-5,0.3c-0.8,1.7,1.7,2.3,2.6,3.5c0.8,1.1,0.6,2.2,1.2,3.1
				c5.1,7.7,13.5,10.3,21.9,12.2c3.4,0.8,6,1.5,8.9,1.7c11.6,2,23.4,2.4,29.3,0.1c19.9-7.7,21.9-35.9,23.4-49.3
				C346.7,254.2,336.5,253.8,334.1,256.3z"/>
			<path class="st6" d="M266.4,285.1C266.4,285.1,266.4,285.1,266.4,285.1c0,0,0.1,0,0.1,0C266.5,285.1,266.4,285.1,266.4,285.1z"/>
			<path class="st13" d="M240.9,215.8c-2.7,2.7-2.7,6.3,0.7,8.6c5.8,3.9,15.5-2.3,15.5-2.3s-3.8,0.5-5.6-4.2
				C249.8,212.9,245.2,211.5,240.9,215.8z"/>
		</g>
	</g>
	<g>
		<path class="st4" d="M509.3,67.3L509.3,67.3c-22.6,0-41,18.3-41,41V123h0.1v60.4c0,12.3,10,22.3,22.3,22.3h43.1
			c9.1,0,16.5-7.4,16.5-16.5V123v-13.4v-1.3C550.2,85.7,531.9,67.3,509.3,67.3z"/>
		<path class="st5" d="M542.4,324.8l-6.7,8.4c0,0,11.5,111.3,8,165c-0.5,6.9-1.1,12.9-1.9,17.6l-14.3,19.1l-13.8-4c0,0,3-8.7,4-9.9
			c2.9-3.7,4.8-5.4,4.8-26.1c0-25.2-0.7-86.9-3-103c-3.4-23.4-6.2-62.4-6.2-62.4l24.4-2.4L542.4,324.8z"/>
		<path class="st14" d="M509.8,531.2c2.4-3.3,3.5-4.5,8.6-11.3c0,0,0,0,0,0c-0.4,1.1-2.6,5.2-2.5,6.6c0.2,2.9,4.5,3.3,8.2,2.4
			c13.8-3.4,18.5-18.5,18.5-18.5c1.5,7.1,1.1,11.5-3.2,16.9c-4.3,5.4-13,12.3-23.7,13C510,540.7,504.9,538.1,509.8,531.2z"/>
		<polygon class="st5" points="498.9,190.9 520.3,190.9 520.3,156.3 498.9,157.4 		"/>
		<path class="st6" d="M498.9,169.3c3.3,1.2,6.5,1.9,9.5,1.9c3.8,0,7.9-0.9,11.9-2.5v-12.3h-21.3V169.3z"/>
		<path class="st5" d="M510.6,331.9l-9.8,1.5c0,0,8.1,141.7,0.9,182.4l-19.2,14.5l-12.3-5.7l1.3-0.4c0,0-1.5,1.3,0,0
			c0.9-0.8,1.2-3.4,2.4-4.3c3.5-2.8,8.4-4.4,8.4-25.1c0-25.2,0-87.9-2.3-104c-3.4-23.4-6.9-61.4-6.9-61.4l24.4-2.4L510.6,331.9z"/>
		<path class="st15" d="M471.5,524.2C471.5,524.3,471.5,524.3,471.5,524.2C471.5,524.3,471.5,524.2,471.5,524.2z"/>
		<path class="st15" d="M471,524.7C470.9,524.7,470.9,524.8,471,524.7C470.9,524.8,470.9,524.7,471,524.7z"/>
		<path class="st15" d="M471.2,524.5C471.2,524.5,471.1,524.6,471.2,524.5C471.1,524.6,471.2,524.5,471.2,524.5z"/>
		<path class="st16" d="M539.4,333.9c0-0.1,2-0.7,2-0.8l-4-5.4l0.3,0c0.2,0,0.4-0.2,0.5-0.4c0.1-0.2,0-0.4-0.1-0.6l-9.9-11.5
			c-0.2-0.2-0.6-0.3-0.8-0.1c-0.2,0.2-0.3,0.5-0.1,0.8l8,10.9l-24.7,1.7c-0.3,0,1.2,0.2,1.2,0.5c0,0.4-1.7,30.5,2,65
			c1.6,15.1,8.1,75.5,8.1,101c0,2.1-0.1,4.2-0.2,6c0,0.1,0,0.2,0.1,0.3c1.3,2.1,3.9,3.5,7.5,3.8c0.6,0.1,1.1,0.1,1.7,0.1
			c5.1,0,10.5-2,13.1-4.9c0.1-0.1,0.1-0.2,0.1-0.3C547.9,447.4,539.4,335,539.4,333.9z"/>
		<path class="st16" d="M510.8,331.4l-13-4.9c-0.1,0-0.2,0-0.3,0l-24.4,2.4c-0.3,0-0.5,0.3-0.5,0.5c0,0.4-1.5,27.5,3,72.5
			c1.5,15.1,6.2,67.5,6.2,93c0,2.1-0.1,4.2-0.2,6c0,0.1,0,0.2,0.1,0.3c0.5,1,1.6,1.8,3.4,2.2c1.4,0.4,3.1,0.5,4.9,0.5
			c4.8,0,10.5-1.2,13.8-3.7c0.1-0.1,0.2-0.3,0.2-0.4c3.6-50.6-2.2-157.5-2.6-165.9l9.2-1.4c0.3,0,0.5-0.3,0.5-0.5
			C511.2,331.7,511.1,331.5,510.8,331.4z"/>
		<path class="st14" d="M475.6,518.7c-5.7,4-9.8,7.1-9.8,7.1c-4.2,3.2-4.4,7.6-1.2,8.5c0,0,2.5,1.6,11.4,0.9
			c7.4-0.5,14.3-4.3,24.5-10.4c6.1-3.6,4.1-11.2,2.2-15.2c-0.3-0.5,0,0,0,0c0.2,0.2-7.6,14.6-24.8,15.8c-2,0.1-4.8-0.5-4.6-3.1
			C473.3,520.9,474.7,519.6,475.6,518.7z"/>
		<path class="st17" d="M539.5,298.6c-3.4-12.4-6.1-27.7-8.6-36.7c-0.3-1.1-0.6-2.2-0.9-3.2c-2.7-10.5-1.2-21.6,3.8-31.2
			c0.1-0.2,0.2-0.5,0.3-0.7c-0.5-14.7,3.2-29,4-43.8c-2-1.4-2.9-1.9-2.9-1.9s-8.6-1.7-15-3c0,0-4.7,7.2-13.3,7.9
			c-8.7,0.6-7.9-7.5-7.9-7.5c-1.6,0.3-10.8,3.2-10.8,3.2c-3.9,2.3-5.9,6.7-7.7,13.9c-1,3.9-2.9,7.5-5.4,10.7
			c-7.7,9.5-8.6,23.4,2.4,30c1,0.6,2.5,20.1,2.2,21.2c-11.5,45.5-14.3,105-14.3,105s6.8,4.1,37.1,4.1c27.7,0,45.7-5.1,45.7-5.1
			S549.8,336.3,539.5,298.6z"/>
		<path class="st5" d="M527.4,126.3c-1.3,6.3,3,12.3,9.5,13.5c6.5,1.1,12.8-3.1,14-9.4c1.3-6.3-3-12.3-9.5-13.5
			C534.9,115.8,528.6,120,527.4,126.3z"/>
		<path class="st6" d="M540.9,135.8c-0.4,0-0.9,0-1.3-0.1c-1.9-0.3-3.6-1.4-4.7-3c-1.2-1.6-1.6-3.6-1.2-5.6c0.7-3.6,3.9-6.1,7.5-6.1
			c0.4,0,0.9,0,1.3,0.1c1.9,0.3,3.6,1.4,4.7,3c1.2,1.6,1.6,3.6,1.2,5.6C547.7,133.2,544.5,135.8,540.9,135.8L540.9,135.8z"/>
		<path class="st5" d="M489.5,126.3c1.3,6.3-3,12.3-9.5,13.5c-6.5,1.1-12.8-3.1-14-9.4c-1.3-6.3,3-12.3,9.5-13.5
			C482,115.8,488.2,120,489.5,126.3z"/>
		<path class="st6" d="M476,135.8c-3.6,0-6.8-2.6-7.5-6.1c-0.4-2,0-4,1.2-5.6c1.1-1.6,2.8-2.6,4.7-3c0.4-0.1,0.9-0.1,1.3-0.1
			c3.6,0,6.8,2.6,7.5,6.1c0.4,2,0,4-1.2,5.6c-1.1,1.6-2.8,2.6-4.7,3C476.9,135.8,476.4,135.8,476,135.8z"/>
		<path class="st5" d="M544.1,131.1c0,20.1-19.8,35.4-35.7,35.4c-14.3,0-35.7-15.3-35.7-35.4v-23.9c0-20.1,16-33.5,35.7-33.5
			c19.7,0,35.7,13.4,35.7,33.5V131.1z"/>
		<path class="st7" d="M494.9,127.4c0,3.2-2.1,5.9-4.8,5.9c-2.6,0-4.8-2.6-4.8-5.9c0-3.2,2.1-5.9,4.8-5.9
			C492.7,121.5,494.9,124.1,494.9,127.4z"/>
		<path class="st7" d="M531.6,127.4c0,3.2-2.1,5.9-4.8,5.9c-2.6,0-4.8-2.6-4.8-5.9c0-3.2,2.1-5.9,4.8-5.9
			C529.4,121.5,531.6,124.1,531.6,127.4z"/>
		<path class="st4" d="M533.9,116.6c-1.9-1.9-4.3-2.9-7-2.9c-2.7,0-5.5,1.1-7.3,2.9c-0.4,0.4-0.6,0.8-0.6,1.3c0,0.5,0.2,1,0.6,1.3
			c0.4,0.4,0.8,0.6,1.3,0.6c0,0,0,0,0,0c0.5,0,1-0.2,1.3-0.6c1.1-1.1,2.8-1.8,4.6-1.8c1.1,0,2.8,0.3,4.3,1.8c0.7,0.7,2,0.7,2.7,0
			c0.4-0.4,0.6-0.8,0.6-1.3C534.5,117.4,534.3,116.9,533.9,116.6z"/>
		<path class="st4" d="M489.9,113.7c-2.7,0-5.1,1-7,2.9c-0.7,0.7-0.7,2,0,2.7c0.7,0.7,2,0.7,2.7,0c1.4-1.5,3.1-1.8,4.3-1.8
			c1.7,0,3.5,0.7,4.6,1.8c0.4,0.4,0.8,0.6,1.3,0.6h0c0.5,0,1-0.2,1.3-0.6c0.4-0.4,0.6-0.8,0.6-1.3c0-0.5-0.2-1-0.6-1.4
			C495.4,114.8,492.7,113.7,489.9,113.7z"/>
		<path class="st4" d="M522,93.5c-16.7,16.5-42.1,12.7-48.9,30.2c0,0-3.6-3.7-4.5-12.9c-1.5-14.7,21.6-42.3,39.9-42.3
			c29.8,0,42.7,24.7,39.2,51.6l-3,1.4C544.6,121.5,527.9,110.9,522,93.5z"/>
		<path class="st15" d="M511.5,524.2C511.5,524.3,511.5,524.3,511.5,524.2C511.5,524.3,511.5,524.2,511.5,524.2z"/>
		<path class="st15" d="M511,524.7C511,524.7,511,524.8,511,524.7C511,524.8,511,524.7,511,524.7z"/>
		<path class="st15" d="M511.2,524.5C511.2,524.5,511.2,524.6,511.2,524.5C511.2,524.6,511.2,524.5,511.2,524.5z"/>
		<path class="st0" d="M519.7,148.2c-4.8,11.2-19.9,8-22.5,0.1c-0.2-0.6,0.2-1.2,0.8-1.2l21.1,0
			C519.6,147.1,519.9,147.6,519.7,148.2z"/>
		<path class="st18" d="M510.7,210.1c0,3.7-1.9,6.6,1.3,6.6c2.5,0,5.4-2.6,7-4.4c0.6-0.7,1.4-1.8,1.5-2.8c0.1-1.2-0.7-1.4-1.7-0.7
			c1.1-1.3,2.3-3.2,1.7-5c-0.9-0.1-2,0.9-2.5,1.5c0.3-0.9,1.3-3.1,0.8-4.1c-0.7-1.4-2.4,0.5-2.9,1.3c-0.4,0.5-0.7,1.2-1.4,1.1
			c-0.5-0.1-0.7-0.7-1.1-1c-1.5-0.7-1.5,1.6-1.6,2.4C511.4,206.8,510.7,208.3,510.7,210.1z"/>
		<path class="st19" d="M461.1,235.5c-5.5-14.2-0.4-26-0.4-26s12.2-3.6,24.7-0.6c11,2.6,19.6-1.5,25.5-3.6c2.7-1,4.9,1.3,5.5,3.7
			c0.7,2.7-0.4,5.7-0.4,5.7c-9,11.6-24.6,10.8-24.6,10.8c1.6,2.3,2.4,5.8,2.4,8.9c-0.1,0.1-0.2,0.2-0.2,0.4c-0.2,0.8-0.6,1.5-1,2.2
			c-0.4,0.6,0.5,1.2,1,0.8c0,0.1,0,0.1,0,0.1c10.2-8.1,23.6-0.9,24,11.9c0.3,10.3-7.2,17.5-11.3,20.8c-7.3-4.1-16.8-3.8-24.8-3.8
			c-3,0-3.8,3.8-1.7,5.3c-3.5-0.8,1.5,1-3-1.9C463.4,261.4,465.7,247.1,461.1,235.5z"/>
		<path class="st5" d="M494.3,187.1l-6.3-16.4c-4.1-11.5-17.8-13.7-25.5-12.5c-14.7,2.7-23.1,14.8-20.5,28.9l0.7,4.1
			c0.1,0.3,0.1,0.7,0.2,1c-3.5,2.7-4.1,8-1.2,11.8c2.4,3.2,6.4,4.4,9.7,3.2c5.5,5,12.9,7.5,21,6.1
			C488.1,210.5,499,203.7,494.3,187.1z"/>
		<path class="st20" d="M462.3,157.5c9.4-1.7,17.1,1.5,20.7,5.3c2.8,2.5,4.2,7.4-1.2,10c-1.5,0.7-3.9,1-5.6,0.4
			c0.1,0.4,0.1,0.7,0,1.1c-0.2,1.7-1.3,3.2-2.8,3.8c-3.6,1.6-7.7,1.3-11.4-0.8c-0.2,1.9-1.2,3.5-3,4.5c-1.9,1.1-4.1,1.6-6.4,1.6
			c0,0,0,0,0,0c-9.2,0-10.2-8-10-9.6C444,165.3,452.4,159.3,462.3,157.5z"/>
		<path class="st19" d="M471.9,202c1,3.7,5.8,5.6,10.8,4.3c5-1.3,8.3-5.4,7.3-9c-1-3.7-5.8-5.6-10.8-4.3
			C474.2,194.3,471,198.3,471.9,202z"/>
		<path class="st21" d="M476.6,201c0.5,2.1,3.3,3.2,6.1,2.5c2.8-0.7,4.7-3,4.2-5.2c-0.5-2.1-3.3-3.2-6.1-2.5
			C478,196.6,476.1,198.9,476.6,201z"/>
		<path class="st0" d="M479.9,201.3c-0.5-0.6-0.7-1.4-0.5-2.3c0.5-2.4,3.9-3.5,6.1-3.5c1.5,0,2.6,0.4,3.2,1.2
			c0.5,0.6,0.7,1.5,0.5,2.3c-0.5,2-2.8,3.2-4.8,3.5c-0.3,0-0.6,0.1-0.9,0.1c0,0,0,0,0,0C482.5,202.6,480.8,202.5,479.9,201.3z
			 M485.5,198.3c-1.7,0-3.3,0.9-3.4,1.2c0.1,0.1,0.6,0.3,1.4,0.3l0,0c0.2,0,0.4,0,0.6,0c1.1-0.1,2.2-0.7,2.4-1.3
			C486.3,198.4,486,198.3,485.5,198.3z"/>
		<path class="st21" d="M487.7,249.2C487.8,249.4,487.6,249.1,487.7,249.2c0.4-0.9,0.5-2,0.7-2.9c0.8-3,2.3-6,4.6-8.1
			c0.6-0.5,0.4-0.7,0.6-2c0.2-1.2,0.2-2,0.2-2c-2.4,1.4-5.9,7.5-6.4,11C487.3,246.2,487.1,248.3,487.7,249.2z"/>
		<path class="st11" d="M457.9,202.7c0.7,1.5,2.7,2,4.6,1.1c1.9-0.8,2.9-2.7,2.2-4.2c-0.7-1.5-2.7-2-4.6-1.1
			C458.2,199.4,457.2,201.3,457.9,202.7z"/>
		<path class="st11" d="M488.5,190.7c0.4,1.5,1.8,2.4,3.2,2.1c1.4-0.3,2.2-1.8,1.8-3.3c-0.4-1.5-1.8-2.4-3.2-2.1
			C488.9,187.8,488.1,189.3,488.5,190.7z"/>
		<path class="st12" d="M462.1,196c-1.5,0-2.9-0.4-3.9-0.8c-0.6-0.3-0.9-1-0.7-1.7c0.3-0.6,1-0.9,1.7-0.7l0,0
			c0.2,0.1,5.3,2.2,8.1-2.5c0.4-0.6,1.1-0.8,1.7-0.4c0.6,0.4,0.8,1.1,0.4,1.7C467.5,195.1,464.6,196,462.1,196z"/>
		<path class="st12" d="M484.3,188.6c-1.8,0-3.1-0.8-3.2-0.8c-0.6-0.4-0.8-1.1-0.4-1.7c0.4-0.6,1.1-0.8,1.7-0.4c0,0,1.4,0.8,2.8,0.3
			c1-0.3,1.8-1.2,2.5-2.7c0.3-0.6,1-0.9,1.7-0.7c0.6,0.3,0.9,1,0.7,1.7c-1,2.2-2.3,3.6-4.1,4.1C485.4,188.5,484.8,188.6,484.3,188.6
			z"/>
		<path class="st6" d="M449.7,204.1c0,0-3.8-2.4-4.2-6.4c-0.2-2.3-0.9-2.3-1.4-1.8C442.5,197.3,442.5,204.9,449.7,204.1z"/>
		<path class="st5" d="M552.4,245.1c-0.1-2,0.2-24.5-0.3-38c-0.4-12-5.9-22.3-16.9-26c-9.3,11.3-7.6,28.6-1.9,40.1
			c0,0,0.9,18.7-0.1,29.1c-0.2,2.2-1.6,4-3.6,4.8c-7,2.6-15.1,4.6-24.7,6.5c-0.2,0-0.3,0.1-0.5,0.1c-1.4,0.5-2.9,0.2-4-0.9
			c-2.4-2.6-4.6-5.5-9.5-7c-1.4-0.4-2.9-0.5-4.3-0.7c-0.8-0.1-4.8-0.4-6-0.4c-1.3,0-3.1-0.1-4,0.9c-1.1,1.2,0.4,2.9,1.7,3.3
			c0.8,0.3,9.8,1.2,9.5,3c-0.3,2-4.9,1-6.1,0.8c-1.7-0.3-8.4-1.3-10-1.6c-1.1-0.2-4-1.3-4.8,0.3c-0.7,1.6,1.6,2.3,2.5,3.4
			c0.8,1.1,0.6,2.2,1.1,3c4.8,7.5,10.5,10.1,18.7,11.2c5.1,0.8,22.5,3,53.1-5.2C552.1,269.3,552.6,250.1,552.4,245.1z"/>
		<path class="st5" d="M456.1,225.8c0.3,1.7,0.3,2.7,1.8,3c1.9,0.3,2.8,1.1,2.6-3.1c-0.2-3.1-1.5-4.6-2.9-3.5
			C456.9,222.5,455.7,223.9,456.1,225.8z"/>
		<path class="st5" d="M462,233.9c5.2-3.4-0.4-8.6-4.9-6.1c-1.3,0.7-2.5,4.2-1.2,10.2c0.5,2.5,1.9,9.7,5.1,10.2
			c5.1,0.8,5.8-5,1.8-6.8C467.5,239.4,465.7,233.9,462,233.9z"/>
	</g>
	<g>
		<path class="st4" d="M104.8,67.3L104.8,67.3c-22.6,0-41,18.3-41,41V123h0.1v60.4c0,12.3,10,22.3,22.3,22.3h43.1
			c9.1,0,16.5-7.4,16.5-16.5V123v-13.4v-1.3C145.7,85.7,127.4,67.3,104.8,67.3z"/>
		<path class="st5" d="M137.9,324.8l-1.6,8.6c0,0,8.1,141.7,0.9,182.4l-14.3,19.1l-13.8-4c0,0,3-8.7,4-9.9c2.9-3.7,4.8-5.4,4.8-26.1
			c0-25.2-6.5-87.2-8.8-103.3c-3.4-23.4-0.4-62.2-0.4-62.2l24.4-2.4L137.9,324.8z"/>
		<path class="st14" d="M105.3,531.2c2.4-3.3,3.5-4.5,8.6-11.3c0,0,0,0,0,0c-0.4,1.1-2.6,5.2-2.5,6.6c0.2,2.9,4.5,3.3,8.2,2.4
			c13.8-3.4,18.5-18.5,18.5-18.5c1.5,7.1,1.1,11.5-3.2,16.9c-4.3,5.4-13,12.3-23.7,13C105.5,540.7,100.3,538.1,105.3,531.2z"/>
		<path class="st5" d="M77.2,238.9c-5.3-0.8-19,17.4-15.8,16.9c-4,9.8,0.7-39,5.1-58.3c2.4-10.3,9-13.7,17.4-15.6l7.5-2.4
			C91.4,179.4,79,248.3,77.2,238.9z"/>
		<path class="st5" d="M69.5,236.9c6.5,0,0.6,19.8-4.3,27c-4.9,7.2-13.2,10.1-18.5,6.5c-5.3-3.6-7.3-12.4-2.7-19.7
			C49,242.5,61.9,236.9,69.5,236.9z"/>
		<polygon class="st5" points="94.4,190.9 115.7,190.9 115.7,156.3 94.4,157.4 		"/>
		<path class="st6" d="M94.4,169.3c3.3,1.2,6.5,1.9,9.5,1.9c3.8,0,7.9-0.9,11.9-2.5v-12.3H94.4V169.3z"/>
		<path class="st5" d="M106.1,331.9l-9.8,1.5c0,0,8.1,141.7,0.9,182.4L78,530.3l-12.3-5.7l1.3-0.4c0,0-1.5,1.3,0,0
			c0.9-0.8,1.2-3.4,2.4-4.3c3.5-2.8,8.4-4.4,8.4-25.1c0-25.2-6.5-87.2-8.8-103.3c-3.4-23.4-0.4-62.2-0.4-62.2L93,327L106.1,331.9z"
			/>
		<path class="st15" d="M67,524.2C67,524.3,66.9,524.3,67,524.2C66.9,524.3,67,524.2,67,524.2z"/>
		<path class="st15" d="M66.4,524.7C66.4,524.7,66.4,524.8,66.4,524.7C66.4,524.8,66.4,524.7,66.4,524.7z"/>
		<path class="st15" d="M66.7,524.5C66.6,524.5,66.6,524.6,66.7,524.5C66.6,524.6,66.6,524.5,66.7,524.5z"/>
		<path class="st16" d="M136.9,333.4c0-0.1,0-0.2-0.1-0.3l-4-5.4l0.3,0c0.2,0,0.4-0.2,0.5-0.4c0.1-0.2,0-0.4-0.1-0.6l-9.9-11.5
			c-0.2-0.2-0.6-0.3-0.8-0.1c-0.2,0.2-0.3,0.5-0.1,0.8l8,10.9l-22.1,2.2c-0.3,0-0.5,0.3-0.5,0.5c0,0.4-3,39.1,0.4,62.3
			c2.2,15,8.8,77.7,8.8,103.2c0,2.1-0.1,4.2-0.2,6c0,0.1,0,0.2,0.1,0.3c1.3,2.1,3.9,3.5,7.5,3.8c0.6,0.1,1.1,0.1,1.7,0.1
			c5.1,0,10.5-2,13.1-4.9c0.1-0.1,0.1-0.2,0.1-0.3C143.4,447.4,137,334.5,136.9,333.4z"/>
		<path class="st16" d="M106.3,331.4l-13-4.9c-0.1,0-0.2,0-0.3,0l-24.4,2.4c-0.3,0-0.5,0.3-0.5,0.5c0,0.4-3,39.1,0.4,62.3
			c2.2,15,8.8,77.6,8.8,103.2c0,2.1-0.1,4.2-0.2,6c0,0.1,0,0.2,0.1,0.3c0.5,1,1.6,1.8,3.4,2.2c1.4,0.4,3.1,0.5,4.9,0.5
			c4.8,0,10.5-1.2,13.8-3.7c0.1-0.1,0.2-0.3,0.2-0.4c3.6-50.6-2.2-157.5-2.6-165.9l9.2-1.4c0.3,0,0.5-0.3,0.5-0.5
			C106.7,331.7,106.5,331.5,106.3,331.4z"/>
		<path class="st14" d="M71,518.7c-5.7,4-9.8,7.1-9.8,7.1c-4.2,3.2-4.4,7.6-1.2,8.5c0,0,2.5,1.6,11.4,0.9
			c7.4-0.5,14.3-4.3,24.5-10.4c6.1-3.6,4.1-11.2,2.2-15.2c-0.3-0.5,0,0,0,0c0.2,0.2-7.6,14.6-24.8,15.8c-2,0.1-4.8-0.5-4.6-3.1
			C68.8,520.9,70.2,519.6,71,518.7z"/>
		<path class="st17" d="M137,299.6c-3.4-12.4-8.1-28.7-10.6-37.7c-0.3-1.1-0.6-2.2-0.9-3.2c-2.7-10.5-1.2-21.6,3.8-31.2
			c0.1-0.2,0.2-0.5,0.3-0.7c-0.5-14.7,3.2-29,4-43.8c-2-1.4-2.9-1.9-2.9-1.9s-8.6-1.7-15-3c0,0-4.7,7.2-13.3,7.9
			c-8.7,0.6-7.9-7.5-7.9-7.5c-1.6,0.3-10.8,3.2-10.8,3.2c-3.9,2.3-5.9,6.7-7.7,13.9c-1,3.9-2.9,7.5-5.4,10.7
			c-7.7,9.5-8.6,23.4,2.4,30c1,0.6,0.9,2-0.1,2.5c-11.9,6.1-22.2,19-25.5,34.8c-3.7,17.7,2.9,35.3,12,43.5c1.8,1.6,2.6,4.1,2.3,6.5
			c-3.8,30.7-2.9,38.9-2.9,38.9s8.8,4.1,39.1,4.1c27.7,0,47.7-4.1,47.7-4.1S147.3,337.3,137,299.6z"/>
		<path class="st5" d="M130.7,181.1c-9.3,11.3-7.6,28.6-1.9,40.1c0,0,0.9,18.7-0.1,29.1c-0.2,2.4-1.3,4-3.2,5.4
			c-6.6,4.6-14.6,8.7-24.5,13.3c-5.5,2.5-8.6,17.8,2.2,16.4c11.5-1.5,37-14.3,36.6-14.9c8.9-4.9,8.3-20.4,8-25.5
			c-0.1-2,0.2-24.5-0.3-38C147.1,195.2,141.7,184.8,130.7,181.1z"/>
		<path class="st5" d="M103.4,276.3c-0.5-3.9-2.4-7.3-2.4-7.3c-6.2,0-7.4-5.6-14.8-6c-1.2-0.1-2.6,0.3-3.8,0.4
			c-0.7,0.1-4.1,0.9-5.1,1.2c-1.1,0.4-2.6,0.7-3.1,2c-0.6,1.6,0.6,3.1,2.3,3.1c3.2,0,8.4-1.6,8.8,0.8c0.4,2.2-3.8,3.2-4.9,3.5
			c-1.5,0.4-8.5,2.3-10.7,2.9c-1.4,0.4-2.4,1.7-2.1,3.3c0.2,1.2,1.1,2.1,2.1,2.3l-0.8,0.2c-1.4,0.3-2.4,1.5-2.1,3.1
			c0.3,1.6,1.4,2.3,3.3,2.3c2-0.1,2.5-0.3,2.5-0.3c-0.6,0.7-0.9,1.6-0.7,2.6c0.3,1.5,3.9,3,18.1-0.3c3.3-0.8,10.7-3.5,13.5-4.5
			C103.2,285.5,104.3,283.7,103.4,276.3z"/>
		<path class="st5" d="M63.9,267.4l-0.7-0.4c1,0.1,2.1-0.5,2.7-1.6c0.7-1.4-0.6-3-1.8-3.8c-1.8-1.1-5.2-2.7-8.3-5.6
			c1.2-1.7,4.8,1.5,7.8,2.4c1.6,0.5,3.2-0.6,3.1-2.3c-0.1-1.4-1.5-2.2-2.4-2.9c-0.8-0.6-3.2-2.7-3.8-3c-1.1-0.5-2.3-1.2-3.5-1.5
			c-1.8-0.4-3.2-0.5-4.3-0.2c-2.8,0.7-7.3,2.1-9.5,8.3c-2.3,6.4,0,11.2,4.6,14.7c4.6,3.5,9.1,5,11.2,2.4c1-1.2,0.5-1.9,0.1-2.7
			c0,0-0.2,0,1.6,0.8c1.3,0.6,3.2,0.4,4-1C65.2,269.5,65.1,268.1,63.9,267.4z"/>
		<path class="st5" d="M122.9,126.3c-1.3,6.3,3,12.3,9.5,13.5c6.5,1.1,12.8-3.1,14-9.4c1.3-6.3-3-12.3-9.5-13.5
			C130.4,115.8,124.1,120,122.9,126.3z"/>
		<path class="st6" d="M136.4,135.8c-0.4,0-0.9,0-1.3-0.1c-1.9-0.3-3.6-1.4-4.7-3c-1.2-1.6-1.6-3.6-1.2-5.6c0.7-3.6,3.9-6.1,7.5-6.1
			c0.4,0,0.9,0,1.3,0.1c1.9,0.3,3.6,1.4,4.7,3c1.2,1.6,1.6,3.6,1.2,5.6C143.2,133.2,140,135.8,136.4,135.8L136.4,135.8z"/>
		<path class="st5" d="M85,126.3c1.3,6.3-3,12.3-9.5,13.5c-6.5,1.1-12.8-3.1-14-9.4c-1.3-6.3,3-12.3,9.5-13.5
			C77.4,115.8,83.7,120,85,126.3z"/>
		<path class="st6" d="M71.5,135.8c-3.6,0-6.8-2.6-7.5-6.1c-0.4-2,0-4,1.2-5.6c1.1-1.6,2.8-2.6,4.7-3c0.4-0.1,0.9-0.1,1.3-0.1
			c3.6,0,6.8,2.6,7.5,6.1c0.4,2,0,4-1.2,5.6c-1.1,1.6-2.8,2.6-4.7,3C72.3,135.8,71.9,135.8,71.5,135.8z"/>
		<path class="st5" d="M139.6,131.1c0,20.1-19.8,35.4-35.7,35.4c-14.3,0-35.7-15.3-35.7-35.4v-23.9c0-20.1,16-33.5,35.7-33.5
			c19.7,0,35.7,13.4,35.7,33.5V131.1z"/>
		<path class="st7" d="M90.4,127.4c0,3.2-2.1,5.9-4.8,5.9c-2.6,0-4.8-2.6-4.8-5.9c0-3.2,2.1-5.9,4.8-5.9
			C88.2,121.5,90.4,124.1,90.4,127.4z"/>
		<path class="st7" d="M127.1,127.4c0,3.2-2.1,5.9-4.8,5.9c-2.6,0-4.8-2.6-4.8-5.9c0-3.2,2.1-5.9,4.8-5.9
			C124.9,121.5,127.1,124.1,127.1,127.4z"/>
		<path class="st4" d="M129.4,116.6c-1.9-1.9-4.3-2.9-7-2.9c-2.7,0-5.5,1.1-7.3,2.9c-0.4,0.4-0.6,0.8-0.6,1.3c0,0.5,0.2,1,0.6,1.3
			c0.4,0.4,0.8,0.6,1.3,0.6c0,0,0,0,0,0c0.5,0,1-0.2,1.3-0.6c1.1-1.1,2.8-1.8,4.6-1.8c1.1,0,2.8,0.3,4.3,1.8c0.7,0.7,2,0.7,2.7,0
			c0.4-0.4,0.6-0.8,0.6-1.3C129.9,117.4,129.7,116.9,129.4,116.6z"/>
		<path class="st4" d="M85.4,113.7c-2.7,0-5.1,1-7,2.9c-0.7,0.7-0.7,2,0,2.7c0.7,0.7,2,0.7,2.7,0c1.4-1.5,3.1-1.8,4.3-1.8
			c1.7,0,3.5,0.7,4.6,1.8c0.4,0.4,0.8,0.6,1.3,0.6h0c0.5,0,1-0.2,1.3-0.6c0.4-0.4,0.6-0.8,0.6-1.3c0-0.5-0.2-1-0.6-1.4
			C90.9,114.8,88.1,113.7,85.4,113.7z"/>
		<path class="st4" d="M117.5,93.5c-16.7,16.5-42.1,12.7-48.9,30.2c0,0-3.6-3.7-4.5-12.9c-1.5-14.7,21.6-42.3,39.9-42.3
			c29.8,0,42.7,24.7,39.2,51.6l-3,1.4C140,121.5,123.4,110.9,117.5,93.5z"/>
		<path class="st15" d="M107,524.2C107,524.3,107,524.3,107,524.2C107,524.3,107,524.2,107,524.2z"/>
		<path class="st15" d="M106.5,524.7C106.5,524.7,106.4,524.8,106.5,524.7C106.4,524.8,106.5,524.7,106.5,524.7z"/>
		<path class="st15" d="M106.7,524.5C106.7,524.5,106.6,524.6,106.7,524.5C106.7,524.6,106.7,524.5,106.7,524.5z"/>
		<path class="st8" d="M104.2,154.2c-0.5,0-1,0-1.5-0.1c-4-0.4-7.5-2.3-8.6-4.7c-0.4-0.8,0-1.7,0.8-2.1c0.8-0.4,1.7,0,2.1,0.8
			c0.5,1.1,3,2.6,6.1,2.9c1.6,0.2,5.7,0.2,8.2-3.2c0.5-0.7,1.5-0.9,2.2-0.3c0.7,0.5,0.9,1.5,0.3,2.2
			C111.5,152.6,108.1,154.2,104.2,154.2z"/>
	</g>
</g>
</svg>
