<svg height="488pt" viewBox="0 -70 488.00598 488" width="488pt" xmlns="http://www.w3.org/2000/svg"><path d="m196.050781 269.480469c0-40.78125-35.425781-73.839844-79.121093-73.839844-43.695313 0-79.121094 33.058594-79.121094 73.839844s35.425781 73.839843 79.121094 73.839843c43.695312 0 79.121093-33.058593 79.121093-73.839843zm0 0" fill="#f9a7a7"/><path d="m116.929688 347.320312c-45.832032 0-83.121094-34.917968-83.121094-77.839843s37.289062-77.839844 83.121094-77.839844c45.832031 0 83.121093 34.917969 83.121093 77.839844s-37.289062 77.839843-83.121093 77.839843zm0-147.679687c-41.421876 0-75.121094 31.328125-75.121094 69.839844s33.699218 69.839843 75.121094 69.839843c41.421874 0 75.121093-31.328124 75.121093-69.839843s-33.699219-69.839844-75.121093-69.839844zm0 0" fill="#3762cc"/><path d="m427.914062 118.042969c-9.050781 4.734375-19.835937 6.222656-30.476562 3.375-2.6875-.71875-5.238281-1.6875-7.644531-2.863281l-3.019531 11.261718c-1.238282.074219-2.476563.222656-3.6875.519532l-13.128907 3.242187 2.039063 5.882813c2.308594 6.644531 9.179687 10.550781 16.074218 9.140624l30.117188-6.167968c.898438-.183594 1.691406-.609375 2.375-1.167969.34375.144531.675781.304687.996094.480469l.890625-3.324219.03125-.085937c-.003907 0-.003907 0-.007813 0zm0 0" fill="#f9cfcf"/><path d="m422.480469 138.335938-.03125.085937c-.546875 2.035156-2.195313 3.589844-4.261719 4.011719l-30.117188 6.167968c-6.894531 1.414063-13.765624-2.496093-16.074218-9.140624l-2.039063-5.882813-39.707031 9.800781c-.324219.070313-.640625.152344-.960938.238282l-.738281.183593-.023437.039063c-9.832032 2.832031-17.988282 10.558594-20.828125 21.152344-1.34375 5.003906-1.339844 10.050781-.21875 14.761718h-.003907l3.226563 17.59375 1.742187 6.5.058594.015625c-28.675781-3.441406-56.261718 14.59375-63.953125 43.273438-3.140625 11.699219-5.519531 23.582031-7.164062 35.570312l-.011719-.003906-.335938 1.855469 62.378907 45.003906s9.5625 5.046875 19.367187 6.585938c3.550782.328124 7.0625.265624 10.484375-.15625 20.75-2.566407 38.257813-18.320313 42.109375-39.902344l1.414063-7.941406c.003906-.007813 0 .003906 0 0l3.109375-17.628907c.992187-5.605469 2.429687-11.125 4.308594-16.5 3.988281-11.421875 9.902343-22.078125 17.488281-31.511719 7.234375-8.992187 12.265625-19.546874 15.253906-30.691406l11.316406-42.195312c1.253907-4.664063-1.304687-9.472656-5.789062-11.285156zm0 0" fill="#6bdddd"/><path d="m65.007812 175.097656-53.417968-2.550781c-5.304688-.253906-9.066406 5.148437-7.027344 10.09375l35.820312 24.199219 6.367188 7.410156c.941406 1.09375 2.179688 1.890625 3.5625 2.28125l6.910156 1.957031c1.675782.476563 3.464844.335938 5.046875-.398437 2.710938-1.253906 4.398438-4.039063 4.273438-7.046875l-1.433594-33.6875zm0 0" fill="#f9cfcf"/><path d="m397.4375 121.417969c-22.511719-6.027344-35.871094-29.144531-29.835938-51.632813l7.324219-27.316406c6.03125-22.488281 29.167969-35.835938 51.679688-29.808594 22.507812 6.023438 35.867187 29.140625 29.835937 51.628906l-7.328125 27.316407c-6.03125 22.492187-29.167969 35.835937-51.675781 29.8125zm0 0" fill="#f9cfcf"/><path d="m376.9375 71.089844c-1.847656-.492188-2.941406-2.390625-2.445312-4.234375l1.789062-6.675781c.496094-1.84375 2.390625-2.9375 4.238281-2.445313 1.84375.496094 2.9375 2.390625 2.445313 4.234375l-1.792969 6.679688c-.492187 1.84375-2.386719 2.9375-4.234375 2.441406zm0 0" fill="#3762cc"/><path d="m371.378906 82.898438-8.507812-2.28125c-2.820313-.753907-4.492188-3.648438-3.738282-6.464844.757813-2.820313 3.65625-4.488282 6.476563-3.734375l8.507813 2.277343zm0 0" fill="#f9cfcf"/><path d="m408.34375 126.859375c-3.949219 0-7.953125-.511719-11.945312-1.578125-18.765626-5.023438-32.398438-21.496094-34.042969-40.660156l-.519531-.136719c-2.394532-.640625-4.398438-2.175781-5.636719-4.324219-1.242188-2.144531-1.570313-4.648437-.929688-7.042968 1.113281-4.140626 4.875-6.875 8.96875-6.875h.171875l6.652344-24.804688c6.589844-24.582031 31.96875-39.230469 56.574219-32.636719 11.917969 3.191407 21.878906 10.828125 28.050781 21.503907 6.167969 10.679687 7.804688 23.121093 4.613281 35.027343l-7.324219 27.316407c-5.523437 20.589843-24.238281 34.210937-44.632812 34.210937zm-44.105469-52.621094c-.570312 0-1.089843.375-1.242187.949219-.121094.445312.03125.796875.128906.96875s.332031.480469.78125.601562l3.320312.886719c1.722657.457031 2.929688 2.003907 2.964844 3.789063.320313 16.894531 11.949219 31.75 28.277344 36.121094 20.332031 5.445312 41.332031-6.65625 46.78125-26.980469l7.324219-27.316407c2.640625-9.84375 1.289062-20.125-3.8125-28.953124-5.101563-8.828126-13.339844-15.140626-23.195313-17.78125-20.328125-5.441407-41.328125 6.660156-46.777344 26.984374l-7.328124 27.316407c-.027344.105469-.046876.222656-.070313.339843-.042969.21875-.085937.4375-.136719.65625-.253906 1.046876-.917968 1.949219-1.84375 2.503907-.925781.550781-2.039062.707031-3.078125.429687l-1.757812-.46875c-.113281-.03125-.222657-.046875-.335938-.046875zm0 0" fill="#3762cc"/><path d="m369.601562 315.886719c-.429687 0-.863281-.066407-1.289062-.210938-1.808594-.613281-2.929688-2.417969-2.679688-4.3125 1.027344-7.765625-1.8125-15.675781-7.59375-21.160156-.554687-.523437-.933593-1.183594-1.117187-1.886719-6.820313-6.652344-34.90625-32.222656-94.335937-64.777344-1.117188-.613281-1.875-1.714843-2.042969-2.976562s.273437-2.527344 1.1875-3.410156c12.296875-11.859375 28.574219-18.132813 45.402343-17.691406l-.292968-1.078126c-.027344-.105468-.050782-.210937-.066406-.3125l-3.210938-17.492187c-1.277344-5.445313-1.183594-11.191406.273438-16.621094 3.078124-11.492187 11.707031-20.367187 23.125-23.824219.207031-.09375.417968-.164062.636718-.21875l.738282-.179687c.308593-.082031.675781-.175781 1.046874-.257813l52.742188-13.023437c.480469-.117187.976562-.21875 1.492188-.304687l2.308593-8.628907c.308594-1.152343 1.121094-2.109375 2.207031-2.605469 1.089844-.496093 2.339844-.476562 3.414063.046876 2.230469 1.089843 4.558594 1.960937 6.921875 2.59375 9.28125 2.480468 19.078125 1.398437 27.589844-3.054688 1.40625-.734375 3.113281-.570312 4.355468.425781 1.238282.992188 1.777344 2.625 1.363282 4.15625l-4.644532 17.328125c4.339844 3.269532 6.445313 8.875 5.003907 14.253906l-11.316407 42.195313c-3.277343 12.21875-8.660156 23.039063-16 32.164063-7.324218 9.097656-12.984374 19.296874-16.832031 30.320312-1.796875 5.152344-3.195312 10.492188-4.140625 15.875l-4.53125 25.574219c-1.070312 6.011719-3.175781 11.761719-6.25 17.09375-.734375 1.265625-2.070312 2-3.464844 2zm-4.179687-29.554688c2.527344 2.820313 4.527344 6.03125 5.945313 9.460938.023437-.132813.046874-.269531.074218-.402344l4.523438-25.5625c1.027344-5.804687 2.53125-11.566406 4.472656-17.125 4.144531-11.882813 10.253906-22.886719 18.144531-32.699219 6.640625-8.253906 11.523438-18.085937 14.507813-29.222656l11.316406-42.195312c.710938-2.652344-.761719-5.464844-3.425781-6.542969-1.875-.757813-2.894531-2.792969-2.371094-4.742188l3.347656-12.492187c-8.246093 2.550781-17.078125 2.742187-25.558593.46875-1.324219-.351563-2.636719-.769532-3.933594-1.246094l-1.828125 6.820312c-.445313 1.664063-1.910157 2.855469-3.632813 2.957032-1.140625.066406-2.113281.199218-2.960937.410156l-52.828125 13.039062c-.367188.082032-.636719.152344-.910156.226563l-.328126.082031c-.113281.039063-.226562.082032-.339843.113282-8.925781 2.574218-15.683594 9.433593-18.074219 18.347656-1.121094 4.183594-1.1875 8.609375-.191406 12.796875.019531.066406.03125.132812.042968.207031l3.199219 17.4375 1.601563 5.980469c.257812.667969.335937 1.414062.191406 2.160156-.394531 2.0625-2.296875 3.480469-4.375 3.222656-14.628906-1.75-29.136719 2.390625-40.597656 11.453125 66.601562 37.113282 91.96875 64.125 93.042968 65.285156.46875.507813.789063 1.117188.945313 1.761719zm0 0" fill="#3762cc"/><path d="m398.527344 204.101562 4.605468 119.605469-2.304687 6.394531v8.273438l2.304687 4.945312h64.027344v-6.636718l-30.886718-15.796875v-116.785157zm0 0" fill="#f9cfcf"/><path d="m438.8125 204.101562h-47.433594v-35.492187c0-13.089844 10.613282-23.703125 23.707032-23.703125h.023437c13.089844 0 23.703125 10.613281 23.703125 23.703125zm0 0" fill="#6bdddd"/><g fill="#3762cc"><path d="m467.160156 347.320312h-64.027344c-1.554687 0-2.96875-.902343-3.628906-2.308593l-2.300781-4.949219c-.246094-.527344-.375-1.105469-.375-1.6875v-8.273438c0-.460937.082031-.921874.238281-1.355468l2.039063-5.664063-4.574219-118.828125c-.042969-1.085937.359375-2.144531 1.113281-2.925781.753907-.785156 1.796875-1.226563 2.882813-1.226563h37.746094c2.207031 0 4 1.792969 4 4v114.335938l28.710937 14.683594c1.335937.6875 2.175781 2.058594 2.175781 3.5625v6.636718c0 2.210938-1.789062 4-4 4zm-61.476562-8h57.476562v-.1875l-28.707031-14.6875c-1.335937-.683593-2.179687-2.054687-2.179687-3.558593v-112.785157h-29.589844l4.445312 115.453126c.023438.511718-.058594 1.023437-.230468 1.507812l-2.066407 5.738281v6.691407zm0 0"/><path d="m438.8125 208.101562h-47.433594c-2.210937 0-4-1.789062-4-4v-35.488281c0-15.277343 12.429688-27.707031 27.707032-27.707031 15.296874 0 27.726562 12.429688 27.726562 27.707031v35.488281c0 2.210938-1.789062 4-4 4zm-43.433594-8h39.433594v-31.488281c0-10.867187-8.839844-19.707031-19.707031-19.707031-10.886719 0-19.726563 8.839844-19.726563 19.707031zm0 0"/><path d="m59.203125 222.765625c-1.035156 0-2.070313-.140625-3.078125-.429687l-6.902344-1.957032c-2.148437-.609375-4.050781-1.824218-5.503906-3.519531l-6.019531-7.007813-35.378907-23.894531c-.652343-.441406-1.160156-1.0625-1.457031-1.792969-1.488281-3.609374-1.035156-7.667968 1.210938-10.855468 2.230469-3.164063 5.859375-4.941406 9.707031-4.757813l53.421875 2.550781c2.066406.097657 3.714844 1.757813 3.804687 3.824219l1.53125 35.949219c.195313 4.644531-2.390624 8.902344-6.589843 10.847656-1.5.691406-3.121094 1.042969-4.746094 1.042969zm-51.191406-42.621094 34.609375 23.378907c.292968.203124.5625.4375.792968.710937l6.371094 7.410156c.429688.5.988282.859375 1.617188 1.039063l6.90625 1.960937c.757812.207031 1.566406.144531 2.28125-.183593 1.246094-.574219 2.011718-1.851563 1.953125-3.242188l-1.375-32.296875-49.769531-2.378906c-1.609376-.109375-2.476563.9375-2.785157 1.375-.246093.347656-.707031 1.160156-.601562 2.226562zm0 0"/></g><path d="m451.964844 14.675781-18.832032-5.039062c-1.878906-.503907-3.851562.769531-4.410156 2.84375l-.464844 1.722656c.773438-2.871094-.933593-5.820313-3.808593-6.59375l-8.605469-2.300781c-20.324219-5.445313-41.214844 6.609375-46.660156 26.914062l-2.109375 7.863282c-.503907 1.878906.613281 3.808593 2.492187 4.3125l43.804688 11.726562c1.878906.503906 2.996094 2.433594 2.492187 4.3125l-2.136719 7.953125c.03125 0 .066407 0 .097657-.003906l-8.125 30.296875c-.027344-.015625-.054688-.03125-.082031-.050782l-7.433594 27.71875c-.710938 2.644532.65625 5.308594 3.054687 5.953126l28.953125 7.75c17.574219 4.703124 36.03125-7.207032 41.234375-26.601563l10.71875-39.972656c7.011719-26.136719-6.5-52.464844-30.179687-58.804688zm0 0" fill="#4671c6"/><path d="m421.03125 73.335938-13.617188-3.644532 16.417969-61.207031c.503907-1.878906 2.4375-2.992187 4.316407-2.492187l6.808593 1.824218c1.878907.503906 2.996094 2.433594 2.492188 4.308594zm0 0" fill="#6bdddd"/><path d="m437.949219 145.074219c-2.917969 0-5.867188-.375-8.792969-1.15625l-28.953125-7.753907c-2.230469-.59375-4.132813-2.148437-5.214844-4.257812-1.03125-2.011719-1.269531-4.351562-.667969-6.589844l7.433594-27.71875c.074219-.277344.179688-.542968.304688-.792968l6.109375-22.773438-1.789063-.476562c-1.023437-.273438-1.898437-.945313-2.429687-1.863282-.53125-.921875-.671875-2.011718-.398438-3.039062l2.757813-10.277344-37.777344-10.113281c-1.945312-.519531-3.5625-1.765625-4.566406-3.503907-1.007813-1.742187-1.273438-3.769531-.753906-5.707031l2.109374-7.863281c6.007813-22.40625 29.140626-35.753906 51.558594-29.746094l6.222656 1.664063c1.75-1.160157 3.945313-1.550781 6.074219-.980469l6.808594 1.824219c1.996094.535156 3.621094 1.824219 4.589844 3.539062l12.421875 3.324219c12.558594 3.359375 22.902344 11.886719 29.125 24.015625 6.15625 11.992187 7.535156 26.085937 3.886718 39.6875l-10.71875 39.972656c-4.90625 18.296875-20.636718 30.585938-37.339843 30.585938zm-28.695313-44.558594-7.207031 26.875c-.121094.445313 0 .75.058594.863281.039062.078125.105469.167969.164062.183594l28.957031 7.753906c15.410157 4.128906 31.714844-6.539062 36.335938-23.773437l10.71875-39.96875c3.132812-11.683594 1.96875-23.746094-3.277344-33.964844-5.179687-10.089844-13.726562-17.171875-24.078125-19.945313h.003907l-14.429688-3.859374c-1.480469-.394532-2.59375-1.597657-2.890625-3.082032l-6.15625-1.648437c-.972656 1.304687-2.660156 1.894531-4.242187 1.472656l-8.398438-2.25c-18.164062-4.851563-36.898438 5.941406-41.765625 24.089844l-1.984375 7.398437 41.179688 11.027344c1.027343.273438 1.898437.945312 2.429687 1.863281.53125.921875.675781 2.011719.398437 3.039063l-2.753906 10.277344 1.789063.476562c1.023437.273438 1.894531.945312 2.429687 1.863281.527344.921875.671875 2.015625.398438 3.039063l-7.375 27.480468c-.074219.273438-.175782.539063-.304688.789063zm0 0" fill="#3762cc"/><path d="m426.484375 81.492188c0-8.242188-6.6875-14.925782-14.9375-14.925782s-14.9375 6.683594-14.9375 14.925782c0 8.242187 6.6875 14.925781 14.9375 14.925781s14.9375-6.683594 14.9375-14.925781zm0 0" fill="#f9cfcf"/><path d="m360.792969 287.304688.746093-.019532s-28.929687-31.296875-107.078124-72.675781l-50.371094-29.582031c-9.507813-5.582032-20.214844-8.859375-31.226563-9.453125-.980469-.050781-1.875-.085938-2.667969-.105469l-105.585937-.492188 1.742187 38.757813 95.648438 8.113281c5.582031.472656 10.804688 2.957032 14.695312 6.988282l33.742188 35.003906 8.046875 6.542968 15.734375 12.785157 9.46875 7.695312 53.246094 43.277344 2.433594 1.652344c21.023437 14.269531 50.089843 9.457031 64.925781-10.746094 8.734375-11.886719 6.9375-27.847656-3.5-37.742187zm0 0" fill="#e0ebfc"/><path d="m326.164062 347.96875c-10.0625 0-20.214843-2.875-29.042968-8.867188l-2.433594-1.652343c-.097656-.0625-.1875-.132813-.277344-.207031l-86.496094-70.300782c-.125-.101562-.246093-.210937-.355468-.328125l-33.742188-35c-3.214844-3.335937-7.53125-5.386719-12.152344-5.78125l-95.648437-8.113281c-2.003906-.167969-3.570313-1.796875-3.660156-3.804688l-1.738281-38.761718c-.050782-1.09375.351562-2.160156 1.109374-2.953125.757813-.789063 1.851563-1.234375 2.90625-1.226563l105.582032.492188c.917968.023437 1.847656.058594 2.867187.117187 11.535157.621094 22.957031 4.078125 33.035157 9.996094l50.371093 29.582031c77.707031 41.140625 106.792969 72.113282 107.988281 73.410156.46875.503907.789063 1.109376.945313 1.75 10.417969 11.539063 11.414063 28.414063 2.105469 41.09375-9.839844 13.394532-25.488282 20.554688-41.363282 20.554688zm-26.839843-17.039062 2.292969 1.554687c19.234374 13.054687 45.902343 8.652344 59.457031-9.804687 7.421875-10.109376 6.148437-23.769532-3.035157-32.476563-.554687-.523437-.933593-1.183594-1.121093-1.890625-7.183594-7.011719-38.003907-35.046875-104.328125-70.167969l-50.527344-29.667969c-8.980469-5.273437-19.152344-8.355468-29.414062-8.90625-.941407-.050781-1.800782-.082031-2.5625-.105468l-101.289063-.472656 1.394531 31.050781 92.148438 7.816406c6.554687.554687 12.675781 3.46875 17.238281 8.199219l33.574219 34.828125zm0 0" fill="#3762cc"/></svg>